<svg version="1.1" xmlns="http://www.w3.org/2000/svg" style="display: block;" viewBox="0 0 2048 2048" width="1024" height="1024" preserveAspectRatio="none"><defs><linearGradient id="Gradient1" gradientUnits="userSpaceOnUse" x1="336.746" y1="1325.51" x2="388.843" y2="1210.4"><stop class="stop0" offset="0" stop-opacity="1" stop-color="rgb(226,97,0)"/><stop class="stop1" offset="1" stop-opacity="1" stop-color="rgb(255,172,20)"/></linearGradient><linearGradient id="Gradient2" gradientUnits="userSpaceOnUse" x1="1571.84" y1="781.836" x2="1573.22" y2="729.873"><stop class="stop0" offset="0" stop-opacity="1" stop-color="rgb(17,66,137)"/><stop class="stop1" offset="1" stop-opacity="1" stop-color="rgb(51,117,193)"/></linearGradient><linearGradient id="Gradient3" gradientUnits="userSpaceOnUse" x1="1724.68" y1="591.835" x2="1577.77" y2="636.333"><stop class="stop0" offset="0" stop-opacity="1" stop-color="rgb(39,135,212)"/><stop class="stop1" offset="1" stop-opacity="1" stop-color="rgb(93,190,240)"/></linearGradient><linearGradient id="Gradient4" gradientUnits="userSpaceOnUse" x1="1690.23" y1="734.219" x2="1629.58" y2="636.097"><stop class="stop0" offset="0" stop-opacity="1" stop-color="rgb(12,64,142)"/><stop class="stop1" offset="1" stop-opacity="1" stop-color="rgb(33,130,207)"/></linearGradient><linearGradient id="Gradient5" gradientUnits="userSpaceOnUse" x1="1552.45" y1="997.996" x2="1552.55" y2="887.004"><stop class="stop0" offset="0" stop-opacity="1" stop-color="rgb(0,127,34)"/><stop class="stop1" offset="1" stop-opacity="1" stop-color="rgb(92,218,101)"/></linearGradient><linearGradient id="Gradient6" gradientUnits="userSpaceOnUse" x1="1667.78" y1="958.416" x2="1613.63" y2="849.394"><stop class="stop0" offset="0" stop-opacity="1" stop-color="rgb(8,132,41)"/><stop class="stop1" offset="1" stop-opacity="1" stop-color="rgb(44,182,63)"/></linearGradient><linearGradient id="Gradient7" gradientUnits="userSpaceOnUse" x1="1018.3" y1="2047.03" x2="1028.68" y2="-0.00968409"><stop class="stop0" offset="0" stop-opacity="1" stop-color="rgb(17,22,31)"/><stop class="stop1" offset="1" stop-opacity="1" stop-color="rgb(47,55,66)"/></linearGradient></defs><path transform="translate(0,0)" fill="url(#Gradient7)" d="M 0 0 L 445.166 0 L 1602.72 0 L 2048 0 L 2048 437.133 L 2048 1601.83 L 2048 2048 L 1612.63 2048 L 435.421 2048 L 0 2048 L 0 1599.92 L 0 444.421 L 0 0 z"/><path transform="translate(0,0)" fill="rgb(249,248,248)" d="M 0 1599.92 L 0.154445 1600.9 C 2.05497 1613.43 2.42053 1628.24 3.90335 1641.1 C 5.81536 1657.68 8.36589 1673.69 11.8883 1690.03 C 35.8941 1797.29 97.9454 1892.22 186.557 1957.25 C 242.273 1998.4 306.547 2026.46 374.601 2039.34 C 387.102 2041.73 399.687 2043.65 412.33 2045.1 C 418.534 2045.85 429.984 2046.79 435.421 2048 L 0 2048 L 0 1599.92 z"/><path transform="translate(0,0)" fill="rgb(249,248,248)" d="M 2048 1601.83 L 2048 2048 L 1612.63 2048 C 1628.63 2044.57 1653.25 2043.34 1672.19 2039.75 C 1740.6 2027.04 1805.27 1999.03 1861.34 1957.83 C 1950.41 1891.5 2012.68 1795.37 2036.79 1686.97 C 2039.83 1673.03 2042.33 1658.79 2044.02 1644.62 C 2045.67 1630.76 2045.97 1615.47 2048 1601.83 z"/><path transform="translate(0,0)" fill="rgb(249,248,248)" d="M 0 0 L 445.166 0 C 431.019 1.9742 416.595 2.5121 402.577 4.37726 C 385.822 6.6066 367.778 10.1014 351.298 13.9318 C 247.126 38.883 154.971 99.5043 90.812 185.284 C 47.2863 243.528 18.3511 311.354 6.42982 383.081 C 4.40551 395.849 2.92759 408.698 2.0001 421.593 C 1.55075 427.106 0.946565 439.436 0 444.421 L 0 0 z"/><path transform="translate(0,0)" fill="rgb(249,248,248)" d="M 1602.72 0 L 2048 0 L 2048 437.133 C 2044.79 422.028 2043.99 397.758 2040.5 378.95 C 2027.91 308.441 1999.1 241.824 1956.35 184.359 C 1889.6 94.9456 1792.44 33.0517 1683.19 10.355 C 1651.58 3.68317 1632.58 4.47672 1603.87 0.180152 L 1602.72 0 z"/><path transform="translate(0,0)" fill="rgb(77,83,90)" d="M 511.883 810.583 C 512.003 807.03 511.994 803.948 514.421 801.038 C 518.533 796.109 610.361 751.143 622.716 744.821 L 1039.9 532.375 C 1075.86 513.822 1111.96 495.532 1148.18 477.507 C 1166.09 468.45 1185.91 454.533 1205.97 452.805 C 1225.74 451.101 1245.61 463.93 1263.19 472.486 L 1322.86 501.337 C 1383.78 530.366 1444.54 559.737 1505.13 589.448 C 1526.51 599.848 1556.04 612.531 1575.86 625.345 C 1578.46 627.027 1578.06 632.31 1578.1 635.562 L 1578.04 643.912 L 1577.14 645.406 C 1569.46 651.651 1566.47 657.42 1564.61 667.132 C 1564.56 672.156 1564.53 676.736 1564.74 681.781 C 1523.82 702.555 1481.2 724.705 1440.09 744.799 C 1449.21 752.701 1515.12 781.813 1530.75 789.508 C 1540.77 793.98 1576.8 807.852 1582.96 817.05 C 1583.33 817.603 1583.28 821.787 1583.25 822.901 C 1583.35 830.397 1583.56 836.957 1584.08 844.429 C 1617.35 828.836 1657.7 807.02 1690.4 789.908 L 1709.29 798.955 L 1712.07 800.069 C 1718.49 803.315 1719.58 809.003 1719.35 815.887 C 1718.23 849.106 1719.37 882.157 1718.87 915.383 C 1718.72 925.376 1713.9 935.308 1705.15 940.84 C 1683.93 952.595 1661.78 963.296 1640.07 974.296 L 1597.86 995.707 C 1590.5 999.477 1580.47 1005.21 1573.04 1008.15 C 1580.1 1011.37 1587.83 1013.7 1591.68 1020.18 C 1592.16 1023.41 1592.36 1023.27 1590.92 1026.14 C 1583.7 1035.57 1563.44 1042.73 1551.92 1048.43 L 1472.12 1088.01 L 1203.54 1220.94 L 1003.54 1320.71 C 982.283 1331.32 904.965 1372.86 888.294 1375.12 C 879.887 1376.27 870.167 1376.85 862.116 1373.84 C 850.814 1369.61 839.778 1363.72 828.913 1358.47 L 773.667 1331.77 L 586.784 1241.05 L 499.267 1198.71 C 486.868 1192.82 474.366 1187 462.028 1180.99 C 457.59 1178.82 453.23 1177.26 451.87 1172.05 C 451.513 1170.35 451.093 1169.75 451.798 1168.04 C 455.273 1159.64 505.025 1137.77 515.727 1132.36 C 527.255 1126.71 602.964 1089.72 608.159 1084.58 C 594.84 1078.62 500.332 1034.7 493.634 1027.82 C 487.934 1021.96 490.97 996.856 491.207 988.66 C 489.832 979.031 495.501 976.152 503.596 972.106 C 514.652 966.581 525.844 961.257 536.939 955.795 C 566.035 940.48 603.332 923.878 630.992 907.539 C 613.54 898.708 521.68 856.621 514.789 849.074 C 509.146 842.895 511.918 819.47 511.883 810.583 z"/><path transform="translate(0,0)" fill="rgb(249,248,248)" d="M 511.883 810.583 C 512.003 807.03 511.994 803.948 514.421 801.038 C 518.533 796.109 610.361 751.143 622.716 744.821 L 1039.9 532.375 C 1075.86 513.822 1111.96 495.532 1148.18 477.507 C 1166.09 468.45 1185.91 454.533 1205.97 452.805 C 1225.74 451.101 1245.61 463.93 1263.19 472.486 L 1322.86 501.337 C 1383.78 530.366 1444.54 559.737 1505.13 589.448 C 1526.51 599.848 1556.04 612.531 1575.86 625.345 C 1578.46 627.027 1578.06 632.31 1578.1 635.562 L 1578.04 643.912 L 1577.14 645.406 C 1569.46 651.651 1566.47 657.42 1564.61 667.132 C 1564.56 672.156 1564.53 676.736 1564.74 681.781 C 1523.82 702.555 1481.2 724.705 1440.09 744.799 L 1052.94 939.002 L 944.293 993.504 C 933.35 998.961 920.336 1004.91 909.829 1010.87 C 876.894 1029.53 857.977 1017.61 827.146 1002.66 L 776.075 977.866 C 728.834 954.975 677.473 931.304 630.992 907.539 C 613.54 898.708 521.68 856.621 514.789 849.074 C 509.146 842.895 511.918 819.47 511.883 810.583 z"/><path transform="translate(0,0)" fill="rgb(188,189,191)" d="M 1578.1 635.562 L 1578.04 643.912 L 1577.14 645.406 C 1569.46 651.651 1566.47 657.42 1564.61 667.132 C 1564.56 672.156 1564.53 676.736 1564.74 681.781 C 1523.82 702.555 1481.2 724.705 1440.09 744.799 L 1052.94 939.002 L 944.293 993.504 C 933.35 998.961 920.336 1004.91 909.829 1010.87 C 876.894 1029.53 857.977 1017.61 827.146 1002.66 L 776.075 977.866 C 728.834 954.975 677.473 931.304 630.992 907.539 C 613.54 898.708 521.68 856.621 514.789 849.074 C 509.146 842.895 511.918 819.47 511.883 810.583 C 523.174 820.229 557.034 834.763 572.343 842.006 L 633.728 871.625 L 694.208 901.169 C 703.686 905.824 716.463 912.64 725.765 916.456 C 749.256 927.963 785.688 947.186 808.868 956.654 C 813.222 960.081 853.109 978.824 859.235 980.772 C 864.427 982.413 869.819 983.332 875.26 983.503 C 884.84 983.841 891.658 982.829 900.239 978.661 C 919.866 969.125 939.43 959.17 958.896 949.318 L 1070.17 892.928 L 1404.53 724.843 L 1511.61 671.195 C 1525.81 664.097 1568.54 644.455 1578.1 635.562 z"/><path transform="translate(0,0)" fill="rgb(77,83,90)" d="M 608.159 1084.58 C 689.989 1122.69 770.59 1164.95 852.31 1203.38 C 882.39 1217.53 905.001 1201.09 931.329 1188.1 L 1019.28 1144.44 L 1298.74 1005.01 C 1328.24 990.11 1357.82 975.381 1387.48 960.825 C 1399.76 954.77 1416.4 945.886 1428.72 940.762 L 1429.71 940.357 L 1490.19 969.293 C 1497.54 972.813 1511.88 979.163 1518.52 983.061 C 1524.49 985.659 1542.85 994.551 1547.89 996.116 C 1551.42 998.064 1558.53 1002.27 1561.98 1003.55 L 1563.85 1004.11 C 1567.75 1006.92 1568.34 1007.1 1573.04 1008.15 C 1580.1 1011.37 1587.83 1013.7 1591.68 1020.18 C 1592.16 1023.41 1592.36 1023.27 1590.92 1026.14 C 1583.7 1035.57 1563.44 1042.73 1551.92 1048.43 L 1472.12 1088.01 L 1203.54 1220.94 L 1003.54 1320.71 C 982.283 1331.32 904.965 1372.86 888.294 1375.12 C 879.887 1376.27 870.167 1376.85 862.116 1373.84 C 850.814 1369.61 839.778 1363.72 828.913 1358.47 L 773.667 1331.77 L 586.784 1241.05 L 499.267 1198.71 C 486.868 1192.82 474.366 1187 462.028 1180.99 C 457.59 1178.82 453.23 1177.26 451.87 1172.05 C 451.513 1170.35 451.093 1169.75 451.798 1168.04 C 455.273 1159.64 505.025 1137.77 515.727 1132.36 C 527.255 1126.71 602.964 1089.72 608.159 1084.58 z"/><path transform="translate(0,0)" fill="rgb(55,59,64)" d="M 608.159 1084.58 C 689.989 1122.69 770.59 1164.95 852.31 1203.38 C 882.39 1217.53 905.001 1201.09 931.329 1188.1 L 1019.28 1144.44 L 1298.74 1005.01 C 1328.24 990.11 1357.82 975.381 1387.48 960.825 C 1399.76 954.77 1416.4 945.886 1428.72 940.762 L 1429.71 940.357 L 1490.19 969.293 C 1497.54 972.813 1511.88 979.163 1518.52 983.061 C 1503.3 993.421 1463.37 1011.54 1444.82 1020.97 L 1253.34 1116.37 L 1025.75 1229.75 L 937.599 1274.03 C 923.743 1280.95 895.882 1296.42 882.079 1298.83 C 856.569 1303.28 808.851 1274 786.032 1262.9 L 643.546 1193.99 L 567.617 1157.53 C 552.153 1150.26 530.074 1140.69 515.727 1132.36 C 527.255 1126.71 602.964 1089.72 608.159 1084.58 z"/><path transform="translate(0,0)" fill="rgb(121,123,125)" d="M 451.87 1172.05 C 453.503 1171.55 471.855 1181.29 474.882 1182.72 L 550.042 1218.94 L 795.51 1337.97 C 812.423 1346.13 829.728 1354.89 846.204 1363.11 C 865.442 1372.69 882.417 1377.21 902.763 1366.98 C 929.919 1353.34 957.7 1339.28 984.857 1325.58 L 1103.01 1267.05 L 1491.6 1074.8 C 1504.51 1068.43 1586.13 1026.62 1590.92 1026.14 C 1583.7 1035.57 1563.44 1042.73 1551.92 1048.43 L 1472.12 1088.01 L 1203.54 1220.94 L 1003.54 1320.71 C 982.283 1331.32 904.965 1372.86 888.294 1375.12 C 879.887 1376.27 870.167 1376.85 862.116 1373.84 C 850.814 1369.61 839.778 1363.72 828.913 1358.47 L 773.667 1331.77 L 586.784 1241.05 L 499.267 1198.71 C 486.868 1192.82 474.366 1187 462.028 1180.99 C 457.59 1178.82 453.23 1177.26 451.87 1172.05 z"/><path transform="translate(0,0)" fill="rgb(121,123,125)" d="M 630.992 907.539 C 677.473 931.304 728.834 954.975 776.075 977.866 L 827.146 1002.66 C 857.977 1017.61 876.894 1029.53 909.829 1010.87 C 920.336 1004.91 933.35 998.961 944.293 993.504 L 1052.94 939.002 L 1440.09 744.799 C 1449.21 752.701 1515.12 781.813 1530.75 789.508 C 1494.25 810.687 1444.54 834.163 1406.02 853.447 L 1187.62 963.037 L 993.779 1060.75 L 932.685 1091.93 C 879.441 1119.16 879.84 1122.38 825.343 1095.74 L 779.906 1073.65 L 621.135 996.56 C 596.331 984.457 561.367 966.133 536.939 955.795 C 566.035 940.48 603.332 923.878 630.992 907.539 z"/><path transform="translate(0,0)" fill="rgb(151,153,154)" d="M 1530.75 789.508 C 1540.77 793.98 1576.8 807.852 1582.96 817.05 C 1583.33 817.603 1583.28 821.787 1583.25 822.901 C 1572.47 832.956 1507.45 863.464 1491.04 871.726 L 1262.43 985.934 L 1203.12 1015.41 C 1197.34 1018.3 1179.55 1027.75 1174.53 1029.64 C 1173.45 1029.06 1171.39 1027.9 1170.17 1028.42 C 1152.86 1035.84 1135.61 1045.04 1118.77 1053.47 L 960.49 1132.69 L 917.868 1154.15 C 911.543 1157.35 905.246 1160.57 898.847 1163.62 C 871.091 1176.87 844.135 1157.91 819.535 1145.78 L 741.981 1107.89 L 580.032 1029.5 C 551.512 1015.7 521.739 1001.97 493.659 987.547 L 491.82 988.731 L 491.207 988.66 C 489.832 979.031 495.501 976.152 503.596 972.106 C 514.652 966.581 525.844 961.257 536.939 955.795 C 561.367 966.133 596.331 984.457 621.135 996.56 L 779.906 1073.65 L 825.343 1095.74 C 879.84 1122.38 879.441 1119.16 932.685 1091.93 L 993.779 1060.75 L 1187.62 963.037 L 1406.02 853.447 C 1444.54 834.163 1494.25 810.687 1530.75 789.508 z"/><path transform="translate(0,0)" fill="url(#Gradient6)" d="M 1690.4 789.908 L 1709.29 798.955 L 1712.07 800.069 C 1718.49 803.315 1719.58 809.003 1719.35 815.887 C 1718.23 849.106 1719.37 882.157 1718.87 915.383 C 1718.72 925.376 1713.9 935.308 1705.15 940.84 C 1683.93 952.595 1661.78 963.296 1640.07 974.296 L 1597.86 995.707 C 1590.5 999.477 1580.47 1005.21 1573.04 1008.15 C 1568.34 1007.1 1567.75 1006.92 1563.85 1004.11 L 1561.98 1003.55 C 1558.53 1002.27 1551.42 998.064 1547.89 996.116 C 1541.78 989.432 1544.16 955.765 1544.34 945.053 C 1544.63 924.509 1544.81 903.965 1544.88 883.419 L 1545 882.415 C 1545.09 879.684 1545.51 876.974 1546.25 874.343 C 1548.9 865.103 1552.32 861.35 1560.32 856.684 C 1568.4 852.711 1576.27 848.94 1584.08 844.429 C 1617.35 828.836 1657.7 807.02 1690.4 789.908 z"/><path transform="translate(0,0)" fill="rgb(90,217,100)" d="M 1690.4 789.908 L 1709.29 798.955 C 1702.55 800.821 1662.65 821.499 1654.83 825.821 C 1631.48 838.73 1599.43 852.373 1577.17 865.47 C 1569.25 866.199 1563.13 864.841 1560.32 856.684 C 1568.4 852.711 1576.27 848.94 1584.08 844.429 C 1617.35 828.836 1657.7 807.02 1690.4 789.908 z"/><path transform="translate(0,0)" fill="url(#Gradient5)" d="M 1545 882.415 C 1550.24 883.731 1558.2 886.888 1561.14 891.653 C 1562.44 898.594 1561.41 906.57 1563.92 911.232 C 1565.79 936.585 1563.48 977.392 1563.85 1004.11 L 1561.98 1003.55 C 1558.53 1002.27 1551.42 998.064 1547.89 996.116 C 1541.78 989.432 1544.16 955.765 1544.34 945.053 C 1544.63 924.509 1544.81 903.965 1544.88 883.419 L 1545 882.415 z"/><path transform="translate(0,0)" fill="rgb(90,217,100)" d="M 1561.14 891.653 C 1562.44 898.594 1561.41 906.57 1563.92 911.232 C 1565.79 936.585 1563.48 977.392 1563.85 1004.11 L 1561.98 1003.55 C 1560.28 989.879 1560.97 963.404 1561 948.679 C 1561.04 931.251 1560.18 908.674 1561.14 891.653 z"/><path transform="translate(0,0)" fill="rgb(160,243,161)" d="M 1560.32 856.684 C 1563.13 864.841 1569.25 866.199 1577.17 865.47 L 1579.8 867.526 C 1561.62 879.237 1564 891.937 1563.92 911.232 C 1561.41 906.57 1562.44 898.594 1561.14 891.653 C 1558.2 886.888 1550.24 883.731 1545 882.415 C 1545.09 879.684 1545.51 876.974 1546.25 874.343 C 1548.9 865.103 1552.32 861.35 1560.32 856.684 z"/><path transform="translate(0,0)" fill="rgb(160,243,161)" d="M 1709.29 798.955 L 1712.07 800.069 C 1698.84 805.536 1684.2 813.578 1671.34 820.222 L 1610.38 851.685 C 1604.72 854.612 1584.44 865.712 1579.8 867.526 L 1577.17 865.47 C 1599.43 852.373 1631.48 838.73 1654.83 825.821 C 1662.65 821.499 1702.55 800.821 1709.29 798.955 z"/><path transform="translate(0,0)" fill="rgb(249,248,248)" d="M 1681.07 847.992 C 1682.69 849.341 1702.19 903.878 1704.37 909.623 C 1700.24 911.39 1695.67 913.802 1691.61 915.829 L 1687.07 901.925 C 1681.82 904.365 1668.03 909.954 1665.04 914.214 L 1662.48 930.52 L 1648.38 937.341 C 1654.97 918.293 1664.06 875.643 1669.68 853.973 L 1681.07 847.992 z"/><path transform="translate(0,0)" fill="rgb(27,155,51)" d="M 1675.37 867.698 C 1678.32 870.539 1682.58 886.487 1684.09 891.433 C 1681.16 893.156 1677.33 894.98 1674.24 896.559 L 1670.49 898.065 C 1668.36 893.561 1673.91 874.103 1675.37 867.698 z"/><path transform="translate(0,0)" fill="rgb(249,248,248)" d="M 1649.34 863.892 C 1649.85 864.256 1650.35 864.621 1650.86 864.985 L 1651.98 875.13 L 1626 888.051 L 1626.17 906.588 C 1632.68 903.723 1641.04 899.14 1647.52 895.826 L 1649.16 907.326 L 1626.32 918.748 L 1626.66 927.378 C 1626.68 934.585 1626.74 941.793 1626.84 948.999 L 1614.86 954.988 L 1614.85 882.047 C 1626.71 876.465 1637.87 870.195 1649.34 863.892 z"/><path transform="translate(0,0)" fill="rgb(249,248,248)" d="M 1601.02 889.156 C 1602.56 891.056 1602.02 952.11 1602.24 961.127 L 1591.1 966.94 C 1589.69 965.266 1590.09 901.874 1590.04 894.094 L 1601.02 889.156 z"/><path transform="translate(0,0)" fill="rgb(31,38,47)" d="M 1429.71 940.357 C 1452.21 928.754 1475.42 917.468 1498.04 906.06 C 1507.72 901.184 1535.99 885.963 1544.88 883.419 C 1544.81 903.965 1544.63 924.509 1544.34 945.053 C 1544.16 955.765 1541.78 989.432 1547.89 996.116 C 1542.85 994.551 1524.49 985.659 1518.52 983.061 C 1511.88 979.163 1497.54 972.813 1490.19 969.293 L 1429.71 940.357 z"/><path transform="translate(0,0)" fill="rgb(188,189,191)" d="M 491.82 988.731 L 493.659 987.547 C 521.739 1001.97 551.512 1015.7 580.032 1029.5 L 741.981 1107.89 L 819.535 1145.78 C 844.135 1157.91 871.091 1176.87 898.847 1163.62 C 905.246 1160.57 911.543 1157.35 917.868 1154.15 L 960.49 1132.69 L 1118.77 1053.47 C 1135.61 1045.04 1152.86 1035.84 1170.17 1028.42 C 1171.39 1027.9 1173.45 1029.06 1174.53 1029.64 C 1109.77 1060.48 1042.37 1095.63 977.842 1127.92 L 927.4 1153.32 C 900.505 1166.87 880.786 1179.74 851.085 1164.99 C 836.759 1157.88 821.409 1150.83 806.955 1143.84 L 694.732 1089.42 L 565.346 1026.61 C 553.609 1020.95 497.229 996.017 491.82 988.731 z"/><path transform="translate(0,0)" fill="rgb(18,20,24)" d="M 1198.66 1284.42 C 1219.54 1282.92 1258.8 1304.33 1279.18 1313.7 L 1380.62 1360.61 L 1486.6 1409.73 C 1500.35 1416.13 1547.98 1436.48 1555.2 1445.55 C 1554.4 1453.4 1525.88 1464.79 1518.13 1468.63 L 1452.6 1500.88 L 1045.33 1699.72 L 958.523 1742.08 C 940.733 1750.79 903.691 1770.79 885.966 1774.03 C 869.058 1774.73 864.147 1773.67 848.759 1766.38 C 824.48 1754.87 800.017 1743.53 775.642 1732.22 C 721.565 1707.15 667.625 1681.78 613.825 1656.12 C 600.069 1649.56 531.186 1618.18 526.188 1611.89 C 525.803 1609.35 525.743 1609.07 527.42 1606.92 C 531.543 1601.63 662.161 1540.17 681.945 1530.68 L 1047.67 1353.68 C 1089.4 1333.53 1130.95 1311.68 1172.82 1291.63 C 1181.82 1287.33 1188.8 1285.45 1198.66 1284.42 z"/><path transform="translate(0,0)" fill="url(#Gradient4)" d="M 1578.04 643.912 C 1588.8 639.032 1603.67 630.606 1614.41 624.935 L 1674.14 593.827 C 1683.97 588.747 1701.06 579.256 1710.72 575.917 C 1716.17 578.403 1721.56 581.016 1726.89 583.755 L 1728.39 584.234 C 1733.88 586.285 1737.16 588.074 1737.17 594.729 C 1739.67 625.401 1736.77 658.155 1737.83 689.001 C 1738.45 707.149 1735.62 720.461 1718.1 729.66 C 1679.31 750.033 1639.81 768.892 1601.06 789.319 C 1595.6 792.193 1586.93 795.198 1582.82 788.766 C 1568.02 783.255 1563.84 783.351 1563.97 766.722 C 1563.99 747.41 1564.17 728.097 1564.51 708.788 C 1564.51 699.785 1564.58 690.783 1564.74 681.781 C 1564.53 676.736 1564.56 672.156 1564.61 667.132 C 1566.47 657.42 1569.46 651.651 1577.14 645.406 L 1578.04 643.912 z"/><path transform="translate(0,0)" fill="rgb(17,74,150)" d="M 1737.17 594.729 C 1739.67 625.401 1736.77 658.155 1737.83 689.001 C 1738.45 707.149 1735.62 720.461 1718.1 729.66 C 1679.31 750.033 1639.81 768.892 1601.06 789.319 C 1595.6 792.193 1586.93 795.198 1582.82 788.766 C 1584.01 785.79 1583.67 781.561 1583.72 778.124 L 1584.76 777.915 L 1585.91 779.541 C 1608.97 772.525 1603.51 748.632 1607.93 743.416 L 1608.2 753.479 L 1620.6 747.254 C 1623.04 755.849 1630.6 756.272 1637.86 758.394 C 1660.37 764.989 1660.89 745.487 1671.51 732.441 C 1675.09 728.041 1686.63 725.824 1688.04 719.626 C 1685.91 716.108 1685.53 714.637 1684.17 710.683 C 1697.59 712.222 1700.15 708.714 1711.25 701.467 C 1710.56 704.665 1710.13 704.268 1707.61 707.118 L 1708.4 709.571 C 1715.79 715.059 1735.44 708.844 1735.94 700.489 C 1738.03 665.721 1735.35 629.322 1737.17 594.729 z"/><path transform="translate(0,0)" fill="url(#Gradient3)" d="M 1578.04 643.912 C 1588.8 639.032 1603.67 630.606 1614.41 624.935 L 1674.14 593.827 C 1683.97 588.747 1701.06 579.256 1710.72 575.917 C 1716.17 578.403 1721.56 581.016 1726.89 583.755 L 1633.86 632.288 C 1621.22 638.864 1608.65 646.006 1595.72 651.886 C 1589.99 654.489 1580.24 650.794 1577.14 645.406 L 1578.04 643.912 z"/><path transform="translate(0,0)" fill="url(#Gradient2)" d="M 1564.61 667.132 C 1570.85 671.008 1573.84 672.909 1580.57 675.682 C 1580.73 683.697 1581.59 703.215 1580.95 710.421 C 1581.53 732.589 1581.68 760.812 1581.03 782.955 C 1581.63 785.249 1581.89 786.562 1582.82 788.766 C 1568.02 783.255 1563.84 783.351 1563.97 766.722 C 1563.99 747.41 1564.17 728.097 1564.51 708.788 C 1564.51 699.785 1564.58 690.783 1564.74 681.781 C 1564.53 676.736 1564.56 672.156 1564.61 667.132 z"/><path transform="translate(0,0)" fill="rgb(68,142,208)" d="M 1564.61 667.132 C 1570.85 671.008 1573.84 672.909 1580.57 675.682 C 1580.73 683.697 1581.59 703.215 1580.95 710.421 C 1578.73 717.987 1582.25 724.131 1577.66 730.306 C 1574.72 730.8 1571.95 730.967 1568.98 731.201 C 1562.39 727.12 1569.98 715.815 1564.51 708.788 C 1564.51 699.785 1564.58 690.783 1564.74 681.781 C 1564.53 676.736 1564.56 672.156 1564.61 667.132 z"/><path transform="translate(0,0)" fill="rgb(17,74,150)" d="M 1563.97 766.722 C 1568.32 784.053 1566.31 778.566 1581.03 782.955 C 1581.63 785.249 1581.89 786.562 1582.82 788.766 C 1568.02 783.255 1563.84 783.351 1563.97 766.722 z"/><path transform="translate(0,0)" fill="rgb(249,248,248)" d="M 1684.17 710.683 C 1682.47 708.427 1678.33 703.648 1677.33 701.392 C 1672.32 689.011 1674.02 672.495 1677.95 659.944 C 1681.64 648.164 1697.24 625.838 1712.25 631.395 C 1718.15 633.578 1720.6 638.601 1723.18 644.079 L 1712.43 651.463 C 1693.82 623.575 1676.5 682.627 1692.37 696.477 C 1704.61 699.749 1709.95 685.7 1712.28 676.466 C 1715.87 675.962 1719.69 675.167 1723.27 674.498 C 1719.71 686.742 1717.93 690.588 1711.25 701.467 C 1700.15 708.714 1697.59 712.222 1684.17 710.683 z"/><path transform="translate(0,0)" fill="rgb(137,204,244)" d="M 1726.89 583.755 L 1728.39 584.234 L 1728 585.729 C 1685.61 610.034 1637.74 631.485 1595.36 656.473 C 1591.2 658.928 1586.58 664.124 1585.74 668.898 C 1582.9 683.193 1581.71 768.398 1583.72 778.124 C 1583.67 781.561 1584.01 785.79 1582.82 788.766 C 1581.89 786.562 1581.63 785.249 1581.03 782.955 C 1581.68 760.812 1581.53 732.589 1580.95 710.421 C 1581.59 703.215 1580.73 683.697 1580.57 675.682 C 1573.84 672.909 1570.85 671.008 1564.61 667.132 C 1566.47 657.42 1569.46 651.651 1577.14 645.406 C 1580.24 650.794 1589.99 654.489 1595.72 651.886 C 1608.65 646.006 1621.22 638.864 1633.86 632.288 L 1726.89 583.755 z"/><path transform="translate(0,0)" fill="rgb(249,248,248)" d="M 1608.09 681.844 L 1619.96 675.587 C 1619.92 687.36 1619.11 738.365 1620.6 747.254 L 1608.2 753.479 L 1607.93 743.416 C 1608.59 724.483 1608.56 700.896 1608.09 681.844 z"/><path transform="translate(0,0)" fill="rgb(249,248,248)" d="M 1666.96 650.86 L 1667.69 651.508 C 1668.95 654.517 1668.82 659.282 1668.97 662.692 C 1659.94 666.661 1652.65 670.348 1643.95 674.881 L 1644.05 694.193 C 1650.83 691.269 1658.78 686.675 1665.41 683.073 C 1665.88 686.625 1666.13 691.346 1666.44 695.013 C 1658.28 698.758 1651.73 701.998 1643.85 706.293 L 1644.03 721.25 C 1644.01 725.42 1644.45 729.872 1644.77 734.053 L 1632.32 740.668 C 1632.89 723.012 1633.59 685.259 1632.05 668.87 C 1644.29 662.904 1655.07 657.468 1666.96 650.86 z"/><path transform="translate(0,0)" fill="url(#Gradient1)" d="M 321.306 1158.21 L 405.492 1200.71 C 409.251 1202.64 427.686 1211.95 429.4 1213.5 L 436.052 1216.53 C 448.036 1223.1 450.454 1230.64 452.387 1243.44 L 452.331 1245.12 C 453.028 1260.46 455.405 1347.33 449.148 1355.45 C 446.329 1359.11 439.091 1361.24 434.81 1362.84 L 432.456 1364.71 C 430.58 1366.01 426.014 1368.07 423.899 1367.03 C 385.985 1348.28 348.002 1329.18 310.432 1309.69 C 299.216 1303.61 293.646 1296.65 292.906 1283.6 C 291.342 1254.44 293.5 1225.25 292.844 1196.08 C 292.626 1186.41 290.798 1174.29 299.629 1168.36 L 303.139 1166.43 C 309.469 1163.82 315.122 1161.16 321.306 1158.21 z"/><path transform="translate(0,0)" fill="rgb(250,195,79)" d="M 321.306 1158.21 L 405.492 1200.71 C 409.251 1202.64 427.686 1211.95 429.4 1213.5 L 436.052 1216.53 C 433.995 1227.9 426.596 1225.77 417.833 1227.69 C 413.907 1226.61 388.841 1213.5 383.596 1210.81 C 355.549 1196.42 328.212 1181.76 299.629 1168.36 L 303.139 1166.43 C 309.469 1163.82 315.122 1161.16 321.306 1158.21 z"/><path transform="translate(0,0)" fill="rgb(250,229,124)" d="M 299.629 1168.36 L 303.139 1166.43 C 343.518 1185.46 382.653 1207.45 423.848 1226.33 C 427.882 1224.02 430.077 1223.66 432.048 1220.04 C 431.36 1214.46 430.196 1217.05 429.4 1213.5 L 436.052 1216.53 C 433.995 1227.9 426.596 1225.77 417.833 1227.69 C 413.907 1226.61 388.841 1213.5 383.596 1210.81 C 355.549 1196.42 328.212 1181.76 299.629 1168.36 z"/><path transform="translate(0,0)" fill="rgb(248,156,34)" d="M 452.387 1243.44 L 452.331 1245.12 C 453.028 1260.46 455.405 1347.33 449.148 1355.45 C 446.329 1359.11 439.091 1361.24 434.81 1362.84 C 436.516 1351.01 436.071 1330.09 435.923 1317.91 C 435.493 1304.67 435.707 1290.01 435.599 1276.64 C 435.327 1268.51 435.966 1258.58 436.285 1250.32 C 441.964 1247.48 446.482 1245.73 452.387 1243.44 z"/><path transform="translate(0,0)" fill="rgb(234,112,14)" d="M 452.331 1245.12 C 453.028 1260.46 455.405 1347.33 449.148 1355.45 C 446.329 1359.11 439.091 1361.24 434.81 1362.84 C 436.516 1351.01 436.071 1330.09 435.923 1317.91 C 440.62 1322.61 444.993 1317.68 450.409 1320.66 C 452.786 1305.75 452.041 1262.42 452.331 1245.12 z"/><path transform="translate(0,0)" fill="rgb(252,223,149)" d="M 436.052 1216.53 C 448.036 1223.1 450.454 1230.64 452.387 1243.44 C 446.482 1245.73 441.964 1247.48 436.285 1250.32 C 435.966 1258.58 435.327 1268.51 435.599 1276.64 L 434.466 1281.57 C 433.212 1277.58 435.244 1263.16 433.156 1259.42 C 432.507 1243 431.779 1237.58 417.833 1227.69 C 426.596 1225.77 433.995 1227.9 436.052 1216.53 z"/><path transform="translate(0,0)" fill="rgb(250,195,79)" d="M 433.156 1259.42 C 435.244 1263.16 433.212 1277.58 434.466 1281.57 L 435.599 1276.64 C 435.707 1290.01 435.493 1304.67 435.923 1317.91 C 436.071 1330.09 436.516 1351.01 434.81 1362.84 L 432.456 1364.71 C 432.269 1359.97 432.669 1351.53 432.899 1346.59 C 434.219 1318.15 431.407 1287.65 433.156 1259.42 z"/><path transform="translate(0,0)" fill="rgb(249,248,248)" d="M 319.758 1210.09 C 340.342 1219.91 369.782 1229.34 363.409 1261.9 C 361.322 1272.56 352.123 1272.54 343.119 1269.48 L 331.876 1263.85 C 331.679 1272.12 331.854 1280.93 331.872 1289.24 C 327.983 1287.69 323.784 1285.67 319.937 1283.92 C 319.68 1259.31 319.62 1234.7 319.758 1210.09 z"/><path transform="translate(0,0)" fill="rgb(248,156,34)" d="M 331.4 1227.24 C 346.58 1233.86 354.286 1239.69 351.298 1257.26 C 343.074 1259.31 339.104 1255.69 331.691 1251.42 C 331.714 1243.46 331.499 1235.23 331.4 1227.24 z"/><path transform="translate(0,0)" fill="rgb(249,248,248)" d="M 390.935 1247.33 L 396.042 1248.93 C 396.626 1249.55 397.209 1250.18 397.793 1250.81 C 399.088 1266.35 398.148 1309.86 398.045 1322.23 C 394.377 1320.71 390.726 1319.16 387.091 1317.56 L 387.281 1260.52 C 383.268 1260.84 377.783 1261.9 374.651 1259.9 C 372.544 1256.96 372.989 1253.42 372.931 1249.68 C 380.776 1249.29 383.341 1249.17 390.935 1247.33 z"/><path transform="translate(0,0)" fill="rgb(18,20,24)" d="M 327.307 1549.99 C 346.298 1549.83 393.76 1577.64 414.096 1586.53 C 431.05 1593.95 462.984 1607.14 477.442 1616.48 C 479.088 1623.52 480.574 1630.59 481.898 1637.7 C 482.995 1643.51 486.564 1659.79 483.786 1663.85 C 478.843 1664.76 473.568 1665.79 468.524 1665.46 C 458.669 1664.81 346.961 1610.32 341.001 1603.19 C 333.305 1593.98 326.642 1562.05 327.307 1549.99 z"/><path transform="translate(0,0)" fill="rgb(31,38,47)" d="M 356.755 1573.44 C 360.05 1574.22 364.207 1575.53 367.542 1576.48 L 370.277 1587.52 C 381.395 1591.44 403.286 1600.15 401.803 1614.6 C 390.109 1617.3 373.829 1608.6 362.442 1603.82 C 361.492 1593.54 359.588 1583.37 356.755 1573.44 z"/><path transform="translate(0,0)" fill="rgb(18,20,24)" d="M 371.308 1592.26 C 379.646 1594.02 390.967 1598.93 392.834 1608.05 C 391.965 1608.24 391.093 1608.41 390.219 1608.57 C 375.792 1611.18 373.338 1604.34 371.308 1592.26 z"/><path transform="translate(0,0)" fill="rgb(31,38,47)" d="M 419.846 1602.16 C 427.559 1603.65 430.649 1605.4 432.326 1613.37 C 434.201 1622.28 434.319 1628.61 437.805 1637.16 L 438.347 1638.45 C 432.534 1635.47 428.995 1633.26 423.513 1629.69 C 416.567 1624.73 410.428 1620.44 403.966 1614.81 C 412.208 1618.38 417.64 1621.01 425.489 1625.36 C 423.734 1616.99 422.3 1610.33 419.846 1602.16 z"/><path transform="translate(0,0)" fill="rgb(249,248,248)" d="M 375.515 152.489 C 381.371 152.361 389.977 152.265 395.579 153.574 C 431.097 161.874 433.599 210.133 403.129 227.139 C 390.368 232.033 370.982 230.875 356.992 230.86 L 356.988 152.627 L 375.515 152.489 z"/><path transform="translate(0,0)" fill="rgb(55,59,64)" d="M 372.722 165.23 C 381.471 165.263 389.464 164.673 397.152 169.675 C 412.093 179.395 409.695 198.315 400.756 211.33 C 392.447 218.483 383.588 217.402 372.814 217.783 L 372.722 165.23 z"/><path transform="translate(0,0)" fill="rgb(249,248,248)" d="M 1559.37 152.392 C 1575.17 152.359 1600.99 150.007 1613.14 160.49 C 1630.65 175.605 1628.81 203.663 1615.23 220.731 C 1601.18 233.866 1577.36 231.047 1559.1 230.797 L 1559.37 152.392 z"/><path transform="translate(0,0)" fill="rgb(55,59,64)" d="M 1575.01 165.273 C 1584.44 165.344 1592.48 164.622 1600.53 170.354 C 1605.5 173.921 1608.85 179.324 1609.82 185.365 C 1611.38 194.869 1608.07 204.299 1602.37 211.85 C 1593.49 218.938 1586.02 217.994 1574.97 218.026 L 1575.01 165.273 z"/><path transform="translate(0,0)" fill="rgb(249,248,248)" d="M 1042.07 152.536 L 1053.74 152.167 C 1060.16 170.201 1067.37 186.726 1073.43 205.164 C 1079.33 187.582 1086.12 170.373 1091.93 152.692 L 1112.07 152.636 L 1112.27 230.733 L 1097.07 230.634 C 1097.01 214.348 1097.04 198.062 1097.16 181.777 C 1097.36 178.79 1098.04 177.841 1096.63 176.19 C 1091.57 188.283 1083.18 211.706 1078.67 224.323 L 1066.82 224.186 C 1062.6 210.956 1053.5 186.993 1047.97 174.268 C 1048.44 193.145 1048.51 212.029 1048.16 230.909 L 1033.65 230.824 C 1033.74 209.446 1032.62 173.755 1034.2 153.692 C 1037.05 152.018 1038.26 152.629 1042.07 152.536 z"/><path transform="translate(0,0)" fill="rgb(249,248,248)" d="M 1701.58 152.849 L 1722.02 152.679 C 1727.76 170.782 1734.96 187.579 1741.28 205.397 C 1747.54 187.774 1754.01 170.228 1760.69 152.761 L 1779.93 152.873 C 1780.2 178.844 1780.29 204.818 1780.18 230.79 L 1764.96 230.912 L 1764.98 195.973 C 1765.04 189.192 1764.94 182.27 1764.9 175.476 C 1759.43 191.994 1752.03 207.237 1747.04 223.951 L 1734.88 224.108 C 1728.51 208.223 1722.25 192.293 1716.1 176.32 C 1715.76 194.23 1716.04 212.965 1716.07 230.934 L 1701.37 230.766 C 1701.71 204.795 1701.78 178.821 1701.58 152.849 z"/><path transform="translate(0,0)" fill="rgb(249,248,248)" d="M 743.661 172.077 C 750.232 171.618 756.848 172.881 763.467 172.965 C 768.465 173.028 774.305 170.801 778.589 173.578 C 779.983 177.358 779.619 176.01 778.861 180.407 C 776.197 182.889 775.264 181.133 770.259 182.656 C 769.439 189.043 773.812 194.804 770.486 200.897 C 764.252 212.318 752.587 209.411 741.946 212.558 C 739.494 213.283 739.788 213.82 739.11 215.711 C 746.074 223.39 789.982 210.476 777.337 244.299 C 770.435 253.315 763.975 253.23 754.108 255.329 C 737.721 258.815 707.735 247.583 728.458 229.519 C 733.841 224.827 725.757 223.094 725.645 216.563 C 727.658 212.258 730.212 210.441 733.713 207.209 C 718.173 193.035 724.801 177.931 743.661 172.077 z"/><path transform="translate(0,0)" fill="rgb(55,59,64)" d="M 739.038 231.113 C 746.004 230.958 762.719 229.775 765.146 237.337 C 763.969 240.89 763.22 241.154 760.318 243.445 C 752.849 244.914 739.25 246.838 735.856 238.068 C 736.301 234.235 736.75 234.15 739.038 231.113 z"/><path transform="translate(0,0)" fill="rgb(55,59,64)" d="M 744.879 182.591 C 749.803 180.578 755.429 182.92 757.47 187.832 C 759.511 192.745 757.202 198.385 752.3 200.454 C 747.359 202.54 741.665 200.207 739.607 195.254 C 737.549 190.302 739.914 184.62 744.879 182.591 z"/><path transform="translate(0,0)" fill="rgb(249,248,248)" d="M 1337.44 172.179 C 1347.96 171.207 1353.89 174.96 1364.05 172.773 C 1368.7 171.772 1370.17 171.174 1373.79 173.544 C 1375.05 176.588 1374.58 177.75 1374.09 180.995 C 1371.91 183.421 1369.55 182.793 1365.22 183.489 C 1364 187.252 1366.96 192.59 1366.53 196.294 C 1364.45 214.051 1340.99 208.266 1334.97 214.113 L 1335.17 215.996 C 1343.96 224.647 1382.44 209.074 1372.59 242.87 C 1363.49 256.422 1330.03 260.173 1320.03 248.553 C 1317.57 245.636 1316.43 241.824 1316.88 238.031 C 1317.75 231.403 1323.1 232.441 1325.29 226.558 C 1324.59 220.732 1321.75 222.81 1320.65 217.058 C 1322.28 212.539 1325.06 210.222 1328.37 206.667 C 1312.24 192.528 1319.22 178.766 1337.44 172.179 z"/><path transform="translate(0,0)" fill="rgb(55,59,64)" d="M 1333.55 231.005 C 1340.72 230.848 1356.83 228.958 1359.73 236.372 C 1358.95 239.928 1358.38 240.047 1355.87 242.66 C 1348.02 244.817 1335.36 247.169 1330.93 238.534 C 1330.96 234.618 1331.47 234.231 1333.55 231.005 z"/><path transform="translate(0,0)" fill="rgb(55,59,64)" d="M 1340.57 182.422 C 1345.61 180.886 1350.95 183.677 1352.56 188.692 C 1354.18 193.706 1351.47 199.089 1346.48 200.78 C 1343.18 201.897 1339.54 201.151 1336.95 198.829 C 1334.36 196.506 1333.22 192.966 1333.97 189.567 C 1334.72 186.168 1337.24 183.438 1340.57 182.422 z"/><path transform="translate(0,0)" fill="rgb(249,248,248)" d="M 603.761 173.363 L 618.765 173.787 L 612.614 194.381 C 609.86 205.721 605.499 219.566 602.245 230.994 L 586.517 230.993 C 583.766 218.933 579.718 204.508 576.127 192.694 C 572.97 205.356 569.239 218.292 565.749 230.902 L 550.998 230.989 C 546.012 211.815 540.708 192.725 535.09 173.726 L 548.041 173.448 L 549.954 173.996 C 552.796 179.762 557.977 206.416 559.386 213.563 C 562.956 200.155 566.765 186.813 570.812 173.542 L 583.584 173.443 L 594.256 213.396 C 597.484 202.684 601.523 184.459 603.761 173.363 z"/><path transform="translate(0,0)" fill="rgb(249,248,248)" d="M 500.286 172.298 C 503.719 171.997 507.177 172.158 510.567 172.775 C 531.781 176.662 522.816 203.414 525.18 218.052 C 525.574 220.49 534.764 220.051 533.042 227.839 C 524.41 238.288 519.683 230.863 511.568 225.276 C 499.968 232.308 495.855 235.614 482.6 229.33 C 478.95 225.783 473.204 216.5 474.827 211.537 C 479.326 197.78 498.973 198.53 508.56 192.706 C 510.688 188.872 510.467 190.788 509.674 186.82 C 502.621 181.095 492.039 185.565 485.813 190.459 L 477.267 181.407 C 485.621 175.282 490.488 173.65 500.286 172.298 z"/><path transform="translate(0,0)" fill="rgb(55,59,64)" d="M 506.913 203.14 L 509.595 203.514 L 510.918 205.797 C 511.087 216.691 506.46 220.241 496.448 221.798 C 484.127 211.204 497.27 205.507 506.913 203.14 z"/><path transform="translate(0,0)" fill="rgb(249,248,248)" d="M 1278.87 172.274 C 1310.12 169.849 1303.31 196.851 1304.26 218.052 C 1306.56 220.423 1308.19 220.559 1310.17 222.353 C 1313.41 225.301 1311.56 231.424 1306.99 232.22 C 1298.84 233.641 1297.47 230.062 1291.75 226.353 C 1282.77 225.641 1281.41 238.326 1261.88 229.435 C 1258.2 225.933 1252.12 216.649 1254.1 211.449 C 1259.22 198.002 1276.89 197.998 1287.6 192.851 C 1290.47 188.645 1290.05 190.814 1289.47 186.243 C 1281.89 180.955 1271.01 185.48 1264.38 190.225 C 1261.99 187.63 1259.46 184.176 1257.26 181.342 C 1265.4 175.812 1268.9 173.901 1278.87 172.274 z"/><path transform="translate(0,0)" fill="rgb(55,59,64)" d="M 1286.6 202.961 L 1288.4 203.179 L 1289.68 205.31 C 1289.67 216.294 1286.22 220.729 1275.29 221.568 C 1271.45 217.913 1270.24 216.919 1271.23 211.523 C 1275.22 205.911 1280.11 205.068 1286.6 202.961 z"/><path transform="translate(0,0)" fill="rgb(249,248,248)" d="M 1149.03 172.307 C 1184.5 169.476 1171.11 199.036 1175.41 218.75 C 1179.71 221.68 1182.1 222.22 1181.91 227.586 C 1180.15 230.623 1180.32 230.732 1177.16 232.558 C 1169.22 233.823 1163.4 225.806 1161.56 226.326 C 1149.36 229.771 1148.91 235.503 1133.64 230.089 C 1128.65 225.593 1127.52 223.617 1125 216.88 C 1124.15 214.596 1124.61 211.326 1125.84 209.324 C 1132.1 199.139 1145.72 197.058 1156.22 193.702 C 1158.6 192.94 1159.45 190.756 1160.47 188.613 L 1159.53 185.992 C 1151.27 181.602 1142.18 185.017 1135.2 189.899 L 1127.75 181.006 C 1136.16 175.799 1139.17 174.044 1149.03 172.307 z"/><path transform="translate(0,0)" fill="rgb(31,38,47)" d="M 1157.46 203.042 C 1157.91 203.096 1159.19 203.715 1159.68 203.926 C 1161.72 209.11 1160.06 213.673 1156.67 217.743 C 1153.23 221.852 1149.96 221.361 1144.98 221.579 C 1141.67 217.972 1140.15 216.423 1141.56 211.289 C 1145.79 205.527 1150.66 204.909 1157.46 203.042 z"/><path transform="translate(0,0)" fill="rgb(249,248,248)" d="M 1403.27 172.281 C 1428.19 171.09 1435.01 182.447 1435.05 205.738 C 1426.41 205.845 1401.37 202.818 1396.82 209.337 C 1397.19 215.222 1402.44 219.51 1408.04 220.597 C 1416 222.141 1419.29 215.712 1425.46 213.799 C 1428.24 215.44 1429.38 216.307 1431.9 218.226 C 1436.8 229.529 1409.27 235.808 1397.09 229.886 C 1390.1 226.473 1384.79 220.389 1382.34 213.009 C 1376.08 194.265 1384.74 178.233 1403.27 172.281 z"/><path transform="translate(0,0)" fill="rgb(55,59,64)" d="M 1407.12 183.04 C 1413.24 183.717 1421.01 186.798 1420.26 194.099 C 1417.03 196.66 1417.37 195.789 1412.22 195.976 C 1406.56 196.198 1397.83 197.877 1396.16 191.007 C 1398.19 187.034 1403.08 184.517 1407.12 183.04 z"/><path transform="translate(0,0)" fill="rgb(249,248,248)" d="M 1220.41 172.227 C 1221.76 172.116 1223.1 172.041 1224.45 172.003 C 1251.01 171.459 1244 212.531 1243.86 231.012 L 1228.98 230.954 C 1228.97 224.534 1229.18 217.94 1229.2 211.513 C 1229.24 198.268 1232.06 177.663 1211.45 186.883 C 1203.16 195.877 1206.57 218.847 1206.67 230.826 L 1191.39 230.761 C 1190.8 212.06 1191.51 192.887 1190.92 173.737 C 1195.74 173.525 1198.85 173.52 1203.66 173.796 C 1208.63 177.93 1202.53 175.099 1206.32 180.468 C 1211.17 175.807 1212.71 174.748 1219.16 172.626 L 1220.41 172.227 z"/><path transform="translate(0,0)" fill="rgb(249,248,248)" d="M 688.531 172.214 C 689.845 172.11 691.162 172.04 692.48 172.006 C 719.254 171.497 711.547 212.321 711.283 231.025 L 696.461 230.982 C 696.39 224.293 696.619 217.279 696.675 210.575 C 696.792 196.708 699.175 178.456 678.54 186.974 C 671.449 193.922 674.003 220.191 674.056 230.864 L 659.103 230.841 L 659.051 173.773 C 663.523 173.656 668.395 173.181 672.617 174.336 C 672.962 176.057 673.084 176.869 673.261 178.661 L 673.403 180.237 L 677.187 177.705 C 681.879 174.502 682.934 173.569 688.531 172.214 z"/><path transform="translate(0,0)" fill="rgb(249,248,248)" d="M 1640.61 152.856 L 1656.14 152.906 C 1655.75 174.061 1656.07 196.343 1656.08 217.587 C 1667.18 217.372 1679.23 217.665 1690.4 217.755 L 1690.38 230.796 C 1674.2 231.303 1656.74 230.949 1640.45 230.897 C 1641.76 208.401 1640.79 175.808 1640.61 152.856 z"/><path transform="translate(0,0)" fill="rgb(249,248,248)" d="M 817.46 152.152 L 832.903 152.306 L 833.153 217.557 L 867.314 217.283 L 867.316 230.831 L 817.621 230.703 C 818.664 206.887 817.659 176.397 817.46 152.152 z"/><path transform="translate(0,0)" fill="rgb(249,248,248)" d="M 921.295 172.234 C 929.423 171.73 943.636 171.632 946.047 181.194 C 945.171 185.005 943.001 186.489 940.177 189.287 C 934.786 185.25 924.046 180.302 918.539 186.118 C 919.59 193.024 925.403 194.306 931.154 196.062 C 945.614 200.477 956.349 207.369 946.359 223.1 C 941.755 230.35 937.151 230.759 929.171 232.364 C 916.266 232.333 911.482 230.804 901.811 222.393 L 910.945 213.862 C 917.662 220.107 923.686 222.779 932.515 219.05 C 935.041 216.166 934.518 217.756 934.571 214.281 C 928.691 203.925 895.634 206.696 906.809 182.676 C 909.799 176.25 914.962 174.329 921.295 172.234 z"/><path transform="translate(0,0)" fill="rgb(249,248,248)" d="M 976.12 158.477 L 977.994 158.676 C 979.288 162.108 978.762 169.193 978.701 173.182 L 992.695 173.359 L 992.618 184.956 L 978.629 185.011 C 978.501 193.289 976.429 214.631 982.457 219.572 C 985.719 220.051 986.336 219.82 989.5 219.278 L 990.463 219.107 C 996.01 221.887 995.64 228.823 989.501 231.702 C 948.69 235.95 970.616 199.504 962.562 185.514 C 959.309 185.077 959.135 185.159 956.157 183.911 C 954.535 181.446 954.449 179.686 954.946 176.685 C 955.932 170.744 957.086 176.226 963.491 171.506 C 965.644 167.801 964.988 164.047 964.898 159.581 L 976.12 158.477 z"/><path transform="translate(0,0)" fill="rgb(249,248,248)" d="M 1802.78 146.944 C 1805.9 147.801 1810.53 154.843 1812.09 157.828 C 1824.13 180.892 1824.64 211.156 1814.4 234.967 C 1812.42 239.57 1807.07 248.772 1802.87 251.155 L 1794.08 246.773 C 1813.56 218.213 1811.93 179.64 1793.77 150.882 L 1802.78 146.944 z"/><path transform="translate(0,0)" fill="rgb(249,248,248)" d="M 1535.11 146.603 L 1545.08 150.707 C 1530.22 174.758 1528.49 200.741 1535.78 228.38 C 1537.37 234.435 1544.32 245.206 1544.67 247.422 L 1539.5 250.519 C 1536.78 251.073 1537.73 251.138 1535.17 250.244 C 1521.7 237.396 1518.39 214.656 1518.27 196.89 C 1518.14 177.494 1524.4 162.27 1535.11 146.603 z"/><path transform="translate(0,0)" fill="rgb(249,248,248)" d="M 1474.37 172.045 C 1477.46 171.891 1477.71 171.582 1480.45 172.822 C 1482.44 176.793 1481.22 181.195 1480.79 186.146 C 1470.26 186.45 1468.9 186.454 1463.02 195.217 C 1462.34 205.707 1462.76 220.046 1462.8 230.886 C 1457.81 230.87 1452.68 230.734 1447.68 230.655 C 1447.01 211.778 1448.56 193.145 1447.31 174.007 C 1455.73 173.674 1460.15 171.33 1461.9 179.675 L 1463.05 180.019 C 1467.84 175.396 1467.71 174.089 1474.37 172.045 z"/><path transform="translate(0,0)" fill="rgb(249,248,248)" d="M 459.41 173.209 C 463.208 172.912 466.93 172.079 470.021 174.015 C 471.888 177.176 470.914 182.162 470.631 186.074 C 455.485 186.954 451.248 191.113 451.516 207.496 C 451.642 215.237 451.84 223.015 451.843 230.765 L 438.956 230.919 L 438.292 230.766 C 435.808 228.013 436.942 181.245 436.967 173.868 C 441.051 173.708 443.155 173.617 447.189 173.999 C 450.571 176.045 450.611 176.464 452.229 180.097 C 454.767 177.797 456.983 175.626 459.41 173.209 z"/><path transform="translate(0,0)" fill="rgb(249,248,248)" d="M 628.11 173.318 L 643.333 172.971 C 642.749 191.758 643.039 211.94 642.972 230.831 L 627.988 230.807 C 628.165 211.645 628.205 192.481 628.11 173.318 z"/><path transform="translate(0,0)" fill="rgb(249,248,248)" d="M 876.982 173.854 L 892.105 173.524 C 892.161 192.571 892.116 211.618 891.971 230.665 L 877.098 230.368 L 876.982 173.854 z"/><path transform="translate(0,0)" fill="rgb(31,38,47)" d="M 1670.96 1439.19 L 1671.77 1440.13 L 1671.07 1441.81 C 1665.3 1444.69 1653.01 1449.65 1649.23 1453.66 C 1648.08 1457.58 1647.74 1456.13 1648.62 1459.3 C 1655.86 1458.45 1666.1 1450.59 1670.73 1452.5 L 1670.42 1453.98 C 1663.49 1457.93 1651.08 1459.7 1648.05 1466.98 L 1649.84 1467.92 C 1654.9 1467.85 1658.95 1465.23 1663.62 1462.94 C 1666.92 1461.73 1666.98 1461.53 1670.62 1461.49 L 1671.48 1462.54 C 1668.86 1466.57 1642.95 1477.7 1637.02 1480.48 C 1638.5 1444.84 1640.73 1453.32 1670.96 1439.19 z"/><path transform="translate(0,0)" fill="rgb(31,38,47)" d="M 1716.51 1418.31 C 1719.74 1418.16 1721.17 1417.83 1723.12 1420.2 C 1718.46 1426.98 1676.2 1427.99 1691.34 1447.75 C 1700.81 1450.62 1712.99 1434.58 1720.56 1432.92 L 1721.51 1433.95 L 1720.36 1435.97 C 1678.65 1479.55 1656.37 1432.7 1716.51 1418.31 z"/><path transform="translate(0,0)" fill="rgb(31,38,47)" d="M 1625.21 1459.74 L 1626.19 1460.23 C 1627.83 1464.57 1626.1 1480.07 1625.59 1485.08 C 1622.96 1486.44 1620.06 1487.75 1617.37 1489.02 C 1615.97 1488.7 1616.74 1489.03 1615.29 1487.59 C 1614.55 1482.03 1614.9 1476.38 1616.33 1470.96 C 1618.25 1463.76 1618.7 1463.48 1625.21 1459.74 z"/><path transform="translate(0,0)" fill="rgb(249,248,248)" d="M 880.605 149.446 C 883.646 148.006 887.233 148.36 889.933 150.367 C 892.632 152.375 894.005 155.708 893.502 159.034 C 892.998 162.361 890.701 165.138 887.528 166.257 C 882.959 167.867 877.929 165.618 876.085 161.138 C 874.24 156.659 876.227 151.519 880.605 149.446 z"/><path transform="translate(0,0)" fill="rgb(249,248,248)" d="M 631.478 149.52 C 635.969 147.373 641.351 149.244 643.54 153.714 C 645.73 158.184 643.91 163.583 639.461 165.815 C 634.953 168.077 629.464 166.227 627.245 161.697 C 625.026 157.167 626.928 151.697 631.478 149.52 z"/></svg>