<svg version="1.1" xmlns="http://www.w3.org/2000/svg" style="display: block;" viewBox="0 0 2048 2048" width="1024" height="1024" preserveAspectRatio="none"><defs><linearGradient id="Gradient1" gradientUnits="userSpaceOnUse" x1="1767.42" y1="606.316" x2="1289.03" y2="401.612"><stop class="stop0" offset="0" stop-opacity="1" stop-color="rgb(241,134,14)"/><stop class="stop1" offset="1" stop-opacity="1" stop-color="rgb(255,173,67)"/></linearGradient></defs><path transform="translate(0,0)" fill="rgb(31,36,44)" d="M 0 0 L 395.419 0 L 1658.84 0 L 2048 0 L 2048 396.157 L 2048 1649.5 L 2048 2048 L 1656.61 2048 L 390.41 2048 L 0 2048 L 0 1651.7 L 0 395.566 L 0 0 z"/><path transform="translate(0,0)" fill="rgb(245,244,244)" d="M 1656.61 2048 C 1661.94 2045.9 1695.16 2044.01 1706.02 2042.11 C 1763.65 2032.41 1818.54 2010.48 1866.98 1977.77 C 1953.4 1919.7 2014.32 1830.76 2037.22 1729.19 C 2041.99 1707.86 2045.18 1686.35 2046.31 1664.53 C 2046.57 1659.47 2046.92 1654.46 2048 1649.5 L 2048 2048 L 1656.61 2048 z"/><path transform="translate(0,0)" fill="rgb(245,244,244)" d="M 0 1651.7 C 2.37532 1661.87 2.54065 1676.33 3.6945 1687.05 C 16.659 1807.5 84.6952 1914.73 185.789 1980.81 C 231.662 2010.77 283.077 2031.24 336.995 2041 C 348.658 2043.06 384.104 2046.07 390.41 2048 L 0 2048 L 0 1651.7 z"/><path transform="translate(0,0)" fill="rgb(245,244,244)" d="M 0 0 L 395.419 0 L 390.121 1.64119 C 188.957 12.1208 23.8951 162.289 2.85626 364.998 C 1.77986 375.369 2.65003 385.354 0 395.566 L 0 0 z"/><path transform="translate(0,0)" fill="rgb(245,244,244)" d="M 1658.84 0 L 2048 0 L 2048 396.157 C 2044.64 377.141 2044.85 356.335 2040.77 334.053 C 2026.44 258.097 1991.11 187.675 1938.8 130.771 C 1881.24 68.6831 1805.6 26.2869 1722.6 9.59237 C 1708.12 6.69586 1689.82 3.54848 1675.2 2.95267 C 1669.23 1.99556 1662.71 2.66815 1658.84 0 z"/><path transform="translate(0,0)" fill="rgb(64,72,83)" d="M 395.419 0 L 1658.84 0 C 1662.71 2.66815 1669.23 1.99556 1675.2 2.95267 C 1664.43 3.33286 1654.25 6.10309 1642.11 6.15471 C 1615.16 6.26926 1588.18 6.20938 1561.24 6.1658 L 1415.07 6.04877 L 970.732 6.13672 L 594.552 6.16958 L 468.264 6.12614 C 445.098 6.12958 421.822 6.2196 398.656 5.99071 C 394.024 5.94495 393.184 4.9185 390.121 1.64119 L 395.419 0 z"/><path transform="translate(0,0)" fill="rgb(179,178,178)" d="M 543.796 363.181 C 556.392 359.705 580.35 357.064 594.677 354.385 C 657.795 342.584 721.414 332.893 784.699 321.75 L 1296.84 234.267 C 1353.98 224.809 1411.06 214.978 1468.06 204.774 C 1473.4 238.004 1479.79 272.849 1484.32 306.031 L 1579.69 300.202 C 1596.66 299.154 1618.39 297.049 1635.02 296.792 C 1636.54 323.275 1638.25 349.746 1640.17 376.203 C 1640.7 384.952 1640.91 395.264 1641.64 403.75 C 1683.2 404.568 1725.86 406.548 1767.22 407.044 L 1761.49 629.087 L 1730.13 1820.45 L 1082.39 1802.53 L 927.563 1798.04 L 874.707 1796.47 C 862.317 1796 846.208 1794.46 834.259 1796.25 L 710.176 1816.31 C 698.501 1818.29 652.86 1826.75 642.897 1826.93 C 629.793 1830.02 604.412 1833.36 590.495 1835.65 L 488.604 1852.85 C 486.067 1830.28 481.097 1803.28 477.41 1780.73 L 457.709 1660.47 L 398.076 1301.01 L 252.25 411.413 C 294.54 402.508 345.193 396.751 388.814 388.722 C 400.016 386.873 411.237 385.146 422.476 383.543 C 421.891 380.235 421.516 376.63 421.102 373.268 C 454.215 372.628 512.199 368.973 543.796 363.181 z"/><path transform="translate(0,0)" fill="rgb(245,244,244)" d="M 543.796 363.181 C 556.392 359.705 580.35 357.064 594.677 354.385 C 657.795 342.584 721.414 332.893 784.699 321.75 L 1296.84 234.267 C 1353.98 224.809 1411.06 214.978 1468.06 204.774 C 1473.4 238.004 1479.79 272.849 1484.32 306.031 L 1579.69 300.202 C 1596.66 299.154 1618.39 297.049 1635.02 296.792 C 1636.54 323.275 1638.25 349.746 1640.17 376.203 C 1640.7 384.952 1640.91 395.264 1641.64 403.75 C 1683.2 404.568 1725.86 406.548 1767.22 407.044 L 1761.49 629.087 C 1657.29 628.576 1550.42 622.111 1445.9 620.899 C 1434.29 645.663 1422.11 670.215 1407.57 693.377 C 1405.08 697.339 1402.65 700.964 1401.02 705.381 L 977.451 693.556 C 888.85 690.86 793.962 686.646 705.673 685.98 L 694.464 1068.87 C 692.475 1140.55 691.119 1214.59 688.189 1286.15 C 652.284 1293.03 611.873 1309.25 574.751 1313.41 C 572.022 1338.65 573.227 1372.93 572.368 1399.16 L 565.231 1658.94 L 563.303 1740.66 C 562.859 1755.21 562.609 1772.74 560.889 1787.1 C 622.311 1787.01 687.903 1791.36 749.614 1793.22 C 761.946 1793.59 788.176 1791.87 798.529 1793.87 C 810.826 1794.17 823.836 1796.01 834.259 1796.25 L 710.176 1816.31 C 698.501 1818.29 652.86 1826.75 642.897 1826.93 C 629.793 1830.02 604.412 1833.36 590.495 1835.65 L 488.604 1852.85 C 486.067 1830.28 481.097 1803.28 477.41 1780.73 L 457.709 1660.47 L 398.076 1301.01 L 252.25 411.413 C 294.54 402.508 345.193 396.751 388.814 388.722 C 400.016 386.873 411.237 385.146 422.476 383.543 C 421.891 380.235 421.516 376.63 421.102 373.268 C 454.215 372.628 512.199 368.973 543.796 363.181 z"/><path transform="translate(0,0)" fill="rgb(226,225,225)" d="M 421.102 373.268 C 454.215 372.628 512.199 368.973 543.796 363.181 C 549.358 366.224 559.571 365.161 566.213 364.947 C 563.398 390.964 563.307 486.759 561.175 519.056 C 561.121 519.871 557.126 520.644 555.437 521.005 C 558.583 521 563.103 520.32 566.324 519.938 C 575.604 519.92 585.648 519.139 594.972 518.595 L 594.822 548.729 C 592.325 588.895 594.41 632.962 591.112 671.802 C 585.934 672.121 562.227 674.135 558.364 673.475 L 554.64 675.115 C 553.703 678.593 558.385 751.408 559.484 761.563 C 563.196 791.123 565.211 830.153 567.333 860.16 L 576.723 987.434 C 577.364 996.993 578.87 1050.82 580.861 1055.07 C 581.906 1070.03 579.385 1108.15 579.048 1125.77 L 574.751 1313.41 C 572.022 1338.65 573.227 1372.93 572.368 1399.16 L 565.231 1658.94 L 563.303 1740.66 C 562.859 1755.21 562.609 1772.74 560.889 1787.1 C 622.311 1787.01 687.903 1791.36 749.614 1793.22 C 761.946 1793.59 788.176 1791.87 798.529 1793.87 C 810.826 1794.17 823.836 1796.01 834.259 1796.25 L 710.176 1816.31 C 698.501 1818.29 652.86 1826.75 642.897 1826.93 C 629.793 1830.02 604.412 1833.36 590.495 1835.65 L 488.604 1852.85 C 486.067 1830.28 481.097 1803.28 477.41 1780.73 L 457.709 1660.47 L 398.076 1301.01 L 252.25 411.413 C 294.54 402.508 345.193 396.751 388.814 388.722 C 400.016 386.873 411.237 385.146 422.476 383.543 C 421.891 380.235 421.516 376.63 421.102 373.268 z"/><path transform="translate(0,0)" fill="rgb(205,204,204)" d="M 422.476 383.543 C 423.439 391.158 423.769 399.377 424.2 407.093 C 426.742 452.628 431.888 498.428 433.908 543.963 C 434.536 553.298 435.003 564.546 436.246 573.679 L 442.329 661.245 C 442.823 668.235 445.302 697.971 444.841 703.104 C 435.452 704.079 421.178 706.327 411.796 708.441 C 412.898 715.258 414.044 722.069 415.235 728.871 C 413.035 742.334 415.192 762.166 416.123 776.219 C 417.802 802.07 419.823 827.898 422.184 853.696 L 432.272 989.524 L 469.885 1499.69 L 483.673 1688.73 C 487.089 1733.88 491.853 1785.1 493.596 1830.01 C 516.249 1828.07 544.315 1827.91 567.551 1826.6 C 585.347 1825.6 626.063 1822.69 641.42 1824.5 C 642.331 1825.67 642.584 1825.65 642.897 1826.93 C 629.793 1830.02 604.412 1833.36 590.495 1835.65 L 488.604 1852.85 C 486.067 1830.28 481.097 1803.28 477.41 1780.73 L 457.709 1660.47 L 398.076 1301.01 L 252.25 411.413 C 294.54 402.508 345.193 396.751 388.814 388.722 C 400.016 386.873 411.237 385.146 422.476 383.543 z"/><path transform="translate(0,0)" fill="rgb(179,178,178)" d="M 422.476 383.543 C 423.439 391.158 423.769 399.377 424.2 407.093 C 426.742 452.628 431.888 498.428 433.908 543.963 C 434.536 553.298 435.003 564.546 436.246 573.679 C 427.196 575.152 414.58 577.563 405.74 578.555 C 404.565 578.226 404.39 577.964 403.318 577.298 C 401.481 571.142 401.206 557.848 399.836 550.11 L 399.63 549.003 C 397.818 502.94 393.515 456.323 390.994 410.242 C 390.602 403.077 389.9 395.814 388.814 388.722 C 400.016 386.873 411.237 385.146 422.476 383.543 z"/><path transform="translate(0,0)" fill="rgb(103,103,103)" d="M 399.63 549.003 L 433.908 543.963 C 434.536 553.298 435.003 564.546 436.246 573.679 C 427.196 575.152 414.58 577.563 405.74 578.555 C 404.565 578.226 404.39 577.964 403.318 577.298 C 401.481 571.142 401.206 557.848 399.836 550.11 L 399.63 549.003 z"/><path transform="translate(0,0)" fill="rgb(179,178,178)" d="M 436.246 573.679 L 442.329 661.245 C 442.823 668.235 445.302 697.971 444.841 703.104 C 435.452 704.079 421.178 706.327 411.796 708.441 C 410.52 700.058 409.983 685.342 409.336 676.257 L 404.904 612.572 C 404.323 603.739 403.778 589.012 402.386 580.698 L 400.259 579.413 L 405.74 578.555 C 414.58 577.563 427.196 575.152 436.246 573.679 z"/><path transform="translate(0,0)" fill="rgb(120,119,119)" d="M 399.63 549.003 L 399.836 550.11 C 401.206 557.848 401.481 571.142 403.318 577.298 C 404.39 577.964 404.565 578.226 405.74 578.555 L 400.259 579.413 L 388.891 581.155 C 387.839 571.202 385.941 561.137 384.239 551.257 L 399.63 549.003 z"/><path transform="translate(0,0)" fill="rgb(179,178,178)" d="M 415.235 728.871 C 422.622 766.426 427.015 800.822 432.977 838.494 L 461.517 1017 C 463.16 1027.1 470.742 1082.67 473.121 1088.03 C 474.221 1091.3 475.859 1122.52 476.311 1128.83 L 484.751 1244.81 L 513.343 1626.51 L 523.196 1754.25 C 524.578 1772.62 525.286 1791.81 526.942 1810.01 C 545.811 1809.06 578.513 1805.81 596.009 1805.9 C 647.126 1798.91 700.751 1800.55 752.26 1794.17 C 764.288 1792.68 785.456 1794.3 798.529 1793.87 C 810.826 1794.17 823.836 1796.01 834.259 1796.25 L 710.176 1816.31 C 698.501 1818.29 652.86 1826.75 642.897 1826.93 C 642.584 1825.65 642.331 1825.67 641.42 1824.5 C 626.063 1822.69 585.347 1825.6 567.551 1826.6 C 544.315 1827.91 516.249 1828.07 493.596 1830.01 C 491.853 1785.1 487.089 1733.88 483.673 1688.73 L 469.885 1499.69 L 432.272 989.524 L 422.184 853.696 C 419.823 827.898 417.802 802.07 416.123 776.219 C 415.192 762.166 413.035 742.334 415.235 728.871 z"/><path transform="translate(0,0)" fill="rgb(205,204,204)" d="M 559.484 761.563 C 563.196 791.123 565.211 830.153 567.333 860.16 L 576.723 987.434 C 577.364 996.993 578.87 1050.82 580.861 1055.07 C 581.906 1070.03 579.385 1108.15 579.048 1125.77 L 574.751 1313.41 C 572.022 1338.65 573.227 1372.93 572.368 1399.16 L 565.231 1658.94 L 563.303 1740.66 C 562.859 1755.21 562.609 1772.74 560.889 1787.1 C 622.311 1787.01 687.903 1791.36 749.614 1793.22 C 761.946 1793.59 788.176 1791.87 798.529 1793.87 C 785.456 1794.3 764.288 1792.68 752.26 1794.17 C 700.751 1800.55 647.126 1798.91 596.009 1805.9 C 588.379 1804.14 576.677 1804.35 568.517 1804.04 L 527.864 1802.25 L 542.056 1289.43 L 550.314 951.804 C 551.956 893.422 552.75 834.78 555.927 776.413 C 556.278 769.967 556.374 767.394 559.484 761.563 z"/><path transform="translate(0,0)" fill="rgb(120,119,119)" d="M 411.796 708.441 C 421.178 706.327 435.452 704.079 444.841 703.104 L 445.562 706.82 C 446.739 711.162 446.788 730.791 447.43 737.555 C 449.45 758.832 451.064 782.875 453.022 803.998 C 454.721 822.323 455.271 875.792 459.864 891.464 C 460.352 905.882 467.049 963.435 462.563 972.303 C 468.143 1001.29 471.517 1056.75 473.121 1088.03 C 470.742 1082.67 463.16 1027.1 461.517 1017 L 432.977 838.494 C 427.015 800.822 422.622 766.426 415.235 728.871 C 414.044 722.069 412.898 715.258 411.796 708.441 z"/><path transform="translate(0,0)" fill="rgb(179,178,178)" d="M 445.562 706.82 C 446.739 711.162 446.788 730.791 447.43 737.555 C 449.45 758.832 451.064 782.875 453.022 803.998 C 454.721 822.323 455.271 875.792 459.864 891.464 C 455.964 889.948 453.686 890.605 449.368 891.016 C 444.777 862.936 440.87 832.998 435.498 805.205 C 440.689 804.579 446.469 804.513 450.517 801.423 L 449.928 800.006 C 445.13 798.49 440.432 799.694 435.299 800.397 C 429.634 773.835 426.811 743.126 420.885 715.12 C 428.181 713.415 437.178 713.52 444.074 710.907 C 445.471 710.378 445.163 709.047 445.562 706.82 z"/><path transform="translate(0,0)" fill="rgb(179,178,178)" d="M 459.864 891.464 C 460.352 905.882 467.049 963.435 462.563 972.303 C 458.115 946.776 453.907 921.207 449.941 895.601 C 455.071 894.889 456.727 895.146 459.864 891.464 z"/><path transform="translate(0,0)" fill="rgb(205,204,204)" d="M 566.324 519.938 C 575.604 519.92 585.648 519.139 594.972 518.595 L 594.822 548.729 C 592.325 588.895 594.41 632.962 591.112 671.802 C 585.934 672.121 562.227 674.135 558.364 673.475 C 558.836 671.972 560.078 553.815 559.884 552.694 L 557.236 551.585 L 560.968 551.079 C 561.838 542.028 561.11 531.874 562.604 523.061 C 562.944 521.053 563.774 521.324 566.324 519.938 z"/><path transform="translate(0,0)" fill="rgb(120,119,119)" d="M 566.324 519.938 C 575.604 519.92 585.648 519.139 594.972 518.595 L 594.822 548.729 C 584.165 549.458 571.448 550.702 560.968 551.079 C 561.838 542.028 561.11 531.874 562.604 523.061 C 562.944 521.053 563.774 521.324 566.324 519.938 z"/><path transform="translate(0,0)" fill="rgb(143,142,142)" d="M 555.437 521.005 C 558.583 521 563.103 520.32 566.324 519.938 C 563.774 521.324 562.944 521.053 562.604 523.061 C 561.11 531.874 561.838 542.028 560.968 551.079 L 557.236 551.585 L 541.981 552.456 C 541.228 541.99 541.046 532.061 540.098 521.434 C 544.99 521.103 550.489 521.11 555.437 521.005 z"/><path transform="translate(0,0)" fill="rgb(205,204,204)" d="M 543.796 363.181 C 556.392 359.705 580.35 357.064 594.677 354.385 C 657.795 342.584 721.414 332.893 784.699 321.75 L 1296.84 234.267 C 1353.98 224.809 1411.06 214.978 1468.06 204.774 C 1473.4 238.004 1479.79 272.849 1484.32 306.031 L 1579.69 300.202 C 1596.66 299.154 1618.39 297.049 1635.02 296.792 C 1636.54 323.275 1638.25 349.746 1640.17 376.203 C 1640.7 384.952 1640.91 395.264 1641.64 403.75 C 1599.09 401.432 1548.87 400.926 1506.24 400.032 C 1465.04 399.139 1423.84 397.999 1382.66 396.611 C 1352.92 395.874 1318.49 396.102 1289.13 394.08 L 906.623 383.651 C 804.107 380.278 701.566 377.688 599.01 375.883 C 598.492 417.347 596.839 459.013 595.935 500.494 C 595.805 506.424 595.633 512.71 594.972 518.595 C 585.648 519.139 575.604 519.92 566.324 519.938 C 563.103 520.32 558.583 521 555.437 521.005 C 557.126 520.644 561.121 519.871 561.175 519.056 C 563.307 486.759 563.398 390.964 566.213 364.947 C 559.571 365.161 549.358 366.224 543.796 363.181 z"/><path transform="translate(0,0)" fill="rgb(226,225,225)" d="M 1484.32 306.031 L 1579.69 300.202 C 1596.66 299.154 1618.39 297.049 1635.02 296.792 C 1636.54 323.275 1638.25 349.746 1640.17 376.203 L 1037.84 360.405 L 846.553 354.998 C 823.583 354.263 790.415 355.404 768.979 352.937 C 788.182 350.347 815.993 349.715 836.169 348.367 L 981.219 339.019 L 1317.17 317.099 C 1371.77 313.473 1430.15 310.644 1484.32 306.031 z"/><path transform="translate(0,0)" fill="url(#Gradient1)" d="M 1289.13 394.08 C 1318.49 396.102 1352.92 395.874 1382.66 396.611 C 1423.84 397.999 1465.04 399.139 1506.24 400.032 C 1548.87 400.926 1599.09 401.432 1641.64 403.75 C 1683.2 404.568 1725.86 406.548 1767.22 407.044 L 1761.49 629.087 C 1657.29 628.576 1550.42 622.111 1445.9 620.899 C 1416.28 618.534 1385.83 619.339 1356.09 618.141 C 1346.82 617.767 1336.62 618.162 1327.61 615.81 C 1317.28 613.149 1307.9 607.624 1300.57 599.872 C 1293.55 592.577 1288.69 583.477 1286.53 573.585 C 1283.37 558.936 1285.95 516.527 1286.46 500.053 L 1289.13 394.08 z"/><path transform="translate(0,0)" fill="rgb(31,36,44)" d="M 1374.12 454.054 C 1403.17 456.863 1466.07 445.737 1454.23 499.605 C 1452.06 509.495 1442.56 515.461 1434 519.725 L 1457.99 563.085 L 1435.75 562.834 L 1433.16 562.341 C 1428.13 555.598 1416.71 531.605 1410.89 522.058 L 1395.36 521.891 L 1394.8 561.19 L 1371.94 560.888 C 1373.15 525.288 1373.88 489.674 1374.12 454.054 z"/><path transform="translate(0,0)" fill="rgb(254,169,65)" d="M 1396.62 474.785 C 1413.43 474.649 1444.79 474.249 1427.72 501.117 C 1418.35 506.701 1407.25 504.512 1395.92 503.972 C 1396.04 494.241 1396.28 484.511 1396.62 474.785 z"/><path transform="translate(0,0)" fill="rgb(31,36,44)" d="M 1477 457.923 C 1500.67 458.078 1525.3 459.055 1549.02 459.638 L 1549.03 478.888 L 1538.72 478.66 C 1534.62 486.563 1531.19 493.171 1527.76 501.442 L 1543.26 501.85 L 1543.06 521.081 L 1511.45 520.413 L 1518.33 521.666 C 1517.57 525.427 1507.43 542.909 1504.28 544.817 C 1516.22 544.508 1536.52 545.983 1549.36 546.31 L 1549.12 566.257 C 1524.55 565.283 1498.45 564.015 1473.98 564.022 C 1475.27 528.664 1476.28 493.297 1477 457.923 z"/><path transform="translate(0,0)" fill="rgb(254,169,65)" d="M 1498.9 478.171 C 1512.04 478.005 1525.55 478.413 1538.72 478.66 C 1534.62 486.563 1531.19 493.171 1527.76 501.442 C 1518.1 501.185 1508.25 501.154 1498.57 501.027 L 1498.9 478.171 z"/><path transform="translate(0,0)" fill="rgb(254,169,65)" d="M 1497.35 520.294 L 1511.45 520.413 L 1518.33 521.666 C 1517.57 525.427 1507.43 542.909 1504.28 544.817 C 1502.86 544.867 1498.92 545.236 1498.31 544.076 C 1495.39 538.448 1497.13 526.55 1497.35 520.294 z"/><path transform="translate(0,0)" fill="rgb(31,36,44)" d="M 1559.17 459.91 L 1584.45 460.041 C 1592.53 487.359 1600.77 514.63 1609.17 541.852 C 1618.48 514.851 1627.97 487.914 1637.64 461.044 C 1645.94 461.505 1654.66 461.612 1663 461.844 L 1655.59 480.253 C 1644.9 509.188 1631.92 540.136 1620.36 568.984 C 1612.38 568.42 1603.85 568.51 1595.8 568.45 L 1572.2 499.457 C 1567.85 486.321 1564.16 472.733 1559.17 459.91 z"/><path transform="translate(0,0)" fill="rgb(143,142,142)" d="M 558.364 673.475 C 562.227 674.135 585.934 672.121 591.112 671.802 L 591.019 679.94 C 590.896 708.682 589.147 737.698 588.949 766.652 L 588.821 770.712 C 587.847 793.923 585.539 840.505 586.943 863.554 C 585.296 871.473 585.132 896.655 584.951 905.832 C 584.646 924.91 583.956 943.98 582.88 963.03 C 583.059 993.85 581.176 1024.36 580.861 1055.07 C 578.87 1050.82 577.364 996.993 576.723 987.434 L 567.333 860.16 C 565.211 830.153 563.196 791.123 559.484 761.563 C 558.385 751.408 553.703 678.593 554.64 675.115 L 558.364 673.475 z"/><path transform="translate(0,0)" fill="rgb(205,204,204)" d="M 591.019 679.94 C 590.896 708.682 589.147 737.698 588.949 766.652 C 582.105 766.879 575.007 767.502 568.155 768.009 C 566.768 740.328 564.113 709.54 562.017 681.758 C 570.838 680.735 581.994 680.429 591.019 679.94 z"/><path transform="translate(0,0)" fill="rgb(205,204,204)" d="M 568.768 772.116 C 575.256 771.83 582.296 771.184 588.821 770.712 C 587.847 793.923 585.539 840.505 586.943 863.554 L 585.642 860.984 C 582.598 859.347 578.14 859.896 574.513 859.952 C 572.891 830.747 570.07 801.147 568.768 772.116 z"/><path transform="translate(0,0)" fill="rgb(205,204,204)" d="M 586.943 863.554 C 585.296 871.473 585.132 896.655 584.951 905.832 C 584.646 924.91 583.956 943.98 582.88 963.03 C 579.541 930.96 578.73 897.17 574.635 865.202 C 579.838 865.029 581.942 865.224 586.943 863.554 z"/><path transform="translate(0,0)" fill="rgb(179,178,178)" d="M 705.271 533.084 C 832.642 536.652 963.209 542.449 1090.26 544.11 L 1089.37 574.08 L 704.887 563.736 L 705.271 533.084 z"/><path transform="translate(0,0)" fill="rgb(226,225,225)" d="M 1445.9 620.899 C 1550.42 622.111 1657.29 628.576 1761.49 629.087 L 1730.13 1820.45 L 1082.39 1802.53 L 927.563 1798.04 L 874.707 1796.47 C 862.317 1796 846.208 1794.46 834.259 1796.25 C 823.836 1796.01 810.826 1794.17 798.529 1793.87 C 788.176 1791.87 761.946 1793.59 749.614 1793.22 C 687.903 1791.36 622.311 1787.01 560.889 1787.1 C 562.609 1772.74 562.859 1755.21 563.303 1740.66 L 565.231 1658.94 L 572.368 1399.16 C 573.227 1372.93 572.022 1338.65 574.751 1313.41 C 611.873 1309.25 652.284 1293.03 688.189 1286.15 C 685.685 1411.35 681.968 1536.52 677.04 1661.64 C 804.622 1662.99 935.88 1669.17 1063.76 1672.52 L 1390.29 1681.36 C 1464.32 1683.31 1541.05 1684.72 1614.91 1687.85 C 1614.79 1641.01 1617.08 1587.22 1618.45 1540.06 L 1624.27 1328.02 L 1641.36 712.055 L 1401.02 705.381 C 1402.65 700.964 1405.08 697.339 1407.57 693.377 C 1422.11 670.215 1434.29 645.663 1445.9 620.899 z"/><path transform="translate(0,0)" fill="rgb(226,225,225)" d="M 865.168 876.804 C 909.567 876.022 960.224 879.097 1005.22 880.37 L 1274.34 888.115 C 1290.36 889.508 1309.58 889.133 1325.92 889.447 L 1407.85 891.648 L 1559.61 896.194 C 1582.23 896.793 1606.49 898.08 1628.96 898.016 L 1616.21 1354.44 L 1610.62 1577.46 C 1609.78 1611.3 1608.12 1646.24 1607.88 1680.01 C 1550.76 1679.1 1494.3 1676.78 1437.27 1675.3 L 1047.59 1664.97 C 980.935 1663.09 910.214 1659.44 843.955 1658.98 L 852.938 1337.87 L 855.228 1249.86 C 855.504 1240.74 855.55 1219.57 856.621 1211.33 C 857.507 1199.37 857.178 1181.52 857.398 1169.13 L 859.198 1095.07 C 861.58 1022.33 863.57 949.569 865.168 876.804 z"/><path transform="translate(0,0)" fill="rgb(245,244,244)" d="M 865.168 876.804 C 909.567 876.022 960.224 879.097 1005.22 880.37 L 1274.34 888.115 C 1253.74 911.708 1232.64 936.628 1211.05 959.264 C 1124.2 1051.32 1023.4 1129.14 912.362 1189.86 C 905.406 1193.68 861.68 1217.78 858.383 1217.39 C 856.419 1214.83 857.037 1215.11 856.621 1211.33 C 857.507 1199.37 857.178 1181.52 857.398 1169.13 L 859.198 1095.07 C 861.58 1022.33 863.57 949.569 865.168 876.804 z"/><path transform="translate(0,0)" fill="rgb(28,188,49)" d="M 1356.74 1052.22 C 1358.16 1052.13 1359.58 1052.05 1361.01 1051.99 C 1383.12 1050.99 1394.38 1065.92 1409.95 1078.56 C 1423.96 1089.93 1432.35 1112.69 1421.42 1128.72 C 1409.03 1146.89 1393.73 1164.4 1379.73 1181.58 L 1306.53 1271.62 L 1215.25 1383.82 C 1200.87 1401.87 1186.24 1419.72 1171.34 1437.35 C 1156.73 1454.84 1146.25 1474.05 1120.69 1473.26 C 1113.2 1473.07 1105.92 1470.72 1099.74 1466.49 C 1091.31 1460.69 1073.62 1439.83 1065.57 1430.99 L 1009.4 1369.64 C 997.962 1356.95 986.404 1344.36 974.727 1331.88 C 936.251 1290.43 927.878 1281.92 974.506 1237.96 C 1014.55 1200.21 1035.03 1235.23 1062.16 1264.71 C 1081.71 1286.19 1101.51 1307.44 1121.56 1328.46 C 1165.55 1271.71 1215.73 1212.67 1261.23 1156.53 L 1311.34 1094.15 C 1320 1083.42 1328.94 1071.8 1338.45 1061.85 C 1344.08 1055.95 1349.25 1054.41 1356.74 1052.22 z"/><path transform="translate(0,0)" fill="rgb(226,225,225)" d="M 695.528 1278.06 C 696.108 1280.54 695.711 1279.75 697.465 1281.74 C 727.514 1274.76 770.225 1256.44 799.128 1244.84 C 816.414 1237.91 833.742 1228.13 851.987 1222.54 C 848.153 1315.44 846.652 1409.89 844.013 1502.95 C 842.598 1552.87 839.894 1609.73 839.938 1658.9 C 789.101 1657.3 735.464 1654.84 684.916 1654.66 C 685.704 1569.42 689.64 1479.3 692.067 1393.82 L 694.382 1313.66 C 694.558 1307.33 694.778 1282.33 695.528 1278.06 z"/><path transform="translate(0,0)" fill="rgb(245,244,244)" d="M 706.995 872.182 C 757.199 873.707 811.631 873.438 861.433 876.576 C 859.092 991.918 855.943 1107.24 851.987 1222.54 C 833.742 1228.13 816.414 1237.91 799.128 1244.84 C 770.225 1256.44 727.514 1274.76 697.465 1281.74 C 695.711 1279.75 696.108 1280.54 695.528 1278.06 C 696.695 1260.57 696.547 1239.73 696.918 1221.88 C 697.58 1194.43 698.386 1166.99 699.336 1139.55 C 702.144 1051.64 705.829 959.864 706.995 872.182 z"/><path transform="translate(0,0)" fill="rgb(245,244,244)" d="M 871.03 697.811 C 930.77 697.966 995.175 700.964 1055.13 702.698 L 1384.44 712.126 L 1395.07 713.757 C 1391.26 723.357 1349.7 787.353 1341.97 796.114 L 868.917 782.494 C 868.899 754.253 869.604 726.016 871.03 697.811 z"/><path transform="translate(0,0)" fill="rgb(245,244,244)" d="M 868.115 786.992 C 895.626 786.886 921.426 788.15 948.849 788.973 C 990.91 789.947 1032.97 791.134 1075.01 792.534 C 1162.74 794.54 1250.46 797.067 1338.16 800.115 C 1338.78 803.65 1336.57 805.612 1334.08 809.151 C 1315.92 834.624 1297.07 859.608 1277.58 884.078 C 1236.67 882.222 1192.63 881.711 1151.5 880.691 C 1056.36 878.414 961.226 875.657 866.109 872.421 C 865.696 845.43 867.302 814.272 868.115 786.992 z"/><path transform="translate(0,0)" fill="rgb(226,225,225)" d="M 1338.16 800.115 C 1345.87 801.343 1362.21 801.139 1370.4 801.201 C 1386.01 801.242 1401.63 801.496 1417.24 801.963 L 1573.21 806.897 C 1592.43 807.549 1612.19 807.575 1631.31 808.511 C 1630.77 835.558 1628.79 867.563 1629.1 893.838 L 1403.51 887.759 C 1365.15 886.785 1314.95 886.951 1277.58 884.078 C 1297.07 859.608 1315.92 834.624 1334.08 809.151 C 1336.57 805.612 1338.78 803.65 1338.16 800.115 z"/><path transform="translate(0,0)" fill="rgb(226,225,225)" d="M 1384.44 712.126 C 1394 712.02 1403.51 712.567 1413.06 712.903 C 1486.57 715.489 1560.67 715.733 1634.11 718.985 L 1631.89 804.179 C 1567.67 802.905 1503.46 801.237 1439.27 799.175 C 1408.93 798.223 1371.86 798.02 1341.97 796.114 C 1349.7 787.353 1391.26 723.357 1395.07 713.757 L 1384.44 712.126 z"/><path transform="translate(0,0)" fill="rgb(245,244,244)" d="M 709.562 782.952 C 750.041 782.764 790.345 784.551 830.798 785.599 C 841.905 785.886 852.874 785.952 863.929 787.177 C 863.782 815.493 863.106 843.804 861.901 872.095 C 810.973 871.801 758.082 869.435 707.038 867.974 C 707.125 840.881 708.842 810.45 709.562 782.952 z"/><path transform="translate(0,0)" fill="rgb(245,244,244)" d="M 712.262 692.932 C 762.179 693.506 817.086 695.479 867.004 697.535 C 867.02 723.867 865.69 755.807 864.143 782.211 C 847.46 782.42 828.908 781.4 812.085 780.984 C 778.038 780.3 743.998 779.292 709.97 777.961 C 710.033 750.477 711.787 720.808 712.262 692.932 z"/></svg>