<svg version="1.1" xmlns="http://www.w3.org/2000/svg" style="display: block;" viewBox="0 0 2048 2048" width="1024" height="1024" preserveAspectRatio="none"><path transform="translate(0,0)" fill="rgb(28,36,47)" d="M 0 0 L 336.303 0 L 1708.79 0 L 2048 0 L 2048 331.286 L 2048 1707.53 L 2048 2048 L 1713.78 2048 L 333.179 2048 L 0 2048 L 0 1705.67 L 0 335.182 L 0 0 z"/><path transform="translate(0,0)" fill="rgb(248,247,247)" d="M 0 1705.67 C 3.70052 1732.55 4.37071 1751.34 10.6344 1778.45 C 29.6107 1857.59 75.6799 1927.61 140.857 1976.35 C 183.977 2009.02 234.099 2031.21 287.267 2041.19 C 302.14 2044.07 320.365 2045.33 333.179 2048 L 0 2048 L 0 1705.67 z"/><path transform="translate(0,0)" fill="rgb(248,247,247)" d="M 1713.78 2048 C 1725.71 2045.22 1747.83 2043.98 1762.46 2041.17 C 1814.24 2031.11 1863.11 2009.59 1905.48 1978.18 C 1979.21 1923.31 2031.36 1837.5 2043.44 1746.19 C 2045.15 1733.33 2046.15 1720.36 2048 1707.53 L 2048 2048 L 1713.78 2048 z"/><path transform="translate(0,0)" fill="rgb(248,247,247)" d="M 0 0 L 336.303 0 C 308.473 4.25023 292.581 4.68875 263.811 11.9533 C 185.177 32.5128 116.025 79.5295 67.9887 145.092 C 36.8628 187.354 15.7549 236.14 6.26141 287.761 C 3.65315 301.908 2.5262 323.972 0 335.182 L 0 0 z"/><path transform="translate(0,0)" fill="rgb(248,247,247)" d="M 1708.79 0 L 2048 0 L 2048 331.286 C 2045.77 322.348 2043.77 296.665 2041.34 284.319 C 2031.08 233.718 2010.07 185.912 1979.73 144.135 C 1930.91 77.2194 1859.83 29.9107 1779.25 10.7127 C 1751.15 4.11825 1735.6 4.0861 1708.79 0 z"/><path transform="translate(0,0)" fill="rgb(248,247,247)" d="M 153.431 176.946 L 1895.2 177.016 L 1895.49 241.02 C 1905.69 240.862 1916.6 240.194 1926.65 241.717 C 1930.41 242.288 1929.46 249.565 1927.88 251.625 C 1921.29 252.872 1903.21 252.332 1895.48 252.295 L 1895.7 1811.69 C 1888.83 1811.66 1857.14 1810.82 1853.18 1813.17 L 1852.82 1815.75 L 1852.77 1856.96 L 1808.47 1856.96 C 1808.3 1871.06 1808.24 1885.15 1808.31 1899.24 C 1756.63 1900.45 1702.18 1899.73 1650.31 1899.76 L 1367.74 1899.81 L 241.282 1899.98 L 241.2 1856.84 L 198.654 1856.87 L 198.893 1811.78 L 153.921 1811.5 L 153.431 176.946 z"/><path transform="translate(0,0)" fill="rgb(28,36,47)" d="M 281.02 345.402 L 446.81 345.516 L 844.766 345.506 L 1770.01 345.383 L 1769.88 1620.27 C 1718.94 1620.65 1667.99 1620.7 1617.04 1620.41 L 1328.88 1620.53 L 1329.11 1775 L 280.967 1775.15 L 281.02 345.402 z"/><path transform="translate(0,0)" fill="rgb(7,165,232)" d="M 1396.82 1093.92 C 1400.13 1079.86 1406.6 1060.7 1410.88 1046.62 C 1420.62 1014.25 1430.56 981.951 1440.71 949.712 L 1466.84 865.858 C 1472.24 848.124 1476.8 829.594 1483.53 812.348 C 1484.7 809.344 1486.07 806.539 1489.07 804.958 C 1494.23 802.239 1591.46 802.898 1604.41 803.744 C 1608.66 804.021 1612.61 804.678 1616.61 806.202 C 1620.31 809.782 1620.87 813.155 1620.92 818.187 C 1621.2 844.411 1621.1 870.644 1621.1 896.87 L 1621.09 1041.48 L 1621.21 1168.05 C 1621.25 1193.77 1623.09 1226.52 1618.94 1251.67 C 1617.62 1259.65 1544.47 1254.71 1535.01 1255.97 C 1529.56 1256.7 1523.29 1251.04 1523 1244.52 C 1522.25 1227.46 1522.55 1210.21 1522.59 1193.04 L 1522.4 1094.25 C 1522.24 1057.11 1522.37 1019.97 1522.78 982.826 L 1467.1 1163.59 L 1451.06 1215.71 C 1448.91 1222.75 1440.77 1254.15 1435.16 1254.63 C 1422.37 1255.73 1364.37 1258.27 1354.96 1253.47 C 1349.06 1245.9 1318.14 1139.78 1313.24 1123.83 C 1298.29 1076.37 1283.66 1028.81 1269.36 981.149 L 1269.68 1171.52 C 1269.73 1194.25 1270.01 1223.91 1268.78 1246.95 C 1268.78 1249.26 1264.77 1254.74 1262.84 1254.8 C 1244.39 1255.44 1190.02 1259.76 1175.16 1252.61 C 1169.94 1245.87 1171.91 1166.45 1171.9 1151.46 L 1171.86 984.377 L 1171.86 870.376 C 1171.87 851.93 1171.7 832.959 1172.08 814.488 C 1172.19 809.329 1175.01 807.376 1178.77 804.136 C 1192.57 803.41 1298.82 801.982 1304.69 805.048 C 1307.43 806.477 1309.91 814.43 1311 817.51 C 1320.16 843.447 1327.3 870.555 1335.35 896.885 L 1375.67 1026.48 C 1382.12 1047.31 1389.39 1074.07 1396.82 1093.92 z"/><path transform="translate(0,0)" fill="rgb(28,36,47)" d="M 1187.37 820.027 L 1295.3 819.893 L 1349.6 996.177 C 1365.06 1045.88 1381.78 1098.11 1395.86 1148.04 C 1400.88 1134.72 1405.47 1118 1409.63 1104.18 C 1416.03 1082.97 1422.53 1061.79 1429.15 1040.65 L 1497.57 820.161 L 1605.03 819.998 L 1605.02 1239.75 L 1538.23 1239.59 L 1538.06 940.25 C 1537.95 924.307 1537.75 908.365 1537.46 892.425 C 1522.28 929.04 1507.06 981.749 1495.02 1020.01 C 1471.94 1093.1 1449.23 1166.31 1426.9 1239.64 C 1409.59 1238.65 1383.39 1239.65 1365.15 1239.42 C 1336.31 1139.38 1302.54 1039.47 1271.87 939.903 C 1267.05 924.248 1261.12 905.745 1254.05 891.182 C 1252.05 1006.49 1254.54 1124.02 1253.34 1239.79 L 1187.58 1239.85 L 1187.37 820.027 z"/><path transform="translate(0,0)" fill="rgb(7,165,232)" d="M 1214.45 843.101 C 1234.79 842.851 1255.13 842.827 1275.47 843.027 L 1355.23 1084.03 L 1381.35 1163.14 C 1385.32 1175.09 1391.4 1195.17 1396.5 1206.16 C 1411.48 1164.76 1426.19 1118.48 1440.11 1076.57 L 1517.73 843.071 C 1537.67 842.9 1557.6 842.948 1577.54 843.216 C 1579.12 885.991 1577.98 934.321 1577.97 977.561 L 1578 1216.53 L 1565.09 1216.57 L 1564.96 869.25 L 1564.98 856.098 C 1552.36 856.397 1539.73 856.4 1527.11 856.106 C 1500.74 942.244 1469.64 1027.63 1441.67 1113.3 C 1430.32 1148.06 1418.49 1183.45 1406.21 1217.86 L 1384.96 1217.71 C 1374.37 1183.33 1362.75 1149.69 1351.53 1115.54 L 1265.54 855.688 C 1253.22 856.173 1239.77 856.004 1227.36 856.052 C 1227.02 975.893 1228.57 1097.1 1227.1 1216.71 L 1214.84 1216.64 C 1213.57 1170.85 1214.34 1122.56 1214.37 1076.63 L 1214.45 843.101 z"/><path transform="translate(0,0)" fill="rgb(7,165,232)" d="M 438.086 804.101 C 471.144 801.832 507.022 804.544 540.304 803.783 C 614.231 802.094 689.168 806.582 745.325 861.682 C 789.861 905.382 806.337 967.014 807.058 1028.03 C 807.46 1094.49 792.429 1152.05 744.671 1200.67 C 674.689 1264.3 595.098 1256.17 507.829 1256.14 C 493.073 1256.13 444.166 1258.46 433.089 1252.66 C 428.819 1239.4 430.837 1158.78 430.841 1140.68 L 430.708 971.503 L 430.773 866.539 C 430.786 849.264 430.63 831.492 430.966 814.21 C 431.063 809.211 434.253 807.339 438.086 804.101 z"/><path transform="translate(0,0)" fill="rgb(28,36,47)" d="M 446.142 819.974 L 539.349 820.162 C 608.674 820.227 675.056 819.546 729.992 869.463 C 790.324 924.282 799.627 1016.49 784.838 1092.5 C 777.631 1129.53 761.968 1158.39 736.742 1185.71 C 683.073 1239.59 615.85 1239.42 546.18 1239.68 L 446.319 1239.87 L 446.142 819.974 z"/><path transform="translate(0,0)" fill="rgb(7,165,232)" d="M 477.461 843.105 C 500.698 842.631 524.592 843.292 547.586 842.834 C 603.096 841.729 657.796 843.917 701.574 883.117 C 739.496 917.073 756.066 967.294 757.753 1017.33 C 759.678 1074.4 750.049 1125.77 711.057 1169.15 L 708.529 1171.6 C 662.134 1216.21 610.519 1216.15 550.948 1216.35 C 526.546 1216.55 502.141 1216.46 477.741 1216.07 L 477.387 967.371 C 477.109 925.949 477.134 884.526 477.461 843.105 z"/><path transform="translate(0,0)" fill="rgb(28,36,47)" d="M 490.431 856.042 C 555.641 856.661 638.359 845.96 691.161 891.428 C 740.071 933.544 749.266 1002.42 742.632 1063.11 C 738.279 1102.94 727.134 1129.81 701.306 1160.1 C 661.126 1201.83 606.441 1202.98 552.812 1202.98 L 490.999 1202.9 L 490.963 982.691 C 490.935 941.183 491.467 897.423 490.431 856.042 z"/><path transform="translate(0,0)" fill="rgb(7,165,232)" d="M 522.847 882.516 C 523.678 882.466 524.509 882.422 525.341 882.385 C 570.797 880.282 635.606 878.337 670.449 910.621 C 725.48 961.611 726.223 1090.09 676.6 1144.07 C 635.214 1183.96 577.478 1178.52 522.486 1177.56 C 521.258 1152.04 521.424 885.538 522.847 882.516 z"/><path transform="translate(0,0)" fill="rgb(28,36,47)" d="M 538.116 898.37 C 578.872 900.088 627.982 892.67 660.355 923.318 C 708.043 968.464 707.953 1085.96 665.09 1132.53 C 630.7 1165.42 583.108 1161.03 538.669 1160.97 C 537.075 1075.57 537.946 984.157 538.116 898.37 z"/><path transform="translate(0,0)" fill="rgb(7,165,232)" d="M 849.734 804.167 C 861.705 803.591 940.738 802.037 945.993 806.416 C 948.053 808.133 949.549 811.526 949.815 814.107 C 951.15 827.058 950.437 840.512 950.393 853.518 C 950.25 873.76 950.268 894.003 950.449 914.245 L 950.909 1161.75 L 1066.84 1161.59 C 1082.18 1161.57 1126.19 1159.59 1137.1 1165.23 C 1140.71 1170.23 1140.66 1181.77 1140.27 1188.04 C 1139.14 1206.35 1140.82 1224.71 1139.99 1242.94 C 1139.72 1249.11 1137.52 1251.59 1132.93 1255.29 C 1130.39 1255.7 1128.87 1255.84 1126.27 1255.85 C 1071.72 1256.16 1017.08 1256.06 962.524 1256.1 L 896.085 1256.12 C 883.628 1256.12 871.138 1256.35 858.697 1255.76 C 850.461 1255.38 843.391 1254.54 843.244 1244.18 C 842.866 1217.58 842.997 1190.95 842.971 1164.35 L 842.848 1009.69 L 842.789 883.046 C 842.75 860.639 842.475 837.72 842.979 815.321 C 843.117 809.176 845.086 808.248 849.734 804.167 z"/><path transform="translate(0,0)" fill="rgb(28,36,47)" d="M 858.23 820.092 L 934.107 820.019 C 935.095 938.998 933.109 1059.13 934.911 1177.84 C 996.271 1178.88 1062.96 1178.43 1124.38 1177.82 C 1124.95 1198.26 1124.57 1219.26 1124.38 1239.74 L 858.984 1239.96 L 858.23 820.092 z"/><path transform="translate(0,0)" fill="rgb(7,165,232)" d="M 889.596 843.161 L 903.008 843.177 L 903.076 1202.84 L 1101.09 1203.12 L 1101.04 1216.04 C 1031.05 1216.27 959.856 1216.8 889.984 1216.01 C 889.149 1171.42 889.876 1124.46 889.846 1079.7 L 889.596 843.161 z"/><path transform="translate(0,0)" fill="rgb(28,36,47)" d="M 164.923 252.07 L 1884.42 252.072 L 1884.77 1800.71 L 1852.8 1800.46 L 1852.75 305.5 L 1852.83 263.164 C 1761.37 261.722 1666.3 263.074 1574.58 263.067 L 1033.01 262.989 L 490.63 263.046 C 394.119 263.064 294.958 261.871 198.67 263.421 L 198.831 1800.53 C 187.887 1800.88 176.002 1800.76 164.982 1800.84 L 164.923 252.07 z"/><path transform="translate(0,0)" fill="rgb(28,36,47)" d="M 164.993 188.215 L 1884.57 188.051 L 1884.7 240.999 L 164.815 240.983 L 164.993 188.215 z"/><path transform="translate(0,0)" fill="rgb(28,36,47)" d="M 252.177 1856.94 L 1797.15 1856.92 C 1797.19 1863.51 1797.79 1881.7 1796.75 1887.35 L 1795.14 1888.21 L 828.5 1888.5 L 444.965 1888.3 C 381.003 1888.31 315.91 1887.71 252.02 1888.6 L 252.177 1856.94 z"/><path transform="translate(0,0)" fill="rgb(28,36,47)" d="M 280.894 306.834 C 334.489 307.475 389.396 306.901 443.079 306.886 L 758.664 306.836 L 1770.18 306.729 C 1770.32 315.818 1770.36 324.907 1770.32 333.996 L 280.829 334.02 L 280.894 306.834 z"/><path transform="translate(0,0)" fill="rgb(28,36,47)" d="M 241.986 345.324 L 269.463 345.465 L 269.981 1775.14 L 241.777 1775.12 C 242.392 1732.55 241.812 1688.48 241.805 1645.75 L 241.704 1393.44 L 241.986 345.324 z"/><path transform="translate(0,0)" fill="rgb(28,36,47)" d="M 1781 345.179 L 1809.03 345.317 L 1809.01 1620.29 L 1781 1620.28 L 1781 345.179 z"/><path transform="translate(0,0)" fill="rgb(28,36,47)" d="M 281.101 1786.45 L 1329.02 1786.24 L 1329.12 1809.25 L 1328.68 1812.42 C 1322.53 1814.77 1129.93 1813.1 1112.17 1813.1 L 280.958 1813.12 C 280.956 1804.23 281.003 1795.34 281.101 1786.45 z"/><path transform="translate(0,0)" fill="rgb(28,36,47)" d="M 1335.16 1626.93 L 1809.07 1627.03 L 1808.98 1676.76 C 1791.08 1677.1 1772.45 1677.08 1754.54 1676.86 C 1615.07 1675.14 1474.34 1679.36 1334.99 1676.31 L 1335.16 1626.93 z"/><path transform="translate(0,0)" fill="rgb(248,247,247)" d="M 1496.04 1637.9 C 1501.69 1637.85 1505.74 1638.36 1509.27 1643.35 C 1511.56 1646.65 1512.46 1650.72 1511.77 1654.68 C 1510.66 1661.08 1508.4 1663.71 1503.38 1667.31 C 1497.58 1667.29 1493.74 1666.85 1489.9 1661.9 C 1487.32 1658.51 1486.32 1654.19 1487.15 1650.01 C 1488.4 1643.59 1490.87 1641.26 1496.04 1637.9 z"/><path transform="translate(0,0)" fill="rgb(28,36,47)" d="M 1496.07 1642.71 C 1508.56 1643.85 1508.53 1653.66 1502.8 1662.15 C 1489.91 1662.55 1490.71 1650.51 1496.07 1642.71 z"/><path transform="translate(0,0)" fill="rgb(248,247,247)" d="M 1444.92 1638.59 C 1449.69 1638.55 1461.8 1637.58 1464.35 1641.32 C 1462.22 1656.26 1466.76 1654.16 1465.38 1663.74 C 1459.22 1667.62 1452.33 1666.84 1445.06 1666.81 C 1445.12 1657.46 1444.97 1647.96 1444.92 1638.59 z"/><path transform="translate(0,0)" fill="rgb(248,247,247)" d="M 1413.31 1638.53 C 1420.24 1638.25 1428.05 1636.6 1432.9 1640.29 L 1432.75 1642 C 1429.26 1644.55 1425.27 1642.45 1419.25 1643.98 L 1418.53 1645.63 C 1420.71 1648.26 1427.72 1650.03 1431.76 1652.03 L 1431.11 1653.31 C 1426.45 1655.24 1422.99 1654.76 1417.92 1654.73 C 1418.4 1656.75 1418.89 1658.77 1419.39 1660.78 C 1423.89 1663.44 1429.41 1659.33 1433.52 1663.43 L 1433.38 1665.75 C 1430.4 1667.53 1418.09 1666.82 1413.79 1666.77 C 1413.1 1657.68 1413.31 1647.71 1413.31 1638.53 z"/><path transform="translate(0,0)" fill="rgb(248,247,247)" d="M 1539.65 1637.83 C 1542.28 1638.44 1542.14 1638.35 1544.35 1639.89 C 1545.73 1643.79 1545.63 1645.76 1545.91 1649.96 C 1550.47 1644.43 1551.63 1641.97 1558.2 1639.22 L 1559.41 1640.12 C 1558.32 1644.01 1554.42 1647.4 1551.52 1650.47 C 1554.7 1653.95 1558.32 1659.04 1561.24 1662.9 C 1562.52 1664.97 1562.39 1664.93 1562.81 1667.36 C 1553.7 1666.13 1553.47 1657.61 1546.59 1656.32 C 1545.58 1660.47 1545.37 1662.58 1543.15 1666.14 L 1541.86 1665.65 C 1539.54 1658.18 1539.78 1646.02 1539.65 1637.83 z"/><path transform="translate(0,0)" fill="rgb(248,247,247)" d="M 1521.86 1638.03 C 1526.83 1638.11 1537.24 1640.09 1536.91 1646.24 C 1534.9 1648.21 1536.07 1647.83 1533.52 1647.89 C 1530.56 1645.54 1528.73 1643.53 1525.06 1642.94 C 1516.93 1645.91 1517.15 1657.03 1523.29 1661.51 C 1526.87 1662.02 1525.21 1662.26 1528.48 1660.84 C 1530.91 1658.64 1530.84 1658.39 1533.85 1657.34 L 1535.36 1658.29 C 1535.35 1660.49 1535.4 1661.92 1533.31 1663.88 C 1531.25 1665.84 1528.54 1666.96 1525.7 1667.04 C 1509.94 1667.49 1510.83 1647.19 1521.86 1638.03 z"/><path transform="translate(0,0)" fill="rgb(248,247,247)" d="M 1368.93 1639.22 C 1373.05 1639.02 1387.35 1638.55 1390.59 1639.66 L 1391.25 1641.45 C 1388.8 1644.8 1388.81 1643.85 1383.69 1645.27 C 1382.42 1649.21 1383.04 1657.73 1383.13 1662.25 C 1383.42 1664.58 1383.45 1664.42 1382.64 1666.62 L 1379.79 1666.98 C 1373.72 1661.72 1380.1 1648.53 1376.49 1644.17 C 1370.17 1644.12 1370.05 1645.14 1368.93 1639.22 z"/><path transform="translate(0,0)" fill="rgb(248,247,247)" d="M 1338.75 1639.25 C 1342.99 1638.89 1355.44 1638.67 1359.35 1639.57 L 1360.23 1641.57 C 1358.34 1644.24 1357.68 1643.55 1353.46 1644.57 C 1352.04 1647.94 1352.61 1658.1 1352.66 1662.25 C 1352.79 1664.73 1352.93 1663.9 1352.09 1666.14 L 1349.47 1666.65 C 1344.38 1664.76 1349.29 1649.07 1346.08 1644.2 C 1342.56 1643.99 1342.1 1644.43 1339.36 1642.72 L 1338.75 1639.25 z"/><path transform="translate(0,0)" fill="rgb(248,247,247)" d="M 1393.93 1638.13 L 1397.1 1638.82 C 1400.69 1642.46 1399.48 1655.64 1399.51 1661.6 C 1404.08 1661.48 1408.11 1660.66 1411.41 1663.2 L 1411.73 1666.35 C 1405.79 1666.78 1399.25 1666.6 1393.25 1666.58 L 1393.93 1638.13 z"/><path transform="translate(0,0)" fill="rgb(248,247,247)" d="M 1469.14 1638.2 C 1471.91 1638.69 1470.98 1638.24 1473.2 1639.88 C 1474.88 1646.21 1474.2 1654.54 1474.14 1661.36 C 1480.87 1661.42 1484.15 1659.26 1487.81 1665.59 C 1480.91 1666.87 1475.91 1666.45 1468.9 1666.24 L 1469.14 1638.2 z"/><path transform="translate(0,0)" fill="rgb(248,247,247)" d="M 1362.71 1638.2 C 1364.31 1638.58 1365.65 1638.51 1366.33 1639.66 C 1369.18 1644.43 1367.85 1661.83 1367.73 1667.5 L 1363.57 1666.51 C 1360 1661.33 1361.93 1644.73 1362.71 1638.2 z"/><path transform="translate(0,0)" fill="rgb(28,36,47)" d="M 1335.68 1683.11 L 1649.04 1683.03 L 1648.97 1701.83 L 1335.49 1702 L 1335.68 1683.11 z"/><path transform="translate(0,0)" fill="rgb(28,36,47)" d="M 1338.11 1708.52 C 1440.34 1706.52 1546.48 1708.57 1649.1 1708.13 C 1649.2 1713.36 1649.72 1720.98 1648.61 1725.87 L 1646.92 1726.76 C 1543.77 1726.25 1438.04 1728.33 1335.24 1726.56 C 1335.29 1720.76 1335.09 1715.32 1336.11 1709.62 L 1338.11 1708.52 z"/><path transform="translate(0,0)" fill="rgb(28,36,47)" d="M 1335.49 1758.06 L 1649.07 1758.09 C 1649.26 1764.28 1649.16 1770.47 1649.11 1776.66 C 1636.48 1776.95 1623.11 1776.99 1610.45 1776.75 C 1519.26 1775.03 1426.51 1779.14 1335.5 1776.49 C 1335.17 1771.18 1335.44 1763.58 1335.49 1758.06 z"/><path transform="translate(0,0)" fill="rgb(28,36,47)" d="M 1335.55 1733.21 L 1649.23 1732.99 L 1648.99 1751.6 C 1546.03 1749.64 1438.58 1751.42 1335.29 1751.38 L 1335.55 1733.21 z"/><path transform="translate(0,0)" fill="rgb(28,36,47)" d="M 1335.73 1782.68 C 1439.78 1783.11 1545.25 1781.51 1649.01 1782.91 L 1649 1801 L 1335.48 1801.15 C 1335.28 1795.14 1335.58 1788.72 1335.73 1782.68 z"/><path transform="translate(0,0)" fill="rgb(28,36,47)" d="M 1334.24 1808.11 C 1339.91 1807.38 1358.8 1807.9 1365.98 1807.93 L 1430.73 1808.01 C 1496.05 1807.94 1561.39 1807.92 1626.71 1807.72 C 1631.88 1807.7 1644.86 1806.32 1648.77 1809.12 L 1648.92 1812.58 C 1568.07 1810.48 1423.46 1815.09 1336.75 1812.58 C 1335.67 1812.55 1334.84 1809.56 1334.24 1808.11 z"/><path transform="translate(0,0)" fill="rgb(28,36,47)" d="M 1781.11 306.813 L 1809.01 306.881 L 1808.97 333.935 L 1780.94 334.047 L 1781.11 306.813 z"/><path transform="translate(0,0)" fill="rgb(28,36,47)" d="M 241.933 306.927 L 269.217 306.9 C 269.712 315.578 269.647 325.186 269.768 333.944 L 241.954 334.012 L 241.933 306.927 z"/><path transform="translate(0,0)" fill="rgb(28,36,47)" d="M 242.03 1786.38 L 269.968 1786.52 L 269.748 1813.17 L 241.733 1812.98 C 242.025 1804.31 241.951 1795.1 242.03 1786.38 z"/><path transform="translate(0,0)" fill="rgb(28,36,47)" d="M 1655.55 1782.97 L 1675.92 1782.99 C 1675.99 1793.19 1676.11 1802.72 1675.52 1812.94 L 1655.49 1812.93 L 1655.55 1782.97 z"/><path transform="translate(0,0)" fill="rgb(28,36,47)" d="M 1788.73 1782.93 L 1809.04 1782.98 L 1808.94 1812.67 L 1788.93 1812.78 L 1788.73 1782.93 z"/><path transform="translate(0,0)" fill="rgb(28,36,47)" d="M 1708.87 1782.99 L 1728.87 1782.87 L 1728.86 1812.75 L 1708.95 1812.86 L 1708.87 1782.99 z"/><path transform="translate(0,0)" fill="rgb(28,36,47)" d="M 1761.99 1782.96 L 1781.96 1783 L 1782 1812.86 L 1762.05 1812.75 L 1761.99 1782.96 z"/><path transform="translate(0,0)" fill="rgb(28,36,47)" d="M 1682.23 1782.96 L 1702.01 1783.05 L 1702.26 1812.98 L 1682.51 1812.92 C 1682.06 1803.44 1682.27 1792.55 1682.23 1782.96 z"/><path transform="translate(0,0)" fill="rgb(28,36,47)" d="M 1735.76 1782.97 L 1755.3 1782.99 C 1755.4 1792.9 1755.32 1802.82 1755.05 1812.73 L 1735.44 1812.75 C 1735.18 1803.14 1735.58 1792.64 1735.76 1782.97 z"/><path transform="translate(0,0)" fill="rgb(28,36,47)" d="M 1708.48 1683.03 L 1729.04 1683.04 L 1728.88 1701.9 L 1708.53 1702.03 L 1708.48 1683.03 z"/><path transform="translate(0,0)" fill="rgb(28,36,47)" d="M 1655.49 1683.05 L 1675.94 1683.12 L 1675.91 1701.91 L 1655.45 1701.95 C 1655.26 1695.85 1655.44 1689.2 1655.49 1683.05 z"/><path transform="translate(0,0)" fill="rgb(28,36,47)" d="M 1735.26 1683.07 L 1755.45 1683.07 L 1755.3 1701.95 L 1735.22 1702.01 L 1735.26 1683.07 z"/><path transform="translate(0,0)" fill="rgb(28,36,47)" d="M 1762.04 1683.06 L 1782.06 1682.99 L 1781.81 1701.93 L 1761.71 1702.01 L 1762.04 1683.06 z"/><path transform="translate(0,0)" fill="rgb(28,36,47)" d="M 1655.61 1708.19 L 1675.93 1708.19 L 1675.91 1726.87 L 1655.5 1726.8 L 1655.61 1708.19 z"/><path transform="translate(0,0)" fill="rgb(28,36,47)" d="M 1788.76 1682.97 L 1809.04 1683.02 L 1809 1701.61 C 1803.03 1702.04 1794.83 1701.91 1788.68 1701.97 L 1788.76 1682.97 z"/><path transform="translate(0,0)" fill="rgb(28,36,47)" d="M 1735.27 1708.26 L 1755.24 1708.11 L 1755.54 1726.85 L 1735.11 1726.84 L 1735.27 1708.26 z"/><path transform="translate(0,0)" fill="rgb(28,36,47)" d="M 1788.83 1757.85 L 1809.05 1757.71 L 1809.05 1776.2 C 1802.65 1776.66 1795.1 1776.56 1788.6 1776.63 L 1788.83 1757.85 z"/><path transform="translate(0,0)" fill="rgb(28,36,47)" d="M 1708.84 1757.81 C 1715.06 1757.57 1722.58 1757.83 1728.91 1757.89 L 1728.97 1776.71 C 1722.51 1776.88 1715.26 1776.65 1708.73 1776.58 L 1708.84 1757.81 z"/><path transform="translate(0,0)" fill="rgb(28,36,47)" d="M 1708.96 1708.18 L 1728.94 1708.13 L 1728.93 1726.71 L 1708.6 1726.79 L 1708.96 1708.18 z"/><path transform="translate(0,0)" fill="rgb(28,36,47)" d="M 1682.5 1683.06 L 1702.22 1682.97 L 1701.93 1701.9 L 1682.18 1702.03 L 1682.5 1683.06 z"/><path transform="translate(0,0)" fill="rgb(28,36,47)" d="M 1788.96 1708.19 L 1809.01 1708.04 L 1808.93 1726.56 L 1788.75 1726.76 L 1788.96 1708.19 z"/><path transform="translate(0,0)" fill="rgb(28,36,47)" d="M 1735.72 1757.77 L 1755.52 1757.73 C 1755.75 1763.64 1755.58 1770.36 1755.55 1776.35 C 1749.3 1776.7 1741.72 1776.51 1735.35 1776.5 C 1735.33 1770.42 1735.59 1763.89 1735.72 1757.77 z"/><path transform="translate(0,0)" fill="rgb(28,36,47)" d="M 1708.39 1733 L 1728.96 1732.93 L 1728.84 1751.66 C 1722.44 1751.88 1715.18 1751.65 1708.7 1751.58 L 1708.39 1733 z"/><path transform="translate(0,0)" fill="rgb(28,36,47)" d="M 1788.6 1733.06 L 1809.05 1733.04 L 1809.01 1751.14 C 1802.35 1751.39 1795.27 1751.37 1788.57 1751.45 L 1788.6 1733.06 z"/><path transform="translate(0,0)" fill="rgb(28,36,47)" d="M 1655.83 1733.01 L 1675.78 1732.95 L 1675.67 1751.61 C 1669.16 1751.93 1662.39 1751.7 1655.84 1751.6 L 1655.83 1733.01 z"/><path transform="translate(0,0)" fill="rgb(28,36,47)" d="M 1655.76 1758.12 L 1675.98 1758.17 L 1676.03 1776.64 C 1669.45 1776.85 1662.03 1776.59 1655.38 1776.5 C 1655.22 1770.89 1655.6 1763.85 1655.76 1758.12 z"/><path transform="translate(0,0)" fill="rgb(28,36,47)" d="M 1762.01 1733.01 L 1782.01 1733.06 L 1781.98 1751.34 C 1774.77 1751.89 1768.88 1751.64 1761.66 1751.42 L 1762.01 1733.01 z"/><path transform="translate(0,0)" fill="rgb(28,36,47)" d="M 1761.92 1757.9 L 1782 1757.95 L 1782.03 1776.55 C 1775.53 1776.86 1768.55 1776.53 1762.02 1776.35 L 1761.92 1757.9 z"/><path transform="translate(0,0)" fill="rgb(28,36,47)" d="M 1735.71 1732.95 L 1755.27 1732.92 L 1755.34 1751.63 C 1748.91 1751.97 1741.9 1751.75 1735.42 1751.68 C 1735.32 1745.66 1735.58 1739.03 1735.71 1732.95 z"/><path transform="translate(0,0)" fill="rgb(28,36,47)" d="M 1682.19 1733.06 L 1702.11 1732.97 C 1702.16 1739.31 1701.99 1745.1 1701.75 1751.43 C 1695.39 1751.74 1688.44 1751.51 1682.02 1751.41 L 1682.19 1733.06 z"/><path transform="translate(0,0)" fill="rgb(28,36,47)" d="M 1762.03 1708.25 C 1768.61 1708.17 1775.42 1708.33 1782.01 1708.41 L 1782.03 1726.79 L 1761.92 1726.76 L 1762.03 1708.25 z"/><path transform="translate(0,0)" fill="rgb(28,36,47)" d="M 1682.18 1758.13 L 1702 1758.14 L 1702.12 1776.74 C 1695.75 1776.86 1688.85 1776.6 1682.45 1776.48 L 1682.18 1758.13 z"/><path transform="translate(0,0)" fill="rgb(28,36,47)" d="M 1682.36 1708.34 C 1688.89 1708.21 1695.52 1708.45 1702.06 1708.61 L 1702.37 1726.9 L 1682.31 1726.79 L 1682.36 1708.34 z"/></svg>