<svg version="1.1" xmlns="http://www.w3.org/2000/svg" style="display: block;" viewBox="0 0 2048 2048" width="1024" height="1024" preserveAspectRatio="none"><defs><linearGradient id="Gradient1" gradientUnits="userSpaceOnUse" x1="281.711" y1="429.764" x2="335.842" y2="423.931"><stop class="stop0" offset="0" stop-opacity="1" stop-color="rgb(18,22,30)"/><stop class="stop1" offset="1" stop-opacity="1" stop-color="rgb(33,52,71)"/></linearGradient></defs><path transform="translate(0,0)" fill="rgb(46,43,46)" d="M 138.064 232.078 L 1229.78 231.642 L 1647.48 232.008 C 1726.99 232.095 1807.51 231.331 1886.93 232.328 L 1886.02 1474.32 L 1886.27 1739.16 C 1886.3 1746.36 1887.52 1811.24 1885.85 1814.12 C 1764.96 1813.76 1644.08 1814.08 1523.21 1815.08 L 812.303 1815.01 L 351.514 1815.09 L 205.216 1815.02 C 183.675 1815 159.286 1814.21 138.114 1814.74 L 138.025 734.983 L 137.943 367.243 C 138.261 322.189 138.301 277.133 138.064 232.078 z"/><path transform="translate(0,0)" fill="rgb(254,254,254)" d="M 203.162 298.047 L 1816.48 297.875 C 1815.99 378.852 1815.91 459.832 1816.27 540.81 L 1816.34 953.594 L 1816.42 1744.9 L 203.176 1744.96 L 203.162 298.047 z"/><path transform="translate(0,0)" fill="rgb(77,74,78)" d="M 984.949 558.999 L 1157.17 558.881 L 1211.8 559.051 C 1218.37 559.042 1232.43 557.122 1237.39 560.183 C 1237.83 562.682 1237.87 561.942 1237.61 564.412 L 1237.61 873.824 L 1237.8 977.333 C 1237.8 991.723 1238.36 1010.49 1237.7 1024.58 L 1237.67 1026.62 L 1237.63 1456.26 L 1237.71 1638.69 C 1237.72 1667.25 1238.97 1706.72 1237.58 1734.59 L 1237.83 1739.2 C 1229.26 1740.6 1205.43 1740.05 1195.75 1740.03 L 1117.54 1739.92 L 979.1 1740.04 C 958.797 1740.04 928.578 1740.9 908.978 1739.85 C 902.068 1740.19 892.902 1739.94 885.812 1739.97 L 884.179 1740.06 L 882.833 1739.79 C 864.759 1740.64 841.239 1740.01 822.602 1740.02 C 791.563 1740.15 760.523 1740.09 729.484 1739.84 L 721.512 1739.84 C 706.603 1740.42 689.459 1740.06 674.483 1739.86 C 648.411 1740.7 618.466 1739.99 592.094 1739.99 L 588.783 1740.03 L 552.523 1739.84 C 542.189 1740.16 531.584 1740.09 521.233 1740.02 C 450.533 1739.54 379.656 1740.75 308.974 1739.86 L 295.107 1739.99 C 270.396 1740.18 245.684 1740.13 220.973 1739.86 L 208.677 1740.01 C 207.823 1734.49 208.104 1720.42 208.099 1714.33 L 208.101 1668.54 L 208.054 1506.33 L 208.051 1147.84 C 208.034 1080.3 207.232 1010.81 208.195 943.442 C 207.963 931.969 207.947 920.493 208.149 909.019 C 207.06 890.09 207.972 861.856 207.99 842.182 L 208.047 711.576 L 207.986 612.58 C 207.985 598.548 207.347 571.937 208.734 559.005 L 326.563 558.967 C 346.848 558.974 372.344 559.671 392.053 558.63 L 394.223 559.039 L 526.35 558.972 C 541.371 558.981 576.433 559.984 589.415 558.589 L 590.824 559.003 C 621.142 558.956 657.451 559.951 687.177 558.621 L 689.023 559.009 L 886.735 558.898 L 948.419 558.941 C 958.16 558.949 973.669 559.394 983.193 558.604 L 984.949 558.999 z"/><path transform="translate(0,0)" fill="rgb(46,43,46)" d="M 591.334 1643.98 L 686.96 1643.93 L 687.037 1739.19 C 683.167 1739.29 678.218 1739.25 674.483 1739.86 C 648.411 1740.7 618.466 1739.99 592.094 1739.99 C 590.706 1727.59 591.073 1710.53 591.076 1697.75 C 591.011 1679.83 591.097 1661.9 591.334 1643.98 z"/><path transform="translate(0,0)" fill="rgb(46,43,46)" d="M 885.89 1644.66 C 891.584 1643.42 911.222 1643.92 918.206 1643.92 L 982.728 1643.92 C 981.643 1673.25 982.361 1709.9 982.782 1739.21 C 966.522 1738.94 923.755 1738.12 908.978 1739.85 C 902.068 1740.19 892.902 1739.94 885.812 1739.97 C 887.393 1714.09 886.495 1671.19 885.89 1644.66 z"/><path transform="translate(0,0)" fill="rgb(46,43,46)" d="M 492.564 1643.95 L 588.824 1643.94 L 588.894 1707.35 C 588.902 1715.71 589.393 1732.3 588.783 1740.03 L 552.523 1739.84 C 537.521 1738.14 508.453 1739.01 492.239 1739.11 C 492.205 1708.41 493.206 1674.09 492.564 1643.95 z"/><path transform="translate(0,0)" fill="rgb(46,43,46)" d="M 689.45 1644.02 L 786.024 1643.98 L 786.011 1739.31 C 772.074 1739.22 742.131 1738.31 729.484 1739.84 L 721.512 1739.84 C 711.775 1739.01 699.845 1738.92 689.951 1739.09 C 688.966 1708.22 689.514 1675.11 689.45 1644.02 z"/><path transform="translate(0,0)" fill="rgb(46,43,46)" d="M 295.134 1643.87 L 391.882 1643.97 C 390.867 1669.66 390.265 1713.58 391.814 1738.98 L 339.311 1738.94 C 331.534 1738.96 316.076 1738.69 308.974 1739.86 L 295.107 1739.99 C 294.786 1708.16 294.987 1675.73 295.134 1643.87 z"/><path transform="translate(0,0)" fill="rgb(46,43,46)" d="M 788.571 1644.07 C 815.145 1644.33 841.829 1643.7 868.411 1643.89 C 873.766 1643.93 879.504 1643.48 884.692 1644.75 C 883.419 1653.5 883.847 1670.96 883.872 1680.32 L 884.179 1740.06 L 882.833 1739.79 C 875.998 1737.99 801.016 1739.13 788.131 1739.22 C 788.585 1707.51 788.731 1675.79 788.571 1644.07 z"/><path transform="translate(0,0)" fill="rgb(46,43,46)" d="M 208.886 897.068 C 231.039 898.738 268.674 897.407 292.29 897.486 L 292.378 962.547 C 292.403 972.904 292.041 988.153 292.822 998.218 C 271.888 998.529 229.13 999.72 209.155 998.117 C 209.226 988.492 209.954 950.322 208.195 943.442 C 207.963 931.969 207.947 920.493 208.149 909.019 L 208.886 897.068 z"/><path transform="translate(0,0)" fill="rgb(46,43,46)" d="M 209.166 1644.09 L 292.92 1643.92 L 292.687 1739.29 C 277.655 1739.01 234.556 1738.31 220.973 1739.86 L 208.677 1740.01 C 209.778 1729.04 209.39 1713.96 209.363 1702.69 L 209.166 1644.09 z"/><path transform="translate(0,0)" fill="rgb(46,43,46)" d="M 689.023 559.009 L 886.735 558.898 L 948.419 558.941 C 958.16 558.949 973.669 559.394 983.193 558.604 C 982.322 565.564 982.542 574.885 982.509 582.097 L 886.127 582.435 C 886.201 577.637 886.915 567.953 884.751 564.086 L 885.101 563.468 L 885.276 564.351 C 883.019 568.485 883.916 577.009 883.956 582.268 C 874.504 582.92 860.299 582.382 850.414 582.364 L 788.126 582.28 C 788.197 578.043 788.435 565.4 787.056 561.931 C 785.46 569.052 785.84 575.039 785.912 582.317 C 754.32 582.856 720.938 582.222 689.247 582.068 L 689.023 559.009 z"/><path transform="translate(0,0)" fill="rgb(46,43,46)" d="M 1181.83 1000.91 L 1236.62 1001.04 C 1236.62 1007.77 1236.21 1018.4 1237.7 1024.58 L 1237.67 1026.62 C 1235.77 1033.21 1236.65 1099.22 1236.68 1110.49 C 1219.64 1111.27 1199.23 1110.86 1181.93 1110.97 C 1182.11 1074.28 1182.08 1037.6 1181.83 1000.91 z"/><path transform="translate(0,0)" fill="rgb(46,43,46)" d="M 984.949 558.999 L 1157.17 558.881 L 1211.8 559.051 C 1218.37 559.042 1232.43 557.122 1237.39 560.183 C 1237.83 562.682 1237.87 561.942 1237.61 564.412 C 1236.19 569.997 1236.6 576.053 1236.62 581.896 C 1220.1 582.524 1198.38 582.752 1181.98 582.357 C 1182.14 575.366 1182.32 570.801 1181.51 563.849 L 1180.06 562.959 L 1181.33 562.877 L 1180.72 561.055 L 1179.83 562.865 L 1181.09 562.928 L 1179.67 563.848 C 1178.82 569.566 1179.22 576.252 1179.33 582.116 C 1147.31 582.307 1115.28 582.285 1083.25 582.051 C 1083.31 576.046 1083.36 571.346 1082.89 565.342 L 1081.53 564.101 L 1081.57 563.568 L 1082.51 562.918 L 1082.28 562.096 L 1081.68 562.052 C 1082.62 562.899 1082.2 562.306 1082.42 564.086 L 1081.13 564.855 C 1080.48 569.741 1080.85 576.892 1080.93 581.984 C 1048.99 582.313 1017.05 582.327 985.111 582.026 C 985.3 574.425 985.075 566.619 984.949 558.999 z"/><path transform="translate(0,0)" fill="rgb(46,43,46)" d="M 1182.08 1643.94 L 1236.64 1644.02 L 1236.5 1701.24 C 1236.48 1709.29 1236.01 1727.37 1237.58 1734.59 L 1237.83 1739.2 C 1229.61 1737.98 1192.19 1738.82 1182.13 1738.86 C 1181.76 1707.4 1182.21 1675.49 1182.08 1643.94 z"/><path transform="translate(0,0)" fill="rgb(46,43,46)" d="M 394.223 559.039 L 526.35 558.972 C 541.371 558.981 576.433 559.984 589.415 558.589 C 587.739 565.748 588.394 574.832 588.748 582.183 L 492.242 582.217 C 492.348 575.864 492.413 571.274 491.915 564.919 L 490.543 564.173 L 491.775 563.929 L 490.634 563.111 L 491.503 562.492 L 491.132 561.521 L 490.349 563.427 L 491.457 563.627 L 491.501 564.153 L 490.138 564.908 C 489.475 569.784 489.808 576.979 489.863 582.065 C 460.741 583.07 424.01 582.453 394.688 582.134 C 394.933 574.52 394.512 566.672 394.223 559.039 z"/><path transform="translate(0,0)" fill="rgb(46,43,46)" d="M 208.734 559.005 L 326.563 558.967 C 346.848 558.974 372.344 559.671 392.053 558.63 C 391.665 566.449 391.481 574.276 391.502 582.105 C 362.337 583.483 324.883 582.117 295.052 582.238 C 295.053 577.602 295.295 569.64 294.656 565.319 L 293.252 564.566 L 293.303 564.029 L 294.421 563.837 L 293.65 562.109 L 293.282 562.912 L 294.055 562.993 L 293.073 563.863 L 294.192 563.997 L 292.84 565.347 C 292.246 571.907 292.338 576.002 292.494 582.56 C 266.847 582.761 234.532 583.612 209.331 582.433 C 209.332 575.498 209.623 565.593 208.734 559.005 z"/><path transform="translate(0,0)" fill="rgb(46,43,46)" d="M 590.824 559.003 C 621.142 558.956 657.451 559.951 687.177 558.621 C 686.491 565.763 686.793 574.856 686.839 582.195 C 654.93 582.467 623.019 582.534 591.109 582.396 C 591.156 574.597 591.061 566.798 590.824 559.003 z"/><path transform="translate(0,0)" fill="rgb(46,43,46)" d="M 689.19 1000.94 C 721.113 1001.43 754.054 1000.98 786.012 1000.89 L 785.982 1110.9 L 689.254 1110.96 C 689.451 1074.28 689.43 1037.61 689.19 1000.94 z"/><path transform="translate(0,0)" fill="rgb(46,43,46)" d="M 492.066 1000.97 C 524.338 1001.2 556.611 1001.2 588.883 1000.96 C 587.985 1033.46 587.974 1078.18 589.059 1110.6 C 561.104 1112.18 521.188 1110.85 492.096 1110.87 C 492.455 1074.23 492.445 1037.6 492.066 1000.97 z"/><path transform="translate(0,0)" fill="rgb(46,43,46)" d="M 1083.18 1000.89 L 1179.95 1000.99 C 1179.41 1035.78 1181.03 1076.07 1179.63 1109.83 L 1177.89 1110.71 C 1146.99 1111.38 1114.33 1110.89 1083.29 1110.92 C 1084.24 1075.62 1083.22 1036.51 1083.18 1000.89 z"/><path transform="translate(0,0)" fill="rgb(46,43,46)" d="M 885.951 1000.89 L 982.869 1000.87 C 981.823 1034.43 982.03 1076.19 982.892 1109.7 C 979.995 1111.66 897.733 1110.9 886.154 1110.95 C 886.576 1074.26 886.508 1037.57 885.951 1000.89 z"/><path transform="translate(0,0)" fill="rgb(46,43,46)" d="M 295.003 1000.92 C 326.674 1001.47 359.538 1001.05 391.303 1001.07 C 391.037 1037.65 391.052 1074.23 391.348 1110.8 L 294.898 1111.06 C 295.638 1074.97 295.04 1037.14 295.003 1000.92 z"/><path transform="translate(0,0)" fill="rgb(46,43,46)" d="M 985.157 1000.87 C 1016.64 1001.41 1049.42 1000.95 1081.01 1000.95 C 1080.27 1036.52 1080.93 1074.88 1080.94 1110.6 C 1051.97 1111.95 1014.72 1110.93 985.042 1110.9 C 986.541 1077.6 985.21 1034.99 985.157 1000.87 z"/><path transform="translate(0,0)" fill="rgb(46,43,46)" d="M 591.123 1000.91 C 622.141 1001.73 655.751 1001.04 686.961 1000.99 L 686.929 1110.77 L 590.988 1110.98 C 591.838 1075.33 590.96 1036.86 591.123 1000.91 z"/><path transform="translate(0,0)" fill="rgb(46,43,46)" d="M 788.097 1000.97 C 820.104 1001.1 852.112 1001.03 884.118 1000.76 C 883.303 1036.74 883.951 1074.82 884.07 1110.9 L 788.063 1110.98 C 789.196 1077.73 788.578 1034.46 788.097 1000.97 z"/><path transform="translate(0,0)" fill="rgb(46,43,46)" d="M 394.647 1001 C 426.415 1001.19 458.185 1001.18 489.953 1000.98 L 489.945 1110.81 L 394.252 1110.93 C 395.198 1099.32 394.71 1083.35 394.735 1071.35 C 394.865 1047.9 394.836 1024.45 394.647 1001 z"/><path transform="translate(0,0)" fill="rgb(46,43,46)" d="M 584.496 1220.55 C 587.637 1220.7 586.384 1220.05 588.562 1221.99 L 588.933 1325.01 L 497.75 1325.11 C 495.325 1325.17 494.982 1325.04 492.573 1324.57 C 491.719 1319.77 492.101 1298.43 492.107 1291.94 L 492.138 1220.68 C 522.903 1220.53 553.763 1220.95 584.496 1220.55 z"/><path transform="translate(0,0)" fill="rgb(46,43,46)" d="M 782.547 1220.54 C 785.186 1220.64 784.062 1220.15 785.929 1221.99 C 786.586 1255.71 785.991 1291.15 785.984 1325.02 L 691.84 1325.02 L 689.704 1324.15 C 688.888 1316.15 689.396 1297.55 689.382 1289.01 L 689.175 1220.67 C 719.333 1221.23 752.348 1220.87 782.547 1220.54 z"/><path transform="translate(0,0)" fill="rgb(46,43,46)" d="M 1083.3 1113.82 C 1114.62 1114.58 1148.43 1113.92 1179.94 1113.89 C 1179.34 1148.15 1179.69 1183.44 1179.67 1217.78 C 1148.01 1218.44 1114.99 1217.95 1083.24 1217.91 C 1084.01 1184.26 1083.23 1147.79 1083.3 1113.82 z"/><path transform="translate(0,0)" fill="rgb(46,43,46)" d="M 917.729 1220.5 C 939.358 1220.15 960.839 1220.87 982.683 1220.36 C 982.388 1254.51 982.125 1290.97 982.407 1325.03 L 951.584 1325.04 L 886.287 1325.01 C 886.914 1290.66 886.408 1255.16 886.316 1220.73 L 917.729 1220.5 z"/><path transform="translate(0,0)" fill="rgb(46,43,46)" d="M 689.425 1114.03 L 786.044 1113.99 L 785.958 1217.92 C 753.923 1218.29 721.187 1217.94 689.094 1217.94 C 691.152 1188.16 688.793 1145.62 689.425 1114.03 z"/><path transform="translate(0,0)" fill="rgb(46,43,46)" d="M 1083.5 1328.27 L 1179.91 1328.05 C 1179.66 1362.76 1179.63 1397.48 1179.82 1432.19 C 1148.54 1433 1114.69 1432.09 1083.12 1432.27 C 1083.84 1397.96 1082.27 1362.28 1083.5 1328.27 z"/><path transform="translate(0,0)" fill="rgb(46,43,46)" d="M 295.066 1220.54 C 325.878 1221.41 360.289 1220.67 391.355 1220.76 C 390.104 1253.21 391.145 1292.23 391.166 1324.95 L 295.022 1325.04 L 295.066 1220.54 z"/><path transform="translate(0,0)" fill="rgb(46,43,46)" d="M 492.236 1114.01 C 524.179 1114.38 556.848 1113.98 588.847 1113.94 C 587.576 1144.55 588.783 1186.9 588.956 1217.95 L 492.03 1217.9 C 492.422 1183.27 492.491 1148.64 492.236 1114.01 z"/><path transform="translate(0,0)" fill="rgb(46,43,46)" d="M 1083.35 1220.85 C 1114.76 1220.79 1148.73 1221.62 1179.82 1220.54 C 1178.64 1252.8 1179.79 1292.27 1179.85 1325.02 L 1083.44 1324.97 L 1083.35 1220.85 z"/><path transform="translate(0,0)" fill="rgb(46,43,46)" d="M 591.423 1220.4 C 620.613 1221.74 656.554 1220.22 686.878 1220.76 C 686.045 1253.82 686.882 1291.47 687.005 1324.72 C 682.124 1325.5 662.625 1325.15 656.566 1325.15 L 591.062 1325.02 C 591.611 1292.34 589.534 1252.42 591.423 1220.4 z"/><path transform="translate(0,0)" fill="rgb(46,43,46)" d="M 492.231 1328.81 C 524.385 1328.47 556.542 1328.45 588.696 1328.75 C 587.993 1337.67 588.748 1354.17 588.748 1364 C 588.575 1386.72 588.64 1409.44 588.942 1432.16 C 556.654 1432.4 524.364 1432.46 492.075 1432.34 L 492.231 1328.81 z"/><path transform="translate(0,0)" fill="rgb(46,43,46)" d="M 813.745 1220.49 C 837.15 1220.12 860.52 1220.97 884.002 1220.44 L 883.958 1324.98 L 862.25 1325.05 L 788.218 1325.04 C 789.074 1291.78 788.246 1254.35 788.204 1220.77 C 796.718 1220.78 805.233 1220.69 813.745 1220.49 z"/><path transform="translate(0,0)" fill="rgb(46,43,46)" d="M 951.765 1328.5 C 962.076 1328.35 972.497 1328.04 982.784 1328.6 C 982.056 1339.61 982.609 1355.48 982.615 1367 C 982.448 1388.75 982.527 1410.5 982.853 1432.25 C 962.642 1432.55 941.544 1432.23 921.25 1432.22 L 886.125 1432.43 C 887.169 1399.36 886.225 1362.37 886.483 1328.78 L 951.765 1328.5 z"/><path transform="translate(0,0)" fill="rgb(46,43,46)" d="M 886.181 1113.98 L 982.64 1113.88 C 981.906 1121.15 982.523 1140.79 982.56 1148.76 C 982.784 1171.87 982.77 1194.99 982.518 1218.1 L 886.255 1217.96 C 886.985 1186.36 887.06 1145.82 886.181 1113.98 z"/><path transform="translate(0,0)" fill="rgb(46,43,46)" d="M 689.46 1328.87 L 785.993 1328.85 L 785.995 1399.71 C 786.003 1406.37 786.453 1427.35 785.431 1432.01 L 783.502 1432.46 C 752.084 1432.19 720.664 1432.2 689.246 1432.5 C 690.708 1400.75 688.96 1361.74 689.46 1328.87 z"/><path transform="translate(0,0)" fill="rgb(46,43,46)" d="M 294.988 1113.95 L 391.378 1114.02 C 391.022 1148.66 390.913 1183.3 391.05 1217.94 C 359.289 1218.28 326.824 1217.9 295.004 1217.87 C 295.366 1183.37 295.048 1148.48 294.988 1113.95 z"/><path transform="translate(0,0)" fill="rgb(46,43,46)" d="M 985.368 1328.28 C 1017.2 1328.08 1049.04 1328.1 1080.87 1328.35 C 1080.38 1362.57 1080.98 1397.88 1080.89 1432.22 C 1053.15 1433.73 1013.94 1432.17 985.043 1432.23 C 986.428 1398.72 984.359 1362.32 985.368 1328.28 z"/><path transform="translate(0,0)" fill="rgb(46,43,46)" d="M 441.249 1220.49 C 457.244 1220.24 473.863 1220.58 489.906 1220.7 C 489.572 1255.29 489.897 1290.4 489.954 1325.02 C 475.622 1325.19 461.041 1325.05 446.687 1325.05 L 394.178 1324.99 C 394.55 1309.8 394.12 1294.38 394.275 1279.15 C 394.473 1259.73 395.211 1240.31 394.527 1220.91 L 441.249 1220.49 z"/><path transform="translate(0,0)" fill="rgb(46,43,46)" d="M 295.202 1328.94 C 327.139 1328.6 359.078 1328.6 391.016 1328.93 C 391.165 1363.03 391.598 1398.4 390.915 1432.4 C 358.948 1432.98 326.973 1432.93 295.008 1432.24 C 295.831 1398.78 294.985 1362.82 295.202 1328.94 z"/><path transform="translate(0,0)" fill="rgb(46,43,46)" d="M 985.334 1220.61 L 1080.82 1220.89 L 1080.9 1324.96 L 985.11 1325.04 C 986.241 1292.48 985.292 1253.58 985.334 1220.61 z"/><path transform="translate(0,0)" fill="rgb(46,43,46)" d="M 591.121 1328.74 C 622.83 1329.04 655.119 1328.62 686.911 1328.65 C 686.424 1352.81 687.346 1377.82 687.011 1402.04 C 686.915 1409.03 687.641 1426.61 686.28 1432.5 C 654.755 1432.14 622.544 1432.85 591.127 1432.08 C 591.688 1398.22 591.015 1362.83 591.121 1328.74 z"/><path transform="translate(0,0)" fill="rgb(46,43,46)" d="M 985.35 1113.92 L 1080.95 1113.91 L 1080.91 1217.96 C 1049.62 1218.56 1016.53 1217.99 985.096 1217.98 C 986.241 1184.68 985.229 1147.57 985.35 1113.92 z"/><path transform="translate(0,0)" fill="rgb(46,43,46)" d="M 591.096 1113.96 C 622.682 1114.41 655.202 1114.01 686.862 1114.01 L 686.952 1217.96 C 655.29 1218.37 622.705 1217.95 590.968 1217.93 L 591.096 1113.96 z"/><path transform="translate(0,0)" fill="rgb(46,43,46)" d="M 830.142 1328.48 C 847.513 1328.14 866.528 1328.47 883.963 1328.63 C 883.55 1362.89 883.986 1398.01 884.022 1432.34 L 842.75 1432.32 L 788.12 1432.23 C 789.12 1398.15 787.962 1363.22 788.597 1328.85 L 830.142 1328.48 z"/><path transform="translate(0,0)" fill="rgb(46,43,46)" d="M 788.331 1114.03 L 883.994 1113.79 C 883.531 1147.42 885.164 1184.9 883.743 1218.03 L 788.108 1217.87 C 788.924 1183.59 788.168 1148.5 788.331 1114.03 z"/><path transform="translate(0,0)" fill="rgb(46,43,46)" d="M 394.726 1114.07 L 489.938 1114 L 489.931 1217.92 C 458.562 1218.48 425.626 1217.93 394.135 1217.88 C 394.717 1183.28 394.914 1148.68 394.726 1114.07 z"/><path transform="translate(0,0)" fill="rgb(46,43,46)" d="M 394.886 1328.79 C 425.253 1328.08 459.422 1328.6 489.904 1328.85 C 489.211 1362.71 489.962 1398.03 489.768 1432.08 C 459.789 1433.11 424.398 1432.35 394.047 1432.33 C 395.65 1401.38 394.503 1360.98 394.886 1328.79 z"/><path transform="translate(0,0)" fill="rgb(46,43,46)" d="M 492.175 1539.09 L 588.78 1539.24 C 588.145 1548.55 588.702 1563.12 588.724 1572.87 L 589.002 1640.99 C 557.168 1641.51 524.026 1641.03 492.078 1641.04 C 492.993 1608.05 492.231 1572.34 492.175 1539.09 z"/><path transform="translate(0,0)" fill="rgb(46,43,46)" d="M 492.308 688.962 L 588.819 688.809 C 587.973 698.757 588.431 715.588 588.454 726.18 C 588.388 747.681 588.589 769.182 589.057 790.677 C 583.984 791.426 562.956 791.015 556.698 790.998 L 492.016 790.96 L 492.308 688.962 z"/><path transform="translate(0,0)" fill="rgb(46,43,46)" d="M 1083.19 1538.96 L 1179.88 1538.95 C 1179.14 1571.61 1179.62 1608.36 1180 1641.04 L 1083.12 1640.97 C 1084.03 1608.38 1083.18 1571.86 1083.19 1538.96 z"/><path transform="translate(0,0)" fill="rgb(46,43,46)" d="M 689.288 688.871 L 785.95 688.976 C 785.973 702.512 787.838 785.619 784.751 790.929 L 689.264 790.981 C 690.769 761.154 689.416 719.904 689.288 688.871 z"/><path transform="translate(0,0)" fill="rgb(46,43,46)" d="M 689.361 1539.18 C 719.317 1540.15 755.691 1539.27 786.069 1539.04 C 785.584 1572.7 785.958 1607.31 785.97 1641.04 L 689.191 1641 C 691.48 1613.21 688.685 1569.08 689.361 1539.18 z"/><path transform="translate(0,0)" fill="rgb(46,43,46)" d="M 295.156 688.949 L 391.285 688.892 C 391.097 722.882 391.107 756.873 391.316 790.863 C 359.406 791.259 326.877 790.954 294.895 791.043 C 295.464 757.389 294.992 722.756 295.156 688.949 z"/><path transform="translate(0,0)" fill="rgb(46,43,46)" d="M 295.175 1539.06 C 326.472 1539.79 359.945 1539.26 391.449 1539.29 C 390.677 1572.47 390.993 1607.8 391.231 1641.06 C 360.259 1641.85 326.217 1641.13 294.998 1641.13 C 296.004 1608.46 294.918 1572.18 295.175 1539.06 z"/><path transform="translate(0,0)" fill="rgb(46,43,46)" d="M 1083.43 688.904 L 1179.79 688.718 C 1179.04 719.932 1178.68 759.494 1179.85 790.61 C 1173.88 791.338 1155.83 790.939 1148.64 790.947 L 1083.08 790.945 C 1083.63 757.009 1082.95 722.925 1083.43 688.904 z"/><path transform="translate(0,0)" fill="rgb(46,43,46)" d="M 886.285 1539.02 C 914.361 1540.36 953.776 1539.08 982.486 1539.12 C 982.169 1544.75 982.189 1550.65 982.339 1556.3 C 983.085 1584.5 981.936 1612.84 982.497 1641.01 L 886.118 1641.01 C 886.417 1607.02 886.472 1573.02 886.285 1539.02 z"/><path transform="translate(0,0)" fill="rgb(46,43,46)" d="M 492.263 1435.18 C 521.365 1436.85 558.969 1435.57 588.864 1435.38 C 587.973 1466.82 588.342 1504.39 588.929 1535.86 C 582.317 1538.04 505.011 1536.93 492.037 1536.96 C 492.55 1503.29 492.249 1468.9 492.263 1435.18 z"/><path transform="translate(0,0)" fill="rgb(46,43,46)" d="M 985.102 688.942 C 1017 688.738 1048.91 688.768 1080.81 689.032 C 1079.82 720.767 1080.93 758.494 1081.08 790.754 C 1049.37 791.301 1016.75 790.924 984.974 790.925 C 986.159 758.776 985.182 721.469 985.102 688.942 z"/><path transform="translate(0,0)" fill="rgb(46,43,46)" d="M 1083.36 1435.08 C 1115.12 1435.88 1148.19 1435.38 1179.98 1435.21 C 1179.68 1468.86 1179.58 1502.52 1179.7 1536.17 C 1173.88 1536.44 1167.52 1536.43 1161.68 1536.33 C 1135.63 1535.9 1109.05 1537.33 1083.06 1536.3 C 1083.14 1502.78 1082.67 1468.5 1083.36 1435.08 z"/><path transform="translate(0,0)" fill="rgb(46,43,46)" d="M 886.478 688.973 L 982.268 689.013 C 981.531 722.228 983.768 758.529 982.628 791 L 886.155 791.013 C 887.175 757.698 886.046 722.697 886.478 688.973 z"/><path transform="translate(0,0)" fill="rgb(46,43,46)" d="M 591.179 688.801 C 622.245 689.542 655.698 688.908 686.948 688.896 C 686.362 722.413 686.899 757.436 687.039 791.02 L 591.014 791.038 C 591.629 757.583 591.087 722.419 591.179 688.801 z"/><path transform="translate(0,0)" fill="rgb(46,43,46)" d="M 1083.41 897.053 C 1115.78 897.255 1147.46 896.95 1179.88 897.612 C 1178.96 930.022 1179.77 965.138 1179.39 998.059 C 1150.02 999.247 1112.77 998.588 1083.25 998.075 C 1084.66 967.869 1083.03 928.44 1083.41 897.053 z"/><path transform="translate(0,0)" fill="rgb(46,43,46)" d="M 689.682 1435.35 C 715.266 1436.94 759.173 1435.57 786.008 1435.43 C 785.539 1468.91 785.973 1503.38 785.984 1536.93 L 689.199 1536.81 C 691.088 1504.15 687.674 1466.8 689.682 1435.35 z"/><path transform="translate(0,0)" fill="rgb(46,43,46)" d="M 985.278 1539.02 C 1016.32 1539.71 1049.61 1539.1 1080.83 1539.18 C 1080.11 1546.55 1080.63 1564.35 1080.65 1572.34 C 1080.63 1595.2 1080.74 1618.06 1080.98 1640.92 C 1049.49 1641.44 1016.64 1640.97 985.037 1640.99 C 985.474 1607.19 985.045 1572.91 985.278 1539.02 z"/><path transform="translate(0,0)" fill="rgb(46,43,46)" d="M 788.106 1538.95 C 800.164 1539.91 814.214 1539.28 826.461 1539.2 L 883.985 1539.03 C 883.788 1572.93 883.786 1606.84 883.978 1640.75 C 879.603 1641.48 859.249 1641.1 853.923 1641.09 L 788.085 1640.95 C 788.451 1606.95 788.458 1572.95 788.106 1538.95 z"/><path transform="translate(0,0)" fill="rgb(46,43,46)" d="M 295.226 1435.13 C 326.043 1436.57 360.943 1435.66 391.946 1435.29 C 389.809 1463.66 391.165 1507.48 391.332 1536.52 C 383.813 1537.37 366.641 1536.93 358.379 1536.92 L 295.02 1536.85 C 295.481 1503.01 294.931 1469.04 295.226 1435.13 z"/><path transform="translate(0,0)" fill="rgb(46,43,46)" d="M 689.455 897.323 C 699.348 898.059 713.372 897.66 723.544 897.655 L 785.997 897.607 C 785.453 930.922 786.468 964.666 785.774 998.045 C 757.167 998.514 717.552 999.361 689.242 998.123 C 690.45 965.561 688.613 930.394 689.455 897.323 z"/><path transform="translate(0,0)" fill="rgb(46,43,46)" d="M 788.372 689.025 L 883.895 688.95 C 883.336 722.377 883.923 757.385 883.977 790.936 L 788.048 790.935 C 788.76 757.782 788.233 722.423 788.372 689.025 z"/><path transform="translate(0,0)" fill="rgb(46,43,46)" d="M 591.44 1435.3 C 601.195 1436.1 616.025 1435.61 626.167 1435.6 L 686.947 1435.38 L 687.053 1536.71 C 680.452 1537.54 662.457 1536.96 654.724 1536.94 L 591.094 1536.62 C 592.048 1503.39 590.09 1468.69 591.44 1435.3 z"/><path transform="translate(0,0)" fill="rgb(46,43,46)" d="M 492.61 897.292 C 501.777 897.951 515.512 897.48 525.024 897.503 C 546.115 897.625 567.207 897.613 588.298 897.467 C 588.275 931.086 588.445 964.705 588.807 998.322 C 559.316 998.166 520.611 999.902 492.104 998.234 C 492.828 965.402 492.359 930.383 492.61 897.292 z"/><path transform="translate(0,0)" fill="rgb(46,43,46)" d="M 591.619 1539.36 L 686.981 1539.27 C 686.553 1572.81 686.865 1607.54 687.043 1641.09 L 591.135 1641.03 C 592.212 1609.53 589.193 1569.81 591.619 1539.36 z"/><path transform="translate(0,0)" fill="rgb(46,43,46)" d="M 295.508 897.116 C 322.073 898.712 363.012 897.472 391.19 897.906 L 391.156 997.863 C 384.085 998.801 365.917 998.382 358.261 998.374 L 294.978 998.339 C 295.751 965.298 293.894 929.89 295.508 897.116 z"/><path transform="translate(0,0)" fill="rgb(46,43,46)" d="M 886.59 1435.08 C 917.082 1436.59 951.748 1435.39 982.637 1435.48 C 981.884 1444.56 982.338 1460.85 982.364 1470.41 L 982.68 1536.44 C 965.258 1536.81 946.938 1536.45 929.426 1536.55 C 916.481 1536.62 898.68 1537.22 886.094 1536.31 C 886.609 1502.57 886.775 1468.83 886.59 1435.08 z"/><path transform="translate(0,0)" fill="rgb(46,43,46)" d="M 689.556 793.752 C 720.94 794.441 754.442 793.806 785.986 793.749 L 785.926 893.989 C 753.704 894.521 721.476 894.541 689.253 894.047 C 690.614 862.693 688.743 826.202 689.556 793.752 z"/><path transform="translate(0,0)" fill="rgb(46,43,46)" d="M 394.304 1539.13 C 425.941 1539.51 458.279 1539.24 489.954 1539.08 L 489.989 1641.02 L 394.687 1641.01 C 395.341 1608.88 395.043 1571.33 394.304 1539.13 z"/><path transform="translate(0,0)" fill="rgb(46,43,46)" d="M 492.022 793.908 L 588.896 793.741 C 588.224 809.146 588.75 826.057 588.654 841.61 C 588.548 858.783 588.168 876.591 588.729 893.67 C 585.097 894.662 562.846 894.384 557.376 894.39 L 492.098 894.418 C 492.826 861.85 492.271 826.604 492.022 793.908 z"/><path transform="translate(0,0)" fill="rgb(46,43,46)" d="M 689.29 585.085 C 721.551 585.31 753.813 585.282 786.074 585.001 C 785.945 596.264 786.889 682.594 784.622 685.448 C 774.763 685.977 762.034 685.515 751.884 685.542 C 730.986 685.707 710.087 685.706 689.189 685.538 L 689.29 585.085 z"/><path transform="translate(0,0)" fill="rgb(46,43,46)" d="M 1083.2 793.55 C 1115.44 793.855 1147.68 793.914 1179.91 793.729 C 1178.83 824.552 1179.57 862.77 1179.74 893.989 C 1148.19 894.632 1114.85 894.104 1083.15 894.124 C 1084.7 865.969 1083.16 822.668 1083.2 793.55 z"/><path transform="translate(0,0)" fill="rgb(46,43,46)" d="M 591.166 897.14 C 595.828 897.656 600.562 897.658 605.247 897.569 C 632.423 897.055 659.587 897.348 686.766 897.509 C 685.642 928.695 687.078 966.074 686.752 998.115 C 655.36 998.743 622.536 998.395 591.052 998.528 C 591.506 965.066 591.011 930.715 591.166 897.14 z"/><path transform="translate(0,0)" fill="rgb(46,43,46)" d="M 394.508 688.936 L 489.962 688.952 C 489.18 721.562 489.77 758.244 489.992 790.97 L 394.556 790.848 C 395.991 761.618 394.693 719.366 394.508 688.936 z"/><path transform="translate(0,0)" fill="rgb(46,43,46)" d="M 1083.31 585.025 C 1115.38 585.388 1147.86 585.185 1179.96 585.142 C 1179.21 618.315 1179.16 651.501 1179.81 684.677 C 1176.95 686.53 1092.4 685.318 1083.25 685.254 C 1084.12 652.897 1082.85 617.931 1083.31 585.025 z"/><path transform="translate(0,0)" fill="rgb(46,43,46)" d="M 492.294 585.033 C 524.448 585.221 556.603 585.235 588.757 585.076 C 587.488 597.602 590.327 681.23 587.709 685.891 C 555.83 685.565 523.949 685.508 492.07 685.72 L 492.294 585.033 z"/><path transform="translate(0,0)" fill="rgb(46,43,46)" d="M 789.714 1435.48 C 816.462 1436.82 856.292 1435.32 884.086 1435.22 L 883.94 1536.67 C 855.257 1537.93 817.645 1536.69 788.076 1536.77 C 788.414 1525.22 787.156 1439.36 789.714 1435.48 z"/><path transform="translate(0,0)" fill="rgb(46,43,46)" d="M 294.851 793.48 C 326.822 794.252 359.188 793.596 391.236 793.807 L 391.233 894.064 C 360.322 894.584 325.841 894.86 295.033 894.075 C 295.759 861.598 294.99 826.178 294.851 793.48 z"/><path transform="translate(0,0)" fill="rgb(46,43,46)" d="M 909.807 897.521 C 928.9 897.057 963.803 896.25 982.295 897.659 C 982.307 927.277 980.961 969.357 982.705 998.197 L 955.75 998.16 L 886.201 998.282 C 887.845 969.366 886.322 927.984 886.332 897.734 L 909.807 897.521 z"/><path transform="translate(0,0)" fill="rgb(46,43,46)" d="M 394.439 1435.06 C 424.825 1436.21 459.377 1435.86 489.88 1435.4 C 489.568 1468.98 489.933 1503.15 489.97 1536.78 C 458.897 1537.46 425.251 1536.8 394.006 1536.83 C 395.114 1525.82 394.633 1510.36 394.673 1498.91 C 394.899 1477.63 394.821 1456.35 394.439 1435.06 z"/><path transform="translate(0,0)" fill="rgb(46,43,46)" d="M 591.064 793.897 L 686.914 793.605 L 686.968 894.282 C 655.821 894.411 621.958 895.149 591.031 894.133 L 591.064 793.897 z"/><path transform="translate(0,0)" fill="rgb(46,43,46)" d="M 985.511 1435.18 C 1017.32 1435.78 1049.14 1435.81 1080.96 1435.28 C 1080.06 1467.45 1080.84 1503.34 1080.93 1535.85 C 1075.84 1536.91 1047.68 1536.51 1041.03 1536.39 C 1022.97 1536.08 1002.94 1537.02 985.121 1536.26 C 986.544 1504.14 984.578 1468.13 985.511 1435.18 z"/><path transform="translate(0,0)" fill="rgb(46,43,46)" d="M 886.119 793.782 L 982.286 793.614 C 982.046 825.679 981.713 862.332 982.449 894.008 C 976.118 894.729 958.589 894.34 951.566 894.35 L 886.142 894.127 C 887.078 863.19 886.664 824.806 886.119 793.782 z"/><path transform="translate(0,0)" fill="rgb(46,43,46)" d="M 815.345 897.522 C 838.223 897.284 861.101 897.198 883.98 897.264 C 883.359 930.249 883.959 965.026 883.998 998.152 C 875.895 998.641 865.76 998.322 857.5 998.281 L 788.104 998.094 C 788.771 965.264 788.287 930.853 788.322 897.9 C 797.329 897.724 806.337 897.598 815.345 897.522 z"/><path transform="translate(0,0)" fill="rgb(46,43,46)" d="M 881.503 793.53 L 883.436 794.053 C 884.427 798.675 883.977 820.501 883.969 826.196 L 883.971 894.115 C 854.872 895.121 820.279 894.178 790.75 894.141 L 789.216 893.915 C 786.955 890.977 788.137 803.93 788.131 793.934 L 881.503 793.53 z"/><path transform="translate(0,0)" fill="rgb(46,43,46)" d="M 993.763 897.423 C 1022.79 897.117 1051.81 897.239 1080.84 897.791 C 1080.61 908.572 1082.04 993.189 1080.03 997.814 L 1076.25 998.184 L 985.026 998.139 C 985.899 976.118 984.882 952.87 985.171 930.773 C 985.294 921.417 984.453 907.497 985.564 898.699 C 987.806 897.011 990.757 897.457 993.763 897.423 z"/><path transform="translate(0,0)" fill="rgb(46,43,46)" d="M 885.925 584.949 C 918.043 585.249 950.163 585.329 982.282 585.189 C 981.607 607.468 982.922 631.512 982.331 653.885 C 982.101 662.6 982.95 676.181 981.654 684.432 L 979.749 685.486 L 886.115 685.554 C 887.042 654.37 886.413 616.171 885.925 584.949 z"/><path transform="translate(0,0)" fill="rgb(46,43,46)" d="M 295.109 585.082 C 325.104 586.231 361.01 585.231 391.22 585.089 C 391.057 608.056 391.071 631.024 391.262 653.991 C 391.282 660.693 391.757 680.142 390.72 685.829 C 359.881 686.255 326.024 685.502 295 685.233 L 295.109 585.082 z"/><path transform="translate(0,0)" fill="rgb(46,43,46)" d="M 985.157 585.124 C 1014.68 586.083 1051.21 585.379 1080.91 585.155 C 1079.83 616.799 1081.06 652.971 1080.76 685.203 C 1056.72 687.101 1010.33 685.45 985.047 685.296 C 985.652 652.545 985.088 618.031 985.157 585.124 z"/><path transform="translate(0,0)" fill="rgb(46,43,46)" d="M 985.188 793.766 L 1080.97 793.637 C 1080.25 826.176 1080.91 861.333 1081.02 894.112 L 984.947 894.195 C 986.168 862.909 985.187 825.607 985.188 793.766 z"/><path transform="translate(0,0)" fill="rgb(46,43,46)" d="M 394.473 897.648 C 426.033 897.172 458.29 897.654 489.964 897.547 C 489.564 930.853 489.895 964.782 489.895 998.137 C 459.735 999.167 425.173 998.307 394.668 998.154 C 395.024 965.984 395.369 929.682 394.473 897.648 z"/><path transform="translate(0,0)" fill="rgb(46,43,46)" d="M 394.738 793.966 C 426.48 793.706 458.222 793.652 489.964 793.803 L 489.962 894.106 C 459.084 894.914 425.76 894.342 394.679 894.313 C 395.684 862.719 394.722 825.927 394.738 793.966 z"/><path transform="translate(0,0)" fill="rgb(46,43,46)" d="M 394.635 585.12 L 489.981 585.063 C 489.553 618.326 489.919 652.336 489.921 685.656 C 463.135 686.967 421.957 685.763 394.593 685.433 C 395.318 653.009 395.01 617.598 394.635 585.12 z"/><path transform="translate(0,0)" fill="rgb(46,43,46)" d="M 591.262 585.065 C 622.207 585.808 655.735 585.108 686.875 585.046 L 686.882 685.518 C 658.216 686.93 620.768 685.31 591.009 685.749 L 591.262 585.065 z"/><path transform="translate(0,0)" fill="rgb(46,43,46)" d="M 788.031 585.027 C 818.712 585.905 853.17 585.102 884.049 584.998 L 883.764 685.423 C 873.344 686.056 859.778 685.485 849.002 685.442 L 788.172 685.325 C 788.721 652.441 788.122 617.981 788.031 585.027 z"/><path transform="translate(0,0)" fill="rgb(46,43,46)" d="M 209.132 1001.12 C 233.657 1002.38 267.78 1001.11 292.885 1000.94 C 291.987 1010.78 292.417 1027.67 292.37 1037.93 C 292.068 1061.6 292.249 1085.28 292.914 1108.95 L 291.885 1110.47 C 286.994 1111.43 271.1 1111.04 265.206 1111.04 L 209.111 1110.93 C 209.958 1075.28 209.155 1037.02 209.132 1001.12 z"/><path transform="translate(0,0)" fill="rgb(46,43,46)" d="M 1083.35 1643.88 L 1179.97 1643.9 C 1179.35 1674.72 1179.64 1708.07 1179.9 1738.88 L 1083.42 1738.89 C 1082.05 1712.76 1082.98 1670.41 1083.35 1643.88 z"/><path transform="translate(0,0)" fill="rgb(46,43,46)" d="M 985.389 1643.94 L 1080.9 1643.93 L 1080.54 1738.74 L 985.214 1739.45 C 984.977 1707.61 985.035 1675.77 985.389 1643.94 z"/><path transform="translate(0,0)" fill="rgb(46,43,46)" d="M 394.801 1644 L 489.986 1643.97 L 489.928 1739.01 C 458.281 1739.3 426.631 1739.31 394.983 1739.04 L 394.801 1644 z"/><path transform="translate(0,0)" fill="rgb(46,43,46)" d="M 209.31 1328.23 C 230.889 1328.72 272.831 1326.88 292.228 1328.95 C 291.381 1361.81 292.518 1399.31 292.753 1432.57 C 264.751 1432.16 236.854 1432.74 208.905 1432.46 C 209.39 1397.85 208.981 1362.95 209.31 1328.23 z"/><path transform="translate(0,0)" fill="rgb(46,43,46)" d="M 209.268 1220.2 C 234.243 1221.46 266.948 1220.5 292.49 1220.36 C 291 1250.27 292.392 1293.11 292.322 1323.86 C 289.725 1325.7 218.231 1325.04 209.203 1325.41 L 209.268 1220.2 z"/><path transform="translate(0,0)" fill="rgb(46,43,46)" d="M 209.175 1114.05 C 237.053 1114.11 264.932 1114.02 292.809 1113.77 C 291.078 1143.42 292.354 1187.2 292.8 1217.61 C 288.442 1218.43 269.896 1218.14 264.8 1218.12 L 209.105 1217.84 L 209.175 1114.05 z"/><path transform="translate(0,0)" fill="rgb(46,43,46)" d="M 209.309 1539.33 C 236.926 1539.57 265.174 1539.25 292.828 1539.08 C 291.051 1567.98 293.118 1610.45 292.8 1641.13 C 264.678 1641.43 237.27 1641.15 209.041 1641.81 C 209.725 1608.09 209.185 1573.2 209.309 1539.33 z"/><path transform="translate(0,0)" fill="rgb(46,43,46)" d="M 209.116 688.98 L 292.234 688.943 C 291.482 716.036 291.537 764.099 293.108 790.642 C 288.831 791.411 269.689 791.051 264.35 791.028 C 245.855 790.902 227.36 790.925 208.865 791.097 C 210.161 758.931 209.059 721.689 209.116 688.98 z"/><path transform="translate(0,0)" fill="rgb(46,43,46)" d="M 243.49 1435.5 L 292.873 1435.23 C 291.704 1461.03 291.675 1511.52 292.999 1536.73 C 283.552 1537.03 272.796 1536.77 263.25 1536.75 C 245.221 1536.92 227.191 1536.85 209.164 1536.54 L 209.096 1435.63 C 220.584 1435.99 232 1435.69 243.49 1435.5 z"/><path transform="translate(0,0)" fill="rgb(46,43,46)" d="M 284.862 793.476 C 289.263 793.478 289.35 792.715 292.17 794.783 C 292.927 802.149 292.194 815.58 292.311 823.533 C 292.652 846.872 291.716 870.769 292.865 894.082 C 268.026 894.675 241.702 894.291 216.75 894.301 C 213.527 894.356 212.292 894.623 209.311 893.306 C 208.361 888.592 208.853 871.689 208.836 866.045 C 208.705 841.976 208.771 817.907 209.033 793.839 C 234.31 794.023 259.588 793.902 284.862 793.476 z"/><path transform="translate(0,0)" fill="rgb(46,43,46)" d="M 229.81 585.477 C 250.808 585.104 271.81 584.997 292.811 585.158 C 291.798 593.367 292.25 611.621 292.274 620.381 L 292.498 685.756 L 275.25 685.874 L 208.972 685.839 C 209.616 653.01 209.179 618.758 209.236 585.816 L 229.81 585.477 z"/><path transform="translate(0,0)" fill="rgb(46,43,46)" d="M 1204.01 1220.49 C 1214.91 1220.48 1225.81 1220.42 1236.7 1220.31 L 1236.68 1325.03 L 1214.7 1325 L 1181.91 1325.06 L 1182.03 1220.65 C 1189.3 1220.82 1196.73 1220.61 1204.01 1220.49 z"/><path transform="translate(0,0)" fill="rgb(46,43,46)" d="M 1181.91 1113.95 C 1200.1 1114.09 1218.44 1113.89 1236.64 1113.81 L 1236.66 1217.77 C 1218.99 1218.28 1199.71 1217.89 1181.92 1217.88 C 1182.11 1183.24 1182.1 1148.6 1181.91 1113.95 z"/><path transform="translate(0,0)" fill="rgb(46,43,46)" d="M 1182.05 1328.3 C 1199.6 1328.99 1218.97 1328.36 1236.66 1328.13 L 1236.62 1431.93 C 1218.38 1432.23 1200.14 1432.35 1181.9 1432.31 C 1182.39 1397.95 1182.02 1362.75 1182.05 1328.3 z"/><path transform="translate(0,0)" fill="rgb(46,43,46)" d="M 1182.02 688.834 L 1236.68 688.715 L 1236.72 790.713 C 1218.79 791.2 1200.05 790.928 1182.05 790.922 L 1182.02 688.834 z"/><path transform="translate(0,0)" fill="rgb(46,43,46)" d="M 1181.85 1538.86 L 1236.63 1539.06 C 1236.99 1572.81 1236.65 1607.17 1236.64 1640.97 L 1181.99 1641.1 C 1182.17 1607.02 1182.13 1572.94 1181.85 1538.86 z"/><path transform="translate(0,0)" fill="rgb(46,43,46)" d="M 1181.91 584.966 C 1200.15 585.17 1218.38 585.269 1236.61 585.262 L 1236.66 685.723 C 1219.49 686.277 1199.2 685.869 1182 685.638 C 1182.2 652.081 1182.17 618.523 1181.91 584.966 z"/><path transform="translate(0,0)" fill="rgb(46,43,46)" d="M 1182.01 1435.08 C 1196.56 1436.13 1221.31 1435.23 1236.6 1435.15 L 1236.56 1536 C 1224.96 1536.7 1192.28 1537.29 1181.69 1536.23 C 1182.56 1503.36 1181.99 1468.05 1182.01 1435.08 z"/><path transform="translate(0,0)" fill="rgb(46,43,46)" d="M 1221.23 793.524 C 1227.35 793.27 1230.58 793.501 1236.64 794.002 L 1236.64 894.043 L 1199.25 894.114 L 1182.04 894.046 L 1181.99 793.777 C 1195.07 793.906 1208.15 793.821 1221.23 793.524 z"/><path transform="translate(0,0)" fill="rgb(46,43,46)" d="M 1182.06 896.945 C 1194.42 898.675 1222.33 897.287 1236.69 897.368 L 1236.62 997.825 C 1220.35 998.331 1197.73 999.28 1181.94 998.321 L 1182.06 896.945 z"/><path transform="translate(0,0)" fill="rgb(46,43,46)" d="M 208.443 303.16 L 1811.18 302.982 L 1811.16 553.661 L 208.239 553.937 L 208.443 303.16 z"/><path transform="translate(0,0)" fill="rgb(4,156,226)" d="M 299.571 361.096 C 309.177 362.256 323.193 361.98 333.177 362.069 C 333.303 366.715 334.16 373.438 331.564 376.955 L 328.196 378.087 L 327.167 378.815 L 331.267 379.271 L 330.239 380.692 C 327.405 380.934 327.622 380.397 325.872 381.672 C 331.273 383.302 330.551 382.145 333.016 385.819 C 333.446 389.73 333.228 393.218 333.115 397.128 C 327.941 397.161 318.487 396.934 313.858 397.91 C 308.579 400.55 306.378 403.047 302.882 407.812 C 303.136 420.337 303.25 432.865 303.223 445.393 C 309.14 452.013 311.329 455.498 320.93 455.096 C 321.128 459.887 322.025 465.687 319.944 469.66 C 316.352 472.126 315.788 471.365 310.734 471.836 C 313.708 472.134 315.907 472.007 318.317 473.686 C 314.464 475.172 310.018 474.967 305.795 475.132 C 311.609 475.99 314.771 476.005 320.529 476.046 L 320.605 491.869 C 314.292 491.626 306.218 491.914 299.77 491.963 C 288.881 481.137 277.914 470.39 266.87 459.721 C 266.615 437.676 266.853 415.133 266.868 393.051 C 277.591 382.457 288.565 371.329 299.571 361.096 z"/><path transform="translate(0,0)" fill="rgb(4,156,226)" d="M 325.872 381.672 C 331.273 383.302 330.551 382.145 333.016 385.819 C 333.446 389.73 333.228 393.218 333.115 397.128 C 327.941 397.161 318.487 396.934 313.858 397.91 C 308.579 400.55 306.378 403.047 302.882 407.812 C 303.136 420.337 303.25 432.865 303.223 445.393 C 309.14 452.013 311.329 455.498 320.93 455.096 C 321.128 459.887 322.025 465.687 319.944 469.66 C 316.352 472.126 315.788 471.365 310.734 471.836 C 304.758 468.796 293.07 456.535 287.842 451.294 C 287.347 435.68 286.868 416.548 287.492 401.18 C 292.817 395.458 301.203 386.478 307.391 382.212 C 313.913 382.223 319.366 382.278 325.872 381.672 z"/><path transform="translate(0,0)" fill="url(#Gradient1)" d="M 305.197 377.518 C 311.642 377.345 322.4 376.585 328.196 378.087 L 327.167 378.815 L 331.267 379.271 L 330.239 380.692 C 327.405 380.934 327.622 380.397 325.872 381.672 C 319.366 382.278 313.913 382.223 307.391 382.212 C 301.203 386.478 292.817 395.458 287.492 401.18 C 286.868 416.548 287.347 435.68 287.842 451.294 C 293.07 456.535 304.758 468.796 310.734 471.836 C 313.708 472.134 315.907 472.007 318.317 473.686 C 314.464 475.172 310.018 474.967 305.795 475.132 C 300.735 471.868 287.841 458.695 282.874 453.858 C 282.949 435.516 282.855 417.173 282.592 398.832 C 287.688 393.336 299.284 381.709 305.197 377.518 z"/><path transform="translate(0,0)" fill="rgb(4,156,226)" d="M 350.309 420.999 C 362.501 421.044 374.867 420.978 387.041 421.158 L 386.969 461.833 C 376.945 470.674 364.384 481.81 355.321 491.619 C 346.485 491.832 337.647 491.927 328.81 491.903 L 328.735 475.363 C 338.634 475.697 346.016 477.953 352.823 472.355 L 368.749 456.573 L 370.621 436.011 C 363.814 435.251 354.012 435.407 346.918 435.324 L 340.847 435.222 C 335.914 430.826 337.68 427.389 341.264 422.884 C 343.232 420.411 347.392 421.082 350.309 420.999 z"/><path transform="translate(0,0)" fill="rgb(10,142,215)" d="M 346.918 435.324 L 340.847 435.222 C 335.914 430.826 337.68 427.389 341.264 422.884 C 343.232 420.411 347.392 421.082 350.309 420.999 C 342.788 423.864 346.255 427.118 346.918 435.324 z"/><path transform="translate(0,0)" fill="rgb(10,142,215)" d="M 757.389 433.334 C 757.151 433.045 756.909 432.758 756.675 432.466 C 752.954 427.831 750.894 422.688 751.44 416.63 C 751.839 412.212 754.38 408.052 757.839 405.346 C 762.075 402.031 767.43 400.732 772.734 401.425 C 777.039 401.987 781.29 404.222 783.877 407.759 C 789.04 414.816 789 431.423 787.277 439.834 C 786.203 445.082 783.722 450.176 779.105 453.16 C 775.335 455.597 770.408 456.216 766.074 455.209 C 761.486 454.144 756.874 451.681 754.401 447.526 C 753.375 445.801 752.747 443.672 753.351 441.742 C 753.907 439.964 753.58 440.622 754.712 439.238 L 758.013 437.517 C 760.798 438.748 761.443 438.743 764.385 439.29 L 765.762 438.102 L 763.717 436.355 C 760.806 436.542 760.85 436.308 758.096 435.147 L 757.389 433.334 z"/><path transform="translate(0,0)" fill="rgb(36,43,52)" d="M 757.389 433.334 L 759.102 433.856 C 769.647 436.965 772.794 432.057 777.233 437.876 C 777.142 441.506 777.178 441.247 775.038 444.201 C 771.981 446.028 772.203 445.897 768.618 445.777 C 759.181 441.277 765.497 440.788 754.712 439.238 L 758.013 437.517 C 760.798 438.748 761.443 438.743 764.385 439.29 L 765.762 438.102 L 763.717 436.355 C 760.806 436.542 760.85 436.308 758.096 435.147 L 757.389 433.334 z"/><path transform="translate(0,0)" fill="rgb(36,43,52)" d="M 768.31 410.784 C 772.624 410.077 776.722 412.914 777.579 417.2 C 778.435 421.487 775.74 425.681 771.486 426.684 C 768.6 427.365 765.573 426.417 763.591 424.212 C 761.609 422.007 760.988 418.897 761.971 416.099 C 762.954 413.302 765.385 411.264 768.31 410.784 z"/><path transform="translate(0,0)" fill="rgb(254,254,254)" d="M 603.173 400.982 C 608.043 400.999 608.989 400.266 612.351 402.572 C 614.147 406.261 613.083 413.984 612.964 418.852 C 623.592 411.677 634.108 413.382 637.596 426.803 C 639.731 434.917 638.48 443.551 634.131 450.726 C 626.214 456.164 623.172 456.347 614.756 451.987 L 613.608 451.38 C 609.708 453.804 608.054 455.464 603.82 453.079 C 602.188 447.082 603.098 409.81 603.173 400.982 z"/><path transform="translate(0,0)" fill="rgb(46,43,46)" d="M 617.041 422.917 C 631.619 422.796 630.847 437.591 623.976 445.902 C 609.558 446.471 610.237 431.006 617.041 422.917 z"/><path transform="translate(0,0)" fill="rgb(254,254,254)" d="M 556.097 414.995 C 564.393 414.447 565.33 417.454 572.607 418.041 C 582.167 413.945 590.124 410.505 594.499 423.789 C 596.118 428.703 596.886 449.477 594.662 453.892 C 579.194 459.463 589.839 427.252 583.67 424.283 C 570.228 417.816 572.963 437.478 573.037 444.5 C 573.123 448.592 573.781 451.446 571.366 454.144 C 567.745 454.466 567.976 454.588 564.775 452.917 C 559.576 446.246 564.716 436.79 563.042 429.028 C 561.844 423.471 556.811 422.302 552.095 424.694 C 546.484 431.761 552.871 449.431 548.29 454.07 C 545.016 454.348 544.758 454.81 542.012 453.583 C 539.443 447.957 538.392 421.133 541.658 416.313 C 549.173 414.044 547.514 420.533 556.097 414.995 z"/><path transform="translate(0,0)" fill="rgb(254,254,254)" d="M 428.217 401.203 C 438.873 400.526 450.065 403.68 455.539 413.702 C 455.691 418.336 453.121 420.619 448.39 420.823 C 442.409 418.578 441.042 409.337 433.253 410.137 C 414.389 412.073 427.332 467.21 443.947 438.551 L 444.414 436.473 C 448.231 435.835 448.103 435.883 451.687 436.42 C 454.647 438.786 453.775 437.287 454.303 441.118 C 448.687 457.47 422.595 460.773 415.995 444.469 C 409.495 428.409 411.247 409.01 428.217 401.203 z"/><path transform="translate(0,0)" fill="rgb(4,156,226)" d="M 346.303 441.228 C 354.002 440.506 358.078 439.043 364.059 443.649 C 369.222 453.685 353.677 465.956 346.127 470.91 L 344.963 472.255 C 339.893 472.343 335.852 472.601 330.838 473.014 C 335.439 474.989 348.102 474.07 352.823 472.355 C 346.016 477.953 338.634 475.697 328.735 475.363 L 328.81 491.903 L 320.605 491.869 L 320.529 476.046 C 314.771 476.005 311.609 475.99 305.795 475.132 C 310.018 474.967 314.464 475.172 318.317 473.686 C 315.907 472.007 313.708 472.134 310.734 471.836 C 315.788 471.365 316.352 472.126 319.944 469.66 C 322.025 465.687 321.128 459.887 320.93 455.096 L 329.643 453.915 C 335.198 454.07 338.508 454.152 344.146 453.601 L 346.303 441.228 z"/><path transform="translate(0,0)" fill="rgb(36,43,52)" d="M 320.93 455.096 L 329.643 453.915 C 327.141 457.858 328.123 465.151 328.374 470.241 C 334.407 470.565 340.078 470.848 346.127 470.91 L 344.963 472.255 C 339.893 472.343 335.852 472.601 330.838 473.014 C 335.439 474.989 348.102 474.07 352.823 472.355 C 346.016 477.953 338.634 475.697 328.735 475.363 L 328.81 491.903 L 320.605 491.869 L 320.529 476.046 C 314.771 476.005 311.609 475.99 305.795 475.132 C 310.018 474.967 314.464 475.172 318.317 473.686 C 315.907 472.007 313.708 472.134 310.734 471.836 C 315.788 471.365 316.352 472.126 319.944 469.66 C 322.025 465.687 321.128 459.887 320.93 455.096 z"/><path transform="translate(0,0)" fill="rgb(254,254,254)" d="M 512.087 415.122 C 530.836 413.789 533.954 422.077 533.775 440.245 C 533.73 444.8 533.866 451.402 530.767 454.747 C 526.393 455.318 520.426 449.551 511.88 454.795 C 509.649 456.163 503.687 451.784 501.379 449.877 C 491.155 425.639 522.756 435.787 522.934 425.238 C 518.009 421.721 510.073 425.838 502.198 425.317 L 501.387 423.789 C 503.45 418.748 507.451 417.084 512.087 415.122 z"/><path transform="translate(0,0)" fill="rgb(46,43,46)" d="M 512.242 437.054 C 517.059 436.682 520.331 435.437 523.102 439.712 C 522.506 443.483 521.679 444.09 519.348 447.055 C 514.467 447.287 512.873 447.565 509.696 443.623 C 509.952 439.378 509.65 440.907 512.242 437.054 z"/><path transform="translate(0,0)" fill="rgb(254,254,254)" d="M 654.826 415.06 C 658.267 414.938 664.292 414.52 667.285 415.887 C 673.175 418.578 681.755 428.841 678.729 435.426 C 673.418 439.798 662.503 436.533 654.074 438.014 L 653.293 439.489 C 654.427 444.317 654.764 445.036 659.024 447.032 C 663.686 446.788 666.726 444.007 670.665 441.588 C 674.261 443.194 674.817 442.443 676.065 446.093 C 672.161 457.661 650.192 457.714 645.511 446.184 C 640.156 432.995 641.87 421.922 654.826 415.06 z"/><path transform="translate(0,0)" fill="rgb(46,43,46)" d="M 656.064 422.99 C 661.249 422.543 666.471 422.556 667.969 428.703 L 666.049 430.15 C 662.451 430.398 657.303 431.266 654.278 429.779 C 653.354 426.46 653.915 427.152 656.064 422.99 z"/><path transform="translate(0,0)" fill="rgb(254,254,254)" d="M 461.016 400.969 C 465.882 400.836 467.241 400.146 470.782 402.787 C 472.802 409.66 467.156 410.55 471.566 417.466 C 473.24 416.906 474.928 416.387 476.627 415.909 C 500.24 409.508 496.794 445.726 490.233 455.515 L 486.413 455.172 C 483.319 448.679 484.118 442.29 484.292 435.142 C 484.188 427.938 483.416 420.336 473.402 423.869 C 467.093 430.965 475.056 447.518 467.959 453.85 C 464.78 454.628 464.944 454.81 461.926 453.695 C 460.166 449.803 460.995 408.324 461.016 400.969 z"/><path transform="translate(0,0)" fill="rgb(4,156,226)" d="M 340.237 360.742 C 345.929 361.081 350.562 361.232 356.276 361.209 C 365.629 371.069 378.441 382.388 386.506 392.225 L 386.186 405.822 C 383.02 405.968 374.935 406.834 373.338 404.662 C 367.548 396.79 366.443 389.595 356.903 383.853 C 351.094 376.096 349.69 376.743 340.462 377.011 L 340.237 360.742 z"/><path transform="translate(0,0)" fill="rgb(36,43,52)" d="M 299.571 361.096 C 310.023 359.143 329.975 361.787 340.237 360.742 L 340.462 377.011 C 349.69 376.743 351.094 376.096 356.903 383.853 C 349.139 380.734 353.11 378.702 343.938 378.46 L 342.535 379.207 L 348.281 380.938 L 349.376 383.006 C 353.917 387.322 367.14 398.347 360.893 404.973 C 354.322 406.696 348.428 403.853 342.812 400.807 C 340.271 400.645 339.068 398.424 337.236 398.338 C 329.184 397.962 321.986 398.849 313.858 397.91 C 318.487 396.934 327.941 397.161 333.115 397.128 C 333.228 393.218 333.446 389.73 333.016 385.819 C 330.551 382.145 331.273 383.302 325.872 381.672 C 327.622 380.397 327.405 380.934 330.239 380.692 L 331.267 379.271 L 327.167 378.815 L 328.196 378.087 L 331.564 376.955 C 334.16 373.438 333.303 366.715 333.177 362.069 C 323.193 361.98 309.177 362.256 299.571 361.096 z"/><path transform="translate(0,0)" fill="rgb(10,142,215)" d="M 342.812 400.807 C 339.699 396.372 337.949 387.605 341.49 382.923 C 345.149 381.565 344.876 382.236 349.376 383.006 C 353.917 387.322 367.14 398.347 360.893 404.973 C 354.322 406.696 348.428 403.853 342.812 400.807 z"/><path transform="translate(0,0)" fill="rgb(4,156,226)" d="M 738.204 401.874 C 741.461 401.983 740.189 401.343 742.444 403.05 C 743.152 409.89 743.76 448.147 742.281 453.904 C 738.895 455.816 736.827 455.873 733.43 453.863 L 733.038 451.25 C 733.009 440.284 733.619 427.772 732.556 417.115 C 732.099 412.531 726.732 418.061 722.354 414.885 C 720.748 405.922 730.874 404.643 738.204 401.874 z"/><path transform="translate(0,0)" fill="rgb(254,254,254)" d="M 684.364 415.233 C 686.802 415.1 689.618 414.789 691.621 416.121 C 696.044 419.062 697.93 416.235 703.765 414.81 C 708.083 416.685 708.514 420.105 706.038 424.018 C 700.959 427.394 700.829 424.877 695.843 426.692 C 693.755 429.803 694.065 431.241 693.815 435.227 L 693.736 436.654 C 693.868 441.431 694.785 449.69 692.816 453.414 C 690.386 454.872 688.596 454.202 685.705 453.78 C 682.634 450.451 684.138 421.526 684.364 415.233 z"/><path transform="translate(0,0)" fill="rgb(46,43,46)" d="M 1271.29 1035.48 L 1520.87 1035.41 L 1520.96 1739.81 L 1495.5 1739.87 L 1242.63 1739.77 L 1242.66 1035.67 L 1271.29 1035.48 z"/><path transform="translate(0,0)" fill="rgb(46,43,46)" d="M 1242.71 558.942 L 1811.41 558.841 C 1811.36 561.817 1811.47 577.567 1811.28 579.187 C 1808.71 600.719 1814.87 831.036 1809.79 838.923 L 1242.4 839.071 C 1243.19 805.657 1242.54 770.022 1242.52 736.401 L 1242.71 558.942 z"/><path transform="translate(0,0)" fill="rgb(254,254,254)" d="M 1705.56 597.872 L 1763.93 597.657 C 1763.54 667.434 1763.52 737.213 1763.86 806.991 L 1723.18 806.856 L 1723.01 694.831 C 1723.01 682.422 1723.84 670.777 1724.88 658.471 C 1720.62 671.909 1717.07 688.525 1713.43 702.363 C 1704.32 737.058 1696.72 772.479 1687.58 807.14 L 1658.49 807.03 L 1635.08 711.731 C 1632.81 702.391 1626.33 672.919 1623.04 665.137 L 1623.86 807.037 L 1583.71 806.953 C 1584.68 738.591 1584.14 666.253 1583.59 597.832 L 1641.51 597.725 C 1644.44 615.718 1650.34 638.093 1654.73 656.132 C 1661.24 682.802 1667.39 709.56 1673.16 736.4 C 1683.23 691.003 1694.83 643.286 1705.56 597.872 z"/><path transform="translate(0,0)" fill="rgb(254,254,254)" d="M 1287.9 598.123 L 1329.22 597.898 C 1350.67 597.812 1378.87 596.469 1396.83 610.615 C 1431.38 637.823 1428.53 697.709 1424.76 736.625 C 1422.97 755.075 1416.8 772.214 1405.81 786.495 C 1384.14 809.399 1360.9 807.262 1331.86 807.176 L 1287.9 807.025 L 1287.9 598.123 z"/><path transform="translate(0,0)" fill="rgb(46,43,46)" d="M 1331.06 635.129 C 1340.71 635.164 1357.63 634.322 1365.73 639.469 C 1381.65 649.597 1382.59 676.587 1382.94 694.039 C 1383.36 714.866 1383.27 740.943 1372.29 759.607 C 1371.29 760.68 1370.25 761.724 1369.19 762.735 C 1359.82 771.507 1343.46 769.575 1331.14 769.347 L 1331.06 635.129 z"/><path transform="translate(0,0)" fill="rgb(254,254,254)" d="M 1452.08 598.399 C 1466.34 598.181 1480.59 598.08 1494.84 598.096 L 1494.95 768.268 C 1518.74 767.953 1543.21 768.277 1567.04 768.346 L 1566.93 807.045 C 1528.88 806.582 1490.16 806.98 1452.06 807.024 L 1452.08 598.399 z"/><path transform="translate(0,0)" fill="rgb(46,43,46)" d="M 1552.74 1035.5 L 1811.27 1035.13 L 1811.26 1347.91 L 1783.8 1348 C 1697.74 1348.31 1611.68 1348.17 1525.62 1347.6 C 1527.22 1244.5 1525.07 1138.99 1525.67 1035.56 L 1552.74 1035.5 z"/><path transform="translate(0,0)" fill="rgb(46,43,46)" d="M 1242.74 844.039 L 1811.16 843.856 C 1811.2 857.074 1813.05 948.619 1809.94 953.161 L 1242.34 953.439 C 1243.31 917.547 1242.3 880.297 1242.74 844.039 z"/><path transform="translate(0,0)" fill="rgb(254,254,254)" d="M 1387.78 899.623 C 1389.36 892.398 1389.9 876.086 1395.81 872.554 L 1397.84 873.332 C 1399.16 876.595 1397.74 881.533 1397.1 885.238 C 1396.02 891.659 1394.25 909.965 1387.81 911.747 C 1382.62 907.861 1381.08 891.774 1379.93 885.076 C 1379.18 892.115 1378.78 908.269 1372.54 912.403 L 1370.57 911.459 C 1364.98 904.03 1361.96 883.397 1359.69 872.933 C 1361.37 872.934 1365.29 872.77 1366.37 873.762 C 1370.71 877.759 1371.32 891.451 1372.09 897.449 C 1373.78 891.532 1374.96 874.202 1381.49 872.784 C 1386.13 877.912 1386.94 892.263 1387.78 899.623 z"/><path transform="translate(0,0)" fill="rgb(254,254,254)" d="M 1278.22 872.91 C 1283.93 872.679 1290.04 871.723 1295.23 874.592 C 1307.32 881.268 1304.87 897.619 1298.68 907.965 C 1292.45 912.697 1286.21 911.298 1278.02 911.066 C 1278.38 898.351 1278.44 885.629 1278.22 872.91 z"/><path transform="translate(0,0)" fill="rgb(46,43,46)" d="M 1285.49 878.687 C 1287.23 878.88 1289.12 879.204 1290.86 879.463 C 1298.26 884.295 1296.11 897.182 1292.98 904.027 C 1290.53 904.656 1290.07 904.518 1287.5 904.483 C 1283.26 899.395 1285.26 886.15 1285.49 878.687 z"/><path transform="translate(0,0)" fill="rgb(254,254,254)" d="M 1584.71 873.01 C 1587.9 872.867 1589.26 872.619 1592.39 873.478 C 1597.28 877.867 1598.4 891.977 1599.94 899.007 C 1601.16 894.233 1604.86 875.504 1606.69 873.749 C 1609.74 872.771 1609.68 872.469 1612.63 873.458 C 1618.27 879.762 1616.18 904.778 1612.45 912.179 L 1609.98 911.441 C 1608.35 905.611 1608.87 899.866 1608.96 893.75 C 1608.95 892.125 1608.7 890.174 1608.54 888.525 C 1606.04 891.42 1604.93 908.723 1599.98 911.907 C 1595.69 909.334 1592.5 894.225 1590.85 888.53 C 1591.05 894.154 1592.06 906.319 1589.93 911.055 C 1586.1 911.859 1587.74 912.206 1584.75 910.807 C 1583.75 902.202 1584.55 882.604 1584.71 873.01 z"/><path transform="translate(0,0)" fill="rgb(254,254,254)" d="M 1307.46 872.838 C 1326.32 871.871 1336.49 873.046 1328.25 891.118 C 1326.58 894.777 1337.37 907.994 1327.32 911.913 C 1324.11 910.644 1325.37 911.651 1323.45 908.755 L 1323.19 903.502 C 1323.03 899.991 1323.43 899.224 1321.21 896.411 C 1318.36 895.274 1318.57 895.349 1315.55 895.975 C 1313.39 900.389 1316.03 904.432 1313.94 910.697 L 1311.62 911.441 L 1309.37 910.227 C 1305.95 904.106 1307.45 881.757 1307.46 872.838 z"/><path transform="translate(0,0)" fill="rgb(46,43,46)" d="M 1314.83 878.763 C 1318.31 878.787 1319.29 878.557 1322.46 880.123 C 1324.55 883.637 1323.84 883.348 1324.02 888.041 C 1320.82 888.61 1319.18 889.233 1316.13 888.148 C 1314.12 885.391 1314.74 882.373 1314.83 878.763 z"/><path transform="translate(0,0)" fill="rgb(254,254,254)" d="M 1759.84 872.973 C 1767.98 872.802 1775.34 872.094 1782.1 876.938 C 1785.98 884.155 1780.47 886.006 1779.79 891.83 C 1779.15 897.315 1787.31 905.691 1781.1 911.46 C 1777.6 911.363 1779.11 911.906 1776.37 909.93 L 1776.21 907.223 C 1775.87 903.233 1775.65 901.613 1774.78 897.72 C 1772.67 895.338 1772.83 895.028 1769.84 894.292 L 1768.41 895.417 C 1766.67 899.968 1766.72 905.48 1766.4 910.457 C 1763.68 911.556 1764.82 911.247 1761.56 910.76 C 1757.43 905.591 1759.56 880.999 1759.84 872.973 z"/><path transform="translate(0,0)" fill="rgb(46,43,46)" d="M 1766.73 878.737 C 1770.27 878.654 1771.28 878.382 1774.54 879.897 C 1776.62 883.71 1775.87 883.468 1775.87 888.478 C 1772.68 888.997 1771.18 889.565 1768.17 888.43 C 1766.17 884.981 1766.82 883.121 1766.73 878.737 z"/><path transform="translate(0,0)" fill="rgb(254,254,254)" d="M 1648.29 872.821 L 1653.56 873.112 C 1658.94 876.289 1662.25 888.399 1666.12 895.713 C 1665.9 889.939 1664.53 878.19 1666.73 874.002 C 1669.95 872.593 1668.41 872.611 1671.51 873.632 C 1672.29 875.213 1672.88 877.2 1672.79 878.958 C 1672.36 886.81 1675.14 906.934 1670.34 912.436 C 1661.63 910.061 1658.32 895.068 1655.31 886.743 C 1655.2 890.992 1655.76 908.955 1654.64 911.195 C 1651.22 911.952 1652.88 912.071 1649.5 910.573 C 1647.23 906.337 1648.43 879.746 1648.29 872.821 z"/><path transform="translate(0,0)" fill="rgb(254,254,254)" d="M 1433.3 895.92 C 1433.17 891.539 1432.5 876.101 1434.25 873.069 L 1436.43 872.778 C 1441.91 877.266 1441.57 907.986 1438.62 912.357 L 1433.94 911.288 C 1429.56 908.112 1424.68 892.448 1422.27 886.342 C 1422.55 891.818 1424.25 906.509 1421.31 910.666 C 1420.43 911.909 1419.6 911.436 1417.57 911.488 C 1414.42 907.354 1415.78 880.403 1415.8 872.837 L 1421.01 873.138 C 1425.73 875.966 1430 889.389 1433.3 895.92 z"/><path transform="translate(0,0)" fill="rgb(254,254,254)" d="M 1454.94 872.094 C 1461.79 871.917 1468.67 875.134 1470.68 882.02 L 1469.76 883.555 C 1464.41 886.281 1463.39 878.374 1453.92 880.435 C 1449.56 885.09 1451.45 901.42 1455.71 905.376 C 1458.86 906.239 1457.33 906.318 1460.45 904.948 C 1462.41 901.575 1462.52 902.464 1462.62 899.022 C 1458.11 896.073 1457.24 896.455 1458.04 891.198 C 1463.06 890.858 1465.98 889.958 1469.67 892.841 C 1471.02 896.501 1470.66 908.031 1469.19 911.382 C 1468.47 911.211 1467.76 911.041 1467.04 910.87 C 1462.46 908.935 1459.2 913.656 1454.6 912.539 C 1441.97 909.467 1443.2 891.056 1446.09 881.555 C 1447.74 876.138 1450.03 874.531 1454.94 872.094 z"/><path transform="translate(0,0)" fill="rgb(254,254,254)" d="M 1628.02 872.969 C 1631.68 872.838 1631.76 872.752 1635.52 873.605 C 1637.74 877.808 1645.84 905.918 1645.54 910.658 C 1642.66 912.165 1643.9 911.515 1639.9 911.312 C 1636.94 908.467 1637.7 907.894 1636.63 902.979 C 1633.44 902.969 1632.8 902.791 1629.7 903.698 C 1627.65 906.186 1623.17 911.73 1619.86 911.468 C 1618.28 905.356 1625.64 879.892 1628.02 872.969 z"/><path transform="translate(0,0)" fill="rgb(46,43,46)" d="M 1631.58 882.851 C 1633.81 885.624 1635.72 894.444 1634.05 897.894 C 1631.86 897.276 1631.9 897.348 1630.02 896.089 C 1629.08 892.474 1630.89 886.765 1631.58 882.851 z"/><path transform="translate(0,0)" fill="rgb(254,254,254)" d="M 1343.14 872.591 C 1345.67 872.637 1347.7 872.921 1350.19 873.227 C 1353.11 876.361 1361.96 908.193 1359.93 911.309 C 1355.41 911.726 1357.26 912.267 1353.78 910.696 C 1352.45 907.82 1352.3 906.041 1351.76 902.969 C 1348.54 902.853 1347.82 902.638 1344.68 903.466 C 1341.34 907.333 1339.47 909 1335.58 912.359 L 1334.65 911.716 C 1334.35 904.882 1341.2 880.16 1343.14 872.591 z"/><path transform="translate(0,0)" fill="rgb(254,254,254)" d="M 1713.66 872.146 C 1720.28 872.026 1727.91 875.049 1730.34 881.644 C 1729.02 884.869 1730.03 883.498 1726.86 885.615 C 1721.57 884.741 1721.39 880.394 1715.72 878.295 L 1713.79 879.357 C 1710.65 885.83 1709.45 899.054 1715.11 904.513 C 1719.02 905.477 1717.13 905.579 1720.96 904.081 C 1722.9 901.329 1722.44 902.798 1722.58 899.58 C 1719.16 896.998 1718.36 896.354 1715.49 893.216 C 1718.8 890.774 1721.08 890.708 1724.94 890.701 C 1731.57 894.303 1731.38 902.964 1728.95 909.262 C 1726.67 911.088 1716.07 912.495 1713.78 911.653 C 1699.62 906.462 1700.92 879.032 1713.66 872.146 z"/><path transform="translate(0,0)" fill="rgb(254,254,254)" d="M 1684.75 872.916 C 1688.01 872.831 1690.35 872.289 1692.83 874.186 C 1696 880.846 1702.08 903.215 1701.83 910.202 C 1699.25 911.641 1700.27 911.004 1696.54 910.851 C 1693.88 908.014 1694.67 907.723 1693.98 902.962 L 1685.35 903.148 C 1682.58 905.152 1683.37 905.595 1682.52 910.241 C 1679.73 911.709 1679.75 911.406 1676.55 910.92 L 1675.6 909.492 C 1678.24 897.452 1681.76 884.985 1684.75 872.916 z"/><path transform="translate(0,0)" fill="rgb(46,43,46)" d="M 1688.95 883.562 C 1690.93 888.947 1693.85 893.669 1689.7 898.231 C 1688.31 897.463 1687.99 897.125 1686.73 896.14 C 1685.97 891.787 1687.66 887.941 1688.95 883.562 z"/><path transform="translate(0,0)" fill="rgb(254,254,254)" d="M 1529.08 872.013 C 1536.02 871.7 1542.95 872.776 1544.01 881.159 L 1542.81 882.607 C 1539.1 882.745 1533.57 879.994 1529.88 878.492 L 1527.91 881.367 C 1533.06 890.606 1547.99 893.565 1546.33 904.631 C 1544.05 908.969 1539.23 911.524 1534.73 912.984 C 1527.71 911.953 1519.08 908.451 1521.17 899.911 C 1526.34 896.199 1529.33 906.516 1536.14 905.867 C 1537.69 903.431 1537.35 902.764 1537.27 899.843 C 1532.69 892.477 1521.68 892.762 1520.56 882.926 C 1521.99 877.099 1524.22 875.584 1529.08 872.013 z"/><path transform="translate(0,0)" fill="rgb(254,254,254)" d="M 1734.54 872.971 C 1739.54 872.944 1753.21 872.023 1756.38 875.452 L 1755.45 876.797 C 1750.96 879.153 1748.73 879.222 1743.63 879.764 L 1742.2 879.905 L 1739.97 883.468 C 1740.45 890.402 1749 886.216 1753.97 890.956 L 1753.87 893.313 C 1749.1 896.803 1745.27 892.288 1741.14 897.058 C 1741.73 900.693 1741.34 902.651 1743.42 904.759 C 1747.28 905.039 1749.78 904.94 1753.67 904.79 C 1756.42 906.385 1755.54 905.269 1756.53 908.13 L 1755.35 910.033 C 1751.78 911.994 1739.13 911.278 1734.24 911.24 C 1734.19 898.551 1734.42 885.676 1734.54 872.971 z"/><path transform="translate(0,0)" fill="rgb(254,254,254)" d="M 1546.74 872.983 C 1553.55 872.929 1562.53 872.539 1569.26 873.298 C 1570.82 873.474 1570.82 874.534 1571.92 876.51 L 1571.16 878.157 C 1567.59 879.466 1566.27 879.619 1562.46 880.243 C 1561.29 883.724 1562.1 898.719 1562.21 903.25 C 1562.31 905.954 1562.68 908.209 1561.64 910.653 C 1558.52 911.614 1560.08 911.524 1556.78 910.773 C 1551.93 904.689 1557.15 887.763 1554.38 879.991 C 1552.47 879.734 1550.59 879.675 1548.66 879.672 C 1546.47 877.145 1547.17 877.102 1546.74 872.983 z"/><path transform="translate(0,0)" fill="rgb(254,254,254)" d="M 1487.13 872.454 C 1489.89 872.678 1490.25 872.488 1492.68 873.665 C 1495.67 879.227 1494.06 896.807 1493.9 904.028 C 1497.96 903.862 1500.6 903.517 1504.54 904.325 C 1507.3 907.029 1506.43 906.165 1506.95 911.062 L 1486.97 911.045 L 1487.13 872.454 z"/><path transform="translate(0,0)" fill="rgb(254,254,254)" d="M 1402.8 872.797 C 1406.12 872.839 1406.19 872.689 1409.27 873.732 C 1410.69 877.825 1410.06 905.81 1410.01 911.844 C 1407 911.711 1405.12 912.014 1402.83 910.141 C 1401.89 903.175 1402.72 881.445 1402.8 872.797 z"/><path transform="translate(0,0)" fill="rgb(254,254,254)" d="M 1509.52 872.689 C 1511.84 872.899 1513.24 873.122 1515.54 873.477 C 1517.72 877.205 1516.8 905.377 1516.75 911.839 C 1513.19 911.389 1512.98 911.82 1510.25 909.909 C 1508.79 900.349 1509.32 882.997 1509.52 872.689 z"/><path transform="translate(0,0)" fill="rgb(46,43,46)" d="M 1527.45 1650.48 C 1558.87 1649.63 1593.48 1650.22 1625.16 1650.17 L 1811.16 1650.14 C 1811.1 1675.85 1811.58 1711.47 1810.97 1738.08 C 1810.55 1738.63 1810.13 1739.18 1809.71 1739.73 L 1525.74 1739.83 C 1526.44 1717.73 1525.17 1675.81 1526.21 1651.92 C 1526.63 1651.44 1527.04 1650.96 1527.45 1650.48 z"/><path transform="translate(0,0)" fill="rgb(46,43,46)" d="M 1525.69 958.217 C 1620.1 958.155 1717.16 956.983 1811.32 958.382 C 1811.12 970.447 1812.22 1022.98 1810.6 1030.55 L 1525.62 1030.52 L 1525.69 958.217 z"/><path transform="translate(0,0)" fill="rgb(46,43,46)" d="M 1332.65 958.507 C 1394.95 957.778 1458.35 958.678 1520.92 958.212 L 1520.82 1030.49 L 1428.5 1030.56 C 1368 1030.48 1302.87 1029.35 1242.54 1030.71 C 1242.96 1007.19 1242.51 982.269 1242.45 958.64 C 1272.18 959.084 1302.85 958.613 1332.65 958.507 z"/><path transform="translate(0,0)" fill="rgb(254,254,254)" d="M 1285.58 974.997 C 1300.63 974.714 1323.43 975.638 1307.02 997.027 C 1312.19 1004.15 1311.33 1008.5 1312.41 1017.54 L 1310.04 1018.94 C 1306.59 1019.17 1306.66 1019.43 1303.67 1017.85 L 1303.15 1015.25 L 1303.1 1009 C 1303.09 1004.32 1301.9 1002.1 1297.96 999.45 C 1294.89 999.378 1296.33 998.949 1293.71 1001.36 C 1291.45 1008.15 1296.61 1014.84 1290.98 1018.61 C 1286.64 1018.67 1287.99 1019.5 1285.46 1017.51 C 1285.6 1003.34 1285.64 989.167 1285.58 974.997 z"/><path transform="translate(0,0)" fill="rgb(46,43,46)" d="M 1293.56 980.951 C 1298.17 981.141 1299.66 981.176 1302.77 983.983 C 1303.91 987.245 1303.08 989.332 1302.38 992.753 C 1299.26 993.082 1297.13 993.714 1294.42 992.277 C 1292.39 989.333 1293.32 984.774 1293.56 980.951 z"/><path transform="translate(0,0)" fill="rgb(254,254,254)" d="M 1317.02 975.022 C 1321.56 974.977 1336.75 974.344 1340.08 975.678 L 1340.67 978.097 C 1338.58 985.651 1330.51 978.793 1324.07 984.862 C 1322.32 994.921 1333.76 990.13 1338.6 993.754 L 1338.84 996.034 C 1333.23 1004.7 1332.87 996.349 1326.15 999.929 C 1324.36 1002.96 1324.75 1004.27 1324.9 1007.8 L 1324.96 1009.05 C 1327.09 1014.47 1335.08 1008.26 1340.95 1012.88 C 1341.66 1016.41 1341.88 1014.79 1340.46 1017.92 C 1337.31 1020 1321.95 1019.1 1317.12 1019.05 C 1318.25 1007.4 1317.36 987 1317.02 975.022 z"/><path transform="translate(0,0)" fill="rgb(254,254,254)" d="M 1342.78 974.9 C 1345.92 974.778 1346.75 974.497 1349.71 975.556 C 1354.84 982.19 1354.84 994.622 1357.43 1003.98 L 1357.78 1005.21 C 1358.97 998.795 1361.74 978.856 1365.66 975.157 C 1368.29 974.889 1368.7 974.523 1371 975.625 C 1371.96 979.148 1370.34 983.631 1369.43 987.353 C 1366.99 996.063 1364.6 1014.83 1359.47 1019.64 C 1349.44 1021.33 1343.87 982.826 1342.78 974.9 z"/><path transform="translate(0,0)" fill="rgb(46,43,46)" d="M 1607.69 1575.49 C 1673.48 1577.16 1744.56 1575.33 1811.09 1575.62 L 1811.04 1595.32 C 1786.78 1596.17 1757.92 1595.62 1733.36 1595.68 L 1607.17 1595.68 C 1607.1 1589.38 1606.76 1581.56 1607.69 1575.49 z"/><path transform="translate(0,0)" fill="rgb(46,43,46)" d="M 1607.17 1353.01 L 1811.51 1352.78 L 1811.12 1372.79 C 1743.93 1373.77 1674.63 1372.96 1607.26 1372.95 L 1607.17 1353.01 z"/><path transform="translate(0,0)" fill="rgb(46,43,46)" d="M 1607.41 1551.01 L 1811.12 1550.9 L 1811 1570.78 C 1743.91 1571.85 1674.34 1570.98 1607.06 1570.96 C 1607.12 1564.31 1607.24 1557.66 1607.41 1551.01 z"/><path transform="translate(0,0)" fill="rgb(46,43,46)" d="M 1763.47 1600.51 C 1779.38 1600.28 1795.29 1600.34 1811.19 1600.69 L 1811.04 1620.39 C 1762.73 1622.21 1704.1 1620.67 1655.25 1620.56 L 1607.1 1620.53 L 1607.64 1600.82 C 1659.03 1600.09 1711.95 1600.66 1763.47 1600.51 z"/><path transform="translate(0,0)" fill="rgb(46,43,46)" d="M 1607.84 1378.15 L 1811.3 1377.79 L 1811 1397.82 L 1607.42 1397.91 L 1607.84 1378.15 z"/><path transform="translate(0,0)" fill="rgb(46,43,46)" d="M 1607.27 1625.21 L 1811.16 1625.13 L 1811.11 1644.99 L 1607.23 1645.03 L 1607.27 1625.21 z"/><path transform="translate(0,0)" fill="rgb(46,43,46)" d="M 1607.94 1427.44 C 1617.25 1426.94 1627.47 1427 1636.82 1427.13 C 1694.67 1427.98 1753.35 1425.7 1811.12 1427.66 L 1810.99 1447.15 L 1607.74 1447.48 C 1607.61 1440.8 1607.67 1434.12 1607.94 1427.44 z"/><path transform="translate(0,0)" fill="rgb(46,43,46)" d="M 1607.6 1477.07 L 1811.28 1476.78 L 1811.18 1496.98 L 1607.54 1496.86 C 1607.51 1490.27 1607.53 1483.67 1607.6 1477.07 z"/><path transform="translate(0,0)" fill="rgb(46,43,46)" d="M 1607.46 1452.17 L 1811.04 1452.04 C 1811.15 1458.59 1811.22 1465.15 1811.26 1471.71 C 1744.19 1472.99 1674.6 1472.16 1607.39 1472.12 C 1607.26 1465.62 1607.42 1458.7 1607.46 1452.17 z"/><path transform="translate(0,0)" fill="rgb(46,43,46)" d="M 1607.35 1501.76 C 1674.43 1502.99 1743.95 1501.65 1811.3 1501.79 C 1811.39 1507.88 1811.79 1514.43 1810.85 1520.38 L 1809.18 1521.42 C 1741.87 1521.74 1674.57 1521.68 1607.27 1521.23 L 1607.35 1501.76 z"/><path transform="translate(0,0)" fill="rgb(46,43,46)" d="M 1607.76 1402.85 L 1811.15 1402.75 C 1811.18 1407.07 1811.94 1419.43 1809.83 1422.15 C 1745.44 1424.03 1672.36 1422.58 1607.38 1422.39 C 1607.3 1415.94 1607.57 1409.32 1607.76 1402.85 z"/><path transform="translate(0,0)" fill="rgb(46,43,46)" d="M 1607.67 1526.53 L 1811.15 1526.34 L 1811.01 1545.91 L 1607.4 1546.03 C 1607.28 1539.11 1607.16 1533.44 1607.67 1526.53 z"/><path transform="translate(0,0)" fill="rgb(46,43,46)" d="M 1525.97 1600.89 C 1548.65 1599.87 1579.84 1600.24 1602.7 1600.86 C 1602.68 1607.35 1602.51 1613.96 1602.41 1620.46 C 1581.15 1621.62 1547.58 1620.92 1525.98 1620.32 L 1525.97 1600.89 z"/><path transform="translate(0,0)" fill="rgb(46,43,46)" d="M 1559.57 1575.5 C 1573.88 1575.35 1588.19 1575.45 1602.49 1575.8 L 1602.46 1595.37 C 1591.62 1595.95 1578.76 1595.7 1567.75 1595.74 C 1553.82 1595.77 1539.89 1595.66 1525.95 1595.41 L 1525.83 1575.93 L 1559.57 1575.5 z"/><path transform="translate(0,0)" fill="rgb(46,43,46)" d="M 1525.93 1477.04 L 1602.8 1476.91 L 1602.62 1496.88 C 1579.91 1497.77 1548.84 1497.14 1525.82 1496.65 L 1525.93 1477.04 z"/><path transform="translate(0,0)" fill="rgb(46,43,46)" d="M 1526.08 1427.27 C 1551.69 1427.12 1577.3 1427.14 1602.9 1427.35 C 1602.87 1433.99 1602.68 1440.75 1602.56 1447.4 C 1577.03 1447.19 1551.49 1447.12 1525.96 1447.19 L 1526.08 1427.27 z"/><path transform="translate(0,0)" fill="rgb(46,43,46)" d="M 1526.04 1378.07 C 1551.58 1377.68 1577.12 1377.66 1602.66 1378 L 1602.17 1397.89 L 1526 1397.91 L 1526.04 1378.07 z"/><path transform="translate(0,0)" fill="rgb(46,43,46)" d="M 1525.81 1353.12 L 1602.82 1352.96 L 1602.62 1372.82 C 1579.13 1373.71 1549.54 1373.01 1525.88 1372.58 L 1525.81 1353.12 z"/><path transform="translate(0,0)" fill="rgb(46,43,46)" d="M 1525.81 1625.34 C 1551.49 1625.11 1577.17 1625.1 1602.84 1625.33 L 1602.67 1645 C 1577.07 1645.15 1551.47 1645.16 1525.88 1645.03 L 1525.81 1625.34 z"/><path transform="translate(0,0)" fill="rgb(46,43,46)" d="M 1525.94 1452.25 L 1602.77 1452.17 L 1602.87 1472.01 C 1578.29 1472.17 1550.06 1472.56 1525.7 1471.53 L 1525.94 1452.25 z"/><path transform="translate(0,0)" fill="rgb(46,43,46)" d="M 1525.94 1551.03 L 1602.34 1551.07 C 1602.56 1557.47 1602.4 1564.36 1602.36 1570.8 C 1578.7 1571.75 1549.82 1570.96 1525.77 1570.91 L 1525.94 1551.03 z"/><path transform="translate(0,0)" fill="rgb(46,43,46)" d="M 1525.93 1526.5 C 1551.35 1526.16 1576.78 1526.13 1602.2 1526.41 L 1602.09 1546.03 C 1576.69 1546.2 1551.28 1546.2 1525.87 1546.06 C 1525.82 1539.54 1525.84 1533.02 1525.93 1526.5 z"/><path transform="translate(0,0)" fill="rgb(46,43,46)" d="M 1525.87 1402.91 C 1550.61 1402.24 1577.59 1402.72 1602.51 1402.67 C 1602.63 1409.03 1602.55 1415.59 1602.55 1421.97 C 1585.45 1423.48 1544.76 1422.2 1525.89 1422.08 L 1525.87 1402.91 z"/><path transform="translate(0,0)" fill="rgb(46,43,46)" d="M 1525.99 1501.83 C 1551.45 1501.71 1576.91 1501.73 1602.36 1501.89 C 1602.6 1507.91 1602.47 1514.68 1602.48 1520.75 C 1596.7 1522.2 1534.84 1521.25 1525.73 1521.13 L 1525.99 1501.83 z"/><path transform="translate(0,0)" fill="rgb(142,139,143)" d="M 546.973 1769.53 C 567.91 1768.13 733.943 1768.32 737.367 1770.94 C 735.031 1771.6 732.226 1771.87 728.375 1771.86 C 668.676 1771.67 608.764 1772.47 549.105 1771.56 C 548.395 1770.88 547.684 1770.2 546.973 1769.53 z"/><path transform="translate(0,0)" fill="rgb(142,139,143)" d="M 1840.33 243.803 C 1843.1 247.825 1841.86 264.368 1841.74 270.265 C 1850.86 270.408 1868.11 268.702 1875.59 271.45 L 1875.31 272.235 C 1868.95 273.953 1849.45 273.133 1841.75 273.035 C 1841.73 286.311 1842.52 331.933 1841.12 342.696 L 1840.14 343.184 C 1838.35 338.675 1838.99 326.437 1839.03 320.892 L 1839.13 272.99 C 1820.21 273.306 1797.54 273.313 1778.69 272.525 L 1778.99 271.908 C 1791.04 269.741 1825.71 270.312 1839.22 270.197 C 1839.07 263.852 1838.05 249.087 1840.33 243.803 z"/><path transform="translate(0,0)" fill="rgb(142,139,143)" d="M 1484.72 270.473 C 1498.48 270.147 1658.77 269.202 1664.28 271.464 L 1664.41 272.94 C 1624.19 273.288 1583.96 273.401 1543.73 273.278 C 1529.88 273.266 1496.63 274.119 1483.98 272.767 L 1483.29 271.661 L 1484.72 270.473 z"/><path transform="translate(0,0)" fill="rgb(142,139,143)" d="M 556.949 270.485 C 576.701 269.867 738.34 269.817 741.466 271.486 L 740.686 273.037 C 722.492 273.112 558.553 273.781 555.377 271.866 L 556.949 270.485 z"/><path transform="translate(0,0)" fill="rgb(142,139,143)" d="M 930.622 270.445 C 947.055 269.81 1102.91 269.033 1110.31 271.287 L 1110.61 273.11 L 985.61 273.128 C 977.623 273.135 934.726 273.748 930.591 272.403 L 930.622 270.445 z"/><path transform="translate(0,0)" fill="rgb(142,139,143)" d="M 357.389 270.443 C 372.863 270.24 536.907 269.562 540.296 271.43 L 539.74 273.049 L 416.508 273.045 C 403.182 273.063 367.11 274.038 356.58 272.69 L 356.027 271.627 L 357.389 270.443 z"/><path transform="translate(0,0)" fill="rgb(142,139,143)" d="M 1482.33 1769.48 C 1493.26 1768.67 1511.34 1769.2 1522.75 1769.2 L 1599.95 1769.2 C 1607.05 1769.19 1660.09 1768.7 1664.28 1769.62 L 1665.47 1771.53 C 1610.4 1774.37 1552.54 1770.26 1497.2 1771.92 C 1492.4 1772.06 1488.01 1772.57 1483.28 1771.56 L 1482.33 1769.48 z"/><path transform="translate(0,0)" fill="rgb(142,139,143)" d="M 930.505 1769.42 C 947.127 1769.02 1103.18 1768.26 1107.04 1770.58 L 1105.9 1771.95 L 990.959 1771.88 C 983.535 1771.88 931.219 1772.99 928.944 1770.6 L 930.505 1769.42 z"/><path transform="translate(0,0)" fill="rgb(142,139,143)" d="M 1295.35 270.492 C 1347.55 268.11 1402.47 271.786 1454.97 270.391 C 1459.69 270.266 1465.95 269.643 1469.4 272.734 C 1458.68 273.779 1298.71 273.472 1295.77 272.402 L 1295.35 270.492 z"/><path transform="translate(0,0)" fill="rgb(142,139,143)" d="M 175.25 245.384 L 176.604 245.988 C 178.992 249.697 177.828 265.204 177.665 270.601 C 183.545 270.249 222.314 268.854 224.97 271.669 L 224.097 272.536 C 216.22 274.335 187.475 273.222 177.547 273.066 C 177.947 288.475 177.731 304.772 177.771 320.25 C 177.875 330.15 178.204 336.021 176.559 345.844 C 174.43 342.543 175.157 281.235 175.452 272.938 C 168.23 273.175 164.107 273.554 157.01 272.135 L 156.646 271.308 C 162.97 269.665 168.929 270.115 175.464 270.215 C 175.292 261.939 175.22 253.661 175.25 245.384 z"/><path transform="translate(0,0)" fill="rgb(142,139,143)" d="M 369.999 1769.49 C 384.219 1768.92 529.056 1768.31 532.64 1770.25 L 531.727 1771.88 C 490.132 1772.36 447.467 1771.49 405.798 1771.85 C 399.77 1771.9 370.205 1772.94 368.18 1770.65 L 369.999 1769.49 z"/><path transform="translate(0,0)" fill="rgb(142,139,143)" d="M 1301.98 1769.5 C 1352.17 1767.83 1403.56 1770.25 1453.87 1769.11 C 1457.65 1769.02 1465.72 1768.42 1468.12 1770.89 L 1466.05 1771.89 C 1451.44 1771.89 1303.63 1773.06 1299.13 1771.2 L 1299.44 1769.95 L 1301.98 1769.5 z"/><path transform="translate(0,0)" fill="rgb(142,139,143)" d="M 751.394 1769.51 C 767.178 1768.83 905.529 1767.35 913.568 1769.79 L 913.741 1771.99 L 796.472 1771.88 C 789.612 1771.88 756.489 1772.43 752.272 1771.57 L 751.394 1769.51 z"/><path transform="translate(0,0)" fill="rgb(142,139,143)" d="M 1126.36 270.442 C 1162.26 269.814 1238.98 270.354 1278.36 270.54 C 1278.87 270.946 1279.37 271.352 1279.88 271.758 L 1279.02 273.073 C 1239.38 273.661 1168.85 272.942 1127.08 272.945 C 1126.56 272.567 1126.03 272.189 1125.51 271.811 L 1126.36 270.442 z"/><path transform="translate(0,0)" fill="rgb(142,139,143)" d="M 1839.29 1272.5 L 1841.13 1273.99 C 1842.29 1280.38 1841.77 1328.12 1841.59 1336.41 C 1840.87 1370.17 1842.75 1406.32 1841.6 1439.72 L 1839.58 1438.97 C 1838.46 1434.84 1838.81 1411.81 1838.97 1405.92 C 1840.12 1361.95 1837.3 1316.3 1839.29 1272.5 z"/><path transform="translate(0,0)" fill="rgb(142,139,143)" d="M 1839.16 1729.4 L 1840.73 1730.56 C 1843.14 1735.84 1841.91 1762.18 1841.78 1769.2 C 1848.95 1768.99 1862.78 1768.35 1869.11 1770.54 C 1866.18 1772.42 1846.55 1771.75 1841.88 1771.68 C 1842 1779.59 1842.14 1796.22 1841.14 1803.71 L 1840.16 1803.41 C 1838.2 1799.18 1839.19 1787.14 1839.35 1781.75 L 1839.56 1771.68 C 1828.26 1771.78 1796.64 1772.67 1786.13 1771.16 C 1791.51 1767.42 1829.77 1769.1 1839.23 1769.19 C 1839.06 1755.93 1839.03 1742.66 1839.16 1729.4 z"/><path transform="translate(0,0)" fill="rgb(142,139,143)" d="M 1127.59 1769.47 C 1163.01 1768.72 1199.05 1769.37 1234.51 1769.15 C 1241.46 1769.11 1277.96 1768.8 1282.97 1770.23 L 1283.09 1771.34 L 1280.25 1771.95 C 1265.42 1771.97 1128.22 1773.12 1123 1771.21 C 1124.78 1769.17 1123.85 1770.08 1127.59 1769.47 z"/><path transform="translate(0,0)" fill="rgb(142,139,143)" d="M 1839.83 976.445 C 1840.06 976.807 1840.31 977.152 1840.51 977.53 C 1842.1 980.55 1842.98 1124.63 1840.83 1132.28 L 1839.49 1130.74 C 1838.09 1117.91 1837.77 985.082 1839.83 976.445 z"/><path transform="translate(0,0)" fill="rgb(142,139,143)" d="M 175.396 1273.41 C 177.527 1274.31 176.707 1273.59 177.892 1275.51 L 177.939 1379.05 C 177.963 1387.32 179.22 1435.94 176.464 1440.87 C 175.111 1433.57 175.521 1393.93 175.523 1384.68 L 175.396 1273.41 z"/><path transform="translate(0,0)" fill="rgb(142,139,143)" d="M 1839.23 769.526 L 1840.86 771.125 C 1842.22 778.691 1841.65 812.013 1841.65 821.144 C 1841.77 854.596 1841.7 888.048 1841.43 921.499 L 1839.64 921.064 C 1837.76 915.144 1838.78 785.446 1839.23 769.526 z"/><path transform="translate(0,0)" fill="rgb(142,139,143)" d="M 1839.16 484.388 C 1841.6 486.035 1841.77 487.63 1841.7 490.56 C 1840.64 535.342 1843.15 581.556 1841.58 626.226 L 1840.39 625.784 C 1838.04 622.677 1838.99 596.83 1838.99 591.406 L 1839.16 484.388 z"/><path transform="translate(0,0)" fill="rgb(142,139,143)" d="M 175.18 977.382 C 180.924 980.599 176.596 1112.35 177.92 1127.2 C 178.062 1128.79 177.315 1130.86 176.727 1132.39 C 174.886 1128.52 175.131 993.458 175.18 977.382 z"/><path transform="translate(0,0)" fill="rgb(142,139,143)" d="M 176.084 488.614 L 177.418 489.908 C 178.315 494.954 178 500.814 177.974 505.972 C 177.785 544.391 178.08 582.814 178.007 621.23 C 178.003 623.421 177.516 624.458 176.677 626.389 C 174.68 622.367 174.295 498.307 176.084 488.614 z"/><path transform="translate(0,0)" fill="rgb(142,139,143)" d="M 175.268 769.333 L 176.983 770.086 C 179.057 773.532 178.993 909.181 177.545 925.665 L 175.928 924.459 C 174.86 914.588 175.592 886.115 175.604 874.642 C 175.821 839.539 175.709 804.434 175.268 769.333 z"/><path transform="translate(0,0)" fill="rgb(142,139,143)" d="M 1839.7 1580.48 C 1841.32 1582.36 1841.61 1582.3 1841.54 1585.18 C 1840.53 1627.75 1843.41 1672.46 1841.54 1714.86 C 1840.4 1713.92 1840.39 1713.68 1839.51 1712.45 C 1837.5 1691.16 1839.84 1657.55 1838.95 1634.98 C 1838.65 1627.24 1838.74 1586.14 1839.7 1580.48 z"/><path transform="translate(0,0)" fill="rgb(142,139,143)" d="M 175.884 1579.53 L 177.497 1581.22 C 178.759 1591.49 178.158 1633.42 177.892 1646.13 C 177.553 1662.37 179.351 1704.37 177.519 1718.18 C 173.06 1711.81 176.971 1617.89 175.45 1604.74 C 175.104 1601.74 175.454 1583.29 175.884 1579.53 z"/><path transform="translate(0,0)" fill="rgb(142,139,143)" d="M 1839.08 639.317 L 1841.07 641.208 C 1841.8 645.734 1841.75 649.739 1841.69 654.299 C 1841.25 687.724 1842.22 721.264 1841.59 754.676 L 1839.89 754.13 C 1838.2 750.784 1838.97 650.727 1839.08 639.317 z"/><path transform="translate(0,0)" fill="rgb(142,139,143)" d="M 247.825 1769.49 C 266.197 1768.71 286.962 1769.37 305.501 1769.07 C 315.917 1768.9 343.389 1768.18 352.724 1770.09 L 352.83 1771.42 L 350.25 1771.91 C 338.277 1771.92 247.835 1773.03 244.319 1770.3 L 247.825 1769.49 z"/><path transform="translate(0,0)" fill="rgb(142,139,143)" d="M 1839.38 1145.56 L 1841.25 1147.38 C 1842.33 1155.41 1841.83 1178.02 1841.75 1187.24 C 1841.55 1210.38 1842.38 1234.93 1841.55 1257.9 C 1839.83 1257.56 1840.67 1257.94 1839.14 1256.55 C 1838.9 1224.09 1837.67 1177.23 1839.38 1145.56 z"/><path transform="translate(0,0)" fill="rgb(142,139,143)" d="M 175.605 1732.38 L 176.872 1733.3 C 179.133 1737.25 177.906 1763.24 177.785 1769.32 C 185.452 1769.15 204.037 1767.63 209.924 1770.57 C 206.462 1772.97 183.598 1771.81 178.021 1771.69 L 177.997 1793.25 C 178.028 1796.12 178.335 1798.01 177.088 1800.58 C 174.979 1797.53 175.821 1776.79 175.903 1771.68 C 169.216 1771.84 165.047 1771.97 158.371 1771.32 L 156.978 1769.92 L 156.905 1771.09 L 155.074 1770.48 L 156.885 1769.67 L 157.005 1770.83 L 157.545 1770.89 L 158.355 1769.44 C 163.628 1768.68 170.535 1769.07 175.987 1769.17 L 175.605 1732.38 z"/><path transform="translate(0,0)" fill="rgb(142,139,143)" d="M 1840.01 357.526 C 1843.27 362.585 1841.89 456.901 1841.51 470.786 C 1836.24 466.79 1840.28 387.9 1838.96 376.322 C 1838.56 372.866 1839.02 361.089 1840.01 357.526 z"/><path transform="translate(0,0)" fill="rgb(142,139,143)" d="M 1839.43 1454.61 L 1840.96 1456.11 C 1841.91 1461.22 1841.74 1466.32 1841.69 1471.5 C 1841.36 1502.85 1842.34 1534.41 1841.54 1565.74 L 1840.18 1565.44 C 1837.35 1561.75 1838.73 1465.64 1839.43 1454.61 z"/><path transform="translate(0,0)" fill="rgb(142,139,143)" d="M 176.224 359.727 L 177.398 361.062 C 178.102 365.564 178.215 400.884 177.922 407.359 C 177.065 426.252 179.563 458.834 177.511 476.219 C 173.794 470.939 174.553 371.219 176.224 359.727 z"/><path transform="translate(0,0)" fill="rgb(142,139,143)" d="M 758.954 270.487 C 771.24 270.219 855.98 269.317 861.516 271.684 L 860.806 273.019 C 833.293 273.721 805.37 272.659 777.82 273.176 C 771.895 273.288 763.694 273.526 757.945 272.763 L 757.379 271.685 L 758.954 270.487 z"/><path transform="translate(0,0)" fill="rgb(142,139,143)" d="M 175.504 1454.39 C 176.602 1455.21 176.627 1455.45 177.495 1456.55 C 178.517 1466.28 178.624 1562.67 176.789 1567.42 C 174.66 1562.83 175.085 1466.42 175.504 1454.39 z"/><path transform="translate(0,0)" fill="rgb(142,139,143)" d="M 175.371 1146.37 L 177.32 1147.47 C 178.238 1152.03 178.14 1181.89 177.922 1188.56 C 177.214 1210.24 179.263 1238.41 177.536 1259.36 L 176.066 1257.89 C 174.995 1247.6 175.494 1229.62 175.458 1218.5 L 175.371 1146.37 z"/><path transform="translate(0,0)" fill="rgb(142,139,143)" d="M 245.235 270.505 C 256.411 270.48 335.269 268.794 338.659 271.811 L 336.016 273.015 C 325.689 273.31 244.709 273.857 240.789 272.243 C 242.926 270.294 241.808 271.138 245.235 270.505 z"/><path transform="translate(0,0)" fill="rgb(142,139,143)" d="M 175.883 639.54 L 177.159 640.644 C 177.577 641.966 177.955 642.856 177.94 644.86 C 177.675 681.104 178.464 717.471 177.781 753.687 C 177.211 754.281 176.64 754.875 176.07 755.469 C 174.571 727.765 175.864 698.971 175.41 671.164 C 175.244 660.973 175.136 649.596 175.883 639.54 z"/><path transform="translate(0,0)" fill="rgb(142,139,143)" d="M 1683.35 1769.45 C 1705.82 1768.91 1728.47 1769.31 1750.96 1768.94 C 1756.35 1768.85 1762.28 1768.79 1767.57 1769.7 L 1768.19 1770.85 L 1765.79 1771.73 L 1713.95 1771.98 C 1705.73 1772.03 1688.35 1772.52 1680.95 1771.3 L 1680.76 1769.97 L 1683.35 1769.45 z"/><path transform="translate(0,0)" fill="rgb(142,139,143)" d="M 1680.55 270.442 C 1691.73 270.033 1757.25 269.767 1764.36 271.451 L 1764.42 273.001 C 1755.65 273.213 1682.86 273.856 1680.01 272.222 L 1680.55 270.442 z"/><path transform="translate(0,0)" fill="rgb(142,139,143)" d="M 886.749 270.471 C 892.099 270.371 911.118 269.719 914.649 272.112 C 911.961 273.683 908.872 273.316 905.629 273.377 C 899.617 273.544 880.895 274.433 876.594 271.859 C 879.601 270.409 883.317 270.604 886.749 270.471 z"/><path transform="translate(0,0)" fill="rgb(142,139,143)" d="M 1839.22 938.393 C 1840.39 938.963 1840.48 939.212 1841.48 940.095 C 1842.52 946.515 1841.91 953.987 1841.67 960.559 C 1837.14 958.386 1839.08 943.051 1839.22 938.393 z"/><path transform="translate(0,0)" fill="rgb(77,74,78)" d="M 222.835 1769.41 C 226.839 1768.88 238.588 1768.15 242.062 1770.43 C 235.267 1771.58 227.955 1774.44 222.835 1769.41 z"/><path transform="translate(0,0)" fill="rgb(168,166,172)" d="M 176.093 941.664 L 177.517 943.329 C 178.396 949.2 178.558 955.737 176.961 961.484 C 174.64 957.206 175.263 946.415 176.093 941.664 z"/></svg>