<svg version="1.1" xmlns="http://www.w3.org/2000/svg" style="display: block;" viewBox="0 0 2048 2048" width="1024" height="1024" preserveAspectRatio="none"><path transform="translate(0,0)" fill="rgb(0,0,0)" d="M 432.025 767.209 C 477.989 769.156 533.731 767.777 580.27 767.776 L 851.18 767.782 L 1594.78 767.697 C 1592.98 792.56 1594.13 832.327 1594.12 858.017 L 1594.08 1027.54 L 1594.09 1267.6 C 1594.1 1311.37 1593.11 1358.97 1594.6 1402.28 L 808.006 1402.26 L 558.008 1402.13 L 480.899 1402.17 C 465.625 1402.19 447.01 1401.76 432.08 1402.84 L 432.025 767.209 z M 438.045 1395.81 L 1257.28 1395.98 L 1487.38 1395.92 L 1554.64 1396.05 C 1561.73 1396.07 1582.08 1396.44 1588.53 1395.5 C 1587.53 1309.49 1588.4 1221.63 1588.53 1135.5 L 1588.21 773.989 L 814.732 774.11 L 564.849 774.145 C 525.251 774.147 477.159 775.413 438.248 773.967 L 438.045 1395.81 z"/><path transform="translate(0,0)" fill="rgb(0,0,0)" d="M 470.177 1152.14 C 510.853 1152.94 555.069 1152.01 596 1152 L 866.253 1152.07 L 1557.13 1152.05 C 1555.23 1169.39 1555.92 1195.17 1555.93 1213.32 L 1556.04 1312.59 C 1556.06 1328.93 1556.74 1348.63 1555.96 1364.59 C 1546.52 1363.87 1528.88 1364.8 1518.5 1364.89 L 1450.65 1365.01 L 1212.62 1365 L 470.119 1365.09 C 471.038 1340.27 470.415 1311.9 470.407 1286.89 L 470.177 1152.14 z M 829.401 1358.56 C 860.61 1357.21 894.572 1357.82 925.993 1358.32 C 1012.48 1359.71 1100.43 1356.35 1186.72 1358.65 C 1188.95 1293.79 1185.54 1224.37 1186.94 1159.03 C 1068.39 1158.99 947.828 1157.76 829.441 1158.94 C 829.118 1195 829.042 1231.07 829.214 1267.13 C 829.219 1297.07 828.691 1328.74 829.401 1358.56 z M 1193.42 1358.27 L 1422.19 1358.41 C 1461.88 1358.41 1509.57 1359.43 1548.83 1357.92 C 1552.19 1353.27 1549.92 1178.16 1550.23 1158.98 L 1309.68 1159.08 C 1271.74 1159.1 1231.14 1158.1 1193.55 1158.95 C 1191.9 1216.22 1194.47 1274.26 1193.44 1331.64 C 1193.29 1340.01 1193.01 1350 1193.42 1358.27 z M 476.769 1358.24 L 823.073 1358.19 L 822.855 1226.72 C 822.849 1204.97 822.297 1180.57 823 1158.99 L 476.949 1159.06 C 476.204 1202.92 475.97 1246.8 476.246 1290.67 C 476.247 1310.55 475.399 1339.32 476.769 1358.24 z"/><path transform="translate(0,0)" fill="rgb(0,0,0)" d="M 1092.43 1282.55 C 1103.36 1283.52 1126.82 1282.73 1139.52 1282.98 C 1139.68 1298.53 1139.72 1314.08 1139.63 1329.62 C 1133.2 1331.14 1100.81 1329.96 1092.02 1330.03 C 1092.01 1314.2 1092.15 1298.37 1092.43 1282.55 z"/><path transform="translate(0,0)" fill="rgb(0,0,0)" d="M 982.029 1282.68 C 996.559 1283.27 1013.47 1282.89 1028.17 1282.91 C 1028.06 1297.58 1027.7 1315.56 1028.72 1329.97 C 1013.1 1329.87 996.605 1329.51 981.074 1330.14 C 980.711 1315.95 981.732 1297.19 982.029 1282.68 z"/><path transform="translate(0,0)" fill="rgb(0,0,0)" d="M 871.756 1282.66 C 886.58 1283.22 903.32 1282.96 918.295 1283.07 C 918.002 1299.11 918.425 1314.08 919.028 1330.1 C 903.031 1329.8 887.03 1329.78 871.033 1330.04 C 872.472 1318.31 871.828 1295.34 871.756 1282.66 z"/><path transform="translate(0,0)" fill="rgb(0,0,0)" d="M 1078.12 1188.19 C 1086.73 1188.02 1095.25 1189.61 1097.86 1198.95 C 1101.89 1213.39 1104.13 1241.21 1087.78 1248.24 C 1065.75 1249.72 1063.62 1236.96 1063.98 1217.71 C 1064.24 1204.47 1063.77 1192.7 1078.12 1188.19 z M 1083.13 1240.98 C 1092.41 1233.85 1091.01 1210.01 1087.18 1199.61 C 1086.24 1197.04 1082.32 1196.23 1079.78 1195.68 C 1072.99 1203.39 1070.9 1229.42 1078.61 1238.77 C 1078.97 1239.22 1082.33 1240.65 1083.13 1240.98 z"/><path transform="translate(0,0)" fill="rgb(0,0,0)" d="M 869.096 1189.1 C 883.499 1190.83 905.287 1183.81 903.104 1207.67 C 902.504 1214.23 899.609 1216.73 894.861 1220.81 C 896.957 1226.33 905.7 1242.5 901.834 1247.09 C 898.312 1247.43 898.279 1247.6 894.725 1246.61 L 893.185 1243.79 C 891.085 1238.45 886.97 1222.3 882.173 1221.15 C 878.733 1225.38 879.64 1239.6 879.65 1245.73 L 878.04 1247.02 C 874.739 1247.21 873.264 1247.65 870.477 1245.92 C 868.251 1241.78 869.922 1199.66 869.235 1190.79 L 869.096 1189.1 z M 890.932 1212.77 C 895.747 1200.67 892.764 1197.1 879.951 1197.06 C 879.799 1202.27 879.008 1208.86 880.908 1213.43 C 884.747 1216.23 886.807 1214.53 890.932 1212.77 z"/><path transform="translate(0,0)" fill="rgb(0,0,0)" d="M 1132.85 1228.3 C 1132.77 1219.56 1131.34 1197.2 1133.15 1190.11 C 1144.04 1187.17 1141.83 1198.93 1141.73 1205.77 C 1141.53 1219.59 1141.3 1233.32 1141.86 1247.14 C 1139.72 1247.21 1132.86 1247.58 1132.12 1246.56 C 1127.14 1239.66 1119.07 1213.56 1117.02 1206.66 C 1116.97 1215.07 1118.85 1241.26 1115.99 1247.17 C 1112.59 1247.52 1112.66 1247.65 1109.39 1246.86 C 1106.86 1241.3 1107.91 1197.68 1107.95 1189.56 C 1112.09 1189.49 1113.57 1189.19 1117.37 1190.53 C 1122.13 1197.07 1129.76 1219.73 1132.85 1228.3 z"/><path transform="translate(0,0)" fill="rgb(0,0,0)" d="M 1015.78 1188.23 C 1027.1 1187.32 1033.99 1189.19 1038.92 1200.86 C 1038.65 1203.97 1039.24 1202.59 1036.68 1204.94 C 1028.03 1205.87 1028.83 1196.41 1019.58 1195.61 C 1016.69 1197.71 1016.86 1198.2 1015.62 1201.53 C 1017.35 1213.6 1059.81 1227.27 1029.59 1247.74 C 1020.22 1248.99 1008.72 1247.88 1004.28 1238.12 C 1004.03 1232.93 1005.91 1230.42 1010.89 1229.94 C 1013.82 1231.27 1015.38 1235.59 1018.97 1239.18 C 1022.96 1240.36 1021.02 1240.35 1025.01 1239.23 C 1027.78 1236.85 1027.59 1237.04 1028.46 1233.48 C 1027.4 1221.73 984.699 1205.2 1015.78 1188.23 z"/><path transform="translate(0,0)" fill="rgb(0,0,0)" d="M 942.389 1189.07 C 945.75 1189.03 947.784 1189.13 951.135 1189.42 C 955.339 1193.75 961.074 1226.23 962.297 1233.76 L 970.97 1189.49 C 974.458 1189.41 978.231 1189.02 981.74 1188.72 C 980.651 1193.04 979.747 1197.84 978.824 1202.23 C 975.082 1217.4 971.191 1232.53 967.151 1247.62 L 956.425 1247.34 C 952.741 1228.64 947.027 1207.8 942.389 1189.07 z"/><path transform="translate(0,0)" fill="rgb(0,0,0)" d="M 910.564 1189.01 C 920.368 1190.05 929.224 1187.38 937.44 1190.4 C 940.024 1193.43 939.315 1191.7 939.455 1195.84 L 938.338 1196.91 C 933.114 1198.43 926.878 1197.83 921.297 1197.71 L 920.948 1213.08 C 927.968 1212.71 931.598 1211.51 936.931 1215.81 L 937.111 1217.76 C 932.52 1222.47 927.393 1221.25 921.178 1221.14 L 920.685 1231.27 C 920.757 1233.64 920.869 1236.02 921.021 1238.39 C 926.671 1240.87 939.335 1235.33 940.675 1243.07 C 938.877 1246.84 940.168 1245.71 937.328 1247.68 C 929.336 1246.92 919.143 1247.24 910.957 1247.28 C 911.066 1227.85 910.935 1208.43 910.564 1189.01 z"/><path transform="translate(0,0)" fill="rgb(0,0,0)" d="M 988.048 1188.79 C 992.139 1189.23 993.636 1189.12 997.245 1190.87 C 998.235 1196.65 997.995 1241.03 997.555 1247.49 C 993.29 1247.58 991.955 1247.86 988.001 1246.59 C 987.245 1244.8 988.023 1195.34 988.048 1188.79 z"/><path transform="translate(0,0)" fill="rgb(0,0,0)" d="M 1046.66 1189.21 C 1049.79 1189.88 1053.32 1189.71 1056.55 1189.73 C 1055.93 1198.35 1057.24 1243.59 1054.93 1247.37 C 1051.55 1247.34 1049.8 1247.6 1046.66 1246.26 C 1045.51 1233.94 1046.66 1202.9 1046.66 1189.21 z"/><path transform="translate(0,0)" fill="rgb(0,0,0)" d="M 1374.53 1189.41 C 1376.49 1189.4 1382.05 1189.36 1382.82 1190.83 C 1386.47 1197.75 1397.09 1241.2 1396.52 1246.41 C 1393.16 1248.07 1391.98 1248.17 1388.7 1247 C 1386.07 1243.73 1386.57 1239.72 1384.8 1234.62 L 1383.12 1234.02 L 1370.83 1233.89 C 1370.49 1238.57 1370.53 1242.01 1368.96 1246.44 C 1365.96 1247.74 1362.33 1247.3 1359.6 1245.61 C 1360.69 1237.6 1370.22 1194.7 1374.53 1189.41 z M 1379.39 1227.46 L 1382.34 1225.48 C 1382.97 1219.16 1379.99 1208.27 1378.48 1201.67 C 1377.04 1207.61 1373.02 1219.04 1374.42 1225.16 C 1374.65 1226.16 1378.16 1227.02 1379.39 1227.46 z"/><path transform="translate(0,0)" fill="rgb(0,0,0)" d="M 1293.62 1188.22 C 1302.61 1187.61 1320.83 1192.12 1314.65 1204.06 C 1304.51 1206.56 1304.17 1194.11 1295.85 1196.59 C 1290.01 1203.81 1299.59 1210.99 1304.84 1214.65 C 1319.08 1224.58 1324.65 1238.56 1305.74 1247.78 C 1294.81 1248.75 1285.47 1246.49 1282.59 1234.34 C 1283.47 1230.76 1282.5 1232.12 1285.56 1230.1 C 1289.85 1230.04 1288.01 1229.45 1291.4 1231.51 C 1292.93 1234.83 1293.37 1236.55 1296.24 1238.84 C 1300.9 1239.95 1298.74 1240.11 1302.97 1238.89 C 1319.05 1223.68 1257.54 1208.81 1293.62 1188.22 z"/><path transform="translate(0,0)" fill="rgb(0,0,0)" d="M 1334.09 1188.11 C 1338.76 1188.3 1344.77 1188.28 1349.07 1190.2 C 1354.2 1192.5 1357.53 1201.73 1355.12 1206.59 C 1346.04 1208.26 1342.3 1192.73 1335.16 1197.25 C 1331.32 1203.96 1330.04 1232.38 1335.53 1238.49 C 1339.33 1240.23 1337.42 1239.96 1341.41 1239.56 C 1344.92 1236.99 1343.74 1238.6 1345.29 1234.73 C 1345.67 1229.61 1344.78 1228.3 1349.58 1226.62 C 1354.04 1227.39 1352.29 1226.38 1355.22 1229.36 C 1359.11 1244.17 1337.72 1259.89 1323.12 1237.45 C 1322.76 1226.09 1320.83 1205.36 1324.91 1195.05 C 1326.56 1190.86 1330.18 1189.55 1334.09 1188.11 z"/><path transform="translate(0,0)" fill="rgb(0,0,0)" d="M 1435.99 1189.27 C 1442.53 1189.84 1460.18 1188.6 1463.89 1190.28 C 1464.88 1194.01 1464.99 1192.26 1463.86 1195.71 C 1459.63 1198.65 1451.55 1197.49 1446.01 1197.31 L 1446.04 1212.66 C 1451.73 1212.23 1458.16 1210.23 1461.63 1214.93 C 1461.9 1219.07 1462.52 1217.68 1461.04 1220.82 C 1458.06 1221.99 1451.48 1221.08 1446.95 1221.38 C 1445.47 1223.99 1445.98 1227.82 1445.94 1231.25 L 1446.1 1236.68 C 1452.61 1243.56 1459.88 1234.57 1464.51 1241.15 C 1464.49 1243.97 1464.86 1244.63 1463.39 1246.89 C 1457.7 1247.58 1441.83 1247.11 1435.39 1247.08 C 1437.06 1232.12 1436.12 1205.21 1435.99 1189.27 z"/><path transform="translate(0,0)" fill="rgb(0,0,0)" d="M 1402.98 1189.7 C 1406.53 1189.75 1408.18 1189.54 1411.56 1190.75 C 1412.76 1198.19 1412.17 1229.75 1412.18 1238.54 C 1418.02 1238.29 1424.66 1237.07 1429.44 1239.34 C 1431.86 1242.42 1431.02 1242.06 1431.06 1247.04 L 1402.47 1247.25 C 1403.47 1229.25 1402.97 1207.95 1402.98 1189.7 z"/><path transform="translate(0,0)" fill="rgb(0,0,0)" d="M 610.723 1188.3 C 617.756 1187.94 628.496 1187.59 630.498 1196.41 C 633.27 1208.63 633.92 1228.25 630.57 1240.58 C 629.537 1244.39 622.453 1247.02 619.18 1248.14 C 611.032 1248.22 602.316 1246.6 600.047 1237.63 C 596.16 1222.26 593.056 1195.39 610.723 1188.3 z M 618.366 1240.16 C 625.92 1232.34 624.205 1213.71 622.66 1203.33 C 621.821 1197.7 618.606 1195.81 613.027 1195.79 C 609.654 1199.7 608.364 1203.46 608.239 1208.58 C 607.962 1219.97 603.827 1237.35 618.366 1240.16 z"/><path transform="translate(0,0)" fill="rgb(0,0,0)" d="M 557.922 1189.36 C 565.926 1189.04 583.327 1186.97 588.234 1193.61 C 595.743 1203.78 591.522 1213.59 583.595 1220.59 C 586.386 1228.67 590.784 1238.62 594.084 1246.69 C 587.536 1247.03 584.028 1248.88 580.993 1242.76 C 578.746 1237.12 575.649 1226.57 573.504 1222.38 C 570.055 1221.33 571.623 1221.16 568.618 1222.46 C 565.644 1229.61 571.955 1239.84 565.707 1246.17 C 562.391 1247.47 562.629 1247.55 559.146 1247.03 C 557.282 1244.32 557.945 1196.47 557.922 1189.36 z M 579.239 1212.55 C 584.358 1200.86 580.17 1196.74 568.068 1196.77 C 567.983 1201.62 567.093 1209.45 569.247 1213.16 C 572.916 1214.66 575.185 1214.03 579.239 1212.55 z"/><path transform="translate(0,0)" fill="rgb(0,0,0)" d="M 517.655 1189.18 C 539.568 1190.55 550.803 1183.62 551.503 1210.99 C 545.608 1224.01 541.14 1223.16 527.916 1223.07 C 527.956 1227.18 528.568 1243.93 527.023 1246.71 C 523.056 1246.87 522.462 1246.98 518.665 1246.11 C 516.869 1239.64 518.047 1200.27 517.655 1189.18 z M 539.14 1213.18 C 544.027 1201.17 540.673 1196.94 528.016 1196.97 L 527.738 1207.63 C 527.65 1210.83 527.62 1211.03 529.16 1213.79 C 532.739 1215.23 535.171 1214.65 539.14 1213.18 z"/><path transform="translate(0,0)" fill="rgb(0,0,0)" d="M 717.761 1188.27 C 727.063 1188.02 736.491 1190.68 739.138 1200.98 C 738.272 1204.2 739.049 1202.76 736.387 1205.23 C 733.106 1205.48 731.141 1206.33 729.15 1204.85 C 727.129 1198.76 727.721 1197.37 721.497 1195.69 C 710.561 1199.45 714.709 1224.21 715.286 1233.35 C 715.498 1236.72 716.831 1237.97 719.355 1239.75 C 727.203 1240.27 727.858 1235.37 728.551 1229.36 L 729.497 1228.1 C 734.252 1227.89 733.664 1227.21 737.292 1229.11 C 742.692 1240.92 723.113 1259.64 705.487 1239.66 C 703.488 1230.6 701.843 1204.09 707.256 1195.66 C 710.324 1190.89 712.622 1189.79 717.761 1188.27 z"/><path transform="translate(0,0)" fill="rgb(0,0,0)" d="M 670.33 1189 C 679.992 1190.78 691.965 1186.54 697.963 1191.54 C 698.903 1194.83 699.205 1193.45 697.978 1195.95 C 693.146 1197.47 686.468 1197.07 681.216 1197.1 C 680.587 1202.63 680.378 1207.79 680.124 1213.33 C 686.039 1213.17 692.475 1212.16 696.874 1216.05 C 697.007 1219.5 697.346 1217.79 695.021 1221.12 C 691.813 1222.54 686.762 1221.09 681.896 1221.29 C 680.517 1223.32 681.042 1227.62 681.031 1230.58 C 680.525 1233.75 680.47 1235.28 680.383 1238.41 C 685.439 1240.87 695.783 1237.09 699.3 1240.21 C 699.618 1243.3 699.676 1243.09 698.152 1245.79 C 694.08 1248.03 677.015 1247.05 670.789 1247.03 C 670.616 1227.81 671.037 1208.1 670.33 1189 z"/><path transform="translate(0,0)" fill="rgb(0,0,0)" d="M 742.109 1189.11 C 752.449 1190.49 766.17 1186.83 773.177 1191.3 C 774.879 1194.75 774.479 1192.9 773.852 1197.12 C 770.993 1198.53 765.851 1197.95 762.44 1197.86 C 762.029 1210.4 762.133 1223.65 762.059 1236.25 C 762.05 1240.01 762.715 1244.01 760.951 1246.67 C 757.46 1246.82 756.956 1247.02 753.507 1246.14 C 752.31 1238.06 753.008 1207.64 753.038 1197.87 C 749.029 1197.36 746.828 1198.02 742.932 1196.35 C 741.173 1193.02 741.82 1193.55 742.109 1189.11 z"/><path transform="translate(0,0)" fill="rgb(0,0,0)" d="M 651.111 1189.1 C 654.588 1188.84 657.602 1188.14 660.582 1189.67 C 661.749 1199.4 661.37 1231 659.767 1241.55 C 659.293 1244.67 652.925 1247.02 649.97 1248.1 C 645.074 1248.1 642.475 1248.7 638.645 1246.15 C 637.413 1243.03 637.379 1243.27 637.993 1240 C 641.207 1237.55 642.691 1239.65 648.594 1237.91 C 653.136 1232.07 651.225 1198.35 651.111 1189.1 z"/><path transform="translate(0,0)" fill="rgb(0,0,0)" fill-opacity="0.0196078" d="M 553.59 1194.05 L 555.881 1195.83 C 556.891 1199.58 556.035 1206.13 555.913 1210.49 C 553.009 1208.14 553.627 1198.14 553.59 1194.05 z"/><path transform="translate(0,0)" fill="rgb(0,0,0)" d="M 786.937 852.552 C 813.807 853.068 865.037 847.333 886.568 865.004 C 912.5 886.285 906.536 939.13 907.12 969.632 C 907.619 995.662 908.323 1029.44 891.663 1050.95 C 865.42 1076.57 823.413 1066.16 787.025 1068.52 C 786.332 1033.98 786.815 998.247 786.755 963.629 C 786.691 926.991 786.164 889.103 786.937 852.552 z M 821.947 1037.92 C 833.997 1038.24 853.149 1040.64 862.132 1031.48 C 877.019 1009.59 869.619 932.221 869.083 904.701 C 868.587 879.245 841.51 882.193 822.712 882.39 C 820.547 886.172 821.884 1022.14 821.947 1037.92 z"/><path transform="translate(0,0)" fill="rgb(0,0,0)" d="M 1192.86 852.474 C 1202.57 852.644 1212.28 852.724 1221.99 852.714 L 1221.77 1067.11 C 1211.89 1067.84 1199.02 1067.49 1188.95 1067.39 C 1188.66 1029.22 1188.6 991.055 1188.76 952.889 C 1188.92 933.606 1189.75 914.314 1189.61 895.05 C 1179.08 952.18 1165.04 1010.77 1153.43 1068.18 C 1144.3 1068.08 1137.91 1068.11 1128.86 1068.89 C 1117.76 1022.22 1105.88 963.989 1096.83 916.774 C 1095.3 909.769 1094.21 904.308 1091.82 897.537 C 1093.52 914.981 1093.12 938.661 1093.31 956.587 C 1093.73 993.727 1093.85 1030.87 1093.67 1068.01 L 1060.95 1067.93 C 1059.24 999.237 1060.19 921.848 1060.76 852.607 L 1109.73 852.679 C 1120.72 897.616 1133.38 957.304 1141.06 1002.35 C 1145.55 982.237 1148.92 960.808 1153.08 940.445 C 1159.06 911.215 1166.07 881.912 1171.71 852.695 L 1192.86 852.474 z"/><path transform="translate(0,0)" fill="rgb(0,0,0)" d="M 939.845 852.718 L 973.954 852.905 L 974.156 1037.78 C 996.45 1037.99 1018.74 1038.03 1041.04 1037.91 L 1041.07 1067.83 C 1009.94 1067.57 969.994 1066.87 939.565 1067.97 C 940.426 1031.72 939.711 995.702 939.165 959.485 C 938.628 923.931 939.824 888.263 939.845 852.718 z"/><path transform="translate(0,0)" fill="rgb(0,0,0)" d="M 650.882 1102.5 L 1293.15 1102.62 L 1476.65 1102.44 L 1525.16 1102.33 C 1532.83 1102.26 1551.88 1099.89 1556.38 1106.26 L 1555.55 1107.81 C 1550.06 1110.14 1407.12 1109.09 1388.25 1109.08 L 690.968 1109.05 L 543.077 1109.09 C 523.424 1109.1 503.722 1109.33 484.069 1109.17 C 479.045 1109.13 473.623 1109.3 471.298 1104.72 L 470.889 1106.12 C 472.118 1104.03 472.898 1102.68 475.899 1102.66 C 492.48 1102.53 509.077 1102.61 525.662 1102.59 L 650.882 1102.5 z"/><path transform="translate(0,0)" fill="rgb(0,0,0)" d="M 471.076 805.05 C 554.177 805.621 637.282 805.686 720.384 805.245 L 1345.46 805.198 L 1492.76 805.278 C 1502.44 805.28 1549.41 803.689 1554.2 806.604 C 1554.86 809.69 1554.97 808.207 1553.74 811.199 L 709.814 811.312 L 524.056 811.386 C 516.888 811.397 475.228 812.306 472.165 810.425 L 471.076 805.05 z"/><path transform="translate(0,0)" fill="rgb(0,0,0)" d="M 431.795 676.525 C 521.817 678.577 616.232 676.375 706.472 676.712 L 1594.64 676.845 C 1594.07 687.132 1594.04 697.441 1594.56 707.731 C 1589.63 708.802 1531.62 708.175 1523.06 708.168 L 1331.85 708.093 L 741.757 708.368 L 540.094 708.167 C 505.705 708.163 465.604 707.194 431.579 708.772 C 431.957 697.907 431.864 687.385 431.795 676.525 z M 438.091 683.549 L 437.953 702.115 L 1194.33 702.072 L 1464.29 702.098 C 1503.52 702.082 1544.16 702.638 1583.25 702.161 L 1586.9 701.868 C 1590.3 697.448 1588.09 689.898 1588.44 683.317 L 862.107 683.259 L 586.028 683.392 C 542.995 683.398 490.978 681.916 448.765 683.475 L 438.091 683.549 z"/></svg>