<svg version="1.1" xmlns="http://www.w3.org/2000/svg" style="display: block;" viewBox="0 0 2048 2048" width="1024" height="1024" preserveAspectRatio="none"><defs><linearGradient id="Gradient1" gradientUnits="userSpaceOnUse" x1="1012.37" y1="-4.15551" x2="1034.64" y2="2051.16"><stop class="stop0" offset="0" stop-opacity="1" stop-color="rgb(42,35,115)"/><stop class="stop1" offset="1" stop-opacity="1" stop-color="rgb(93,61,93)"/></linearGradient></defs><path transform="translate(0,0)" fill="url(#Gradient1)" d="M 0 0 L 351.814 0 L 1695.76 0 L 2048 0 L 2048 350.719 L 2048 1695.3 L 2048 2048 L 1695.58 2048 L 351.28 2048 L 0 2048 L 0 1695.84 L 0 350.529 L 0 0 z"/><path transform="translate(0,0)" fill="rgb(0,0,0)" d="M 1695.58 2048 L 1697.52 2045.17 C 1700.7 2043.63 1701.54 2044.65 1706.57 2044.69 C 1723.64 2044.82 1740.54 2039.44 1757.45 2037.4 C 1758.41 2036.46 1759.37 2035.52 1760.33 2034.58 C 1770.71 2034.61 1780.21 2030.54 1789.65 2027.36 C 1922.92 1982.48 2021.19 1864.46 2042.1 1725.51 C 2043.45 1716.53 2043.01 1706.78 2044.47 1697.7 L 2048 1695.3 L 2048 2048 L 1695.58 2048 z"/><path transform="translate(0,0)" fill="rgb(0,0,0)" d="M 0 1695.84 C 3.45514 1699.13 2.59364 1699.29 2.91912 1704.02 C 8.84365 1789.12 49.4897 1870.2 108.097 1931.2 C 166.105 1991.58 240.176 2029.45 322.774 2043.16 C 329.157 2044.22 348.41 2043.85 351.28 2048 L 0 2048 L 0 1695.84 z"/><path transform="translate(0,0)" fill="rgb(0,0,0)" d="M 1695.76 0 L 2048 0 L 2048 350.719 C 2040.75 345.872 2045.47 339.784 2044.01 330.634 C 2030.11 243.343 1996.78 171.722 1932.68 108.951 C 1881.7 58.1338 1816.96 23.3615 1746.44 8.9286 C 1730.58 5.65599 1716.36 3.09261 1700.12 3.71682 C 1697.87 3.80346 1697.24 1.91341 1695.76 0 z"/><path transform="translate(0,0)" fill="rgb(0,0,0)" d="M 0 0 L 351.814 0 C 350.68 1.79218 350.236 3.58298 347.817 3.70038 C 184.002 11.6521 35.2835 146.3 7.90538 307.493 C 7.28474 311.147 1.41373 350.027 1.9902 349.049 L 0 350.529 L 0 0 z"/><path transform="translate(0,0)" fill="rgb(69,47,102)" d="M 1028.94 531.083 C 1028.53 516.499 1026.77 443.178 1029.86 433.102 C 1033.03 442.482 1031.08 514.792 1031.8 531.29 C 1114.74 532.929 1198.71 530.368 1281.5 531.557 C 1300.49 531.83 1406.03 529.38 1416.79 533.187 C 1401.73 534.585 1380.98 534.019 1365.43 534.008 L 1279.6 533.933 L 1032.1 534.005 C 1031.62 553.611 1031.3 573.221 1031.14 592.833 L 1318.21 592.96 L 1402 592.949 C 1413.27 592.937 1438.47 593.419 1448.77 592.039 C 1456.43 584.424 1469.27 572.025 1475.96 563.759 C 1475.93 553.457 1474.53 493.107 1477.43 486.766 C 1479.73 503.045 1477.99 542.399 1478.82 561.28 C 1493.68 545.282 1520.37 515.72 1536.4 501.587 L 1536.77 502.102 C 1524.63 520.098 1494.77 546.309 1479.11 565.137 L 1478.52 592.895 C 1488.96 592.893 1566 591.944 1569.97 594.051 C 1563.25 596.703 1492.25 595.337 1478.94 595.71 C 1477.38 659.895 1478.4 726.618 1478.41 791.003 L 1478.49 1030.93 C 1488.71 1030.99 1499.31 1031.21 1509.5 1031.04 C 1515.99 1018.51 1526.53 990.848 1532.54 976.751 L 1589.86 838.817 C 1595.34 825.439 1607.76 792.648 1613.74 781.236 C 1651.8 781.239 1693.31 780.139 1730.99 781.089 C 1731.09 774.466 1730.86 734.983 1732.55 732.459 L 1734.1 732.474 C 1735.87 740.389 1734.05 771.956 1734.78 783.062 C 1745.52 783.327 1774.76 782.858 1783.09 783.984 L 1783.77 784.952 C 1780.39 787.693 1743.16 786.874 1736.02 786.853 L 1736.14 962.08 C 1736.17 970.049 1735.27 1028.43 1737.48 1031.06 L 1737.29 1033.09 C 1735.24 1036.35 1736.16 1099.97 1736.14 1109.31 L 1735.98 1267.97 C 1746.31 1267.87 1775.84 1266.28 1783.15 1269.71 L 1782.72 1270.47 C 1767.62 1271.64 1750.41 1271.17 1735.08 1271.16 C 1734.21 1281.98 1735.41 1314.52 1732.45 1320.68 C 1731.28 1315.56 1731.27 1280.65 1731.36 1273.04 C 1702.65 1273.08 1671.61 1273.68 1643.08 1272.81 C 1641.3 1243.64 1642.06 1206.87 1642.08 1177.35 L 1642.35 1033.42 L 1601.97 1033.2 C 1578.08 1090.22 1553.33 1151.91 1528.36 1208 C 1513.33 1208.27 1492.3 1207.63 1478.21 1208.7 L 1478.22 1478.52 C 1486.63 1486.95 1496.4 1496.35 1504.39 1505.01 C 1515.38 1504.92 1557.91 1503.36 1564.81 1506.71 C 1553.56 1507.82 1520.67 1507.97 1508.36 1507.22 C 1512.72 1512.07 1543.26 1543.69 1543.9 1546.5 C 1536.71 1541.84 1510.83 1515.35 1503.6 1507.85 C 1495.15 1507.77 1486.71 1507.78 1478.26 1507.88 C 1478.2 1515.97 1478.3 1524 1477.32 1532.03 C 1475.38 1526.04 1475.66 1514.31 1475.67 1507.84 C 1428.83 1505.81 1373.15 1507.45 1325.27 1507.43 L 1031.04 1507.44 L 1030.91 1622.5 C 1030.92 1632.68 1031.74 1685.36 1029.64 1691.67 C 1027.33 1683.76 1028.23 1640.94 1028.25 1629.61 L 1028.34 1507.57 L 731.298 1507.37 L 627.516 1507.5 C 609.592 1507.55 591.352 1507.49 573.42 1508.01 C 570.494 1508.1 569.184 1508.49 567.036 1510.48 C 562.084 1519.08 566.554 1562.7 563.505 1567.94 C 561.023 1564.42 561.959 1523.25 561.987 1515.62 C 548.933 1529.15 532.339 1547.07 518.448 1559.4 L 517.695 1559.4 C 525.48 1545.99 560.684 1516.52 561.351 1509.02 C 553.112 1503.54 506.543 1511.89 503.314 1506.06 C 505.882 1504.03 555.378 1504.98 562.114 1505.08 L 562.158 1344.48 L 562.043 1298.1 C 561.986 1289.92 561.502 1277.05 562.347 1269.42 L 564.755 1268.35 C 602.411 1263.75 653.194 1238.64 680.604 1212.51 C 734.357 1161.25 748.429 1104.14 751.508 1033.44 L 750.991 1031.81 C 751.175 1030.75 751.364 1029.84 751.385 1028.73 C 752.623 965.554 734.888 900.788 690.555 854.147 C 664.28 826.505 632.484 807.601 596.443 795.776 C 586.867 792.634 573.8 788.165 563.759 787.852 L 560.22 786.637 C 560.727 786.085 561.234 785.533 561.74 784.981 C 562.15 731.162 562.406 645.888 561.899 595.948 C 545.843 595.659 475.328 596.887 465.175 594.027 C 474.867 591.305 547.372 593.029 561.942 592.954 C 561.891 587.444 561.559 579.552 562.347 574.363 L 563.832 573.534 L 563.777 573.002 L 562.584 572.9 L 563.601 571.875 L 562.903 571.547 L 563.569 571.197 L 563.845 571.917 L 563.026 571.945 L 564.059 572.877 L 562.856 573.188 L 562.818 573.583 L 564.307 574.371 C 565.001 581.178 564.866 586.046 564.745 592.878 L 599.159 592.846 C 590.345 584.489 512.93 507.175 509.896 500.051 L 511.016 501.664 L 511.823 501.397 C 541.089 528.34 574.345 564.304 602.486 593.146 L 1028.53 592.901 L 1028.28 534.194 L 766.003 533.967 C 750.119 533.966 635.422 535.026 631.829 532.418 C 638.044 530.215 733.045 531.565 747.877 531.588 L 1026.37 531.923 C 1013.75 519.326 1001.07 506.792 988.321 494.322 C 996.617 496.102 1021.46 523.38 1028.94 531.083 z"/><path transform="translate(0,0)" fill="rgb(69,47,102)" d="M 1028.94 531.083 C 1028.53 516.499 1026.77 443.178 1029.86 433.102 C 1033.03 442.482 1031.08 514.792 1031.8 531.29 C 1114.74 532.929 1198.71 530.368 1281.5 531.557 C 1300.49 531.83 1406.03 529.38 1416.79 533.187 C 1401.73 534.585 1380.98 534.019 1365.43 534.008 L 1279.6 533.933 L 1032.1 534.005 C 1031.62 553.611 1031.3 573.221 1031.14 592.833 L 1318.21 592.96 L 1402 592.949 C 1413.27 592.937 1438.47 593.419 1448.77 592.039 C 1456.43 584.424 1469.27 572.025 1475.96 563.759 C 1475.93 553.457 1474.53 493.107 1477.43 486.766 C 1479.73 503.045 1477.99 542.399 1478.82 561.28 C 1493.68 545.282 1520.37 515.72 1536.4 501.587 L 1536.77 502.102 C 1524.63 520.098 1494.77 546.309 1479.11 565.137 L 1478.52 592.895 C 1488.96 592.893 1566 591.944 1569.97 594.051 C 1563.25 596.703 1492.25 595.337 1478.94 595.71 C 1477.38 659.895 1478.4 726.618 1478.41 791.003 L 1478.49 1030.93 C 1488.71 1030.99 1499.31 1031.21 1509.5 1031.04 L 1508.64 1033.37 L 1478.68 1033.91 L 1477.79 1073.3 L 1475.35 1069.26 C 1470.62 1059.48 1464.96 1044.28 1460.75 1033.88 L 1459.41 1031.9 C 1458.22 1026.34 1440.21 986.025 1436.66 977.416 L 1383.49 851.532 C 1374.92 831.308 1362.56 799.331 1353.07 781.248 C 1326.22 780.411 1297.82 781.168 1270.73 780.94 L 1269.84 781.139 C 1220.66 780.13 1228.05 775.186 1228.06 823.453 C 1171.35 883.139 1114.32 942.512 1056.95 1001.57 C 1052.67 1005.94 1035.16 1025.04 1031.63 1025.7 L 1030.46 1025.19 L 1029.75 1026.19 C 1027.94 1020.68 1031.15 1011.73 1028.28 1007.3 C 1028.3 1011.32 1028.64 1022.13 1027.36 1025.35 L 1025.34 1027.14 L 1026.34 1029.58 L 1023.84 1031.2 L 1023.47 1032.62 C 1004.25 1034.85 974.54 1032.6 954.291 1033.47 C 950.872 1033.62 924.499 1033.68 921.792 1033.26 C 919.914 1041.9 919.958 1132.02 921.548 1141.36 L 922.922 1143.1 C 919.148 1148.82 920.867 1181.92 921.006 1191.01 C 943.29 1191.31 965.577 1191.39 987.863 1191.23 C 999.491 1191.22 1017.56 1191.69 1028.76 1191 L 1030.26 1191.04 C 1060.13 1191.37 1090.01 1191.37 1119.88 1191.03 C 1128.06 1195.86 1183.41 1225.91 1185.07 1230.51 C 1180.89 1239.15 1128.86 1268.01 1118.3 1271.74 C 1109.02 1275.02 1044.8 1273.3 1030.99 1272.77 L 1028.89 1272.98 C 965.154 1270.78 895.675 1275.03 831.789 1272.55 L 829 1272.87 C 824.236 1268.9 826.875 1257.08 825.119 1248.81 L 824.887 1242.53 L 825.226 1240.54 C 824.079 1218.92 824.907 1189.85 824.926 1167.58 L 824.993 1033.89 L 751.508 1033.44 L 750.991 1031.81 C 751.175 1030.75 751.364 1029.84 751.385 1028.73 C 752.623 965.554 734.888 900.788 690.555 854.147 C 664.28 826.505 632.484 807.601 596.443 795.776 C 586.867 792.634 573.8 788.165 563.759 787.852 L 560.22 786.637 C 560.727 786.085 561.234 785.533 561.74 784.981 C 562.15 731.162 562.406 645.888 561.899 595.948 C 545.843 595.659 475.328 596.887 465.175 594.027 C 474.867 591.305 547.372 593.029 561.942 592.954 C 561.891 587.444 561.559 579.552 562.347 574.363 L 563.832 573.534 L 563.777 573.002 L 562.584 572.9 L 563.601 571.875 L 562.903 571.547 L 563.569 571.197 L 563.845 571.917 L 563.026 571.945 L 564.059 572.877 L 562.856 573.188 L 562.818 573.583 L 564.307 574.371 C 565.001 581.178 564.866 586.046 564.745 592.878 L 599.159 592.846 C 590.345 584.489 512.93 507.175 509.896 500.051 L 511.016 501.664 L 511.823 501.397 C 541.089 528.34 574.345 564.304 602.486 593.146 L 1028.53 592.901 L 1028.28 534.194 L 766.003 533.967 C 750.119 533.966 635.422 535.026 631.829 532.418 C 638.044 530.215 733.045 531.565 747.877 531.588 L 1026.37 531.923 C 1013.75 519.326 1001.07 506.792 988.321 494.322 C 996.617 496.102 1021.46 523.38 1028.94 531.083 z"/><path transform="translate(0,0)" fill="rgb(69,47,102)" d="M 1031.36 595.815 C 1099.68 594.68 1170.89 595.494 1239.42 595.598 C 1308.28 595.335 1377.14 595.435 1446 595.897 C 1431.17 608.937 1272.71 774.148 1269.84 781.139 C 1220.66 780.13 1228.05 775.186 1228.06 823.453 C 1171.35 883.139 1114.32 942.512 1056.95 1001.57 C 1052.67 1005.94 1035.16 1025.04 1031.63 1025.7 L 1030.46 1025.19 C 1031.72 1010.94 1030.85 983.355 1030.75 968.012 L 1030.58 878.499 L 1031.07 752.157 C 1031.09 700.325 1030.6 647.584 1031.36 595.815 z"/><path transform="translate(0,0)" fill="rgb(69,47,102)" d="M 823.837 784.089 L 826.696 782.767 C 827.727 777.799 827.335 742.716 828.017 732.816 L 828.697 732.853 C 831.86 745.212 830.047 767.084 830.044 781.161 C 843.674 781.093 910.05 779.648 918.307 782.74 C 925.643 794.093 915.981 910.655 923.44 920.122 L 921.336 921.182 C 920.043 932.582 920.552 958.272 920.762 970.769 C 921.075 989.34 920.156 1012.49 921.139 1030.65 L 922.724 1032.56 L 921.792 1033.26 C 919.914 1041.9 919.958 1132.02 921.548 1141.36 L 922.922 1143.1 C 919.148 1148.82 920.867 1181.92 921.006 1191.01 C 943.29 1191.31 965.577 1191.39 987.863 1191.23 C 999.491 1191.22 1017.56 1191.69 1028.76 1191 L 1030.26 1191.04 C 1060.13 1191.37 1090.01 1191.37 1119.88 1191.03 C 1128.06 1195.86 1183.41 1225.91 1185.07 1230.51 C 1180.89 1239.15 1128.86 1268.01 1118.3 1271.74 C 1109.02 1275.02 1044.8 1273.3 1030.99 1272.77 L 1028.89 1272.98 C 965.154 1270.78 895.675 1275.03 831.789 1272.55 L 829 1272.87 C 824.236 1268.9 826.875 1257.08 825.119 1248.81 L 824.887 1242.53 L 825.226 1240.54 C 824.079 1218.92 824.907 1189.85 824.926 1167.58 L 824.993 1033.89 L 824.529 1031.09 C 825.798 1020.42 825.038 993.663 825.026 981.685 L 824.962 876.527 C 824.958 862.017 824.215 835.619 825.378 822.092 L 824.912 819.542 C 825.188 812.34 826.393 792.36 824.594 786.967 C 823.539 785.695 824.005 786.273 823.837 784.089 z"/><path transform="translate(0,0)" fill="rgb(248,153,56)" d="M 867.909 1197.42 L 867.918 1109.52 C 867.934 1101.21 866.089 1073.29 870.012 1068.02 C 873.719 1066.5 871.87 1066.71 875.752 1067.24 C 879.067 1071.96 877.705 1172.07 877.705 1186.31 C 886.449 1179.28 902.212 1158.66 909.165 1155.78 L 910.697 1156.92 C 910.885 1162.62 910.952 1188.72 911.867 1192.49 C 914.941 1191.88 917.911 1191.47 921.006 1191.01 C 943.29 1191.31 965.577 1191.39 987.863 1191.23 C 999.491 1191.22 1017.56 1191.69 1028.76 1191 L 1030.26 1191.04 C 1060.13 1191.37 1090.01 1191.37 1119.88 1191.03 C 1128.06 1195.86 1183.41 1225.91 1185.07 1230.51 C 1180.89 1239.15 1128.86 1268.01 1118.3 1271.74 C 1109.02 1275.02 1044.8 1273.3 1030.99 1272.77 L 1028.89 1272.98 C 965.154 1270.78 895.675 1275.03 831.789 1272.55 C 830.833 1266.89 830.26 1266.57 834.213 1262.4 C 835.73 1257.74 834.994 1239.64 834.877 1233.71 L 835.331 1230.45 C 842.44 1222.57 859.584 1202.93 867.909 1197.42 z"/><path transform="translate(0,0)" fill="rgb(69,47,102)" d="M 835.331 1230.45 C 842.44 1222.57 859.584 1202.93 867.909 1197.42 L 867.819 1200.78 C 867.792 1207.47 866.602 1230.42 870.138 1234 C 880.67 1236.69 919.009 1235.76 931.964 1235.76 L 1028.69 1236.02 L 1030.49 1236.13 C 1052.57 1235.5 1074.85 1235.86 1096.95 1235.76 C 1100.58 1244.91 1105.29 1253.53 1109.84 1262.26 C 1087.67 1263.24 1062.36 1262.75 1039.94 1262.75 L 924.08 1262.63 L 863.569 1262.57 C 857.648 1262.58 839.421 1263.04 834.213 1262.4 C 835.73 1257.74 834.994 1239.64 834.877 1233.71 L 835.331 1230.45 z"/><path transform="translate(0,0)" fill="rgb(8,4,19)" d="M 835.331 1230.45 C 842.44 1222.57 859.584 1202.93 867.909 1197.42 L 867.819 1200.78 C 857.048 1211.11 845.314 1224.34 834.877 1233.71 L 835.331 1230.45 z"/><path transform="translate(0,0)" fill="rgb(8,4,19)" d="M 1028.69 1236.02 L 1030.49 1236.13 C 1031.72 1243.03 1030.74 1255.13 1029.92 1261.88 C 1027.27 1258.18 1028.37 1240.9 1028.69 1236.02 z"/><path transform="translate(0,0)" fill="rgb(69,47,102)" d="M 909.165 1155.78 L 910.697 1156.92 C 910.885 1162.62 910.952 1188.72 911.867 1192.49 C 911.902 1195.96 911.711 1196.16 913.059 1199.47 C 915.038 1201.1 916.951 1201.16 919.469 1201.21 C 982.687 1202.45 1046.55 1200.03 1109.7 1201.57 C 1105.23 1209.73 1100.8 1217.32 1097.52 1226.06 C 1025.53 1227.24 950.309 1226.11 878.048 1226.15 C 877.734 1213.9 877.655 1201.64 877.809 1189.39 L 877.705 1186.31 C 886.449 1179.28 902.212 1158.66 909.165 1155.78 z"/><path transform="translate(0,0)" fill="rgb(8,4,19)" d="M 909.165 1155.78 L 910.697 1156.92 C 900.164 1165.34 888.73 1180.06 877.809 1189.39 L 877.705 1186.31 C 886.449 1179.28 902.212 1158.66 909.165 1155.78 z"/><path transform="translate(0,0)" fill="rgb(69,47,102)" d="M 1120.14 1202.78 C 1131.5 1209.49 1141.07 1215.1 1152.88 1220.93 C 1152.37 1227.56 1152.23 1235.2 1151.96 1241.92 C 1144.84 1245.53 1139.37 1248.89 1132.56 1253.11 C 1128.43 1255.78 1124.23 1258.07 1119.95 1260.48 C 1115.49 1252.31 1109.02 1238.78 1106.04 1230.25 C 1108.99 1222.59 1116.11 1210.2 1120.14 1202.78 z"/><path transform="translate(0,0)" fill="rgb(0,0,0)" d="M 823.837 784.089 L 826.696 782.767 C 827.727 777.799 827.335 742.716 828.017 732.816 L 828.697 732.853 C 831.86 745.212 830.047 767.084 830.044 781.161 C 843.674 781.093 910.05 779.648 918.307 782.74 C 925.643 794.093 915.981 910.655 923.44 920.122 L 921.336 921.182 C 920.043 932.582 920.552 958.272 920.762 970.769 C 921.075 989.34 920.156 1012.49 921.139 1030.65 L 922.724 1032.56 L 921.792 1033.26 C 919.914 1041.9 919.958 1132.02 921.548 1141.36 L 922.922 1143.1 C 919.148 1148.82 920.867 1181.92 921.006 1191.01 C 917.911 1191.47 914.941 1191.88 911.867 1192.49 C 910.952 1188.72 910.885 1162.62 910.697 1156.92 L 909.165 1155.78 C 913.714 1149.07 909.72 1062.98 910.986 1048.15 C 911.234 1045.25 910.779 1036.47 910.289 1033.19 C 909.923 1032.63 910.113 1033.04 910.287 1031.84 C 911.539 1025.85 911.73 915.575 910.463 909.598 C 900.862 901.088 887.271 883.409 877.936 878.307 L 877.695 874.046 C 878.241 865.919 879.444 826.9 875.321 822.457 C 871.538 821.651 873.185 821.328 870.133 822.887 C 866.308 828.955 867.746 848.13 867.764 856.678 L 867.506 860.618 C 858.547 854.265 842.123 832.851 834.719 829.367 L 835.061 831.234 L 834.841 967.835 C 834.829 979.416 833.902 1021.22 835.293 1030.95 L 835.425 1033.07 C 834.382 1039.09 834.809 1053.72 834.822 1060.76 L 834.848 1111.61 L 834.88 1189.41 C 834.888 1199.84 834.376 1220.34 835.331 1230.45 L 834.877 1233.71 C 834.994 1239.64 835.73 1257.74 834.213 1262.4 C 830.26 1266.57 830.833 1266.89 831.789 1272.55 L 829 1272.87 C 824.236 1268.9 826.875 1257.08 825.119 1248.81 L 824.887 1242.53 L 825.226 1240.54 C 824.079 1218.92 824.907 1189.85 824.926 1167.58 L 824.993 1033.89 L 824.529 1031.09 C 825.798 1020.42 825.038 993.663 825.026 981.685 L 824.962 876.527 C 824.958 862.017 824.215 835.619 825.378 822.092 L 824.912 819.542 C 825.188 812.34 826.393 792.36 824.594 786.967 C 823.539 785.695 824.005 786.273 823.837 784.089 z"/><path transform="translate(0,0)" fill="rgb(69,47,102)" d="M 834.991 791.006 L 911.259 791.005 C 910.925 827.941 912.349 871.105 910.748 907.261 L 910.463 909.598 C 900.862 901.088 887.271 883.409 877.936 878.307 L 877.695 874.046 C 878.241 865.919 879.444 826.9 875.321 822.457 C 871.538 821.651 873.185 821.328 870.133 822.887 C 866.308 828.955 867.746 848.13 867.764 856.678 L 867.506 860.618 C 858.547 854.265 842.123 832.851 834.719 829.367 C 835.33 816.728 835.059 803.685 834.991 791.006 z"/><path transform="translate(0,0)" fill="rgb(8,4,19)" d="M 877.695 874.046 C 885.211 878.387 905.097 900.016 910.748 907.261 L 910.463 909.598 C 900.862 901.088 887.271 883.409 877.936 878.307 L 877.695 874.046 z"/><path transform="translate(0,0)" fill="rgb(248,153,56)" d="M 867.764 856.678 C 867.746 848.13 866.308 828.955 870.133 822.887 C 873.185 821.328 871.538 821.651 875.321 822.457 C 879.444 826.9 878.241 865.919 877.695 874.046 L 877.936 878.307 C 877.666 894.008 877.594 909.713 877.721 925.416 C 877.783 932.597 879.366 953.554 875.418 958.413 C 872.138 959.517 873.812 959.388 870.208 958.46 C 869.58 957.752 868.951 957.043 868.323 956.335 C 866.885 928.12 868.256 883.315 867.764 856.678 z"/><path transform="translate(0,0)" fill="rgb(8,4,19)" d="M 834.719 829.367 C 842.123 832.851 858.547 854.265 867.506 860.618 L 866.605 863.012 C 861.334 861.109 840.024 836.84 835.061 831.234 L 834.719 829.367 z"/><path transform="translate(0,0)" fill="rgb(21,12,37)" d="M 835.293 1030.95 C 841.692 1030.99 860.514 1030.78 865.491 1032.37 C 857.316 1034.22 843.854 1033.84 835.425 1033.07 L 835.293 1030.95 z"/><path transform="translate(0,0)" fill="rgb(21,12,37)" d="M 888.1 1032.77 C 896.156 1031.38 902.112 1030.11 910.287 1031.84 C 910.113 1033.04 909.923 1032.63 910.289 1033.19 C 905.672 1034.19 893.47 1033.1 888.1 1032.77 z"/><path transform="translate(0,0)" fill="rgb(248,153,56)" d="M 868.263 1015.94 C 872.705 1016 872.561 1015.28 875.67 1017.31 C 879.678 1025.02 877.416 1039.92 876.81 1049.12 C 873.843 1049.3 872.018 1049.8 869.616 1048.17 C 865.601 1041.39 867.778 1024.58 868.263 1015.94 z"/><path transform="translate(0,0)" fill="rgb(248,153,56)" d="M 868.285 976.057 C 871.393 975.886 872.287 975.55 875.153 976.718 C 879.311 982.26 877.247 992.807 876.662 1000.13 C 873.527 1000.16 872.706 1000.44 869.862 999.151 C 865.492 993.549 867.713 983.584 868.285 976.057 z"/><path transform="translate(0,0)" fill="rgb(69,47,102)" d="M 564.937 595.911 C 576.997 595.919 589.956 595.72 601.933 596.096 C 646.519 640.519 690.757 685.29 734.642 730.407 L 769.981 766.711 C 773.374 770.224 783.162 779.954 785.484 783.316 C 782.831 783.745 778.99 783.819 777.457 785.293 C 779.715 788.698 786.178 787.579 790.281 787.488 C 797.194 794.581 818.851 817.958 825.378 822.092 C 824.215 835.619 824.958 862.017 824.962 876.527 L 825.026 981.685 C 825.038 993.663 825.798 1020.42 824.529 1031.09 L 824.993 1033.89 L 751.508 1033.44 L 750.991 1031.81 C 751.175 1030.75 751.364 1029.84 751.385 1028.73 C 752.623 965.554 734.888 900.788 690.555 854.147 C 664.28 826.505 632.484 807.601 596.443 795.776 C 586.867 792.634 573.8 788.165 563.759 787.852 C 565.761 770.48 564.528 745.786 564.79 727.686 C 565.42 684.19 563.675 639.288 564.937 595.911 z"/><path transform="translate(0,0)" fill="rgb(8,4,19)" d="M 750.991 1031.81 C 764.985 1029.87 808.543 1031 824.529 1031.09 L 824.993 1033.89 L 751.508 1033.44 L 750.991 1031.81 z"/><path transform="translate(0,0)" fill="rgb(69,47,102)" d="M 1448.94 596.01 C 1457.89 595.997 1467 595.888 1475.94 595.987 L 1475.8 1030.88 C 1470.59 1031.15 1464.52 1031.32 1459.41 1031.9 C 1458.22 1026.34 1440.21 986.025 1436.66 977.416 L 1383.49 851.532 C 1374.92 831.308 1362.56 799.331 1353.07 781.248 C 1326.22 780.411 1297.82 781.168 1270.73 780.94 C 1274.33 776.535 1280.27 771.898 1284.72 767.418 C 1293.84 758.124 1302.82 748.708 1311.68 739.173 L 1448.94 596.01 z"/><path transform="translate(0,0)" fill="rgb(8,4,19)" d="M 1028.94 531.083 C 1028.53 516.499 1026.77 443.178 1029.86 433.102 C 1033.03 442.482 1031.08 514.792 1031.8 531.29 C 1114.74 532.929 1198.71 530.368 1281.5 531.557 C 1300.49 531.83 1406.03 529.38 1416.79 533.187 C 1401.73 534.585 1380.98 534.019 1365.43 534.008 L 1279.6 533.933 L 1032.1 534.005 C 1031.62 553.611 1031.3 573.221 1031.14 592.833 L 1318.21 592.96 L 1402 592.949 C 1413.27 592.937 1438.47 593.419 1448.77 592.039 C 1456.43 584.424 1469.27 572.025 1475.96 563.759 C 1475.93 553.457 1474.53 493.107 1477.43 486.766 C 1479.73 503.045 1477.99 542.399 1478.82 561.28 C 1493.68 545.282 1520.37 515.72 1536.4 501.587 L 1536.77 502.102 C 1524.63 520.098 1494.77 546.309 1479.11 565.137 L 1478.52 592.895 C 1488.96 592.893 1566 591.944 1569.97 594.051 C 1563.25 596.703 1492.25 595.337 1478.94 595.71 C 1477.38 659.895 1478.4 726.618 1478.41 791.003 L 1478.49 1030.93 C 1488.71 1030.99 1499.31 1031.21 1509.5 1031.04 L 1508.64 1033.37 L 1478.68 1033.91 L 1477.79 1073.3 L 1475.35 1069.26 C 1470.62 1059.48 1464.96 1044.28 1460.75 1033.88 L 1459.41 1031.9 C 1464.52 1031.32 1470.59 1031.15 1475.8 1030.88 L 1475.94 595.987 C 1467 595.888 1457.89 595.997 1448.94 596.01 L 1311.68 739.173 C 1302.82 748.708 1293.84 758.124 1284.72 767.418 C 1280.27 771.898 1274.33 776.535 1270.73 780.94 L 1269.84 781.139 C 1272.71 774.148 1431.17 608.937 1446 595.897 C 1377.14 595.435 1308.28 595.335 1239.42 595.598 C 1170.89 595.494 1099.68 594.68 1031.36 595.815 C 1030.6 647.584 1031.09 700.325 1031.07 752.157 L 1030.58 878.499 L 1030.75 968.012 C 1030.85 983.355 1031.72 1010.94 1030.46 1025.19 L 1029.75 1026.19 C 1027.94 1020.68 1031.15 1011.73 1028.28 1007.3 C 1027.9 988 1028.69 970.497 1028.81 951.502 L 1028.99 870.275 L 1028.43 742.12 C 1028.71 693.35 1028.65 644.578 1028.23 595.808 C 1012.27 595.518 996.02 595.367 980.063 595.503 C 855.078 596.565 729.647 594.109 604.714 595.868 C 611.067 601.195 620.803 611.37 626.873 617.399 C 641.225 631.539 655.404 645.854 669.406 660.342 C 709.044 700.958 750.507 743.933 790.463 783.868 C 801.588 783.817 812.713 783.891 823.837 784.089 C 824.005 786.273 823.539 785.695 824.594 786.967 C 826.393 792.36 825.188 812.34 824.912 819.542 L 825.378 822.092 C 818.851 817.958 797.194 794.581 790.281 787.488 C 786.178 787.579 779.715 788.698 777.457 785.293 C 778.99 783.819 782.831 783.745 785.484 783.316 C 783.162 779.954 773.374 770.224 769.981 766.711 L 734.642 730.407 C 690.757 685.29 646.519 640.519 601.933 596.096 C 589.956 595.72 576.997 595.919 564.937 595.911 C 563.675 639.288 565.42 684.19 564.79 727.686 C 564.528 745.786 565.761 770.48 563.759 787.852 L 560.22 786.637 C 560.727 786.085 561.234 785.533 561.74 784.981 C 562.15 731.162 562.406 645.888 561.899 595.948 C 545.843 595.659 475.328 596.887 465.175 594.027 C 474.867 591.305 547.372 593.029 561.942 592.954 C 561.891 587.444 561.559 579.552 562.347 574.363 L 563.832 573.534 L 563.777 573.002 L 562.584 572.9 L 563.601 571.875 L 562.903 571.547 L 563.569 571.197 L 563.845 571.917 L 563.026 571.945 L 564.059 572.877 L 562.856 573.188 L 562.818 573.583 L 564.307 574.371 C 565.001 581.178 564.866 586.046 564.745 592.878 L 599.159 592.846 C 590.345 584.489 512.93 507.175 509.896 500.051 L 511.016 501.664 L 511.823 501.397 C 541.089 528.34 574.345 564.304 602.486 593.146 L 1028.53 592.901 L 1028.28 534.194 L 766.003 533.967 C 750.119 533.966 635.422 535.026 631.829 532.418 C 638.044 530.215 733.045 531.565 747.877 531.588 L 1026.37 531.923 C 1013.75 519.326 1001.07 506.792 988.321 494.322 C 996.617 496.102 1021.46 523.38 1028.94 531.083 z"/><path transform="translate(0,0)" fill="rgb(69,47,102)" d="M 793.456 787.12 L 824.594 786.967 C 826.393 792.36 825.188 812.34 824.912 819.542 C 814.606 808.712 804.317 797.335 793.456 787.12 z"/><path transform="translate(0,0)" fill="rgb(69,47,102)" d="M 1460.75 1033.88 L 1475.92 1033.92 C 1476.02 1041.14 1476.74 1063.19 1475.35 1069.26 C 1470.62 1059.48 1464.96 1044.28 1460.75 1033.88 z"/><path transform="translate(0,0)" fill="rgb(69,47,102)" d="M 1475.79 568.854 C 1476.45 572.038 1476.06 588.57 1476.03 592.775 L 1452.89 592.92 C 1453.21 590.178 1472.26 571.898 1475.79 568.854 z"/><path transform="translate(0,0)" fill="rgb(69,47,102)" d="M 923.44 920.122 C 929.626 925.049 943.66 940.008 949.725 946.148 C 968.022 964.476 986.138 982.984 1004.07 1001.67 C 1006.82 1004.52 1025.1 1023.88 1027.36 1025.35 L 1025.34 1027.14 L 1026.34 1029.58 L 1023.84 1031.2 L 1023.47 1032.62 C 1004.25 1034.85 974.54 1032.6 954.291 1033.47 C 950.872 1033.62 924.499 1033.68 921.792 1033.26 L 922.724 1032.56 L 921.139 1030.65 C 920.156 1012.49 921.075 989.34 920.762 970.769 C 920.552 958.272 920.043 932.582 921.336 921.182 L 923.44 920.122 z"/><path transform="translate(0,0)" fill="rgb(21,12,37)" d="M 923.44 920.122 C 929.626 925.049 943.66 940.008 949.725 946.148 C 968.022 964.476 986.138 982.984 1004.07 1001.67 C 1006.82 1004.52 1025.1 1023.88 1027.36 1025.35 L 1025.34 1027.14 C 1014.9 1019.1 995.737 996.841 985.439 986.197 C 964.314 964.363 942.34 943.016 921.336 921.182 L 923.44 920.122 z"/><path transform="translate(0,0)" fill="rgb(21,12,37)" d="M 921.139 1030.65 C 953.136 1032.19 991.204 1030.73 1023.84 1031.2 L 1023.47 1032.62 C 1004.25 1034.85 974.54 1032.6 954.291 1033.47 C 950.872 1033.62 924.499 1033.68 921.792 1033.26 L 922.724 1032.56 L 921.139 1030.65 z"/><path transform="translate(0,0)" fill="rgb(0,0,0)" d="M 1730.99 781.089 C 1731.09 774.466 1730.86 734.983 1732.55 732.459 L 1734.1 732.474 C 1735.87 740.389 1734.05 771.956 1734.78 783.062 C 1745.52 783.327 1774.76 782.858 1783.09 783.984 L 1783.77 784.952 C 1780.39 787.693 1743.16 786.874 1736.02 786.853 L 1736.14 962.08 C 1736.17 970.049 1735.27 1028.43 1737.48 1031.06 L 1737.29 1033.09 C 1735.24 1036.35 1736.16 1099.97 1736.14 1109.31 L 1735.98 1267.97 C 1746.31 1267.87 1775.84 1266.28 1783.15 1269.71 L 1782.72 1270.47 C 1767.62 1271.64 1750.41 1271.17 1735.08 1271.16 C 1734.21 1281.98 1735.41 1314.52 1732.45 1320.68 C 1731.28 1315.56 1731.27 1280.65 1731.36 1273.04 C 1702.65 1273.08 1671.61 1273.68 1643.08 1272.81 C 1641.3 1243.64 1642.06 1206.87 1642.08 1177.35 L 1642.35 1033.42 L 1601.97 1033.2 C 1578.08 1090.22 1553.33 1151.91 1528.36 1208 C 1513.33 1208.27 1492.3 1207.63 1478.21 1208.7 L 1475.92 1208 L 1475.94 1476.62 C 1462.45 1460.97 1443.31 1442.54 1428.51 1427.68 L 1338.73 1338.35 L 1298.19 1297.63 C 1293.46 1292.84 1278.6 1277.33 1273.68 1274.03 L 1271.37 1274.6 C 1265.65 1272.92 1237.47 1273.76 1228.16 1273.04 C 1227.21 1262.48 1229.75 1234.41 1225.71 1228.23 L 1227.04 1226.95 C 1228.92 1223.02 1228.11 1050.39 1227.83 1033.77 L 1227.3 1031.68 C 1228.87 1024.87 1227.84 984.304 1227.93 974.525 C 1228.38 925.36 1227.37 875.767 1228.13 826.632 L 1228.06 823.453 C 1228.05 775.186 1220.66 780.13 1269.84 781.139 L 1270.73 780.94 C 1297.82 781.168 1326.22 780.411 1353.07 781.248 C 1362.56 799.331 1374.92 831.308 1383.49 851.532 L 1436.66 977.416 C 1440.21 986.025 1458.22 1026.34 1459.41 1031.9 L 1460.75 1033.88 C 1464.96 1044.28 1470.62 1059.48 1475.35 1069.26 L 1477.79 1073.3 L 1478.68 1033.91 L 1508.64 1033.37 L 1509.5 1031.04 C 1515.99 1018.51 1526.53 990.848 1532.54 976.751 L 1589.86 838.817 C 1595.34 825.439 1607.76 792.648 1613.74 781.236 C 1651.8 781.239 1693.31 780.139 1730.99 781.089 z"/><path transform="translate(0,0)" fill="rgb(69,47,102)" d="M 1323.97 1037.55 L 1325.24 1034.26 C 1329.87 1032.08 1359.44 1033.52 1366.24 1033.76 C 1391.24 1091.71 1415.89 1149.82 1440.21 1208.06 C 1452.11 1208.3 1464.01 1208.28 1475.92 1208 L 1475.94 1476.62 C 1462.45 1460.97 1443.31 1442.54 1428.51 1427.68 L 1338.73 1338.35 L 1298.19 1297.63 C 1293.46 1292.84 1278.6 1277.33 1273.68 1274.03 C 1289.45 1274.22 1307.83 1273.31 1323.75 1272.78 C 1325.02 1261.1 1324.59 1245.66 1324.58 1233.67 L 1324.13 1163.36 L 1324.38 1082.52 C 1324.42 1069.13 1324.95 1050.53 1323.97 1037.55 z"/><path transform="translate(0,0)" fill="rgb(69,47,102)" d="M 1324.68 934.769 C 1335.61 962.546 1348.7 989.655 1359.37 1017.57 C 1360.95 1021.7 1362.69 1026.09 1364.64 1030.05 L 1366.24 1033.76 C 1359.44 1033.52 1329.87 1032.08 1325.24 1034.26 L 1323.97 1037.55 C 1323.76 1031.36 1322.57 998.718 1324.69 995.259 C 1325.01 975.097 1325.01 954.931 1324.68 934.769 z"/><path transform="translate(0,0)" fill="rgb(8,4,19)" d="M 1323.97 1037.55 C 1323.76 1031.36 1322.57 998.718 1324.69 995.259 L 1324.8 1030.89 C 1331.24 1030.97 1360.16 1031.76 1364.64 1030.05 L 1366.24 1033.76 C 1359.44 1033.52 1329.87 1032.08 1325.24 1034.26 L 1323.97 1037.55 z"/><path transform="translate(0,0)" fill="rgb(69,47,102)" d="M 1642.28 938.155 C 1643.04 967.947 1641.99 1000.79 1641.95 1030.95 L 1642.35 1033.42 L 1601.97 1033.2 L 1603.12 1030.83 C 1616.01 1000.81 1628.92 967.544 1642.28 938.155 z"/><path transform="translate(0,0)" fill="rgb(8,4,19)" d="M 1601.97 1033.2 L 1603.12 1030.83 C 1616.06 1031.07 1629.01 1031.11 1641.95 1030.95 L 1642.35 1033.42 L 1601.97 1033.2 z"/><path transform="translate(0,0)" fill="rgb(69,47,102)" d="M 1478.68 1033.91 L 1508.64 1033.37 C 1504.49 1042.98 1488.63 1083.36 1484.46 1088.72 C 1481.32 1086.6 1479.03 1077.37 1477.79 1073.3 L 1478.68 1033.91 z"/><path transform="translate(0,0)" fill="rgb(69,47,102)" d="M 1259.67 790.963 L 1347.22 791.003 L 1411.78 942.914 L 1436.39 1001.8 C 1439.88 1010.14 1444.88 1023.36 1448.76 1031.06 C 1448.84 1032.46 1448.6 1032.71 1449.2 1033.59 C 1453.13 1040.82 1475.39 1094.7 1476.61 1102 L 1478.15 1105.13 C 1481.53 1107.16 1482.32 1108.33 1485.63 1108.13 C 1493.16 1101.34 1511.58 1045.58 1519.89 1032.93 C 1529.88 1033.4 1539.88 1033.56 1549.88 1033.39 L 1551.09 1030.88 C 1554.21 1022.55 1558.55 1007.82 1565.86 1003.36 L 1568.29 1004.68 C 1569.67 1012.53 1563.81 1023.42 1560.49 1030.73 C 1571.27 1031.09 1581.58 1030.98 1592.36 1030.88 L 1590.9 1033.98 C 1583.63 1050.47 1576.68 1068.21 1570.03 1085 C 1555.07 1122.79 1536.22 1160.71 1522.52 1198.84 C 1508.34 1198.9 1492.04 1198.55 1478.04 1199.07 L 1475.97 1198.94 L 1447.3 1198.77 C 1423.76 1144.46 1400.94 1087.74 1376.98 1034.16 L 1375.84 1030.84 C 1364.55 1004.4 1353.42 977.896 1342.44 951.323 C 1337.25 938.85 1331.91 925.229 1325.98 913.083 C 1324.51 910.055 1323.14 909.692 1320.5 908.521 C 1319.09 908.782 1317.93 908.61 1316.98 909.833 C 1311.93 916.315 1314.82 1017.22 1314.14 1034.1 C 1314.95 1109.87 1312.94 1188.31 1314.43 1263.75 C 1304.9 1263.56 1281.27 1262.55 1272.48 1263.42 C 1263.3 1264.63 1265.88 1261.95 1260.22 1261.28 L 1261.62 1263.67 C 1258.19 1264.82 1242.26 1264.11 1237.74 1264.06 L 1238.07 1240.96 L 1238.89 1237.42 C 1237.29 1231.11 1237.59 1200.44 1237.86 1192.38 C 1239.57 1140.17 1235.91 1085.55 1238.5 1033.61 C 1237.11 1006.89 1237.98 973.149 1237.98 946.098 L 1238.16 802.438 C 1238.63 804.98 1239.24 809.445 1240.2 811.6 L 1244.71 813.751 C 1246.76 808.561 1249.76 805.92 1254.07 802.67 C 1255.18 797.555 1257.74 797.191 1259.67 790.963 z"/><path transform="translate(0,0)" fill="rgb(248,153,56)" d="M 1254.07 802.67 C 1271.07 798.677 1296.14 796.014 1306.73 812.957 C 1308.18 824.932 1307.85 836.335 1307.96 848.333 C 1308.42 899.257 1307.17 950.419 1308.19 1001.32 C 1313.46 1008.48 1303.51 1032.88 1314.14 1034.1 C 1314.95 1109.87 1312.94 1188.31 1314.43 1263.75 C 1304.9 1263.56 1281.27 1262.55 1272.48 1263.42 C 1263.3 1264.63 1265.88 1261.95 1260.22 1261.28 L 1261.62 1263.67 C 1258.19 1264.82 1242.26 1264.11 1237.74 1264.06 L 1238.07 1240.96 L 1238.89 1237.42 C 1237.29 1231.11 1237.59 1200.44 1237.86 1192.38 C 1239.57 1140.17 1235.91 1085.55 1238.5 1033.61 C 1237.11 1006.89 1237.98 973.149 1237.98 946.098 L 1238.16 802.438 C 1238.63 804.98 1239.24 809.445 1240.2 811.6 L 1244.71 813.751 C 1246.76 808.561 1249.76 805.92 1254.07 802.67 z"/><path transform="translate(0,0)" fill="rgb(69,47,102)" d="M 1238.5 1033.61 L 1245.57 1033.39 L 1245.18 1143.46 C 1245.16 1156.22 1243.86 1184.45 1246.32 1195.66 C 1250.6 1215.17 1267.2 1240.34 1272.61 1259.38 L 1272.48 1263.42 C 1263.3 1264.63 1265.88 1261.95 1260.22 1261.28 L 1261.62 1263.67 C 1258.19 1264.82 1242.26 1264.11 1237.74 1264.06 L 1238.07 1240.96 L 1238.89 1237.42 C 1237.29 1231.11 1237.59 1200.44 1237.86 1192.38 C 1239.57 1140.17 1235.91 1085.55 1238.5 1033.61 z"/><path transform="translate(0,0)" fill="rgb(18,11,29)" d="M 1238.89 1237.42 C 1243.56 1241.98 1251.35 1249.22 1254.07 1255.06 C 1249.53 1251.47 1241.39 1242.7 1238.07 1240.96 L 1238.89 1237.42 z"/><path transform="translate(0,0)" fill="rgb(69,47,102)" d="M 1308.19 1001.32 C 1313.46 1008.48 1303.51 1032.88 1314.14 1034.1 C 1314.95 1109.87 1312.94 1188.31 1314.43 1263.75 C 1304.9 1263.56 1281.27 1262.55 1272.48 1263.42 L 1272.61 1259.38 C 1275.24 1260.28 1279.55 1260.77 1280.58 1257.87 C 1285.19 1245.02 1307.58 1202.43 1307.78 1191.36 C 1308.91 1127.99 1307.23 1064.58 1308.19 1001.32 z"/><path transform="translate(0,0)" fill="rgb(69,47,102)" d="M 1238.16 802.438 C 1238.63 804.98 1239.24 809.445 1240.2 811.6 L 1244.71 813.751 C 1246.01 832.481 1245.17 856.575 1245.16 875.793 L 1245.32 970.469 C 1245.3 990.638 1244.8 1013.46 1245.57 1033.39 L 1238.5 1033.61 C 1237.11 1006.89 1237.98 973.149 1237.98 946.098 L 1238.16 802.438 z"/><path transform="translate(0,0)" fill="rgb(69,47,102)" d="M 1281.03 867.017 L 1298.22 867.461 C 1298.66 888.063 1298.07 910.797 1298.07 931.611 L 1298 1071.87 L 1298.09 1145.3 C 1298.12 1157.47 1298.66 1176.76 1297.58 1188.38 C 1292.49 1186.34 1286.71 1183.07 1281.78 1180.49 C 1280.23 1149.24 1281.79 1107 1281.75 1074.79 L 1281.03 867.017 z"/><path transform="translate(0,0)" fill="rgb(69,47,102)" d="M 1255.63 867.06 L 1271.23 866.979 C 1272.37 905.84 1270.94 945.434 1271.49 984.309 C 1271.65 996.144 1270.65 1020.67 1271.69 1030.92 L 1271.28 1033.19 L 1255.96 1033.3 L 1255.74 1030.68 L 1255.63 867.06 z"/><path transform="translate(0,0)" fill="rgb(8,4,19)" d="M 1255.74 1030.68 C 1261.06 1030.82 1266.38 1030.91 1271.69 1030.92 L 1271.28 1033.19 L 1255.96 1033.3 L 1255.74 1030.68 z"/><path transform="translate(0,0)" fill="rgb(69,47,102)" d="M 1271.28 1033.19 C 1272.21 1050.06 1271.67 1071.91 1271.65 1089.03 C 1271.68 1119.64 1271.54 1150.26 1271.22 1180.88 C 1265.97 1182.92 1260.97 1184.94 1255.58 1186.61 C 1255.97 1136.49 1254.45 1082.95 1255.96 1033.3 L 1271.28 1033.19 z"/><path transform="translate(0,0)" fill="rgb(69,47,102)" d="M 1263.82 810.406 C 1290.14 809.649 1299.23 805.933 1297.72 836.101 C 1295.57 838.136 1295.22 837.394 1291.25 837.477 C 1279.43 837.361 1267.17 837.625 1255.33 837.743 C 1255.36 826.461 1250.42 813.247 1263.82 810.406 z"/><path transform="translate(0,0)" fill="rgb(69,47,102)" d="M 1276.54 1188.97 L 1295.8 1198.36 C 1291.58 1208.3 1287.69 1218.05 1283.32 1227.99 C 1281.16 1229.71 1277.77 1229.34 1274.77 1229.46 L 1271.57 1229.26 C 1267.76 1226.54 1259.71 1203.77 1257.21 1197.7 C 1264.88 1194.88 1269.54 1193.18 1276.54 1188.97 z"/><path transform="translate(0,0)" fill="rgb(69,47,102)" d="M 1255.27 847.173 C 1265.32 847.164 1288.12 846.598 1297.08 847.715 C 1298.72 850.814 1298.14 853.591 1297.97 857.191 C 1287.35 857.21 1265.76 857.781 1256.12 856.621 C 1254.67 854.277 1255.2 850.167 1255.27 847.173 z"/><path transform="translate(0,0)" fill="rgb(69,47,102)" d="M 1551.09 1030.88 C 1554.21 1022.55 1558.55 1007.82 1565.86 1003.36 L 1568.29 1004.68 C 1569.67 1012.53 1563.81 1023.42 1560.49 1030.73 C 1571.27 1031.09 1581.58 1030.98 1592.36 1030.88 L 1590.9 1033.98 C 1583.63 1050.47 1576.68 1068.21 1570.03 1085 C 1555.07 1122.79 1536.22 1160.71 1522.52 1198.84 C 1508.34 1198.9 1492.04 1198.55 1478.04 1199.07 L 1475.97 1198.94 C 1476.28 1189.7 1475.98 1177.88 1475.97 1168.47 C 1474.59 1168.03 1469.5 1167.51 1468.91 1167.12 C 1461.33 1162.08 1456.97 1144.86 1459.5 1137.49 L 1461.64 1137.4 C 1467.5 1143 1468.98 1153.47 1475.07 1159.23 L 1477.85 1158.11 C 1478.4 1140.53 1477.91 1122.77 1478.15 1105.13 C 1481.53 1107.16 1482.32 1108.33 1485.63 1108.13 C 1493.16 1101.34 1511.58 1045.58 1519.89 1032.93 C 1529.88 1033.4 1539.88 1033.56 1549.88 1033.39 L 1551.09 1030.88 z"/><path transform="translate(0,0)" fill="rgb(0,0,0)" d="M 1551.09 1030.88 C 1554.21 1022.55 1558.55 1007.82 1565.86 1003.36 L 1568.29 1004.68 C 1569.67 1012.53 1563.81 1023.42 1560.49 1030.73 L 1559.05 1033.66 C 1555.55 1042.65 1534.77 1092.36 1529.96 1097.59 C 1526.79 1097.69 1528.39 1098.01 1525.26 1095.22 C 1524.09 1090.1 1546.07 1041.68 1549.88 1033.39 L 1551.09 1030.88 z"/><path transform="translate(0,0)" fill="rgb(0,0,0)" d="M 1496.26 1158.23 C 1499.39 1150.35 1508.56 1127.15 1514.07 1122.21 C 1524.55 1124.6 1504.29 1160.85 1501.67 1167.03 C 1496 1167.17 1482.77 1167.12 1477.85 1168.31 L 1475.97 1168.47 C 1474.59 1168.03 1469.5 1167.51 1468.91 1167.12 C 1461.33 1162.08 1456.97 1144.86 1459.5 1137.49 L 1461.64 1137.4 C 1467.5 1143 1468.98 1153.47 1475.07 1159.23 L 1477.85 1158.11 L 1496.26 1158.23 z"/><path transform="translate(0,0)" fill="rgb(18,11,29)" d="M 1559.05 1033.66 L 1560.49 1030.73 C 1571.27 1031.09 1581.58 1030.98 1592.36 1030.88 L 1590.9 1033.98 C 1588.39 1033.53 1563.59 1033.71 1559.05 1033.66 z"/><path transform="translate(0,0)" fill="rgb(8,4,19)" d="M 1475.97 1168.47 L 1477.85 1168.31 C 1478.1 1178.56 1478.16 1188.82 1478.04 1199.07 L 1475.97 1198.94 C 1476.28 1189.7 1475.98 1177.88 1475.97 1168.47 z"/><path transform="translate(0,0)" fill="rgb(69,47,102)" d="M 1376.98 1034.16 C 1386.31 1033.35 1400.63 1033.46 1409.9 1033.94 C 1413.35 1042.08 1445.88 1120.83 1448.91 1123.29 L 1451.34 1123.83 C 1453.41 1122.45 1454.01 1122.29 1454.4 1119.47 C 1454.73 1117.04 1453.6 1112.45 1452.59 1110.36 C 1440.46 1085.35 1430.76 1059.32 1419.31 1033.99 C 1429.19 1033.96 1439.36 1034.07 1449.2 1033.59 C 1453.13 1040.82 1475.39 1094.7 1476.61 1102 L 1478.15 1105.13 C 1477.91 1122.77 1478.4 1140.53 1477.85 1158.11 L 1475.07 1159.23 C 1468.98 1153.47 1467.5 1143 1461.64 1137.4 L 1459.5 1137.49 C 1456.97 1144.86 1461.33 1162.08 1468.91 1167.12 C 1469.5 1167.51 1474.59 1168.03 1475.97 1168.47 C 1475.98 1177.88 1476.28 1189.7 1475.97 1198.94 L 1447.3 1198.77 C 1423.76 1144.46 1400.94 1087.74 1376.98 1034.16 z"/><path transform="translate(0,0)" fill="rgb(8,4,19)" d="M 1475.07 1159.23 C 1477.64 1145.36 1474.48 1118.08 1476.61 1102 L 1478.15 1105.13 C 1477.91 1122.77 1478.4 1140.53 1477.85 1158.11 L 1475.07 1159.23 z"/><path transform="translate(0,0)" fill="rgb(0,0,0)" d="M 1408.83 1031 C 1378.82 966.041 1352.54 898.304 1322.6 833.194 C 1321.33 830.417 1321.19 826.286 1321.56 823.258 L 1322.79 821.425 C 1330.68 823.132 1344.6 861.938 1348.67 871.417 L 1393.14 973.153 C 1397.77 983.975 1413.27 1022.25 1418.39 1031.19 L 1419.31 1033.99 C 1430.76 1059.32 1440.46 1085.35 1452.59 1110.36 C 1453.6 1112.45 1454.73 1117.04 1454.4 1119.47 C 1454.01 1122.29 1453.41 1122.45 1451.34 1123.83 L 1448.91 1123.29 C 1445.88 1120.83 1413.35 1042.08 1409.9 1033.94 L 1408.83 1031 z"/><path transform="translate(0,0)" fill="rgb(21,12,37)" d="M 1408.83 1031 L 1409.9 1033.94 C 1400.63 1033.46 1386.31 1033.35 1376.98 1034.16 L 1375.84 1030.84 C 1386.84 1030.69 1397.84 1030.74 1408.83 1031 z"/><path transform="translate(0,0)" fill="rgb(21,12,37)" d="M 1448.76 1031.06 C 1448.84 1032.46 1448.6 1032.71 1449.2 1033.59 C 1439.36 1034.07 1429.19 1033.96 1419.31 1033.99 L 1418.39 1031.19 C 1427.82 1030.79 1439.19 1031.07 1448.76 1031.06 z"/><path transform="translate(0,0)" fill="rgb(69,47,102)" d="M 1620.44 791.101 L 1726.71 790.995 C 1724.94 861.859 1727.37 933.832 1726.25 1004.78 C 1726.11 1013.24 1726.44 1022.35 1726.79 1030.84 L 1727.03 1033.52 C 1725.42 1058.49 1726.31 1091.97 1726.31 1117.38 L 1726.01 1263.51 C 1715.01 1263.63 1703.67 1263.29 1692.64 1263.11 C 1690.19 1216.92 1693.47 1168.66 1692.21 1122.32 C 1692.13 1119.46 1690.64 1116.67 1688.46 1114.92 C 1684.76 1115.02 1683.99 1117.91 1683.91 1121.39 C 1683.57 1136.49 1683.75 1151.64 1683.76 1166.75 L 1683.88 1263.39 C 1673.38 1263.12 1662.5 1263.23 1651.97 1263.21 C 1651.24 1227.03 1654.76 922.062 1650.57 911.183 C 1647.69 908.515 1649.36 909.271 1645.34 908.96 C 1638.37 913.462 1600.85 1013.91 1592.76 1030.09 L 1592.36 1030.88 C 1581.58 1030.98 1571.27 1031.09 1560.49 1030.73 C 1563.81 1023.42 1569.67 1012.53 1568.29 1004.68 L 1565.86 1003.36 C 1558.55 1007.82 1554.21 1022.55 1551.09 1030.88 L 1549.88 1033.39 C 1539.88 1033.56 1529.88 1033.4 1519.89 1032.93 L 1520.19 1030.09 C 1555.65 951.121 1586.31 870.332 1620.44 791.101 z"/><path transform="translate(0,0)" fill="rgb(0,0,0)" d="M 1640.82 821.986 C 1653.72 822.044 1680.21 821.494 1692.03 823.234 C 1692.31 871.341 1692.32 919.449 1692.08 967.556 C 1692.08 982.69 1693.56 1018.2 1692.15 1031.65 L 1692.82 1033.33 C 1692.9 1040.93 1694.51 1056.11 1690.5 1061.66 C 1687.22 1062.99 1688.9 1062.84 1685.29 1061.86 C 1682.25 1056.79 1684.03 853.607 1684.01 830.982 L 1645.98 831.063 L 1603.22 931.683 C 1597.16 945.789 1590.59 961.307 1583.91 975.208 C 1582.61 977.921 1582.13 977.491 1579.7 978.119 C 1573.56 975.122 1579.54 963.092 1581.85 958.351 C 1603.24 914.423 1619.25 865.51 1640.82 821.986 z"/><path transform="translate(0,0)" fill="rgb(8,4,19)" d="M 1692.15 1031.65 C 1699.09 1030.5 1718.44 1031.08 1726.79 1030.84 L 1727.03 1033.52 C 1715.63 1033.17 1704.23 1033.11 1692.82 1033.33 L 1692.15 1031.65 z"/><path transform="translate(0,0)" fill="rgb(21,12,37)" d="M 1519.89 1032.93 L 1520.19 1030.09 C 1526.46 1031.75 1543.95 1030.99 1551.09 1030.88 L 1549.88 1033.39 C 1539.88 1033.56 1529.88 1033.4 1519.89 1032.93 z"/><path transform="translate(0,0)" fill="rgb(0,0,0)" d="M 1684.91 1080.71 C 1687.92 1080.79 1687.86 1080.68 1690.66 1081.7 C 1692.84 1085.16 1691.93 1090.49 1691.87 1095.04 C 1689.06 1095.09 1688.78 1095.31 1686.2 1094.38 C 1683.78 1090.71 1684.81 1085.16 1684.91 1080.71 z"/><path transform="translate(0,0)" fill="rgb(69,47,102)" d="M 1256.94 791.052 L 1259.67 790.963 C 1257.74 797.191 1255.18 797.555 1254.07 802.67 C 1249.76 805.92 1246.76 808.561 1244.71 813.751 L 1240.2 811.6 C 1239.24 809.445 1238.63 804.98 1238.16 802.438 L 1238.09 791.066 L 1256.94 791.052 z"/><path transform="translate(0,0)" fill="rgb(21,12,37)" d="M 1256.94 791.052 L 1259.67 790.963 C 1257.74 797.191 1255.18 797.555 1254.07 802.67 C 1249.76 805.92 1246.76 808.561 1244.71 813.751 L 1240.2 811.6 C 1244.74 803.041 1254.69 796.797 1256.94 791.052 z"/><path transform="translate(0,0)" fill="rgb(69,47,102)" d="M 751.508 1033.44 L 824.993 1033.89 L 824.926 1167.58 C 824.907 1189.85 824.079 1218.92 825.226 1240.54 L 824.887 1242.53 L 825.119 1248.81 C 826.875 1257.08 824.236 1268.9 829 1272.87 L 831.789 1272.55 C 895.675 1275.03 965.154 1270.78 1028.89 1272.98 L 1030.99 1272.77 L 1031 1504.87 L 1475.76 1504.92 L 1475.92 1479.72 C 1441.81 1445.34 1409.19 1411.57 1374.43 1377.44 C 1352.56 1356.06 1330.86 1334.52 1309.32 1312.8 C 1297.17 1300.69 1282.73 1286.99 1271.37 1274.6 L 1273.68 1274.03 C 1278.6 1277.33 1293.46 1292.84 1298.19 1297.63 L 1338.73 1338.35 L 1428.51 1427.68 C 1443.31 1442.54 1462.45 1460.97 1475.94 1476.62 L 1475.92 1208 L 1478.21 1208.7 L 1478.22 1478.52 C 1486.63 1486.95 1496.4 1496.35 1504.39 1505.01 C 1515.38 1504.92 1557.91 1503.36 1564.81 1506.71 C 1553.56 1507.82 1520.67 1507.97 1508.36 1507.22 C 1512.72 1512.07 1543.26 1543.69 1543.9 1546.5 C 1536.71 1541.84 1510.83 1515.35 1503.6 1507.85 C 1495.15 1507.77 1486.71 1507.78 1478.26 1507.88 C 1478.2 1515.97 1478.3 1524 1477.32 1532.03 C 1475.38 1526.04 1475.66 1514.31 1475.67 1507.84 C 1428.83 1505.81 1373.15 1507.45 1325.27 1507.43 L 1031.04 1507.44 L 1030.91 1622.5 C 1030.92 1632.68 1031.74 1685.36 1029.64 1691.67 C 1027.33 1683.76 1028.23 1640.94 1028.25 1629.61 L 1028.34 1507.57 L 731.298 1507.37 L 627.516 1507.5 C 609.592 1507.55 591.352 1507.49 573.42 1508.01 C 570.494 1508.1 569.184 1508.49 567.036 1510.48 C 562.084 1519.08 566.554 1562.7 563.505 1567.94 C 561.023 1564.42 561.959 1523.25 561.987 1515.62 C 548.933 1529.15 532.339 1547.07 518.448 1559.4 L 517.695 1559.4 C 525.48 1545.99 560.684 1516.52 561.351 1509.02 C 553.112 1503.54 506.543 1511.89 503.314 1506.06 C 505.882 1504.03 555.378 1504.98 562.114 1505.08 L 562.158 1344.48 L 562.043 1298.1 C 561.986 1289.92 561.502 1277.05 562.347 1269.42 L 564.755 1268.35 C 602.411 1263.75 653.194 1238.64 680.604 1212.51 C 734.357 1161.25 748.429 1104.14 751.508 1033.44 z"/><path transform="translate(0,0)" fill="rgb(69,47,102)" d="M 751.508 1033.44 L 824.993 1033.89 L 824.926 1167.58 C 824.907 1189.85 824.079 1218.92 825.226 1240.54 L 824.887 1242.53 L 825.119 1248.81 C 826.875 1257.08 824.236 1268.9 829 1272.87 C 823.02 1272.69 801.056 1271.99 795.874 1273.76 L 793.693 1273.29 C 741.29 1325.96 689.498 1379.23 638.327 1433.1 L 595.449 1477.26 C 591.089 1481.79 570.665 1505.38 565.248 1504.49 C 563.716 1481.18 564.853 1446.11 564.863 1421.82 L 564.755 1268.35 C 602.411 1263.75 653.194 1238.64 680.604 1212.51 C 734.357 1161.25 748.429 1104.14 751.508 1033.44 z"/><path transform="translate(0,0)" fill="rgb(21,12,37)" d="M 824.887 1242.53 L 825.119 1248.81 C 826.875 1257.08 824.236 1268.9 829 1272.87 C 823.02 1272.69 801.056 1271.99 795.874 1273.76 L 793.693 1273.29 C 787.865 1270.82 782.863 1273.93 779.059 1270.36 C 778.655 1266.95 778.208 1268.38 779.511 1265.69 C 786.219 1264.02 794.461 1265.33 801.767 1264.6 L 804.212 1264.71 C 811.328 1257.76 818.186 1249.92 824.887 1242.53 z"/><path transform="translate(0,0)" fill="rgb(69,47,102)" d="M 824.887 1242.53 L 825.119 1248.81 L 825.106 1265.68 C 818.147 1265.25 811.181 1264.93 804.212 1264.71 C 811.328 1257.76 818.186 1249.92 824.887 1242.53 z"/><path transform="translate(0,0)" fill="rgb(21,12,37)" d="M 801.767 1264.6 C 806.331 1258.57 819.303 1245.02 825.226 1240.54 L 824.887 1242.53 C 818.186 1249.92 811.328 1257.76 804.212 1264.71 L 801.767 1264.6 z"/><path transform="translate(0,0)" fill="rgb(8,4,19)" d="M 1475.92 1208 L 1478.21 1208.7 L 1478.22 1478.52 C 1486.63 1486.95 1496.4 1496.35 1504.39 1505.01 C 1515.38 1504.92 1557.91 1503.36 1564.81 1506.71 C 1553.56 1507.82 1520.67 1507.97 1508.36 1507.22 C 1512.72 1512.07 1543.26 1543.69 1543.9 1546.5 C 1536.71 1541.84 1510.83 1515.35 1503.6 1507.85 C 1495.15 1507.77 1486.71 1507.78 1478.26 1507.88 C 1478.2 1515.97 1478.3 1524 1477.32 1532.03 C 1475.38 1526.04 1475.66 1514.31 1475.67 1507.84 C 1428.83 1505.81 1373.15 1507.45 1325.27 1507.43 L 1031.04 1507.44 L 1030.91 1622.5 C 1030.92 1632.68 1031.74 1685.36 1029.64 1691.67 C 1027.33 1683.76 1028.23 1640.94 1028.25 1629.61 L 1028.34 1507.57 L 731.298 1507.37 L 627.516 1507.5 C 609.592 1507.55 591.352 1507.49 573.42 1508.01 C 570.494 1508.1 569.184 1508.49 567.036 1510.48 C 562.084 1519.08 566.554 1562.7 563.505 1567.94 C 561.023 1564.42 561.959 1523.25 561.987 1515.62 C 548.933 1529.15 532.339 1547.07 518.448 1559.4 L 517.695 1559.4 C 525.48 1545.99 560.684 1516.52 561.351 1509.02 C 553.112 1503.54 506.543 1511.89 503.314 1506.06 C 505.882 1504.03 555.378 1504.98 562.114 1505.08 L 562.158 1344.48 L 562.043 1298.1 C 561.986 1289.92 561.502 1277.05 562.347 1269.42 L 564.755 1268.35 L 564.863 1421.82 C 564.853 1446.11 563.716 1481.18 565.248 1504.49 C 570.665 1505.38 591.089 1481.79 595.449 1477.26 L 638.327 1433.1 C 689.498 1379.23 741.29 1325.96 793.693 1273.29 L 795.874 1273.76 C 792.649 1277.87 780.228 1289.86 776.136 1294.01 L 738.283 1332.84 L 616.29 1459.56 C 610.556 1465.47 575.648 1500.08 573.089 1504.61 C 576.29 1505.88 665.431 1504.97 676.12 1504.96 L 1028.41 1504.9 C 1028.06 1427.59 1028.22 1350.28 1028.89 1272.98 L 1030.99 1272.77 L 1031 1504.87 L 1475.76 1504.92 L 1475.92 1479.72 C 1441.81 1445.34 1409.19 1411.57 1374.43 1377.44 C 1352.56 1356.06 1330.86 1334.52 1309.32 1312.8 C 1297.17 1300.69 1282.73 1286.99 1271.37 1274.6 L 1273.68 1274.03 C 1278.6 1277.33 1293.46 1292.84 1298.19 1297.63 L 1338.73 1338.35 L 1428.51 1427.68 C 1443.31 1442.54 1462.45 1460.97 1475.94 1476.62 L 1475.92 1208 z"/><path transform="translate(0,0)" fill="rgb(69,47,102)" d="M 1478.09 1482.48 C 1481.11 1484.44 1496.82 1500.63 1501.58 1504.93 L 1478.12 1504.89 L 1478.09 1482.48 z"/><path transform="translate(0,0)" fill="rgb(69,47,102)" d="M 1228.06 823.453 L 1228.13 826.632 C 1227.37 875.767 1228.38 925.36 1227.93 974.525 C 1227.84 984.304 1228.87 1024.87 1227.3 1031.68 L 1227.83 1033.77 C 1228.11 1050.39 1228.92 1223.02 1227.04 1226.95 L 1225.71 1228.23 C 1222.88 1226.09 1209.93 1212.62 1207.05 1209.74 L 1165.75 1168.24 L 1037.68 1040.53 C 1035.72 1038.31 1034.86 1037.56 1032.68 1035.65 L 1030.8 1035.94 C 1031.11 1070.19 1031.19 1104.44 1031.03 1138.7 C 1031.05 1147.04 1031.52 1186.45 1030.26 1191.04 L 1028.76 1191 C 1017.56 1191.69 999.491 1191.22 987.863 1191.23 C 965.577 1191.39 943.29 1191.31 921.006 1191.01 C 920.867 1181.92 919.148 1148.82 922.922 1143.1 L 921.548 1141.36 C 919.958 1132.02 919.914 1041.9 921.792 1033.26 C 924.499 1033.68 950.872 1033.62 954.291 1033.47 C 974.54 1032.6 1004.25 1034.85 1023.47 1032.62 L 1023.84 1031.2 L 1026.34 1029.58 L 1025.34 1027.14 L 1027.36 1025.35 C 1028.64 1022.13 1028.3 1011.32 1028.28 1007.3 C 1031.15 1011.73 1027.94 1020.68 1029.75 1026.19 L 1030.46 1025.19 L 1031.63 1025.7 C 1035.16 1025.04 1052.67 1005.94 1056.95 1001.57 C 1114.32 942.512 1171.35 883.139 1228.06 823.453 z"/><path transform="translate(0,0)" fill="rgb(69,47,102)" d="M 1228.13 826.632 C 1227.37 875.767 1228.38 925.36 1227.93 974.525 C 1227.84 984.304 1228.87 1024.87 1227.3 1031.68 L 1227.83 1033.77 C 1203.76 1032.7 1176.78 1033.87 1152.5 1033.73 C 1113.09 1033.5 1073.37 1032.62 1034 1033.1 L 1033.34 1030.97 C 1033.63 1028.04 1045.81 1016.74 1048.44 1014.05 L 1081.63 979.8 L 1170.62 887.418 C 1188.33 869.114 1212.13 845.811 1228.13 826.632 z"/><path transform="translate(0,0)" fill="rgb(21,12,37)" d="M 1033.34 1030.97 C 1081.22 1031.26 1129.1 1031.24 1176.97 1030.91 C 1185.31 1030.92 1222.15 1030.45 1227.3 1031.68 L 1227.83 1033.77 C 1203.76 1032.7 1176.78 1033.87 1152.5 1033.73 C 1113.09 1033.5 1073.37 1032.62 1034 1033.1 L 1033.34 1030.97 z"/><path transform="translate(0,0)" fill="rgb(69,47,102)" d="M 1034 1033.1 C 1073.37 1032.62 1113.09 1033.5 1152.5 1033.73 C 1176.78 1033.87 1203.76 1032.7 1227.83 1033.77 C 1228.11 1050.39 1228.92 1223.02 1227.04 1226.95 C 1212.92 1210.06 1179.24 1177.64 1162.89 1161.45 C 1122.15 1121.09 1080.41 1077.29 1038.92 1038.14 L 1034 1033.1 z"/><path transform="translate(0,0)" fill="rgb(69,47,102)" d="M 1023.47 1032.62 L 1025.68 1033.88 C 1016.35 1041.53 1003.38 1055.86 994.963 1064.81 C 978.362 1082.63 961.586 1100.29 944.637 1117.79 C 937.35 1125.32 929.205 1134.42 921.548 1141.36 C 919.958 1132.02 919.914 1041.9 921.792 1033.26 C 924.499 1033.68 950.872 1033.62 954.291 1033.47 C 974.54 1032.6 1004.25 1034.85 1023.47 1032.62 z"/><path transform="translate(0,0)" fill="rgb(18,11,29)" d="M 1228.06 823.453 L 1228.13 826.632 C 1212.13 845.811 1188.33 869.114 1170.62 887.418 L 1081.63 979.8 L 1048.44 1014.05 C 1045.81 1016.74 1033.63 1028.04 1033.34 1030.97 L 1034 1033.1 L 1038.92 1038.14 C 1080.41 1077.29 1122.15 1121.09 1162.89 1161.45 C 1179.24 1177.64 1212.92 1210.06 1227.04 1226.95 L 1225.71 1228.23 C 1222.88 1226.09 1209.93 1212.62 1207.05 1209.74 L 1165.75 1168.24 L 1037.68 1040.53 C 1035.72 1038.31 1034.86 1037.56 1032.68 1035.65 L 1030.8 1035.94 C 1031.11 1070.19 1031.19 1104.44 1031.03 1138.7 C 1031.05 1147.04 1031.52 1186.45 1030.26 1191.04 L 1028.76 1191 C 1028.59 1144.91 1026.95 1089.86 1028.28 1044.63 L 1027.63 1035.11 C 1014.16 1047.42 927.142 1141.6 922.922 1143.1 L 921.548 1141.36 C 929.205 1134.42 937.35 1125.32 944.637 1117.79 C 961.586 1100.29 978.362 1082.63 994.963 1064.81 C 1003.38 1055.86 1016.35 1041.53 1025.68 1033.88 L 1023.47 1032.62 L 1023.84 1031.2 L 1026.34 1029.58 L 1025.34 1027.14 L 1027.36 1025.35 C 1028.64 1022.13 1028.3 1011.32 1028.28 1007.3 C 1031.15 1011.73 1027.94 1020.68 1029.75 1026.19 L 1030.46 1025.19 L 1031.63 1025.7 C 1035.16 1025.04 1052.67 1005.94 1056.95 1001.57 C 1114.32 942.512 1171.35 883.139 1228.06 823.453 z"/><path transform="translate(0,0)" fill="rgb(0,0,0)" d="M 335.818 781.279 C 335.817 771.656 334.439 737.659 338.086 731.964 C 339.225 735.481 339.171 774.933 339.227 781.252 C 375.72 780.934 412.216 780.879 448.71 781.087 C 482.152 781.131 527.385 780.197 560.22 786.637 L 563.759 787.852 C 573.8 788.165 586.867 792.634 596.443 795.776 C 632.484 807.601 664.28 826.505 690.555 854.147 C 734.888 900.788 752.623 965.554 751.385 1028.73 C 751.364 1029.84 751.175 1030.75 750.991 1031.81 L 751.508 1033.44 C 748.429 1104.14 734.357 1161.25 680.604 1212.51 C 653.194 1238.64 602.411 1263.75 564.755 1268.35 L 562.347 1269.42 C 554.976 1269.09 530.653 1272.89 519.49 1273.03 C 459.404 1273.35 399.316 1273.38 339.229 1273.09 C 338.969 1287.63 339.393 1302.74 338.978 1317.31 C 338.906 1319.83 338.704 1319.48 337.198 1320.71 C 335.727 1318.41 335.511 1277.54 335.204 1271.26 C 322.091 1270.72 300.017 1272.21 288.563 1269.88 L 287.977 1268.92 C 290.653 1267.61 328.159 1268.01 334.066 1267.99 C 333.986 1209.89 334.238 1099.11 333.609 1035.6 C 333.1 1035.02 332.591 1034.44 332.082 1033.86 L 331.436 1032.31 L 333.032 1031 C 334.02 1028.25 334.997 799.312 333.672 785.755 L 335.818 781.279 z"/><path transform="translate(0,0)" fill="rgb(69,47,102)" d="M 345.803 792.842 L 348.001 791.122 C 403.238 790.831 458.621 790.659 513.874 791.101 C 529.918 791.229 548.541 795.787 562.341 795.909 L 564.282 796.906 C 670.762 820.793 734.075 893.543 741.47 1001.93 C 742.053 1010.47 743.317 1023.4 741.52 1031.65 L 741.776 1033.71 C 742.28 1043.85 741.038 1056.69 739.889 1066.92 C 734.563 1114.32 718.593 1157.38 686.264 1193.06 C 653.654 1229.04 613.721 1248.36 566.752 1258.64 C 564.012 1259.38 564.813 1259.31 561.973 1259.37 C 504.428 1266.35 446.886 1262.14 388.995 1263.56 C 383.788 1263.69 352.333 1264.03 349.322 1262.83 L 347.04 1262.08 C 345.448 1262.75 346.321 1262.61 344.399 1262.29 C 342.944 1257.18 342.676 1043.46 344.176 1034.02 L 344.494 1031.65 C 342.102 1023.69 342.179 810.23 343.971 793.956 L 345.803 792.842 z"/><path transform="translate(0,0)" fill="rgb(69,47,102)" d="M 426.51 870.476 C 452.995 870.665 545.506 867.865 562.458 878.828 L 564.826 878.471 C 629.042 902.016 652.925 944.184 658.07 1011.51 C 658.503 1017.18 659.148 1026.22 657.815 1031.62 L 657.821 1033.74 C 659.892 1053.6 653.063 1084.9 646.071 1103.6 C 631.721 1141.98 602.36 1164.4 564.76 1177.46 L 562.188 1177.55 C 537.18 1188.89 457.897 1185.67 426.108 1185.79 C 427.572 1149.44 425.266 1109.41 426.218 1072.66 C 426.587 1058.41 425.492 1041.25 426.833 1027.36 C 426.14 1018.55 426.098 1007.8 426.383 998.954 C 427.741 956.813 424.295 912.368 426.51 870.476 z"/><path transform="translate(0,0)" fill="rgb(69,47,102)" d="M 426.833 1027.36 L 427.447 1031.07 L 427.746 1033.75 C 431.993 1035.14 437.547 1033.86 442.11 1033.97 C 481.376 1034.91 522.834 1032.03 561.938 1033.88 L 562 1128.04 C 561.973 1140.22 561.196 1166.75 562.188 1177.55 C 537.18 1188.89 457.897 1185.67 426.108 1185.79 C 427.572 1149.44 425.266 1109.41 426.218 1072.66 C 426.587 1058.41 425.492 1041.25 426.833 1027.36 z"/><path transform="translate(0,0)" fill="rgb(69,47,102)" d="M 564.826 878.471 C 629.042 902.016 652.925 944.184 658.07 1011.51 C 658.503 1017.18 659.148 1026.22 657.815 1031.62 L 657.821 1033.74 C 646.781 1033.87 635.74 1033.86 624.7 1033.71 C 621.911 1032.43 616.433 1033.61 611.544 1032.51 L 612.702 1031.17 C 596.69 1031.25 580.677 1031.17 564.666 1030.94 L 564.826 878.471 z"/><path transform="translate(0,0)" fill="rgb(18,11,29)" d="M 612.702 1031.17 C 623.09 1031.13 648.638 1030.52 657.815 1031.62 L 657.821 1033.74 C 646.781 1033.87 635.74 1033.86 624.7 1033.71 C 621.911 1032.43 616.433 1033.61 611.544 1032.51 L 612.702 1031.17 z"/><path transform="translate(0,0)" fill="rgb(69,47,102)" d="M 564.951 1033.75 L 624.7 1033.71 C 635.74 1033.86 646.781 1033.87 657.821 1033.74 C 659.892 1053.6 653.063 1084.9 646.071 1103.6 C 631.721 1141.98 602.36 1164.4 564.76 1177.46 L 564.951 1033.75 z"/><path transform="translate(0,0)" fill="rgb(8,4,19)" d="M 562.458 878.828 L 564.826 878.471 L 564.666 1030.94 C 580.677 1031.17 596.69 1031.25 612.702 1031.17 L 611.544 1032.51 C 616.433 1033.61 621.911 1032.43 624.7 1033.71 L 564.951 1033.75 L 564.76 1177.46 L 562.188 1177.55 C 561.196 1166.75 561.973 1140.22 562 1128.04 L 561.938 1033.88 C 522.834 1032.03 481.376 1034.91 442.11 1033.97 C 437.547 1033.86 431.993 1035.14 427.746 1033.75 L 427.447 1031.07 L 562.055 1031.14 L 561.946 931.91 C 561.933 917.794 561.2 892.129 562.458 878.828 z"/><path transform="translate(0,0)" fill="rgb(69,47,102)" d="M 345.803 792.842 L 348.001 791.122 C 355.079 798.241 373.325 815.815 378.727 822.834 C 390.748 822.905 436.751 821.512 445.13 825.046 L 446.342 826.525 L 445.85 829.409 C 441.003 832.825 397.167 831.982 388.378 831.811 C 399.113 841.036 407.841 850.751 417.902 860.539 L 416.608 862.346 L 416.85 863.276 C 420.332 863.112 420.762 862.753 423.712 864.61 C 425.525 867.38 425.515 867.326 426.51 870.476 C 424.295 912.368 427.741 956.813 426.383 998.954 C 426.098 1007.8 426.14 1018.55 426.833 1027.36 C 425.492 1041.25 426.587 1058.41 426.218 1072.66 C 425.266 1109.41 427.572 1149.44 426.108 1185.79 C 424.44 1189.41 424.262 1190.89 420.659 1192.34 L 419.574 1194.22 C 431.626 1197.14 506.609 1194.49 523.413 1194.43 C 531.539 1194.4 552.398 1190.71 561.061 1188.11 C 562.477 1193.31 562.091 1210.4 562.124 1216.69 L 564.879 1215.94 C 568.641 1214.54 571.924 1212.77 575.759 1213.59 L 577.745 1215.15 C 578.116 1222.76 570.375 1223.29 564.623 1224.57 C 563.27 1224.74 561.324 1224.8 560.243 1225.33 C 563.602 1229.07 562.062 1252.78 561.973 1259.37 C 504.428 1266.35 446.886 1262.14 388.995 1263.56 C 383.788 1263.69 352.333 1264.03 349.322 1262.83 L 347.04 1262.08 C 345.448 1262.75 346.321 1262.61 344.399 1262.29 C 342.944 1257.18 342.676 1043.46 344.176 1034.02 L 344.494 1031.65 C 342.102 1023.69 342.179 810.23 343.971 793.956 L 345.803 792.842 z"/><path transform="translate(0,0)" fill="rgb(69,47,102)" d="M 345.803 792.842 L 348.001 791.122 C 355.079 798.241 373.325 815.815 378.727 822.834 C 390.748 822.905 436.751 821.512 445.13 825.046 L 446.342 826.525 L 445.85 829.409 C 441.003 832.825 397.167 831.982 388.378 831.811 C 399.113 841.036 407.841 850.751 417.902 860.539 L 416.608 862.346 L 416.85 863.276 C 420.332 863.112 420.762 862.753 423.712 864.61 C 425.525 867.38 425.515 867.326 426.51 870.476 C 424.295 912.368 427.741 956.813 426.383 998.954 C 426.098 1007.8 426.14 1018.55 426.833 1027.36 C 425.492 1041.25 426.587 1058.41 426.218 1072.66 C 425.266 1109.41 427.572 1149.44 426.108 1185.79 C 424.44 1189.41 424.262 1190.89 420.659 1192.34 L 416.348 1190.44 C 415.131 1178.53 415.877 1151.29 415.898 1138.09 L 415.906 1034.19 L 416.219 1031.32 L 385.489 1031.53 C 384.04 1037.79 383.965 1070.38 385.679 1076.58 L 385.699 1108.01 L 376.802 1107.69 C 378.041 1087.91 376.965 1054.79 376.959 1033.99 L 376.581 1031.43 C 367.909 1031.31 352.621 1030.67 344.494 1031.65 C 342.102 1023.69 342.179 810.23 343.971 793.956 L 345.803 792.842 z"/><path transform="translate(0,0)" fill="rgb(69,47,102)" d="M 386.083 833.268 L 388.378 831.811 C 399.113 841.036 407.841 850.751 417.902 860.539 L 416.608 862.346 L 416.85 863.276 C 420.332 863.112 420.762 862.753 423.712 864.61 C 425.525 867.38 425.515 867.326 426.51 870.476 C 424.295 912.368 427.741 956.813 426.383 998.954 C 426.098 1007.8 426.14 1018.55 426.833 1027.36 C 425.492 1041.25 426.587 1058.41 426.218 1072.66 C 425.266 1109.41 427.572 1149.44 426.108 1185.79 C 424.44 1189.41 424.262 1190.89 420.659 1192.34 L 416.348 1190.44 C 415.131 1178.53 415.877 1151.29 415.898 1138.09 L 415.906 1034.19 L 416.219 1031.32 L 385.489 1031.53 C 384.336 1017.77 385.334 834.8 386.083 833.268 z"/><path transform="translate(0,0)" fill="rgb(248,153,56)" d="M 416.85 863.276 C 420.332 863.112 420.762 862.753 423.712 864.61 C 425.525 867.38 425.515 867.326 426.51 870.476 C 424.295 912.368 427.741 956.813 426.383 998.954 C 426.098 1007.8 426.14 1018.55 426.833 1027.36 C 425.492 1041.25 426.587 1058.41 426.218 1072.66 C 425.266 1109.41 427.572 1149.44 426.108 1185.79 C 424.44 1189.41 424.262 1190.89 420.659 1192.34 L 416.348 1190.44 C 415.131 1178.53 415.877 1151.29 415.898 1138.09 L 415.906 1034.19 L 416.219 1031.32 C 414.951 1005.15 416.173 970.189 416.033 943.374 C 415.923 922.385 414.923 885.89 416.363 865.966 L 416.85 863.276 z"/><path transform="translate(0,0)" fill="rgb(8,4,19)" d="M 386.083 833.268 L 388.378 831.811 C 399.113 841.036 407.841 850.751 417.902 860.539 L 416.608 862.346 L 416.85 863.276 L 416.363 865.966 C 414.294 860.081 391.346 837.163 386.083 833.268 z"/><path transform="translate(0,0)" fill="rgb(0,0,0)" d="M 378.727 822.834 C 390.748 822.905 436.751 821.512 445.13 825.046 L 446.342 826.525 L 445.85 829.409 C 441.003 832.825 397.167 831.982 388.378 831.811 L 386.083 833.268 C 385.334 834.8 384.336 1017.77 385.489 1031.53 C 384.04 1037.79 383.965 1070.38 385.679 1076.58 L 385.699 1108.01 L 376.802 1107.69 C 378.041 1087.91 376.965 1054.79 376.959 1033.99 L 376.581 1031.43 C 377.593 1024.36 377.061 995.728 377.054 987.424 L 376.882 884.699 C 376.862 870.554 376.111 840.87 377.747 827.84 C 377.926 827.411 378.592 823.561 378.727 822.834 z"/><path transform="translate(0,0)" fill="rgb(8,4,19)" d="M 345.803 792.842 L 348.001 791.122 C 355.079 798.241 373.325 815.815 378.727 822.834 C 378.592 823.561 377.926 827.411 377.747 827.84 C 377.075 823.136 350.935 797.658 345.803 792.842 z"/><path transform="translate(0,0)" fill="rgb(69,47,102)" d="M 561.061 1188.11 C 562.477 1193.31 562.091 1210.4 562.124 1216.69 L 564.879 1215.94 C 568.641 1214.54 571.924 1212.77 575.759 1213.59 L 577.745 1215.15 C 578.116 1222.76 570.375 1223.29 564.623 1224.57 C 563.27 1224.74 561.324 1224.8 560.243 1225.33 C 563.602 1229.07 562.062 1252.78 561.973 1259.37 C 504.428 1266.35 446.886 1262.14 388.995 1263.56 C 383.788 1263.69 352.333 1264.03 349.322 1262.83 C 358.278 1252.65 370.951 1242.54 380.56 1231.49 C 392.156 1230.31 408.885 1233.24 418.819 1229.65 C 421.419 1227.04 420.747 1228.57 420.952 1224.93 C 418.084 1221.72 397.937 1222.76 390.604 1222.07 C 394.496 1217.48 414.926 1196.99 419.574 1194.22 C 431.626 1197.14 506.609 1194.49 523.413 1194.43 C 531.539 1194.4 552.398 1190.71 561.061 1188.11 z"/><path transform="translate(0,0)" fill="rgb(0,0,0)" d="M 564.879 1215.94 C 568.641 1214.54 571.924 1212.77 575.759 1213.59 L 577.745 1215.15 C 578.116 1222.76 570.375 1223.29 564.623 1224.57 C 563.27 1224.74 561.324 1224.8 560.243 1225.33 C 547.549 1228.28 530.533 1231 517.53 1231.01 C 511.535 1231.02 483.761 1232.43 480.151 1230.36 C 478.367 1227.24 478.806 1228.92 479.147 1225.07 C 479.664 1224.49 480.181 1223.91 480.698 1223.32 C 490.196 1222.66 499.723 1222.79 509.235 1222.51 C 518.862 1222.22 528.517 1221.61 538.09 1220.56 C 546.165 1219.68 554.15 1218.18 562.124 1216.69 L 564.879 1215.94 z"/><path transform="translate(0,0)" fill="rgb(0,0,0)" d="M 442.187 1223.12 C 446.452 1222.92 451.631 1222.22 455.411 1223.8 C 457.444 1226.85 456.773 1226.13 456.75 1230.53 C 452.344 1230.58 448.185 1231.58 444.095 1230.37 C 441.595 1227.66 442.439 1227.92 442.187 1223.12 z"/><path transform="translate(0,0)" fill="rgb(0,0,0)" d="M 377.015 1178.9 L 386.013 1178.76 C 385.905 1186.06 384.36 1217.61 387.288 1221.58 L 388.525 1221.8 L 390.604 1222.07 C 397.937 1222.76 418.084 1221.72 420.952 1224.93 C 420.747 1228.57 421.419 1227.04 418.819 1229.65 C 408.885 1233.24 392.156 1230.31 380.56 1231.49 L 378.049 1229.96 C 376.643 1221.48 377.059 1188.55 377.015 1178.9 z"/><path transform="translate(0,0)" fill="rgb(248,153,56)" d="M 376.802 1107.69 L 385.699 1108.01 C 386.343 1115.26 389.185 1128.44 381.154 1131.89 L 378.859 1130.7 C 374.008 1123.56 375.777 1116.31 376.802 1107.69 z"/><path transform="translate(0,0)" fill="rgb(248,153,56)" d="M 377.015 1178.9 C 376.565 1173.47 373.414 1154.22 382.446 1154.89 C 385.966 1158.53 386.483 1162.18 386.383 1167.09 C 386.285 1170.98 386.162 1174.87 386.013 1178.76 L 377.015 1178.9 z"/><path transform="translate(0,0)" fill="rgb(8,4,19)" d="M 416.219 1031.32 L 415.906 1034.19 L 385.719 1033.87 C 385.71 1046.77 386.3 1064.11 385.679 1076.58 C 383.965 1070.38 384.04 1037.79 385.489 1031.53 L 416.219 1031.32 z"/><path transform="translate(0,0)" fill="rgb(8,4,19)" d="M 378.049 1229.96 L 380.56 1231.49 C 370.951 1242.54 358.278 1252.65 349.322 1262.83 L 347.04 1262.08 C 355.432 1251.66 368.811 1240.9 378.049 1229.96 z"/><path transform="translate(0,0)" fill="rgb(8,4,19)" d="M 416.348 1190.44 L 420.659 1192.34 L 419.574 1194.22 C 414.926 1196.99 394.496 1217.48 390.604 1222.07 L 388.525 1221.8 C 393.658 1211.88 412.074 1200.7 416.348 1190.44 z"/><path transform="translate(0,0)" fill="rgb(8,4,19)" d="M 344.494 1031.65 C 352.621 1030.67 367.909 1031.31 376.581 1031.43 L 376.959 1033.99 C 366.252 1033.8 354.932 1033.99 344.176 1034.02 L 344.494 1031.65 z"/><path transform="translate(0,0)" fill="rgb(69,47,102)" d="M 668.16 1030.92 C 678.126 1030.99 688.092 1031.01 698.058 1030.97 L 697.868 1033 L 698.918 1034.16 C 698.768 1043.22 693.163 1071.81 700.805 1074.29 C 709.098 1069.05 704.84 1043.35 708.671 1033.66 L 710.153 1032.6 L 708.653 1031.43 C 714.367 1030.76 736.134 1030.66 741.52 1031.65 L 741.776 1033.71 C 742.28 1043.85 741.038 1056.69 739.889 1066.92 C 734.563 1114.32 718.593 1157.38 686.264 1193.06 C 653.654 1229.04 613.721 1248.36 566.752 1258.64 C 564.012 1259.38 564.813 1259.31 561.973 1259.37 C 562.062 1252.78 563.602 1229.07 560.243 1225.33 C 561.324 1224.8 563.27 1224.74 564.623 1224.57 C 570.375 1223.29 578.116 1222.76 577.745 1215.15 L 575.759 1213.59 C 571.924 1212.77 568.641 1214.54 564.879 1215.94 L 562.124 1216.69 C 562.091 1210.4 562.477 1193.31 561.061 1188.11 L 564.91 1187.4 C 642.734 1162.45 662.981 1109.38 668.278 1033.49 L 668.16 1030.92 z"/><path transform="translate(0,0)" fill="rgb(18,11,29)" d="M 560.243 1225.33 C 561.324 1224.8 563.27 1224.74 564.623 1224.57 C 564.613 1229.85 563.343 1256.58 566.752 1258.64 C 564.012 1259.38 564.813 1259.31 561.973 1259.37 C 562.062 1252.78 563.602 1229.07 560.243 1225.33 z"/><path transform="translate(0,0)" fill="rgb(18,11,29)" d="M 708.653 1031.43 C 714.367 1030.76 736.134 1030.66 741.52 1031.65 L 741.776 1033.71 C 730.98 1033.85 719.389 1034.23 708.671 1033.66 L 710.153 1032.6 L 708.653 1031.43 z"/><path transform="translate(0,0)" fill="rgb(8,4,19)" d="M 668.16 1030.92 C 678.126 1030.99 688.092 1031.01 698.058 1030.97 L 697.868 1033 L 698.918 1034.16 C 689.764 1033.63 677.632 1033.69 668.278 1033.49 L 668.16 1030.92 z"/><path transform="translate(0,0)" fill="rgb(8,4,19)" d="M 561.061 1188.11 L 564.91 1187.4 C 564.646 1192.95 563.26 1211.44 564.879 1215.94 L 562.124 1216.69 C 562.091 1210.4 562.477 1193.31 561.061 1188.11 z"/><path transform="translate(0,0)" fill="rgb(0,0,0)" d="M 689.775 1101.35 L 693.643 1103.48 C 697.357 1110.19 689.997 1122.17 686.815 1128.5 C 674.342 1153.28 657.385 1172.91 635.886 1190.29 C 632.66 1189.82 631.944 1188.7 630.814 1186.14 C 632.139 1180.87 646.853 1169.4 651.619 1164.56 C 670.213 1145.65 677.502 1123.73 689.775 1101.35 z"/><path transform="translate(0,0)" fill="rgb(0,0,0)" d="M 606.931 1198.85 C 609.741 1200.24 609.541 1200.25 611.559 1202.71 L 611.193 1205.28 C 607.845 1208.78 605.014 1209.51 600.538 1211.38 L 598.582 1210.94 C 596.103 1207.11 596.486 1209.05 596.438 1205.16 C 598.645 1202.1 603.329 1200.52 606.931 1198.85 z"/><path transform="translate(0,0)" fill="rgb(69,47,102)" d="M 348.001 791.122 C 403.238 790.831 458.621 790.659 513.874 791.101 C 529.918 791.229 548.541 795.787 562.341 795.909 L 564.282 796.906 C 564.699 806.79 564.893 820.457 564.456 830.403 C 573.66 832.937 587.614 835.895 593.497 843.454 L 593.002 844.951 C 584.903 847.146 572.471 842.077 564.193 839.514 C 564.295 848.921 564.586 858.948 564.325 868.306 L 561.11 867.844 C 524.434 856.379 458.249 862.945 417.902 860.539 C 407.841 850.751 399.113 841.036 388.378 831.811 C 397.167 831.982 441.003 832.825 445.85 829.409 L 446.342 826.525 L 445.13 825.046 C 436.751 821.512 390.748 822.905 378.727 822.834 C 373.325 815.815 355.079 798.241 348.001 791.122 z"/><path transform="translate(0,0)" fill="rgb(0,0,0)" d="M 562.063 839.103 C 532.05 831.038 506.995 832.961 477.099 831.74 C 474.492 829.835 475.287 831.082 474.723 827.82 C 475.321 826.651 475.958 824.77 477.008 824.604 C 498.123 821.277 544.677 824.92 562.787 830.754 L 564.456 830.403 C 573.66 832.937 587.614 835.895 593.497 843.454 L 593.002 844.951 C 584.903 847.146 572.471 842.077 564.193 839.514 L 562.063 839.103 z"/><path transform="translate(0,0)" fill="rgb(21,12,37)" d="M 562.341 795.909 L 564.282 796.906 C 564.699 806.79 564.893 820.457 564.456 830.403 L 562.787 830.754 C 561.25 823.97 562.135 803.812 562.341 795.909 z"/><path transform="translate(0,0)" fill="rgb(8,4,19)" d="M 562.063 839.103 L 564.193 839.514 C 564.295 848.921 564.586 858.948 564.325 868.306 L 561.11 867.844 C 562.57 863.691 562.065 844.588 562.063 839.103 z"/><path transform="translate(0,0)" fill="rgb(0,0,0)" d="M 417.902 860.539 C 458.249 862.945 524.434 856.379 561.11 867.844 L 564.325 868.306 C 646.489 896.396 664.86 949.399 668.16 1030.92 L 668.278 1033.49 C 662.981 1109.38 642.734 1162.45 564.91 1187.4 L 561.061 1188.11 C 552.398 1190.71 531.539 1194.4 523.413 1194.43 C 506.609 1194.49 431.626 1197.14 419.574 1194.22 L 420.659 1192.34 C 424.262 1190.89 424.44 1189.41 426.108 1185.79 C 457.897 1185.67 537.18 1188.89 562.188 1177.55 L 564.76 1177.46 C 602.36 1164.4 631.721 1141.98 646.071 1103.6 C 653.063 1084.9 659.892 1053.6 657.821 1033.74 L 657.815 1031.62 C 659.148 1026.22 658.503 1017.18 658.07 1011.51 C 652.925 944.184 629.042 902.016 564.826 878.471 L 562.458 878.828 C 545.506 867.865 452.995 870.665 426.51 870.476 C 425.515 867.326 425.525 867.38 423.712 864.61 C 420.762 862.753 420.332 863.112 416.85 863.276 L 416.608 862.346 L 417.902 860.539 z"/><path transform="translate(0,0)" fill="rgb(0,0,0)" d="M 698.058 1030.97 C 701.849 1019.99 694.891 987.094 697.141 982.951 C 700.194 981.728 698.652 981.781 701.921 983.074 C 709.007 991.634 705.077 1020.29 708.653 1031.43 L 710.153 1032.6 L 708.671 1033.66 C 704.84 1043.35 709.098 1069.05 700.805 1074.29 C 693.163 1071.81 698.768 1043.22 698.918 1034.16 L 697.868 1033 L 698.058 1030.97 z"/><path transform="translate(0,0)" fill="rgb(0,0,0)" d="M 611.796 849.65 C 623.559 855.817 636.398 865.387 648.461 876.476 C 667.301 893.795 687.388 923.822 694.622 949.01 C 695.239 951.158 692.292 953.255 690.705 954.684 C 686.275 951.881 682.834 941.033 680.442 935.887 C 676.109 926.581 671.047 917.633 665.301 909.127 C 647.335 882.85 634.514 874.835 608.742 856.751 C 608.495 853.951 610.192 852.148 611.796 849.65 z"/><path transform="translate(0,0)" fill="rgb(8,4,19)" d="M 101.621 1030.95 L 101.708 795.274 L 101.713 730.399 C 101.721 720.547 101.301 701.08 102.604 691.889 C 105.399 699.58 104.069 771.912 104.079 784.905 L 104.069 1030.5 C 107.904 1025.41 127.086 1003.89 131.766 1000.5 C 130.761 1006.22 110.815 1026.04 105.815 1031.02 C 124.125 1031.03 159.661 1030.18 176.1 1031.98 L 176.832 1033.57 C 152.786 1033.93 128.739 1034.08 104.691 1034.04 C 103.012 1087.22 104.135 1145.59 104.112 1199.04 L 103.974 1500.53 C 103.962 1512.25 104.814 1613.19 102.768 1618.47 C 99.9094 1614.96 101.197 1513.51 101.211 1497.04 L 101.353 1270.13 L 101.546 1119.84 C 101.538 1095.43 100.385 1059.76 101.913 1036.24 C 92.2846 1046.22 71.7439 1070.83 61.7408 1076.19 C 61.953 1074.96 96.0647 1038.59 100.55 1033.73 C 94.8468 1033.78 64.3903 1034.26 61.514 1032.84 C 66.1793 1029.6 94.3803 1030.92 101.621 1030.95 z"/><path transform="translate(0,0)" fill="rgb(8,4,19)" d="M 1942.78 1030.55 C 1943.65 975.826 1942.52 920.555 1942.96 865.831 C 1943.05 854.084 1941.87 804.622 1944.3 796.242 C 1945.82 814.535 1945.05 841.153 1945.04 859.996 L 1944.9 967.674 C 1944.87 981.246 1943.86 1018.01 1946.65 1029.53 C 1949.47 1031.48 1996.36 1031.1 2004.39 1031.76 C 1996.42 1035.08 1956.42 1033.46 1945.61 1033.74 C 1944.97 1086.81 1944.8 1139.89 1945.11 1192.97 L 1945.15 1481.43 C 1945.16 1502.31 1947.15 1627.42 1943.5 1637.37 C 1941.81 1613.63 1942.68 1583.73 1942.79 1559.48 L 1942.91 1447.94 L 1942.9 1033.55 C 1937.09 1038.85 1920.25 1057.26 1916.82 1059.77 L 1915.28 1059.56 C 1916.68 1056.12 1934.97 1037.56 1938.79 1033.54 L 1797.45 1033.48 C 1783.75 1033.46 1748.69 1034.67 1737.29 1033.09 L 1737.48 1031.06 L 1873.15 1031.02 C 1892.05 1031.01 1925.13 1031.92 1942.78 1030.55 z"/><path transform="translate(0,0)" fill="rgb(18,11,29)" d="M 265.579 1031.19 L 333.032 1031 L 331.436 1032.31 L 332.082 1033.86 C 322.373 1034.29 311.551 1033.92 301.755 1033.78 C 293.246 1034.38 233.913 1034.23 226.576 1033.04 L 226.317 1032.22 C 232.845 1030.13 257.467 1031.11 265.579 1031.19 z"/><path transform="translate(0,0)" fill="rgb(21,12,37)" d="M 301.755 1033.78 C 293.246 1034.38 233.913 1034.23 226.576 1033.04 L 226.317 1032.22 C 232.845 1030.13 257.467 1031.11 265.579 1031.19 L 259.39 1032.53 C 265.937 1032.84 298.697 1031.98 301.755 1033.78 z"/><path transform="translate(0,0)" fill="rgb(8,4,19)" d="M 334.189 783.06 C 327.172 775.985 323.835 772.704 318.217 764.64 L 318.288 763.274 L 316.895 762.346 L 317.578 763.492 L 317.345 762.372 C 322.815 765.278 331.71 776.309 335.818 781.279 L 333.672 785.755 C 325.128 786.676 296.102 787.575 288.661 784.764 L 288.435 783.896 C 301.134 782.925 320.938 783.262 334.189 783.06 z"/><path transform="translate(0,0)" fill="rgb(18,11,29)" d="M 1983.07 986.791 L 1984.1 988.402 C 1981.68 993.45 1953.9 1021.56 1949.04 1026.24 L 1948.18 1025.36 C 1949.43 1021.8 1978.26 991.924 1983.07 986.791 z"/><path transform="translate(0,0)" fill="rgb(21,12,37)" d="M 176.1 1031.98 C 182.135 1031.91 204.227 1031.19 208.519 1032.92 C 198.293 1033.45 185.748 1032.44 176.832 1033.57 L 176.1 1031.98 z"/><path transform="translate(0,0)" fill="rgb(21,12,37)" d="M 1943.17 751.395 L 1945.02 753.162 C 1945.88 759.871 1945.18 767.49 1944.81 774.337 C 1941.84 770.662 1943 756.463 1943.17 751.395 z"/><path transform="translate(0,0)" fill="rgb(8,4,19)" d="M 590.221 531.426 C 595.56 530.76 603.842 529.685 607.731 533.512 C 602.112 534.271 594.357 535.504 590.221 531.426 z"/><path transform="translate(0,0)" fill="rgb(8,4,19)" d="M 101.265 1638.51 L 102.821 1639.85 C 103.907 1643.67 103.582 1649.45 103.572 1653.6 L 101.378 1652.31 C 100.358 1647.81 100.98 1643.19 101.265 1638.51 z"/></svg>