<svg version="1.1" xmlns="http://www.w3.org/2000/svg" style="display: block;" viewBox="0 0 2048 2048" width="1024" height="1024" preserveAspectRatio="none"><defs><linearGradient id="Gradient1" gradientUnits="userSpaceOnUse" x1="829.898" y1="983.499" x2="839.949" y2="959.861"><stop class="stop0" offset="0" stop-opacity="1" stop-color="rgb(43,54,64)"/><stop class="stop1" offset="1" stop-opacity="1" stop-color="rgb(68,65,72)"/></linearGradient><linearGradient id="Gradient2" gradientUnits="userSpaceOnUse" x1="647.757" y1="1152.69" x2="652.392" y2="1128.53"><stop class="stop0" offset="0" stop-opacity="1" stop-color="rgb(45,50,56)"/><stop class="stop1" offset="1" stop-opacity="1" stop-color="rgb(64,59,77)"/></linearGradient><linearGradient id="Gradient3" gradientUnits="userSpaceOnUse" x1="1054.87" y1="2050.52" x2="991.63" y2="-4.3159"><stop class="stop0" offset="0" stop-opacity="1" stop-color="rgb(17,21,32)"/><stop class="stop1" offset="1" stop-opacity="1" stop-color="rgb(43,50,63)"/></linearGradient></defs><path transform="translate(0,0)" fill="rgb(253,252,252)" d="M 0 0 L 2048 0 L 2048 2048 L 0 2048 L 0 0 z"/><path transform="translate(0,0)" fill="url(#Gradient3)" d="M 371.837 13.4356 C 399.617 11.2044 434.707 12.981 463.225 12.9957 L 633.075 12.921 L 1179.02 12.9595 L 1521.01 12.9257 L 1617.18 12.9969 C 1659.95 13.0444 1686.92 12.0326 1729.17 19.2589 C 1795.63 30.9359 1857.61 60.6109 1908.38 105.057 C 1981.21 169.68 2025.39 260.582 2031.22 357.776 C 2033.1 389.773 2031.86 432.188 2031.84 465.194 L 2031.78 657.595 L 2031.7 1238.05 L 2031.86 1547.5 L 2031.94 1630.92 C 2031.97 1665.28 2032.61 1692.58 2026.95 1726.65 C 2015.81 1795.31 1985.38 1859.39 1939.21 1911.42 C 1868.72 1990.43 1779.12 2027.97 1674.64 2033.93 L 741.773 2033.97 L 488.378 2033.9 C 438.947 2033.88 368.018 2036.52 321.246 2028.32 C 253.662 2016.97 190.614 1986.91 139.261 1941.53 C 65.7674 1877.1 21.4935 1785.66 16.5321 1688.05 C 14.6943 1657.53 15.8659 1618.29 15.8368 1587.12 L 15.6171 1406.07 L 15.6854 847.056 L 15.6567 511.564 L 15.5113 412.031 C 15.5942 379.862 15.094 351.782 20.4399 319.885 C 31.5562 252.029 61.6663 188.711 107.283 137.261 C 176.889 58.9407 268.332 19.5348 371.837 13.4356 z"/><path transform="translate(0,0)" fill="rgb(253,252,252)" d="M 545.229 554.208 L 1336.11 554.299 L 1572.08 554.231 C 1593.04 554.213 1714.05 552.563 1720.45 556.873 C 1724.67 562.347 1723.22 594.359 1723.23 602.633 L 1723.23 683.643 L 1723.19 933.436 L 1723.35 1489.53 C 1723.37 1571.29 1723.39 1653.14 1723.75 1734.9 C 1723.78 1741.38 1723.11 1747.14 1719.22 1752.4 C 1707.27 1757.22 1618.46 1755.14 1601.11 1755.13 L 1397.5 1755.14 L 727.291 1755.02 L 526.153 1755.06 L 465.49 1755.06 C 426.118 1755.04 395.394 1755.08 363.571 1727.85 C 326.141 1695.82 315.516 1640.73 349.892 1602.32 C 373.498 1575.94 404.558 1567.58 438.734 1565.42 C 438.953 1578.67 437.089 1665.67 439.242 1670.45 C 443.587 1673.9 448.189 1673.58 453.467 1673.97 C 480.348 1675.93 509.252 1675.31 529.757 1655.22 C 549.117 1636.24 545.075 1605.15 545.103 1580.08 L 545.162 1507.95 L 545.221 1276.05 L 545.229 554.208 z"/><path transform="translate(0,0)" fill="rgb(248,164,35)" d="M 1470.84 1489.29 C 1521.9 1487.06 1576.16 1490.22 1627.47 1489.32 C 1658.48 1488.78 1656.19 1514.45 1656.01 1537.11 C 1655.67 1578.15 1656.79 1620.32 1655.53 1661.41 C 1655.1 1675.68 1646.47 1682.48 1633.2 1684.85 L 1527.54 1685.11 C 1509.57 1685.16 1491.5 1685.38 1473.54 1685 C 1440.1 1684.3 1447.73 1654.67 1446.87 1631.45 C 1446.5 1621.61 1446.85 1611.39 1446.85 1601.54 L 1446.88 1544.31 C 1446.91 1520.23 1440.72 1494.06 1470.84 1489.29 z"/><path transform="translate(0,0)" fill="rgb(253,252,252)" d="M 1486.06 1545.86 C 1507.45 1545.87 1558.83 1539.29 1544.68 1581.57 C 1543.03 1586.51 1535.87 1590.9 1531.31 1593.14 C 1537.13 1604.26 1543.09 1615.3 1549.2 1626.27 L 1532.75 1626.1 C 1527.65 1617.1 1521.97 1605.35 1517.12 1595.99 L 1500.08 1595.99 L 1500 1625.78 L 1486.28 1625.85 L 1486.06 1545.86 z"/><path transform="translate(0,0)" fill="rgb(248,164,35)" d="M 1500.11 1557.58 C 1514.62 1557.49 1542.9 1555.81 1529.84 1579.98 C 1520.86 1586.36 1511.26 1584.52 1500.21 1584.12 L 1500.11 1557.58 z"/><path transform="translate(0,0)" fill="rgb(253,252,252)" d="M 1580.17 1545.17 C 1594.48 1544.28 1616.68 1547.08 1617.33 1567.44 C 1617.46 1571.53 1612.36 1578.26 1609.08 1580.82 L 1604.61 1584.3 C 1615.11 1590.18 1623.03 1597.87 1617.5 1611.08 C 1610.77 1627.15 1586.82 1631.27 1572.5 1623.85 C 1563.05 1618.96 1560.5 1612.23 1557.64 1602.73 C 1562.88 1602.79 1567 1602.68 1572.19 1603.57 C 1572.87 1605.09 1573.64 1606.58 1574.49 1608.01 C 1584.44 1624.37 1613.29 1611.42 1601.77 1595.47 C 1597.7 1589.83 1585.95 1590.78 1579.54 1590.93 C 1579.26 1586.29 1578.1 1583.06 1581.93 1580.17 C 1609.65 1580.62 1608.7 1556.93 1585.88 1555.79 C 1581.35 1555.56 1575.88 1564.55 1573.04 1568.07 C 1569.36 1569.49 1564.09 1568.8 1559.97 1568.6 C 1564.49 1555.13 1566.84 1550.51 1580.17 1545.17 z"/><path transform="translate(0,0)" fill="rgb(50,53,180)" d="M 1097.78 912.117 C 1102.63 927.461 1113.41 958.312 1116.55 972.821 L 1119.45 979.703 C 1118.77 983.731 1146.37 1071.52 1149.81 1082.29 C 1150.4 1086.24 1149.72 1085.81 1151.91 1088.37 C 1156.28 1102.54 1162.06 1119.71 1165.74 1133.78 C 1177.45 1133.66 1246.31 1131.89 1251.94 1134.78 C 1254.99 1139.27 1255.21 1143.93 1251.71 1148.12 C 1242.4 1150.25 1183.92 1148.82 1170.07 1149.14 C 1172.72 1156.82 1185.52 1202.28 1187.91 1205.43 L 1189.18 1212.36 C 1196.27 1234.73 1203.09 1257.18 1209.65 1279.71 C 1211.29 1285.17 1217.66 1304.44 1218.27 1308.36 C 1219.25 1312.87 1219.29 1314.14 1221.5 1318.06 C 1224.72 1331.55 1242.71 1395.74 1247.79 1404.99 L 1262.68 1404.92 C 1262.15 1397.77 1260.37 1369.61 1280.75 1385.59 C 1283.83 1388.01 1282.64 1405.86 1283.02 1409.79 C 1281.4 1422.95 1290.35 1454.6 1266.45 1446.95 C 1260.38 1445.01 1264.83 1431.95 1262.19 1425.74 C 1259.99 1424.45 1258.53 1424.89 1255.9 1425.03 L 1254.81 1425.98 C 1257.4 1443.14 1267.85 1465.54 1271.66 1482.79 C 1274.11 1493.9 1272.73 1509.37 1272.95 1521.12 C 1273.04 1525.97 1273.46 1539.48 1272.42 1543.35 C 1269.25 1545.11 1267.7 1545.73 1264.31 1547.06 C 1260.11 1548.29 1250.92 1550.47 1248.17 1553.16 L 1247 1552.14 C 1244.16 1552.17 1242.8 1552.4 1240.15 1551.31 C 1237.09 1546.24 1219.65 1486.84 1216.59 1476.88 L 1150.23 1259.7 L 1149.18 1258.81 C 1145.78 1255.92 1143.36 1254.94 1143.09 1251.53 L 1146.36 1248.8 C 1146.47 1248.19 1146.74 1247.07 1146.52 1246.55 C 1143.02 1238.16 1131.72 1190.16 1126.92 1187 L 1126.48 1180.61 C 1123.35 1170.15 1120.54 1160.61 1117.98 1149.97 L 1104.44 1149.83 C 1109.09 1149.14 1110.56 1149.71 1113.77 1147 C 1115.5 1141.88 1113.98 1138.32 1111.95 1133.06 C 1111.95 1129.01 1107.21 1114.81 1105.66 1110.13 C 1105.23 1107.86 1104.65 1106.15 1103.97 1103.95 C 1101.13 1096.4 1098.75 1088.15 1096.36 1080.41 L 1094.73 1073.97 C 1090.96 1063.29 1087.78 1051.06 1083.43 1040.76 C 1082.85 1037.42 1082.6 1036.46 1081.55 1033.23 C 1081.81 1028.12 1060.45 964.259 1057.19 953.209 C 1072.71 947.216 1088.33 919.971 1097.78 912.117 z"/><path transform="translate(0,0)" fill="rgb(41,42,160)" d="M 1247.79 1404.99 L 1262.68 1404.92 C 1263.2 1411.05 1264.66 1419.28 1259.91 1423.72 C 1251.88 1424.66 1248.73 1411.16 1247.79 1404.99 z"/><path transform="translate(0,0)" fill="rgb(41,42,160)" d="M 1213.82 1374.69 C 1216.2 1375.16 1215.31 1374.86 1217.38 1376.31 C 1223.18 1387.17 1250.72 1478.61 1251.62 1490.89 C 1250.09 1493.19 1248.55 1493.07 1245.32 1494.29 L 1242.94 1492.98 C 1238.22 1482.15 1230.99 1455.83 1227.16 1443.23 C 1220.87 1422.53 1213.01 1399.76 1207.46 1379.13 C 1208.67 1376.73 1210.89 1376.27 1213.82 1374.69 z"/><path transform="translate(0,0)" fill="rgb(50,53,180)" d="M 933.221 972.748 C 935.751 967.863 949.402 921.659 951.61 914.176 C 962.797 921.344 971.368 941.951 992.399 952.695 C 986.857 970.482 981.415 988.299 976.073 1006.15 C 974.25 1012.18 969.437 1026.63 968.44 1032.18 C 967.049 1036.15 966.788 1036.77 966.366 1040.88 C 962.312 1050.27 958.924 1063.05 955.367 1072.99 C 954.276 1075.59 953.125 1077.52 953.316 1080.28 C 951.886 1086.38 948.885 1098.53 945.956 1103.94 C 944.655 1106.73 944.537 1106.57 944.571 1109.6 C 942.901 1117.69 939.389 1125.84 938.144 1133.02 C 936.734 1137.54 934.033 1143.94 935.017 1148.16 C 937.036 1148.97 937.347 1149.09 939.475 1149.5 C 937.504 1149.74 934.647 1149.62 933.72 1150.85 C 929.969 1155.82 924.718 1174.79 923.99 1180.69 C 921.668 1183.47 920.77 1185.1 921.879 1188.73 C 920.286 1190.66 904.053 1244.37 903.799 1248.63 L 907.716 1251.77 C 907.647 1257.33 901.327 1257.51 899.214 1263.43 C 895.783 1273.05 892.993 1282.81 890.052 1292.59 L 874.22 1345.25 L 826.29 1501.58 C 822.366 1514.6 815.602 1538.23 810.434 1551.75 C 809.962 1552.98 804.504 1552.67 802.819 1552.59 C 798.891 1551.01 790.889 1549.28 786.504 1548.19 C 784.373 1546.83 780.668 1545.3 778.234 1544.2 C 778.171 1526.78 777.59 1502.87 778.826 1486.01 C 779.471 1477.21 788.992 1450.84 791.843 1440.76 C 801.119 1407.96 813.943 1373.3 822.588 1340.6 C 818.707 1341.53 805.128 1344.56 804.285 1339.01 C 802.629 1328.1 800.896 1284.54 804.463 1276.24 C 806.244 1274.68 806.794 1274.29 809.086 1273.87 C 826.459 1270.72 823.337 1286.07 823.045 1297.92 L 835.415 1297.81 C 841.694 1271.51 852.737 1239.29 860.475 1212.46 L 861.587 1208.01 L 860.231 1206.21 C 860.413 1206.18 860.613 1206.2 860.777 1206.12 C 864.58 1204.13 877.609 1156.48 879.834 1149.42 C 882.782 1145.57 883.843 1138.69 885.005 1133.78 C 885.276 1127.81 895.582 1096.27 898.059 1088.38 L 899.832 1082.82 C 906.04 1056.9 923.474 1007.99 930.685 980.457 C 930.28 979.551 929.876 978.646 929.472 977.74 L 933.221 972.748 z"/><path transform="translate(0,0)" fill="rgb(41,42,160)" d="M 822.588 1340.6 C 818.707 1341.53 805.128 1344.56 804.285 1339.01 C 802.629 1328.1 800.896 1284.54 804.463 1276.24 C 806.244 1274.68 806.794 1274.29 809.086 1273.87 C 826.459 1270.72 823.337 1286.07 823.045 1297.92 L 823.945 1317.6 C 823.142 1321.75 823.095 1322.39 823.038 1326.63 C 822.729 1331.57 822.484 1335.6 822.588 1340.6 z"/><path transform="translate(0,0)" fill="rgb(34,34,112)" d="M 823.045 1297.92 L 835.415 1297.81 L 829.599 1315.77 L 823.945 1317.6 L 823.045 1297.92 z"/><path transform="translate(0,0)" fill="rgb(253,252,252)" d="M 829.599 1315.77 C 828.696 1319.59 826.714 1329.92 824.324 1332.46 C 823.321 1329.82 823.379 1329.47 823.038 1326.63 C 823.095 1322.39 823.142 1321.75 823.945 1317.6 L 829.599 1315.77 z"/><path transform="translate(0,0)" fill="rgb(253,252,252)" d="M 995.573 914.191 C 1003.83 910.327 1047.9 909.032 1057.28 911.297 C 1053.07 915.872 1050.27 918.731 1046.83 923.922 L 1048.35 925.051 C 1051.86 934.169 1054.46 943.812 1057.19 953.209 C 1060.45 964.259 1081.81 1028.12 1081.55 1033.23 C 1082.6 1036.46 1082.85 1037.42 1083.43 1040.76 C 1087.78 1051.06 1090.96 1063.29 1094.73 1073.97 L 1096.36 1080.41 C 1098.75 1088.15 1101.13 1096.4 1103.97 1103.95 C 1104.65 1106.15 1105.23 1107.86 1105.66 1110.13 C 1107.21 1114.81 1111.95 1129.01 1111.95 1133.06 C 1113.98 1138.32 1115.5 1141.88 1113.77 1147 C 1110.56 1149.71 1109.09 1149.14 1104.44 1149.83 L 1117.98 1149.97 C 1120.54 1160.61 1123.35 1170.15 1126.48 1180.61 L 1126.92 1187 C 1103.73 1178.38 1071.14 1164.26 1048.39 1154.32 L 1043.95 1153.44 L 1041.89 1152.52 C 1039.43 1154.14 1040.47 1153.04 1039.62 1156.85 C 1039.83 1157.51 1040.21 1158.89 1040.51 1159.44 L 1039.95 1160.32 C 1037.91 1161.47 1035.62 1162.63 1033.79 1164.03 C 1033.91 1179.61 1035.26 1225.69 1033.45 1239.2 C 1029.86 1242.77 1022.26 1242.53 1018.09 1240.12 C 1015.85 1236.61 1016.69 1174.79 1016.51 1165.1 C 1015.3 1162.2 1015.07 1161.24 1012.97 1158.81 L 1011.18 1159.23 L 1010.26 1158.85 L 1011.32 1157.26 C 1011.32 1153.58 1011.93 1155.11 1009.63 1152.45 L 1007.37 1152.49 L 1006.58 1151.61 C 981.062 1164.14 948.563 1176.99 921.879 1188.73 C 920.77 1185.1 921.668 1183.47 923.99 1180.69 C 924.718 1174.79 929.969 1155.82 933.72 1150.85 C 934.647 1149.62 937.504 1149.74 939.475 1149.5 C 937.347 1149.09 937.036 1148.97 935.017 1148.16 C 934.033 1143.94 936.734 1137.54 938.144 1133.02 C 939.389 1125.84 942.901 1117.69 944.571 1109.6 C 944.537 1106.57 944.655 1106.73 945.956 1103.94 C 948.885 1098.53 951.886 1086.38 953.316 1080.28 C 953.125 1077.52 954.276 1075.59 955.367 1072.99 C 958.924 1063.05 962.312 1050.27 966.366 1040.88 C 966.788 1036.77 967.049 1036.15 968.44 1032.18 C 969.437 1026.63 974.25 1012.18 976.073 1006.15 C 981.415 988.299 986.857 970.482 992.399 952.695 C 994.04 945.007 998.2 932.474 1000.65 924.604 L 1002.18 923.914 C 1000.99 920.256 998.052 917.236 995.573 914.191 z"/><path transform="translate(0,0)" fill="rgb(41,42,160)" d="M 1016.77 1046 C 1022.47 1045.91 1027.89 1045.74 1033.59 1046.12 C 1034.46 1063.66 1032.63 1105.43 1035.46 1119.26 C 1035.29 1122.17 1034.76 1122.9 1037.2 1125.07 C 1037.82 1128.45 1037.06 1127.02 1039.74 1129.41 C 1043.12 1129.89 1043.13 1130.32 1046.2 1128.01 L 1046.9 1128.06 C 1050.5 1130.96 1050.64 1131.21 1055.01 1132.3 C 1071.73 1125.36 1088.42 1115.96 1105.66 1110.13 C 1107.21 1114.81 1111.95 1129.01 1111.95 1133.06 C 1113.98 1138.32 1115.5 1141.88 1113.77 1147 C 1110.56 1149.71 1109.09 1149.14 1104.44 1149.83 L 1117.98 1149.97 C 1120.54 1160.61 1123.35 1170.15 1126.48 1180.61 L 1126.92 1187 C 1103.73 1178.38 1071.14 1164.26 1048.39 1154.32 L 1043.95 1153.44 L 1041.89 1152.52 C 1039.43 1154.14 1040.47 1153.04 1039.62 1156.85 C 1039.83 1157.51 1040.21 1158.89 1040.51 1159.44 L 1039.95 1160.32 C 1037.91 1161.47 1035.62 1162.63 1033.79 1164.03 C 1033.91 1179.61 1035.26 1225.69 1033.45 1239.2 C 1029.86 1242.77 1022.26 1242.53 1018.09 1240.12 C 1015.85 1236.61 1016.69 1174.79 1016.51 1165.1 C 1015.3 1162.2 1015.07 1161.24 1012.97 1158.81 L 1011.18 1159.23 L 1010.26 1158.85 L 1011.32 1157.26 C 1011.32 1153.58 1011.93 1155.11 1009.63 1152.45 L 1007.37 1152.49 L 1006.58 1151.61 C 981.062 1164.14 948.563 1176.99 921.879 1188.73 C 920.77 1185.1 921.668 1183.47 923.99 1180.69 C 924.718 1174.79 929.969 1155.82 933.72 1150.85 C 934.647 1149.62 937.504 1149.74 939.475 1149.5 C 937.347 1149.09 937.036 1148.97 935.017 1148.16 C 934.033 1143.94 936.734 1137.54 938.144 1133.02 C 939.389 1125.84 942.901 1117.69 944.571 1109.6 C 960.707 1116.7 980.63 1124.81 996.172 1132.46 C 1000.06 1133.14 1002.69 1131.81 1005.54 1129.39 L 1006.61 1128.4 C 1007.57 1128.99 1008.05 1129 1009.18 1129.32 C 1013.69 1127.14 1016.9 1123.54 1015.82 1118.26 C 1018.4 1098.83 1015.78 1067.23 1016.77 1046 z"/><path transform="translate(0,0)" fill="rgb(253,252,252)" d="M 993.315 1150.65 C 998.798 1149.49 1001.14 1149.8 1006.58 1151.61 C 981.062 1164.14 948.563 1176.99 921.879 1188.73 C 920.77 1185.1 921.668 1183.47 923.99 1180.69 C 924.718 1174.79 929.969 1155.82 933.72 1150.85 C 934.647 1149.62 937.504 1149.74 939.475 1149.5 C 954.603 1151.05 980.916 1148.62 993.315 1150.65 z"/><path transform="translate(0,0)" fill="rgb(52,55,66)" d="M 993.315 1150.65 C 998.798 1149.49 1001.14 1149.8 1006.58 1151.61 C 981.062 1164.14 948.563 1176.99 921.879 1188.73 C 920.77 1185.1 921.668 1183.47 923.99 1180.69 C 946.719 1170.66 971.058 1161.11 993.315 1150.65 z"/><path transform="translate(0,0)" fill="rgb(253,252,252)" d="M 1104.44 1149.83 L 1117.98 1149.97 C 1120.54 1160.61 1123.35 1170.15 1126.48 1180.61 L 1126.92 1187 C 1103.73 1178.38 1071.14 1164.26 1048.39 1154.32 C 1051.41 1152.42 1053.37 1150.72 1056.87 1150.46 C 1067.2 1149.21 1092.32 1150.04 1104.44 1149.83 z"/><path transform="translate(0,0)" fill="rgb(52,55,66)" d="M 1048.39 1154.32 C 1051.41 1152.42 1053.37 1150.72 1056.87 1150.46 C 1079.26 1160.99 1103.63 1170.45 1126.48 1180.61 L 1126.92 1187 C 1103.73 1178.38 1071.14 1164.26 1048.39 1154.32 z"/><path transform="translate(0,0)" fill="rgb(253,252,252)" d="M 944.571 1109.6 C 960.707 1116.7 980.63 1124.81 996.172 1132.46 C 984.213 1134.05 951.981 1133.1 938.144 1133.02 C 939.389 1125.84 942.901 1117.69 944.571 1109.6 z"/><path transform="translate(0,0)" fill="rgb(253,252,252)" d="M 1105.66 1110.13 C 1107.21 1114.81 1111.95 1129.01 1111.95 1133.06 C 1096.55 1133.11 1069.97 1133.86 1055.01 1132.3 C 1071.73 1125.36 1088.42 1115.96 1105.66 1110.13 z"/><path transform="translate(0,0)" fill="rgb(253,252,252)" d="M 968.44 1032.18 C 984.216 1059.85 1000.5 1090.17 1015.82 1118.26 C 1016.9 1123.54 1013.69 1127.14 1009.18 1129.32 C 1008.05 1129 1007.57 1128.99 1006.61 1128.4 L 1005.54 1129.39 C 1002.69 1131.81 1000.06 1133.14 996.172 1132.46 C 980.63 1124.81 960.707 1116.7 944.571 1109.6 C 944.537 1106.57 944.655 1106.73 945.956 1103.94 C 948.885 1098.53 951.886 1086.38 953.316 1080.28 C 953.125 1077.52 954.276 1075.59 955.367 1072.99 C 958.924 1063.05 962.312 1050.27 966.366 1040.88 C 966.788 1036.77 967.049 1036.15 968.44 1032.18 z"/><path transform="translate(0,0)" fill="rgb(253,252,252)" d="M 953.316 1080.28 C 971.447 1096.12 988.511 1112.54 1006.61 1128.4 L 1005.54 1129.39 C 1002.69 1131.81 1000.06 1133.14 996.172 1132.46 C 980.63 1124.81 960.707 1116.7 944.571 1109.6 C 944.537 1106.57 944.655 1106.73 945.956 1103.94 C 948.885 1098.53 951.886 1086.38 953.316 1080.28 z"/><path transform="translate(0,0)" fill="rgb(52,55,66)" d="M 945.956 1103.94 C 964.989 1111.18 986.625 1121.18 1005.54 1129.39 C 1002.69 1131.81 1000.06 1133.14 996.172 1132.46 C 980.63 1124.81 960.707 1116.7 944.571 1109.6 C 944.537 1106.57 944.655 1106.73 945.956 1103.94 z"/><path transform="translate(0,0)" fill="rgb(52,55,66)" d="M 968.44 1032.18 C 984.216 1059.85 1000.5 1090.17 1015.82 1118.26 C 1016.9 1123.54 1013.69 1127.14 1009.18 1129.32 C 1008.05 1129 1007.57 1128.99 1006.61 1128.4 C 988.511 1112.54 971.447 1096.12 953.316 1080.28 C 953.125 1077.52 954.276 1075.59 955.367 1072.99 C 974.637 1090.2 994.84 1109.07 1013.82 1126.64 C 1000.18 1099.96 981.05 1067.83 966.366 1040.88 C 966.788 1036.77 967.049 1036.15 968.44 1032.18 z"/><path transform="translate(0,0)" fill="rgb(253,252,252)" d="M 1083.43 1040.76 C 1087.78 1051.06 1090.96 1063.29 1094.73 1073.97 L 1096.36 1080.41 C 1098.75 1088.15 1101.13 1096.4 1103.97 1103.95 C 1104.65 1106.15 1105.23 1107.86 1105.66 1110.13 C 1088.42 1115.96 1071.73 1125.36 1055.01 1132.3 C 1050.64 1131.21 1050.5 1130.96 1046.9 1128.06 L 1046.2 1128.01 C 1043.13 1130.32 1043.12 1129.89 1039.74 1129.41 C 1037.06 1127.02 1037.82 1128.45 1037.2 1125.07 C 1044.11 1115.65 1051.7 1100.4 1057.49 1089.62 C 1066.12 1073.55 1075.25 1056.98 1083.43 1040.76 z"/><path transform="translate(0,0)" fill="rgb(253,252,252)" d="M 1096.36 1080.41 C 1098.75 1088.15 1101.13 1096.4 1103.97 1103.95 C 1104.65 1106.15 1105.23 1107.86 1105.66 1110.13 C 1088.42 1115.96 1071.73 1125.36 1055.01 1132.3 C 1050.64 1131.21 1050.5 1130.96 1046.9 1128.06 L 1046.2 1128.01 C 1048.82 1123.35 1090.06 1086.26 1096.36 1080.41 z"/><path transform="translate(0,0)" fill="rgb(52,55,66)" d="M 1103.97 1103.95 C 1104.65 1106.15 1105.23 1107.86 1105.66 1110.13 C 1088.42 1115.96 1071.73 1125.36 1055.01 1132.3 C 1050.64 1131.21 1050.5 1130.96 1046.9 1128.06 C 1065.47 1121.18 1084.32 1110.93 1103.97 1103.95 z"/><path transform="translate(0,0)" fill="rgb(52,55,66)" d="M 1094.73 1073.97 L 1096.36 1080.41 C 1090.06 1086.26 1048.82 1123.35 1046.2 1128.01 C 1043.13 1130.32 1043.12 1129.89 1039.74 1129.41 C 1037.06 1127.02 1037.82 1128.45 1037.2 1125.07 C 1044.23 1121.06 1055.52 1109.63 1061.88 1103.73 C 1072.66 1093.63 1083.61 1083.71 1094.73 1073.97 z"/><path transform="translate(0,0)" fill="rgb(41,42,160)" d="M 995.573 914.191 C 1003.83 910.327 1047.9 909.032 1057.28 911.297 C 1053.07 915.872 1050.27 918.731 1046.83 923.922 C 1039.81 924.232 1035.08 924.47 1028.06 923.935 C 1019.24 924.748 1023.57 933.692 1022.33 941.513 L 1022.38 924.019 C 1015.29 924.192 1009.26 924.149 1002.18 923.914 C 1000.99 920.256 998.052 917.236 995.573 914.191 z"/><path transform="translate(0,0)" fill="rgb(52,55,66)" d="M 1081.55 1033.23 C 1082.6 1036.46 1082.85 1037.42 1083.43 1040.76 C 1075.25 1056.98 1066.12 1073.55 1057.49 1089.62 C 1051.7 1100.4 1044.11 1115.65 1037.2 1125.07 C 1034.76 1122.9 1035.29 1122.17 1035.46 1119.26 C 1043.59 1100.35 1070.89 1050.5 1081.55 1033.23 z"/><path transform="translate(0,0)" fill="rgb(52,55,66)" d="M 1022.33 941.513 C 1023.57 933.692 1019.24 924.748 1028.06 923.935 C 1028.18 932.512 1029.5 953.676 1026.3 960.602 L 1024.83 961.545 L 1023.18 960.654 C 1021.76 954.543 1022.25 947.874 1022.33 941.513 z"/><path transform="translate(0,0)" fill="rgb(52,55,66)" d="M 1021.97 985.401 C 1023.58 985.577 1026.41 985.5 1027.1 986.515 C 1029.97 990.754 1028.46 1004.53 1028.29 1009.96 C 1023.8 1009.28 1025.35 1010.34 1022.83 1007.73 C 1021.26 1000.7 1022 992.708 1021.97 985.401 z"/><path transform="translate(0,0)" fill="rgb(50,53,180)" d="M 1009.38 711.161 L 1010.19 712.665 C 1014.21 714.551 1032.91 713.504 1037.95 712.856 C 1039.6 710.752 1039.5 705.7 1039.8 702.484 C 1039.83 705.88 1039.44 709.706 1041.1 712.491 C 1054.83 718.075 1086.83 705.028 1094.27 722.459 C 1097.94 731.042 1097.58 841.72 1096.35 856.997 L 1096.68 873.588 C 1094.75 876.362 1090.34 882.311 1089.05 885.055 L 1097.78 912.117 C 1088.33 919.971 1072.71 947.216 1057.19 953.209 C 1054.46 943.812 1051.86 934.169 1048.35 925.051 L 1046.83 923.922 C 1050.27 918.731 1053.07 915.872 1057.28 911.297 C 1047.9 909.032 1003.83 910.327 995.573 914.191 C 998.052 917.236 1000.99 920.256 1002.18 923.914 L 1000.65 924.604 C 998.2 932.474 994.04 945.007 992.399 952.695 C 971.368 941.951 962.797 921.344 951.61 914.176 C 954.426 904.848 957.351 895.554 960.383 886.294 C 960.284 884.581 954.126 875.858 952.6 873.351 L 952.722 858.201 L 952.792 768.056 C 952.793 755.071 952.11 739.064 953.652 726.329 C 954.353 720.539 959.752 717.048 964.289 714.079 C 975.535 713.358 1000.12 714.579 1008.61 713.124 L 1009.38 711.161 z"/><path transform="translate(0,0)" fill="rgb(41,42,160)" d="M 1089.05 885.055 L 1097.78 912.117 C 1088.33 919.971 1072.71 947.216 1057.19 953.209 C 1054.46 943.812 1051.86 934.169 1048.35 925.051 C 1050.03 924.973 1054.91 924.694 1056.28 924.371 C 1068.6 921.45 1082.42 895.514 1089.05 885.055 z"/><path transform="translate(0,0)" fill="rgb(41,42,160)" d="M 960.383 886.294 C 969.233 897.519 979.345 920.923 991.948 924.742 C 993.143 925.104 998.971 924.737 1000.65 924.604 C 998.2 932.474 994.04 945.007 992.399 952.695 C 971.368 941.951 962.797 921.344 951.61 914.176 C 954.426 904.848 957.351 895.554 960.383 886.294 z"/><path transform="translate(0,0)" fill="rgb(84,86,219)" d="M 952.722 858.201 C 963.429 866.465 981.631 900.129 995.573 914.191 C 998.052 917.236 1000.99 920.256 1002.18 923.914 L 1000.65 924.604 C 998.971 924.737 993.143 925.104 991.948 924.742 C 979.345 920.923 969.233 897.519 960.383 886.294 C 960.284 884.581 954.126 875.858 952.6 873.351 L 952.722 858.201 z"/><path transform="translate(0,0)" fill="rgb(84,86,219)" d="M 1096.35 856.997 L 1096.68 873.588 C 1094.75 876.362 1090.34 882.311 1089.05 885.055 C 1082.42 895.514 1068.6 921.45 1056.28 924.371 C 1054.91 924.694 1050.03 924.973 1048.35 925.051 L 1046.83 923.922 C 1050.27 918.731 1053.07 915.872 1057.28 911.297 C 1070.89 898.043 1085.16 867.79 1096.35 856.997 z"/><path transform="translate(0,0)" fill="rgb(253,252,252)" d="M 1051.39 771.705 C 1060.53 768.648 1070.42 773.583 1073.48 782.728 C 1076.54 791.874 1071.61 801.769 1062.47 804.832 C 1053.32 807.896 1043.42 802.962 1040.36 793.812 C 1037.3 784.662 1042.23 774.763 1051.39 771.705 z"/><path transform="translate(0,0)" fill="rgb(253,252,252)" d="M 987.208 771.697 C 996.417 768.854 1006.19 774.017 1009.03 783.227 C 1011.87 792.437 1006.7 802.205 997.49 805.042 C 988.283 807.877 978.521 802.714 975.683 793.508 C 972.844 784.303 978.004 774.539 987.208 771.697 z"/><path transform="translate(0,0)" fill="rgb(50,53,180)" d="M 1009.86 705.364 C 1009.8 704.174 1009.73 702.984 1009.65 701.796 C 1009.1 693.499 1007.43 693.894 1001.83 688.815 C 999.927 684.11 999.857 679.936 999.82 674.901 L 999.706 619.305 C 999.727 578.325 996.745 576.276 1038.75 577.133 C 1044.37 580.91 1046.09 583.022 1049.82 588.572 C 1050.92 617.136 1049.48 646.726 1050.04 675.382 C 1050.15 680.614 1049.93 686.65 1047.14 691.151 C 1043.42 693.475 1044.77 692.784 1040 693.069 L 1039.8 702.484 C 1039.5 705.7 1039.6 710.752 1037.95 712.856 C 1032.91 713.504 1014.21 714.551 1010.19 712.665 L 1009.38 711.161 L 1009.86 705.364 z"/><path transform="translate(0,0)" fill="rgb(41,42,160)" d="M 1010.18 692.532 C 1019.98 692.858 1030.18 692.908 1040 693.069 L 1039.8 702.484 C 1039.5 705.7 1039.6 710.752 1037.95 712.856 C 1032.91 713.504 1014.21 714.551 1010.19 712.665 L 1009.38 711.161 L 1009.86 705.364 C 1010.33 701.592 1010.17 696.442 1010.18 692.532 z"/><path transform="translate(0,0)" fill="rgb(52,55,66)" d="M 1011.18 1159.23 L 1012.97 1158.81 C 1015.07 1161.24 1015.3 1162.2 1016.51 1165.1 C 1012.75 1170.1 992.723 1210.43 989.337 1217.13 C 962.38 1270.06 935.884 1323.22 909.852 1376.61 C 899.012 1398.9 887.994 1421.11 876.799 1443.22 C 872.271 1452.3 863.417 1475.81 854.619 1479.65 C 853.591 1472.83 889.005 1404.8 894.963 1392.62 L 965.416 1250.28 C 980.788 1219.69 996.389 1190.19 1011.18 1159.23 z"/><path transform="translate(0,0)" fill="rgb(52,55,66)" d="M 1033.79 1164.03 C 1035.62 1162.63 1037.91 1161.47 1039.95 1160.32 C 1074.81 1232.51 1112.54 1306.43 1148.24 1378.54 L 1180.25 1443.39 C 1184.06 1451.13 1195.26 1470.02 1194.87 1477.82 L 1193.99 1479.43 C 1188.91 1478.5 1180.31 1457.74 1177.8 1452.53 L 1156.4 1408.92 L 1076.05 1246.44 C 1067.28 1228.7 1058.41 1211.01 1049.43 1193.38 C 1044.9 1184.48 1039.02 1172.16 1033.79 1164.03 z"/><path transform="translate(0,0)" fill="rgb(52,55,66)" d="M 1149.81 1082.29 L 1323.02 1009.82 L 1377.83 986.944 C 1385.75 983.688 1396 976.628 1404.97 979.141 L 1404.73 981.215 C 1398.58 985.29 1382.77 991.509 1375.28 994.666 L 1325.9 1015.45 C 1268.67 1039.51 1209.33 1065.42 1151.91 1088.37 C 1149.72 1085.81 1150.4 1086.24 1149.81 1082.29 z"/><path transform="translate(0,0)" fill="rgb(52,55,66)" d="M 898.059 1088.38 L 730.868 1018.01 L 684.101 998.432 C 674.321 994.441 651.818 987.601 646.119 979.505 L 646.686 977.908 C 652.689 977.339 701.548 998.671 711.238 1002.77 L 800.587 1040.42 L 861.609 1066.03 C 873.743 1071.11 888.547 1076.78 899.832 1082.82 L 898.059 1088.38 z"/><path transform="translate(0,0)" fill="rgb(52,55,66)" d="M 860.231 1206.21 L 861.587 1208.01 L 860.475 1212.46 C 805.571 1237.76 748.045 1259.88 692.543 1283.99 C 677.968 1290.32 663.265 1296.89 648.444 1302.57 L 646.783 1301.57 C 645.581 1298.25 645.549 1299.83 646.622 1296.67 C 668.551 1286.2 698.194 1274.8 721.117 1265.09 L 860.231 1206.21 z"/><path transform="translate(0,0)" fill="rgb(52,55,66)" d="M 1187.91 1205.43 C 1235 1224.93 1281.96 1244.72 1328.8 1264.8 L 1375.23 1284.5 C 1384.42 1288.35 1396.53 1291.52 1403.47 1298.47 L 1404.1 1300.74 C 1398.25 1303.44 1376.97 1292.07 1370.15 1289.17 L 1311.18 1264.28 C 1271.6 1247.48 1227.75 1230.13 1189.18 1212.36 L 1187.91 1205.43 z"/><path transform="translate(0,0)" fill="rgb(41,42,160)" d="M 879.834 1149.42 C 856.479 1148.63 821.083 1150.69 799.692 1148.45 C 797.589 1146.95 797.976 1147.82 797.287 1145.58 C 796.212 1142.1 796.615 1138.32 798.402 1135.15 C 803.889 1132.48 873.228 1133.72 885.005 1133.78 C 883.843 1138.69 882.782 1145.57 879.834 1149.42 z"/><path transform="translate(0,0)" fill="rgb(52,55,66)" d="M 1336.06 1138.04 C 1350.61 1137.74 1507.01 1137.04 1510.81 1138.64 L 1512.68 1144.19 C 1457.22 1144.13 1393.48 1145.69 1338.61 1144.02 C 1336.4 1142.35 1336.91 1141.53 1336.06 1138.04 z"/><path transform="translate(0,0)" fill="rgb(52,55,66)" d="M 1116.55 972.821 C 1140.7 931.57 1163.64 889.549 1187.87 848.348 C 1190.95 843.115 1199.05 827.57 1202.34 823.954 L 1204.06 823.531 C 1207.34 826.032 1206.59 828.672 1204.55 832.1 C 1181.12 871.395 1159.01 911.482 1136.1 951.084 C 1130.76 960.327 1125.31 970.87 1119.45 979.703 L 1116.55 972.821 z"/><path transform="translate(0,0)" fill="rgb(52,55,66)" d="M 929.472 977.74 C 909.942 945.635 891.938 911.558 873.001 879.032 C 866.648 868.121 845.59 835.471 844.494 824.826 L 845.491 823.827 C 852.614 828.213 875.179 870.719 880.35 879.817 L 933.221 972.748 L 929.472 977.74 z"/><path transform="translate(0,0)" fill="rgb(52,55,66)" d="M 1022.4 1324.54 C 1025.14 1324.85 1026.4 1324.61 1028.32 1326.47 C 1029.24 1335.12 1028.58 1358.92 1028.58 1368.6 L 1028.58 1451.28 C 1025.63 1451.08 1025.56 1451.1 1022.76 1450.19 C 1020.27 1442.47 1022.4 1339.52 1022.4 1324.54 z"/><path transform="translate(0,0)" fill="url(#Gradient2)" d="M 589.087 1138.13 C 616.779 1136.99 645.704 1138.58 673.526 1137.87 C 685.204 1137.57 698.805 1137.53 710.358 1138.24 C 712.507 1140.23 711.822 1140.44 712.254 1144.26 L 637.649 1144.53 C 623.116 1144.55 605.779 1145.01 591.619 1144 C 589.253 1142.39 589.913 1141.95 589.087 1138.13 z"/><path transform="translate(0,0)" fill="rgb(52,55,66)" d="M 1007.37 1152.49 L 1009.63 1152.45 C 1011.93 1155.11 1011.32 1153.58 1011.32 1157.26 L 1010.26 1158.85 C 990.966 1177.04 971.53 1195.07 951.957 1212.96 C 945.219 1219.08 931.733 1232.05 924.691 1236.49 L 922.615 1235.29 C 927.083 1222.31 992.33 1168.31 1007.37 1152.49 z"/><path transform="translate(0,0)" fill="rgb(52,55,66)" d="M 1040.51 1159.44 C 1040.21 1158.89 1039.83 1157.51 1039.62 1156.85 C 1040.47 1153.04 1039.43 1154.14 1041.89 1152.52 L 1043.95 1153.44 C 1055.12 1163.64 1126.29 1226.36 1128.41 1233.66 L 1127.94 1236.22 L 1126.63 1237.08 C 1123.6 1236.26 1048.83 1166.82 1040.51 1159.44 z"/><path transform="translate(0,0)" fill="rgb(34,34,112)" d="M 1248.17 1553.16 C 1250.92 1550.47 1260.11 1548.29 1264.31 1547.06 C 1268.68 1567.92 1268.91 1593.83 1268.97 1615.38 C 1261.85 1594.7 1254.92 1573.96 1248.17 1553.16 z"/><path transform="translate(0,0)" fill="rgb(34,34,112)" d="M 786.504 1548.19 C 790.889 1549.28 798.891 1551.01 802.819 1552.59 C 795.779 1573.22 788.515 1593.77 781.031 1614.24 C 781.463 1593.52 781.469 1567.84 786.504 1548.19 z"/><path transform="translate(0,0)" fill="url(#Gradient1)" d="M 803.166 942.351 C 807.02 943.47 867.617 994.442 869.535 998.304 L 867.677 1002.5 C 861.587 1001.46 809.746 953.603 801.875 947.216 C 801.087 946.575 802.767 943.367 803.166 942.351 z"/><path transform="translate(0,0)" fill="rgb(52,55,66)" d="M 1245.14 942.679 C 1246.83 943.362 1247.15 944.015 1248.61 945.365 C 1248.58 946.067 1248.54 946.77 1248.51 947.472 C 1231.21 964.757 1201.05 987.412 1184.25 1003.2 C 1182.14 1001.43 1181.25 1001.12 1180.51 998.517 C 1185.95 992.569 1198.08 982.988 1204.6 977.485 C 1218.27 966.067 1231.79 954.464 1245.14 942.679 z"/><path transform="translate(0,0)" fill="rgb(52,55,66)" d="M 1543.45 1137.95 C 1551.38 1138.04 1611.8 1137.2 1614.53 1138.55 L 1616.19 1144.37 C 1594.08 1144.5 1568.05 1145.01 1546.2 1144.07 C 1544.17 1142.28 1544.39 1141.02 1543.45 1137.95 z"/><path transform="translate(0,0)" fill="rgb(52,55,66)" d="M 1026.22 1537.5 L 1027.73 1538.81 C 1028.21 1540.24 1028.7 1542.02 1028.62 1543.52 C 1028.1 1553.09 1031.41 1577.94 1025.61 1584.37 C 1023.47 1583.37 1023.64 1583.41 1022.38 1581.39 C 1021.3 1570.82 1021.26 1550.97 1022.66 1540.07 C 1022.87 1538.47 1024.14 1538.47 1026.22 1537.5 z"/><path transform="translate(0,0)" fill="rgb(52,55,66)" d="M 1218.27 1308.36 C 1226.78 1314.23 1242 1325.65 1247.17 1334.27 L 1246.9 1335.82 C 1240.65 1335.35 1226.79 1322.52 1221.5 1318.06 C 1219.29 1314.14 1219.25 1312.87 1218.27 1308.36 z"/><path transform="translate(0,0)" fill="rgb(52,55,66)" d="M 738.198 1137.9 C 745.393 1137.84 757.574 1136.14 762.262 1139.92 L 762.594 1144.25 C 754.856 1144.3 743.388 1146.34 738.51 1142.58 L 738.198 1137.9 z"/><path transform="translate(0,0)" fill="rgb(52,55,66)" d="M 1286.98 1137.91 C 1294.26 1138.11 1304.84 1136.28 1311.09 1138.97 C 1312.47 1139.56 1312.39 1142.13 1312.73 1144.12 C 1305.77 1143.95 1293.84 1145.82 1288.21 1143.07 C 1287.04 1142.49 1287.18 1139.7 1286.98 1137.91 z"/><path transform="translate(0,0)" fill="rgb(52,55,66)" d="M 1021.97 1484.81 C 1026.48 1485.15 1025.81 1484.35 1028.19 1486.82 C 1029.84 1493.17 1028.71 1500.82 1028.43 1507.75 C 1026.11 1508.46 1026.53 1508.23 1023.99 1508.25 C 1020.55 1504.52 1021.94 1490.85 1021.97 1484.81 z"/><path transform="translate(0,0)" fill="rgb(52,55,66)" d="M 1022.03 1276.38 L 1026.63 1277.14 C 1030.53 1281.68 1028.81 1294.54 1028.69 1301.41 L 1024 1300.66 C 1020.78 1297.29 1022.16 1282.58 1022.03 1276.38 z"/><path transform="translate(0,0)" fill="rgb(52,55,66)" d="M 888.017 1012.95 C 892.441 1016.83 901.562 1022.65 903.443 1027.82 C 903.872 1028.99 902.363 1031.21 901.657 1032.62 C 896.5 1027.73 886.923 1022.1 885.473 1016.33 L 888.017 1012.95 z"/><path transform="translate(0,0)" fill="rgb(52,55,66)" d="M 1161.16 1014.65 C 1162.45 1015.17 1163.17 1015.92 1164.33 1016.81 L 1164.6 1018.82 C 1161.98 1022.85 1154.73 1028.83 1150.7 1032.71 C 1148.03 1032.06 1149.21 1032.62 1147.3 1030.66 C 1147.48 1026.14 1157.2 1018.35 1161.16 1014.65 z"/><path transform="translate(0,0)" fill="rgb(253,252,252)" d="M 417.687 585.421 C 431.043 583.392 454.876 586.294 468.016 588.603 L 467.845 862.436 L 467.764 1467.32 C 421.335 1465.29 385.63 1471.03 347.653 1499.16 C 335.675 1508.69 333.595 1512.62 323.859 1523.37 C 325.226 1490.39 324.368 1454.5 324.462 1421.18 L 324.33 1206.87 L 324.172 628.779 C 325.57 626.834 327.047 624.947 328.599 623.123 C 350.29 597.26 385.504 588.3 417.687 585.421 z"/><path transform="translate(0,0)" fill="rgb(232,231,234)" d="M 470.098 468.86 C 498.858 478.504 530.747 499.943 532.3 533.907 C 533.415 558.285 532.5 583.89 532.543 608.409 L 532.589 766.225 L 532.155 1262.12 C 512.979 1251.54 502.207 1250.95 480.393 1252.24 L 480.653 806.001 L 480.621 651.586 C 480.612 642.606 482.04 584.825 479.129 580.12 C 475.243 577.175 472.839 576.875 468.199 575.586 L 469.21 574.976 C 469.838 573.309 468.957 480.97 470.098 468.86 z"/><path transform="translate(0,0)" fill="rgb(232,231,234)" d="M 480.348 1265.23 C 502.321 1264.05 514.369 1264.66 532.895 1277.88 C 530.864 1369.23 533.583 1461.36 532.263 1552.8 C 532.078 1565.6 531.916 1579.02 532.258 1591.79 C 515.419 1571.13 494.929 1560.89 468.897 1555.65 C 469.32 1535.96 469.952 1499.29 468.41 1480.46 C 472.137 1480.98 474.127 1481.65 477.605 1480.26 C 479.687 1477.95 480.392 1476.89 480.36 1473.53 C 479.695 1404.51 482.076 1334.19 480.348 1265.23 z"/><path transform="translate(0,0)" fill="rgb(253,252,252)" d="M 324.036 608.522 C 325.152 583.177 323.575 560.312 329.541 535.185 C 344.759 471.093 413.023 454.719 470.098 468.86 C 468.957 480.97 469.838 573.309 469.21 574.976 L 468.199 575.586 C 417.607 567.461 363.399 572.861 324.036 608.522 z"/><path transform="translate(0,0)" fill="rgb(253,252,252)" d="M 324.125 1619.09 C 326.823 1578.22 314.465 1541.81 350.819 1512.6 C 384.941 1485.18 425.615 1476.89 468.41 1480.46 C 469.952 1499.29 469.32 1535.96 468.897 1555.65 C 444.417 1550.81 419.117 1552.16 395.288 1559.56 C 361.825 1569.96 340.226 1588.45 324.125 1619.09 z"/><path transform="translate(0,0)" fill="rgb(232,231,234)" d="M 451.435 1565.84 C 475.438 1569.24 498.232 1574.4 515.746 1592.24 C 533.618 1610.44 536.457 1630.8 517.5 1649.03 C 496.421 1664.24 475.721 1661.82 451.077 1660.79 L 451.435 1565.84 z"/><path transform="translate(0,0)" fill="rgb(253,252,252)" d="M 415.605 160.957 C 427.645 160.951 440.822 160.307 452.656 161.455 C 488.438 164.924 494.491 205.53 475.618 230.231 C 460.023 243.696 435.77 240.858 415.941 240.761 C 416.072 214.159 415.959 187.556 415.605 160.957 z"/><path transform="translate(0,0)" fill="rgb(52,55,66)" d="M 431.033 174.058 C 439.703 174.039 454.559 172.812 461.431 178.663 C 473.719 189.125 472.079 209.238 462.886 221.412 C 452.144 229.487 444.169 228.061 430.932 227.897 L 431.033 174.058 z"/><path transform="translate(0,0)" fill="rgb(253,252,252)" d="M 1135.22 160.944 L 1155.11 160.915 C 1162.32 178.614 1171.14 197.492 1178.95 215.066 C 1186.6 196.937 1194.84 179.201 1202.24 160.926 L 1221.27 160.979 C 1221.75 187.47 1221.99 213.965 1221.99 240.461 L 1206.94 240.694 L 1206.91 206.25 L 1206.79 183.365 C 1200.01 199.119 1192.35 215.385 1185.23 231.047 L 1172.07 231.094 C 1165.4 215.075 1157.08 198.892 1150.17 182.582 L 1150.48 240.972 L 1135.36 240.753 C 1135.66 213.862 1136.02 187.82 1135.22 160.944 z"/><path transform="translate(0,0)" fill="rgb(253,252,252)" d="M 1461.62 180.331 C 1472.51 180.87 1472.86 182.575 1481.28 189.65 L 1481.91 188.799 C 1481.79 185.903 1481.84 185.051 1482.16 182.161 C 1485.54 181.235 1492.9 181.702 1496.73 181.78 C 1496.74 201.991 1498.74 226.552 1495.53 246.557 C 1494.21 251.632 1488.96 258.953 1483.87 260.637 C 1466.46 266.391 1449.32 265.429 1440.69 248.468 C 1441.02 247.32 1441.33 247.126 1442.03 246.082 C 1452.7 243.257 1454.87 250.086 1465 251.945 C 1481.32 254.937 1481.64 241.902 1481.93 231.078 C 1441.09 267.228 1416.96 186.736 1461.62 180.331 z"/><path transform="translate(0,0)" fill="rgb(52,55,66)" d="M 1465.95 192.182 C 1486.35 194.201 1488.24 219.974 1469.74 228.654 C 1447.17 225.516 1447.82 197.419 1465.95 192.182 z"/><path transform="translate(0,0)" fill="rgb(253,252,252)" d="M 815.072 181.264 C 826.954 180.037 831.326 179.257 839.802 188.323 L 841.022 189.641 C 845.425 187.111 838.898 189.201 842.867 183.143 C 846.735 181.053 851.516 181.816 856.147 181.968 C 856.013 200.402 857.3 219.053 856.447 237.373 C 855.425 259.35 839.315 265.518 820.023 262.965 C 811.721 261.866 807.145 259.236 802.12 252.734 L 800.692 248.377 L 801.563 246.747 C 815.702 239.506 813.244 251.359 824.958 252.41 C 839.794 253.74 841.041 243.599 841.627 231.29 C 804.898 263.158 779.027 200.441 815.072 181.264 z"/><path transform="translate(0,0)" fill="rgb(52,55,66)" d="M 821.98 193.127 C 845.503 189.975 847.99 217.472 832.494 227.795 C 810.62 230.81 807.111 205.101 821.98 193.127 z"/><path transform="translate(0,0)" fill="rgb(253,252,252)" d="M 674.687 181.384 C 679.67 181.315 684.927 181.507 689.933 181.603 C 684.15 200.45 678.541 221.915 673.625 240.958 L 657.46 240.939 C 653.621 226.833 649.68 212.756 645.638 198.707 L 634.234 240.93 L 618.734 240.861 C 615.711 229.713 612.631 218.58 609.496 207.463 C 607.478 198.941 604.743 190.331 602.213 181.925 L 618.401 181.804 C 620.132 194.05 624.465 211.801 627.126 224.289 C 631.235 210.215 635.196 196.099 639.01 181.942 L 653.285 181.662 C 656.174 196.325 661.106 210.261 665.155 224.734 C 668.086 210.231 671.264 195.779 674.687 181.384 z"/><path transform="translate(0,0)" fill="rgb(253,252,252)" d="M 1262.11 180.353 C 1298.85 179.976 1290.13 213.417 1289.89 240.349 C 1285.67 240.412 1279.06 240.916 1275.32 239.613 C 1275.35 237.646 1275.35 236.925 1275.1 234.984 C 1263.37 235.439 1255.17 253.799 1237.51 231.66 C 1230.59 201.863 1259 209.997 1272.94 202.743 C 1275.95 198.517 1273.91 193.235 1269.4 191.496 C 1260.6 188.103 1249.6 202.723 1241.05 199.075 C 1238.5 196.19 1239.35 197.815 1238.53 193.952 C 1240.96 185.524 1254.38 181.228 1262.11 180.353 z"/><path transform="translate(0,0)" fill="rgb(52,55,66)" d="M 1274.91 213.503 C 1276.9 227.599 1266.93 233.187 1254.26 229.379 C 1242.62 214.682 1266.4 214.304 1274.91 213.503 z"/><path transform="translate(0,0)" fill="rgb(253,252,252)" d="M 1391.17 181.236 C 1435.43 177.43 1425.02 207.825 1425.94 240.567 C 1421.16 240.73 1416.16 241.286 1411.65 240.011 C 1411.38 238.651 1411.24 237.758 1411.07 236.354 L 1410.91 234.997 C 1399.7 235.133 1397.14 250.349 1377.11 236.576 C 1375.7 234.81 1374.48 232.897 1373.47 230.871 C 1359.84 202.916 1406.16 209.583 1410.83 199.684 C 1407.18 184.803 1392.59 194.086 1385.47 198.716 C 1384.19 199.547 1375.25 198.708 1373.2 198.538 C 1378.44 187.879 1379.96 185.64 1391.17 181.236 z"/><path transform="translate(0,0)" fill="rgb(52,55,66)" d="M 1401.51 214.233 C 1406.16 213.698 1407.25 212.824 1410.72 215.673 C 1412.68 224.074 1405.03 229.2 1397.85 231.138 C 1392.42 230.45 1388.46 229.624 1387.06 223.736 C 1389.31 215.652 1394.09 215.306 1401.51 214.233 z"/><path transform="translate(0,0)" fill="rgb(253,252,252)" d="M 560.52 181.113 C 603.555 178.218 593.507 208.321 594.063 240.537 C 589.294 240.644 584.178 241.133 579.681 239.865 C 579.469 238.014 579.268 236.817 578.896 234.991 C 566.994 235.502 564.195 250.263 544.795 236.289 C 541.564 232.012 539.208 226.843 539.637 221.25 C 541.128 201.854 577.594 210.573 578.61 198.416 C 573.554 187.714 563.508 190.334 556.902 198.356 C 552.191 199.68 546.834 198.724 541.816 198.277 C 542.378 197.089 542.955 195.907 543.546 194.733 C 548.026 185.847 551.106 184.188 560.52 181.113 z"/><path transform="translate(0,0)" fill="rgb(52,55,66)" d="M 571.515 214.313 C 575.022 213.758 576.215 213.282 578.805 215.542 C 580.602 224.472 571.873 229.671 564.462 231.452 C 559.452 229.889 558.446 229.702 555.482 225.861 C 553.633 216.548 564.95 215.12 571.515 214.313 z"/><path transform="translate(0,0)" fill="rgb(253,252,252)" d="M 1537.7 180.344 C 1561.19 181.242 1566.67 193.877 1568.31 215.018 C 1559.15 215.051 1530.28 211.777 1525.51 218.804 C 1526.39 231.855 1544.81 233.102 1552.03 224.591 C 1554.13 222.118 1559.37 222.529 1562.54 222.628 L 1564.25 222.689 C 1566.06 223.052 1565.17 222.676 1566.84 223.993 C 1566.17 233.138 1553.15 240.549 1545.08 241.981 C 1537.08 243.368 1528.86 241.513 1522.24 236.825 C 1501.81 222.201 1505.19 184.31 1537.7 180.344 z"/><path transform="translate(0,0)" fill="rgb(52,55,66)" d="M 1538.08 191.102 C 1544.92 192.245 1547.57 193.547 1552.08 198.851 C 1552.94 202.246 1553.12 200.63 1551.29 203.829 C 1547.81 206.027 1543.47 205.243 1539.18 205.079 C 1535.06 205.225 1532.42 205.588 1528.45 204.639 C 1525.57 202.27 1526.32 203.728 1525.86 200.259 C 1528.63 195.31 1532.89 193.004 1538.08 191.102 z"/><path transform="translate(0,0)" fill="rgb(253,252,252)" d="M 1337.17 180.367 C 1355.17 181.323 1359.87 190.836 1360.01 208.102 C 1360.1 219.015 1360 230.06 1360.01 240.981 L 1344.9 240.696 C 1345.16 226.172 1351.75 181.254 1324.48 194.925 C 1317.47 203.612 1319.98 228.213 1320.06 240.81 L 1305.02 240.68 L 1304.99 181.683 C 1308.89 181.577 1317.5 181.008 1320.75 182.443 C 1320.77 185.642 1320.57 185.022 1321.33 188.019 C 1327.85 183.274 1329.08 181.421 1337.17 180.367 z"/><path transform="translate(0,0)" fill="rgb(253,252,252)" d="M 756.613 181.145 C 794.181 177.356 785.208 214.039 785.438 240.736 L 770.867 240.94 C 770.61 228.926 774.042 204.175 765.461 194.959 C 762.718 192.013 758.2 192.28 754.369 192.454 C 740.903 200.425 745.676 225.993 745.807 240.822 L 730.969 240.706 C 730.62 221.392 730.946 201.138 730.961 181.75 C 735.348 181.539 742.351 180.524 745.802 183.926 C 747.482 185.583 744.208 185.118 747.888 186.691 C 750.98 184.856 753.621 183.14 756.613 181.145 z"/><path transform="translate(0,0)" fill="rgb(253,252,252)" d="M 1011.88 181.195 C 1029.51 179.413 1040.71 180.545 1047.44 198.392 C 1028.63 200.203 1035.73 193.778 1019.97 191.216 C 1017.05 190.74 1013.94 193.291 1012.05 195.718 C 1011.87 197.175 1011.27 198.77 1012.26 199.762 C 1021.99 209.535 1057.87 205.704 1046.66 229.112 C 1042.99 236.793 1039.06 238.532 1030.82 241.12 C 1012.46 243.606 1001.58 241 994.78 223.124 L 1009.41 222.911 C 1014.22 230.711 1019.38 231.97 1028.99 230.132 C 1031.55 229.642 1032.03 227.913 1032.79 225.807 C 1030.03 211.825 1006.22 219.224 999.532 207.65 C 991.833 194.323 1000.95 186.049 1011.88 181.195 z"/><path transform="translate(0,0)" fill="rgb(253,252,252)" d="M 903.714 161.09 L 918.907 161.085 L 918.844 228.316 C 931.051 228.252 943.89 228.658 956.147 228.872 L 956.126 241.002 L 903.663 240.866 C 904.368 214.759 903.928 187.232 903.714 161.09 z"/><path transform="translate(0,0)" fill="rgb(253,252,252)" d="M 1064.07 166.994 L 1079.53 167.011 L 1079.49 181.491 C 1086.98 181.406 1087.7 180.371 1092.2 186.192 C 1092.47 193.846 1084.84 193.118 1079.48 193.06 C 1079.66 201.752 1076.86 224.58 1084.01 229.184 C 1086.81 229.312 1087.19 229.268 1089.85 229.986 C 1091.95 232.897 1091.19 235.952 1090.98 239.745 C 1088.57 242.041 1078.88 241.201 1075.85 240.455 C 1055.67 235.488 1069.64 207.401 1063.62 193.927 C 1063.14 192.869 1057.43 192.858 1055.96 192.759 C 1054.41 190.395 1054.99 185.164 1055.48 182.338 C 1060.21 180.766 1059.33 182.893 1063.07 179.704 C 1065.07 175.706 1064.29 171.636 1064.07 166.994 z"/><path transform="translate(0,0)" fill="rgb(253,252,252)" d="M 524.564 181.188 C 527.844 180.94 530.671 180.245 533.383 181.81 C 539.737 197.029 520.186 193.895 517.414 198.686 C 512.322 207.488 514.382 230.623 514.538 240.81 L 500.217 240.868 C 498.153 232.755 499.57 193.39 499.34 182.048 L 514.727 181.682 L 514.757 188.22 L 515.731 188.423 C 519.073 184.665 520.145 183.559 524.564 181.188 z"/><path transform="translate(0,0)" fill="rgb(253,252,252)" d="M 1604.8 181.111 C 1607.96 180.787 1609.2 180.469 1612.35 181.207 C 1614.23 182.989 1615.46 183.604 1615.6 186.585 C 1616.13 198.042 1603.43 191.304 1598.22 198.906 C 1593.92 205.195 1595.56 232.582 1595.62 240.868 L 1582.29 240.791 L 1581.58 240.207 C 1580.01 234.774 1580.56 190.175 1580.32 181.848 C 1587.82 181.608 1592.64 180.013 1597.13 186.973 C 1599.72 184.873 1602.11 183.083 1604.8 181.111 z"/><path transform="translate(0,0)" fill="rgb(253,252,252)" d="M 700.246 181.441 L 715.076 181.142 C 715.034 192.375 716.308 231.511 714.793 240.875 L 700.24 240.786 C 700.627 221.006 700.629 201.221 700.246 181.441 z"/><path transform="translate(0,0)" fill="rgb(253,252,252)" d="M 969.221 181.49 L 982.718 181.308 C 982.842 201.093 982.763 220.879 982.481 240.663 L 967.679 240.703 C 967.726 232.746 967.027 184.842 969.221 181.49 z"/><path transform="translate(0,0)" fill="rgb(253,252,252)" d="M 702.716 157.71 C 705.505 155.93 709.049 155.833 711.931 157.459 C 714.814 159.084 716.564 162.168 716.482 165.476 C 716.401 168.784 714.501 171.777 711.542 173.259 C 707.283 175.391 702.1 173.816 699.749 169.674 C 697.398 165.531 698.702 160.273 702.716 157.71 z"/><path transform="translate(0,0)" fill="rgb(253,252,252)" d="M 971.187 158.426 C 975.31 156.158 980.491 157.65 982.778 161.763 C 985.065 165.875 983.598 171.063 979.496 173.369 C 975.366 175.691 970.137 174.212 967.834 170.072 C 965.532 165.932 967.036 160.709 971.187 158.426 z"/></svg>